<?xml version="1.0" standalone="no"?>
<!DOCTYPE svg PUBLIC "-//W3C//DTD SVG 1.1//EN" "http://www.w3.org/Graphics/SVG/1.1/DTD/svg11.dtd" >
<svg xmlns="http://www.w3.org/2000/svg" xmlns:xlink="http://www.w3.org/1999/xlink" version="1.1">
<metadata>
Created by FontForge 20170731 at Fri Mar 25 15:36:27 2016
 By Aleksey,,,
Copyright (c) 2013 Textaxis. v 1.0 by In~igo Jerez. Barcelona. All rights reserved.
</metadata>
<defs>
<font id="Eina02-Regular" horiz-adv-x="582" >
  <font-face 
    font-family="Eina02-Regular"
    font-weight="400"
    font-stretch="normal"
    units-per-em="1000"
    panose-1="2 0 0 0 0 0 0 0 0 0"
    ascent="768"
    descent="-232"
    x-height="509"
    cap-height="710"
    bbox="-62 -252 1216 1104"
    underline-thickness="50"
    underline-position="-150"
    unicode-range="U+0020-FB02"
  />
<missing-glyph horiz-adv-x="260" 
 />
    <glyph glyph-name="fi" unicode="fi" horiz-adv-x="576" 
d="M111 509v84q0 78 41 117.5t110 39.5l34 -2v-65q-10 2 -28 2q-43 0 -64.5 -21t-21.5 -68v-87h115v-60h-115v-449h-71v449h-99v60h99zM438 635q-23 0 -37 13.5t-14 35.5t14.5 36.5t36.5 14.5t36.5 -14.5t14.5 -36.5t-14.5 -35.5t-36.5 -13.5zM402 0v509h71v-509h-71z" />
    <glyph glyph-name="fl" unicode="fl" horiz-adv-x="561" 
d="M111 509v84q0 78 41 117.5t110 39.5l34 -2v-65q-10 2 -28 2q-43 0 -64.5 -21t-21.5 -68v-87h115v-60h-115v-449h-71v449h-99v60h99zM473 0h-71v750h71v-750z" />
    <glyph glyph-name=".notdef" horiz-adv-x="260" 
 />
    <glyph glyph-name=".null" horiz-adv-x="0" 
 />
    <glyph glyph-name="nonmarkingreturn" horiz-adv-x="333" 
 />
    <glyph glyph-name="space" unicode=" " horiz-adv-x="260" 
 />
    <glyph glyph-name="exclam" unicode="!" horiz-adv-x="247" 
d="M94 164l-12 546h83l-12 -546h-59zM124 -8q-23 0 -38.5 15t-15.5 37q0 23 15.5 38t38.5 15t38 -15t15 -38q0 -22 -15 -37t-38 -15z" />
    <glyph glyph-name="quotedbl" unicode="&#x22;" horiz-adv-x="403" 
d="M151 710v-296h-70v296h70zM321 710v-296h-69v296h69z" />
    <glyph glyph-name="numbersign" unicode="#" horiz-adv-x="616" 
d="M573 494l-12 -59h-109l-33 -162h108l-12 -59h-109l-45 -214h-61l44 214h-132l-44 -214h-62l45 214h-108l12 59h109l34 162h-110l13 59h110l45 216h62l-46 -216h132l46 216h61l-46 -216h108zM259 435l-34 -162h132l34 162h-132z" />
    <glyph glyph-name="dollar" unicode="$" 
d="M41 184l72 12q19 -136 165 -143v278l-23 7q-96 29 -141.5 77.5t-45.5 119.5q0 76 55 129.5t155 59.5v110h50v-110q95 -6 148 -60t63 -137l-71 -14q-7 58 -43 96.5t-97 46.5v-264l14 -3q107 -23 154 -74t47 -130q0 -80 -56 -134.5t-159 -63.5v-111h-50v110q-110 4 -167 59
t-70 139zM141 537q0 -51 29.5 -79.5t107.5 -51.5v251q-68 -4 -102.5 -36t-34.5 -84zM469 181q0 51 -31 82t-110 54v-263q66 7 103.5 40.5t37.5 86.5z" />
    <glyph glyph-name="percent" unicode="%" horiz-adv-x="940" 
d="M243 0l392 710h62l-392 -710h-62zM138 490q0 -168 93 -168q92 0 92 168q0 169 -92 169q-93 0 -93 -169zM76 490q0 107 39.5 166.5t115.5 59.5q75 0 114.5 -59.5t39.5 -166.5t-39.5 -166t-114.5 -59q-76 0 -115.5 59t-39.5 166zM617 219q0 -168 93 -168q92 0 92 168
q0 169 -92 169q-93 0 -93 -169zM555 219q0 107 39.5 166.5t115.5 59.5q75 0 114.5 -59.5t39.5 -166.5t-39.5 -166t-114.5 -59q-76 0 -115.5 59t-39.5 166z" />
    <glyph glyph-name="ampersand" unicode="&#x26;" horiz-adv-x="673" 
d="M118 548q0 74 51.5 125.5t136.5 51.5t137 -48.5t52 -118.5q0 -67 -42.5 -114.5t-138.5 -82.5l188 -191q45 69 45 163l-5 65h70q4 -29 4 -63q0 -123 -66 -215l118 -120h-94l-69 70q-92 -85 -225 -85q-110 0 -172 54.5t-62 140.5q0 135 156 201q-84 87 -84 167zM281 50
q104 0 177 68l-210 215q-66 -28 -98 -62.5t-32 -88.5q0 -61 43.5 -96.5t119.5 -35.5zM189 550q0 -62 71 -134l7 -8l30 13q71 31 99 60t28 77t-34 76.5t-84 28.5q-52 0 -84.5 -30.5t-32.5 -82.5z" />
    <glyph glyph-name="quotesingle" unicode="'" horiz-adv-x="232" 
d="M151 710v-296h-70v296h70z" />
    <glyph glyph-name="parenleft" unicode="(" horiz-adv-x="315" 
d="M163 292q0 -255 116 -458h-72q-117 187 -117 458t117 458h72q-116 -204 -116 -458z" />
    <glyph glyph-name="parenright" unicode=")" horiz-adv-x="315" 
d="M152 292q0 252 -117 458h72q118 -189 118 -458t-118 -458h-72q117 205 117 458z" />
    <glyph glyph-name="asterisk" unicode="*" horiz-adv-x="389" 
d="M361 583l-123 -39l76 -104l-45 -33l-75 105l-75 -105l-45 34l76 104l-123 39l18 53l122 -41l-1 129h56l-1 -130l123 41z" />
    <glyph glyph-name="plus" unicode="+" 
d="M257 509h69v-221h223v-68h-223v-220h-69v220h-224v68h224v221z" />
    <glyph glyph-name="comma" unicode="," horiz-adv-x="216" 
d="M79 94h84l-73 -203h-63z" />
    <glyph glyph-name="hyphen" unicode="-" horiz-adv-x="396" 
d="M352 288v-67h-308v67h308z" />
    <glyph glyph-name="period" unicode="." horiz-adv-x="216" 
d="M108 -8q-24 0 -39.5 15t-15.5 39q0 23 15.5 38.5t39.5 15.5q23 0 39 -15.5t16 -38.5q0 -24 -15.5 -39t-39.5 -15z" />
    <glyph glyph-name="slash" unicode="/" horiz-adv-x="408" 
d="M22 0l289 710h75l-289 -710h-75z" />
    <glyph glyph-name="zero" unicode="0" 
d="M291 -15q-118 0 -183 99t-65 271t65 271t183 99t183 -99t65 -271t-65 -271t-183 -99zM291 657q-81 0 -127 -77t-46 -225t46 -225t127 -77t127 77t46 225t-46 225t-127 77z" />
    <glyph glyph-name="one" unicode="1" 
d="M513 64v-64h-408v64h168v575h-160v50l176 21h57v-646h167z" />
    <glyph glyph-name="two" unicode="2" 
d="M131 484l-74 13q1 103 61 165.5t164 62.5q109 0 168 -60.5t59 -158.5q0 -68 -30.5 -124t-97.5 -115l-223 -198h368v-69h-471v62l284 261q95 87 95 180q0 71 -40 113t-112 42q-76 0 -113.5 -45t-37.5 -120v-9z" />
    <glyph glyph-name="three" unicode="3" 
d="M55 183l72 14q8 -64 50.5 -105t114.5 -41q74 0 117.5 38t43.5 110q0 65 -45 98.5t-124 33.5h-65v65h60q80 0 122.5 36t42.5 91q0 63 -39.5 99t-115.5 36q-67 0 -104.5 -37t-43.5 -92l-71 14q12 79 71 130.5t149 51.5q106 0 166.5 -55t60.5 -144q0 -54 -29.5 -97
t-87.5 -63q65 -19 96.5 -63t31.5 -104q0 -95 -63 -154.5t-173 -59.5q-101 0 -162.5 53.5t-74.5 144.5z" />
    <glyph glyph-name="four" unicode="4" 
d="M545 240v-66h-92v-174h-71v174h-356v64l349 472h78v-470h92zM382 608h-1l-272 -368h273v368z" />
    <glyph glyph-name="five" unicode="5" 
d="M57 171l72 18q9 -58 50 -97.5t113 -39.5t117.5 49.5t45.5 129.5q0 75 -44 121t-120 46q-58 0 -98.5 -30.5t-53.5 -64.5h-66l57 407h366v-69h-309l-32 -236q58 58 148 58q104 0 165 -67t61 -165q0 -104 -66.5 -175t-170.5 -71q-96 0 -158 50.5t-77 135.5z" />
    <glyph glyph-name="six" unicode="6" 
d="M297 -15q-110 0 -176 71t-66 178q0 236 268 476h97q-186 -151 -255 -304q57 55 143 55q104 0 168 -69t64 -168t-68.5 -169t-174.5 -70zM464 224q0 77 -47 125.5t-120 48.5q-74 0 -120.5 -48t-46.5 -126t46.5 -125.5t120.5 -47.5q73 0 120 48t47 125z" />
    <glyph glyph-name="seven" unicode="7" 
d="M103 547h-71v163h512v-65q-115 -146 -179 -295t-95 -350h-78q62 378 262 641h-351v-94z" />
    <glyph glyph-name="eight" unicode="8" 
d="M291 -15q-115 0 -177 57.5t-62 147.5q0 57 31 105.5t87 71.5q-48 23 -73 68t-25 97q0 82 58 137.5t161 55.5t161.5 -55.5t58.5 -138.5q0 -51 -26 -96t-74 -68q56 -23 87 -71.5t31 -105.5q0 -91 -61.5 -148t-176.5 -57zM291 332q-75 0 -119.5 -37.5t-44.5 -101.5
t42 -103.5t122 -39.5t122 39.5t42 103.5t-44.5 101.5t-119.5 37.5zM291 397q70 0 109.5 37t39.5 96q0 57 -38.5 93.5t-110.5 36.5t-110.5 -36t-38.5 -93q0 -60 39 -97t110 -37z" />
    <glyph glyph-name="nine" unicode="9" 
d="M286 725q110 0 176 -71.5t66 -177.5q0 -237 -269 -476h-96q181 146 254 303q-60 -55 -143 -55q-103 0 -167 69.5t-64 168.5t68.5 169t174.5 70zM119 486q0 -78 46.5 -126.5t120.5 -48.5q73 0 120 48.5t47 126.5q0 77 -47 125t-120 48q-74 0 -120.5 -48t-46.5 -125z" />
    <glyph glyph-name="colon" unicode=":" horiz-adv-x="216" 
d="M108 -8q-24 0 -39.5 15t-15.5 39q0 23 15.5 38.5t39.5 15.5q23 0 39 -15.5t16 -38.5q0 -24 -15.5 -39t-39.5 -15zM108 408q-24 0 -39.5 15.5t-15.5 38.5q0 24 15.5 39.5t39.5 15.5q23 0 39 -15.5t16 -39.5q0 -23 -16 -38.5t-39 -15.5z" />
    <glyph glyph-name="semicolon" unicode=";" horiz-adv-x="217" 
d="M108 408q-24 0 -39.5 15.5t-15.5 38.5q0 24 15.5 39.5t39.5 15.5q23 0 39 -15.5t16 -39.5q0 -23 -16 -38.5t-39 -15.5zM79 94h84l-73 -203h-63z" />
    <glyph glyph-name="less" unicode="&#x3c;" 
d="M528 101v-74l-474 194v61l474 194v-73l-385 -151z" />
    <glyph glyph-name="equal" unicode="=" 
d="M549 187v-69h-516v69h516zM549 390v-69h-516v69h516z" />
    <glyph glyph-name="greater" unicode="&#x3e;" 
d="M54 27v74l385 151l-385 151v73l474 -194v-61z" />
    <glyph glyph-name="question" unicode="?" horiz-adv-x="522" 
d="M112 510l-74 12q2 87 61.5 145t156.5 58q103 0 160 -55.5t57 -142.5q0 -49 -20 -90t-48 -69t-56 -52.5t-48 -52.5t-20 -58l4 -41h-70q-5 24 -5 42q0 41 19.5 75.5t47 59.5t55.5 50.5t47.5 59t19.5 72.5q0 64 -38.5 100t-104.5 36q-65 0 -104.5 -41t-39.5 -108zM254 -8
q-24 0 -39 14.5t-15 37.5t15 38t39 15q23 0 38 -15t15 -38q0 -22 -15 -37t-38 -15z" />
    <glyph glyph-name="at" unicode="@" horiz-adv-x="825" 
d="M502 278q0 49 -21 78t-64 29q-55 0 -87 -43.5t-32 -114.5q0 -108 93 -108q50 0 80.5 48t30.5 111zM653 28h67q-48 -70 -128 -110t-174 -40q-171 0 -269 102t-98 267q0 161 104.5 270.5t273.5 109.5q157 0 251 -87t94 -226q0 -111 -58 -179.5t-134 -68.5q-69 0 -85 62
q-40 -62 -118 -62q-66 0 -105 43t-39 117q0 88 47 150.5t127 62.5q85 0 115 -66l11 52h58l-44 -221q-3 -14 -3 -27q0 -26 12.5 -41t34.5 -15q57 0 90.5 54.5t33.5 133.5q0 124 -79 194.5t-210 70.5q-145 0 -230.5 -93t-85.5 -233q0 -148 82.5 -232.5t224.5 -84.5
q76 0 137.5 28t96.5 69z" />
    <glyph glyph-name="A" unicode="A" horiz-adv-x="672" 
d="M82 0h-78l292 710h79l293 -710h-81l-67 166h-370zM336 621h-2l-158 -387h317z" />
    <glyph glyph-name="B" unicode="B" horiz-adv-x="674" 
d="M371 0h-270v710h263q117 0 175 -51t58 -138q0 -57 -29.5 -100t-81.5 -61q59 -17 93 -61t34 -105q0 -94 -63 -144t-179 -50zM374 326h-200v-258h199q167 0 167 129q0 64 -44 96.5t-122 32.5zM367 642h-193v-248h193q157 0 157 124t-157 124z" />
    <glyph glyph-name="C" unicode="C" horiz-adv-x="781" 
d="M52 355q0 161 96.5 265.5t254.5 104.5q118 0 204.5 -60t120.5 -164l-71 -24q-25 83 -93 131t-161 48q-124 0 -199.5 -83t-75.5 -218t75.5 -218t199.5 -83q93 0 161 48t93 131l71 -24q-34 -104 -120.5 -164t-204.5 -60q-158 0 -254.5 104.5t-96.5 265.5z" />
    <glyph glyph-name="D" unicode="D" horiz-adv-x="763" 
d="M316 0h-215v710h215q186 0 290.5 -96t104.5 -259t-104.5 -259t-290.5 -96zM635 355q0 135 -82.5 210t-240.5 75h-138v-570h138q158 0 240.5 75t82.5 210z" />
    <glyph glyph-name="E" unicode="E" horiz-adv-x="636" 
d="M578 69v-69h-477v710h477v-69h-404v-246h383v-69h-383v-257h404z" />
    <glyph glyph-name="F" unicode="F" horiz-adv-x="583" 
d="M174 0h-73v710h452v-69h-379v-246h358v-69h-358v-326z" />
    <glyph glyph-name="G" unicode="G" horiz-adv-x="822" 
d="M403 725q118 0 204.5 -60t120.5 -164l-71 -24q-25 83 -93 131t-161 48q-124 0 -199.5 -83t-75.5 -218t76 -219t199 -84q112 0 186.5 70.5t78.5 188.5h-239v68h308v-379h-67v135q-38 -69 -109 -109t-161 -40q-157 0 -252.5 104t-95.5 265t96.5 265.5t254.5 104.5z" />
    <glyph glyph-name="H" unicode="H" horiz-adv-x="764" 
d="M662 710v-710h-73v326h-415v-326h-73v710h73v-315h415v315h73z" />
    <glyph glyph-name="I" unicode="I" horiz-adv-x="276" 
d="M174 710v-710h-73v710h73z" />
    <glyph glyph-name="J" unicode="J" horiz-adv-x="593" 
d="M48 240l75 13q-2 -12 -2 -40q0 -71 40 -115.5t113 -44.5q74 0 114.5 44t40.5 124v489h73v-487q0 -108 -61 -172t-167 -64q-105 0 -166 61t-61 165q0 5 0.5 14.5t0.5 12.5z" />
    <glyph glyph-name="K" unicode="K" horiz-adv-x="703" 
d="M700 0h-93l-278 362l-155 -152v-210h-73v710h73v-409l408 409h98l-300 -296z" />
    <glyph glyph-name="L" unicode="L" horiz-adv-x="541" 
d="M530 69v-69h-429v710h73v-641h356z" />
    <glyph glyph-name="M" unicode="M" horiz-adv-x="849" 
d="M167 710l257 -331l258 331h66v-710h-73v586l-249 -316h-4l-248 316v-586h-73v710h66z" />
    <glyph glyph-name="N" unicode="N" horiz-adv-x="766" 
d="M174 593v-593h-73v710h77l414 -594v594h73v-710h-77z" />
    <glyph glyph-name="O" unicode="O" horiz-adv-x="828" 
d="M128 355q0 -133 81 -217t205 -84t205 84t81 217t-81 217t-205 84t-205 -84t-81 -217zM776 355q0 -158 -100.5 -264t-261.5 -106t-261.5 106t-100.5 264t100.5 264t261.5 106t261.5 -106t100.5 -264z" />
    <glyph glyph-name="P" unicode="P" horiz-adv-x="644" 
d="M174 369h206q75 0 112.5 35.5t37.5 100.5q0 64 -37.5 99.5t-112.5 35.5h-206v-271zM174 299v-299h-73v710h276q117 0 173 -56.5t56 -148.5t-56.5 -149t-172.5 -57h-203z" />
    <glyph glyph-name="Q" unicode="Q" horiz-adv-x="828" 
d="M776 355q0 -97 -41 -178t-114 -131l33 -40q60 -71 128 -71l14 1v-69q-10 -1 -15 -1q-102 0 -177 88l-48 57q-70 -26 -142 -26q-161 0 -261.5 106t-100.5 264t100.5 264t261.5 106t261.5 -106t100.5 -264zM128 355q0 -133 81 -217t205 -84t205 84t81 217t-81 217t-205 84
t-205 -84t-81 -217z" />
    <glyph glyph-name="R" unicode="R" horiz-adv-x="672" 
d="M637 0h-88l-167 309h-208v-309h-73v710h292q115 0 171.5 -55.5t56.5 -144.5q0 -75 -40.5 -127t-122.5 -67zM545 510q0 60 -37.5 95t-111.5 35h-222v-261h222q74 0 111.5 34.5t37.5 96.5z" />
    <glyph glyph-name="S" unicode="S" horiz-adv-x="633" 
d="M37 196l71 16q7 -78 59 -119t136 -41q89 0 139.5 34.5t50.5 98.5q0 45 -23 74t-60 42t-81.5 22t-89 20t-81.5 29t-60 56.5t-23 96.5q0 82 65 141t178 59q108 0 171.5 -58t72.5 -151l-70 -15q-4 72 -50 115t-123 43q-80 0 -125.5 -35.5t-45.5 -95.5q0 -42 23 -68.5
t60 -39.5t81.5 -21.5t89.5 -21t82 -31.5t60 -58.5t23 -97.5q0 -92 -73.5 -148t-192.5 -56q-123 0 -188.5 58.5t-75.5 151.5z" />
    <glyph glyph-name="T" unicode="T" horiz-adv-x="545" 
d="M536 710v-70h-227v-640h-73v640h-227v70h527z" />
    <glyph glyph-name="U" unicode="U" horiz-adv-x="736" 
d="M368 -15q-129 0 -205.5 79t-76.5 229v417h73v-424q0 -108 54.5 -171t154.5 -63t154.5 63t54.5 171v424h73v-417q0 -150 -77 -229t-205 -79z" />
    <glyph glyph-name="V" unicode="V" horiz-adv-x="669" 
d="M579 710h80l-286 -710h-78l-285 710h82l243 -617h2z" />
    <glyph glyph-name="W" unicode="W" horiz-adv-x="1033" 
d="M516 613l-191 -613h-80l-228 710h82l185 -613h2l190 613h83l190 -614h2l186 614h79l-228 -711h-81l-189 614h-2z" />
    <glyph glyph-name="X" unicode="X" horiz-adv-x="675" 
d="M337 417l230 293h91l-277 -350l288 -360h-95l-237 303l-238 -303h-93l287 360l-279 350h94z" />
    <glyph glyph-name="Y" unicode="Y" horiz-adv-x="615" 
d="M530 710h85l-271 -458v-252h-73v252l-271 458h82l225 -381h2z" />
    <glyph glyph-name="Z" unicode="Z" horiz-adv-x="642" 
d="M594 710v-63l-455 -578h459v-69h-554v63l456 578h-452v69h546z" />
    <glyph glyph-name="bracketleft" unicode="[" horiz-adv-x="301" 
d="M279 -100v-66h-204v916h204v-66h-135v-784h135z" />
    <glyph glyph-name="backslash" unicode="\" horiz-adv-x="408" 
d="M97 710l289 -710h-75l-289 710h75z" />
    <glyph glyph-name="bracketright" unicode="]" horiz-adv-x="301" 
d="M22 -166v66h135v784h-135v66h204v-916h-204z" />
    <glyph glyph-name="asciicircum" unicode="^" 
d="M515 241h-73l-151 378l-151 -378h-73l193 469h61z" />
    <glyph glyph-name="underscore" unicode="_" horiz-adv-x="500" 
d="M500 -96v-67h-500v67h500z" />
    <glyph glyph-name="grave" unicode="`" horiz-adv-x="349" 
d="M103 759h78l66 -170h-66z" />
    <glyph glyph-name="a" unicode="a" horiz-adv-x="580" 
d="M278 460q-124 0 -144 -101l-67 14q14 68 66.5 108t147.5 40q106 0 159 -51.5t53 -139.5v-223q0 -49 43 -49l18 2v-59q-10 -3 -32 -3q-36 0 -63 22t-33 59q-29 -43 -81.5 -67t-114.5 -24q-88 0 -133 40.5t-45 111.5q0 129 192 154l178 23v14q0 129 -144 129zM422 261
l-169 -23q-70 -9 -100.5 -33.5t-30.5 -64.5q0 -50 34 -71.5t84 -21.5q85 0 133.5 47.5t48.5 107.5v59z" />
    <glyph glyph-name="b" unicode="b" horiz-adv-x="638" 
d="M158 417q58 104 190 104q113 0 177 -77.5t64 -189.5q0 -111 -64 -188.5t-177 -77.5q-134 0 -193 106v-94h-68v750h71v-333zM156 254q0 -86 48 -144t131 -58t132.5 58t49.5 144q0 87 -49.5 145t-132.5 58t-131 -57.5t-48 -145.5z" />
    <glyph glyph-name="c" unicode="c" horiz-adv-x="573" 
d="M300 52q60 0 102 31t60 85l66 -26q-25 -68 -84 -111t-144 -43q-112 0 -181.5 78.5t-69.5 187.5t69.5 188t181.5 79q85 0 144 -43t84 -111l-66 -26q-18 54 -60 85t-102 31q-80 0 -129.5 -57t-49.5 -146q0 -88 49.5 -145t129.5 -57z" />
    <glyph glyph-name="d" unicode="d" horiz-adv-x="638" 
d="M479 417v333h71v-750h-68v94q-57 -106 -193 -106q-112 0 -176 77.5t-64 188.5q0 112 64 189.5t176 77.5q132 0 190 -104zM482 254q0 88 -48 145.5t-131 57.5t-132.5 -58t-49.5 -145q0 -86 49.5 -144t132.5 -58t131 58t48 144z" />
    <glyph glyph-name="e" unicode="e" horiz-adv-x="593" 
d="M462 158l62 -27q-28 -65 -86.5 -104t-137.5 -39q-116 0 -183.5 77.5t-67.5 189.5q0 110 69.5 188t180.5 78t178 -74.5t67 -185.5l-1 -27h-423q5 -80 54 -131t127 -51q57 0 99 28.5t62 77.5zM299 457q-72 0 -120 -46.5t-57 -118.5h351q-7 75 -53.5 120t-120.5 45z" />
    <glyph glyph-name="f" unicode="f" horiz-adv-x="311" 
d="M110 509v84q0 78 41 117.5t110 39.5l34 -2v-65q-10 2 -28 2q-43 0 -64.5 -21t-21.5 -68v-87h115v-60h-115v-449h-71v449h-99v60h99z" />
    <glyph glyph-name="g" unicode="g" horiz-adv-x="559" 
d="M281 151q-56 0 -101 20q-3 -1 -6.5 -2.5t-12 -7t-14.5 -12t-11 -18t-5 -24.5q0 -22 13.5 -36t39.5 -14h185q84 0 123.5 -35t39.5 -95q0 -66 -60 -110t-185 -44q-124 0 -180 35t-56 105q0 27 12 50.5t23 33.5t22 17q-44 29 -44 88q0 67 68 102q-54 51 -54 132t55 133
t148 52q70 0 121 -32q10 40 44 63.5t79 23.5h13h10l3 -1v-65q-11 1 -28 1q-27 0 -44.5 -16t-17.5 -42q0 -22 6 -38q17 -37 17 -79q0 -81 -55 -133t-148 -52zM281 213q62 0 98 33t36 90t-36 90t-98 33t-98 -33t-36 -90t36 -90t98 -33zM376 -9h-207q-19 -7 -34 -26.5
t-15 -44.5q0 -42 40 -61t127 -19q176 0 176 87q0 64 -87 64z" />
    <glyph glyph-name="h" unicode="h" horiz-adv-x="598" 
d="M158 750v-312q18 31 60 57t105 26q92 0 142.5 -54t50.5 -142v-325h-71v311q0 71 -33.5 109.5t-100.5 38.5t-110 -41.5t-43 -116.5v-301h-71v750h71z" />
    <glyph glyph-name="i" unicode="i" horiz-adv-x="246" 
d="M123 635q-23 0 -37 13.5t-14 35.5t14 36.5t37 14.5q22 0 36.5 -14.5t14.5 -36.5t-14.5 -35.5t-36.5 -13.5zM87 0v509h71v-509h-71z" />
    <glyph glyph-name="j" unicode="j" horiz-adv-x="246" 
d="M123 635q-23 0 -37 13.5t-14 35.5t14 36.5t37 14.5q22 0 36.5 -14.5t14.5 -36.5t-14.5 -35.5t-36.5 -13.5zM-21 -218v65q4 -1 22 -1q43 0 64.5 21t21.5 68v574h71v-571q0 -78 -41 -117.5t-110 -39.5z" />
    <glyph glyph-name="k" unicode="k" horiz-adv-x="553" 
d="M439 509h95l-211 -210l227 -299h-88l-189 251l-115 -112v-139h-71v750h71v-524z" />
    <glyph glyph-name="l" unicode="l" horiz-adv-x="246" 
d="M158 0h-71v750h71v-750z" />
    <glyph glyph-name="m" unicode="m" horiz-adv-x="930" 
d="M503 297v-297h-71v311q0 69 -31.5 108.5t-96.5 39.5q-64 0 -105 -42t-41 -114v-303h-71v509h68v-78q49 90 161 90q121 0 166 -98q24 41 70 69.5t109 28.5q89 0 137.5 -55.5t48.5 -140.5v-325h-71v311q0 68 -31.5 108t-95.5 40q-63 0 -104.5 -42t-41.5 -120z" />
    <glyph glyph-name="n" unicode="n" horiz-adv-x="598" 
d="M155 509v-78q18 34 60 62t108 28q92 0 142.5 -54t50.5 -142v-325h-71v311q0 71 -33.5 109.5t-100.5 38.5t-110 -41t-43 -115v-303h-71v509h68z" />
    <glyph glyph-name="o" unicode="o" horiz-adv-x="617" 
d="M308 -12q-116 0 -187.5 78.5t-71.5 187.5q0 110 71.5 188.5t187.5 78.5q117 0 188.5 -78.5t71.5 -188.5q0 -109 -71.5 -187.5t-188.5 -78.5zM121 254q0 -87 52 -144.5t135 -57.5q84 0 136 57.5t52 144.5q0 88 -52 145.5t-136 57.5t-135.5 -57.5t-51.5 -145.5z" />
    <glyph glyph-name="p" unicode="p" horiz-adv-x="638" 
d="M158 92v-300h-71v717h68v-94q60 106 193 106q113 0 177 -77.5t64 -189.5q0 -111 -64 -188.5t-177 -77.5q-133 0 -190 104zM156 254q0 -86 48 -144t131 -58t132.5 58t49.5 144q0 87 -49.5 145t-132.5 58t-131 -57.5t-48 -145.5z" />
    <glyph glyph-name="q" unicode="q" horiz-adv-x="638" 
d="M479 92q-57 -104 -190 -104q-112 0 -176 77.5t-64 188.5q0 112 64 189.5t176 77.5q135 0 193 -106v94h68v-717h-71v300zM482 254q0 88 -48 145.5t-131 57.5t-132.5 -58t-49.5 -145t49.5 -145t132.5 -58t131 58t48 145z" />
    <glyph glyph-name="r" unicode="r" horiz-adv-x="351" 
d="M335 513v-67q-12 1 -25 1q-68 0 -110 -40.5t-42 -117.5v-289h-71v509h68v-79q18 33 59 58.5t104 25.5z" />
    <glyph glyph-name="s" unicode="s" horiz-adv-x="504" 
d="M41 144l71 13q5 -50 39.5 -78.5t97.5 -28.5t98.5 23.5t35.5 62.5q0 29 -17.5 47.5t-45 26.5t-60.5 13.5t-66.5 13.5t-61 21.5t-45 42t-17.5 70.5q0 62 51 106t138 44q86 0 132.5 -40t58.5 -98l-68 -23q-5 44 -36 71.5t-89 27.5q-57 0 -87.5 -24t-30.5 -61q0 -33 23 -52
t58 -24.5t75.5 -14.5t75.5 -20t58 -43t23 -82q0 -62 -52.5 -106t-150.5 -44t-148.5 43.5t-59.5 112.5z" />
    <glyph glyph-name="t" unicode="t" horiz-adv-x="323" 
d="M294 67v-64q-18 -5 -54 -5q-132 0 -132 139v312h-97v60h97v145h71v-145h117v-60h-117v-307q0 -80 70 -80z" />
    <glyph glyph-name="u" unicode="u" horiz-adv-x="593" 
d="M434 208v301h71v-509h-68v74q-17 -32 -58.5 -59t-106.5 -27q-92 0 -141 53.5t-49 141.5v326h71v-311q0 -148 131 -148q65 0 107.5 40.5t42.5 117.5z" />
    <glyph glyph-name="v" unicode="v" horiz-adv-x="532" 
d="M266 82l176 427h74l-215 -509h-72l-213 509h77z" />
    <glyph glyph-name="w" unicode="w" horiz-adv-x="827" 
d="M551 0l-137 419h-1l-139 -419h-74l-176 509h76l137 -425l140 425h74l138 -425l139 425h75l-178 -509h-74z" />
    <glyph glyph-name="x" unicode="x" horiz-adv-x="540" 
d="M513 509l-202 -251l209 -258h-89l-162 204l-162 -204h-87l207 257l-202 252h88l157 -197l156 197h87z" />
    <glyph glyph-name="y" unicode="y" horiz-adv-x="532" 
d="M82 -154q42 0 71.5 22t53.5 78l22 54l-213 509h77l173 -427l175 427h75l-246 -584q-61 -144 -185 -144l-20 1v65q8 -1 17 -1z" />
    <glyph glyph-name="z" unicode="z" horiz-adv-x="526" 
d="M472 452l-330 -389h334v-63h-426v57l330 389h-326v63h418v-57z" />
    <glyph glyph-name="braceleft" unicode="{" horiz-adv-x="314" 
d="M243 -166q-65 0 -97 36t-32 101v235q0 54 -51 54h-23v64h23q51 0 51 54v235q0 65 32 101t97 36l49 -4v-66q-20 4 -45 4q-35 0 -49.5 -17t-14.5 -51v-233q0 -68 -40 -91q40 -25 40 -92v-232q0 -34 14.5 -51t49.5 -17l45 4v-66q-18 -4 -49 -4z" />
    <glyph glyph-name="bar" unicode="|" horiz-adv-x="274" 
d="M172 0h-70v750h70v-750z" />
    <glyph glyph-name="braceright" unicode="}" horiz-adv-x="314" 
d="M71 -166l-49 4v66q20 -4 44 -4q35 0 50 17t15 51v232q0 68 40 92q-40 23 -40 91v233q0 34 -15 51t-50 17l-44 -4v66q18 4 49 4q64 0 96 -36t32 -101v-235q0 -54 51 -54h24v-64h-24q-51 0 -51 -54v-235q0 -65 -32 -101t-96 -36z" />
    <glyph glyph-name="asciitilde" unicode="~" 
d="M393 195q-43 0 -107 23t-98 23q-28 0 -50 -11.5t-30 -23.5l-8 -12l-54 38q2 3 5 8.5t15 19t27 24t40.5 19t55.5 8.5q44 0 107.5 -23t97.5 -23q28 0 50 11.5t30 23.5l8 12l53 -37q-1 -3 -4.5 -8.5t-15 -19.5t-26.5 -24.5t-40.5 -19t-55.5 -8.5z" />
    <glyph glyph-name="exclamdown" unicode="&#xa1;" horiz-adv-x="247" 
d="M94 346h59l12 -546h-83zM124 518q23 0 38 -15t15 -37q0 -23 -15 -38.5t-38 -15.5q-24 0 -39 15.5t-15 38.5t15 37.5t39 14.5z" />
    <glyph glyph-name="cent" unicode="&#xa2;" 
d="M458 279l70 -13q-20 -71 -73.5 -119.5t-134.5 -54.5v-109h-49v109q-102 9 -163 85t-61 178q0 101 61 177.5t163 85.5v108h49v-108q80 -6 133.5 -54.5t73.5 -117.5l-69 -15q-15 52 -50 83.5t-88 37.5v-395q108 12 138 122zM118 355q0 -80 42 -134.5t111 -63.5v395
q-69 -9 -111 -63.5t-42 -133.5z" />
    <glyph glyph-name="sterling" unicode="&#xa3;" 
d="M529 500l-72 -14v11q0 74 -39 118t-115 44t-114.5 -41t-38.5 -109q0 -25 6 -50.5t10.5 -37t20 -42t17.5 -34.5h195v-59h-173q9 -27 9 -60q0 -77 -43 -129q38 -1 99.5 -23.5t104.5 -22.5q71 0 116 65l46 -40q-67 -91 -176 -91q-46 0 -113 24.5t-106 24.5q-26 0 -51 -12
t-37 -24l-12 -11l-40 46q27 33 78 52q67 49 67 135q0 34 -13 66h-115v59h88q-2 4 -10.5 21.5t-12 25.5t-10 25.5t-10 30.5t-6 31t-2.5 36q0 92 59 151t167 59q106 0 166 -60.5t60 -164.5z" />
    <glyph glyph-name="currency" unicode="&#xa4;" horiz-adv-x="600" 
d="M113 252q0 60 34 106l-73 75l48 48l75 -75q47 34 104 34q56 0 103 -34l74 74l49 -48l-73 -73q35 -52 35 -107t-33 -104l71 -71l-49 -49l-71 70q-49 -34 -106 -34q-59 0 -108 35l-71 -71l-48 49l72 72q-33 46 -33 103zM172 252q0 -53 38 -91t91 -38t90.5 38t37.5 91
q0 52 -37.5 90t-90.5 38t-91 -37.5t-38 -90.5z" />
    <glyph glyph-name="yen" unicode="&#xa5;" 
d="M35 710h78l177 -305h2l173 305h82l-213 -359h136v-58h-143v-85h143v-58h-143v-150h-73v150h-143v58h143v85h-143v58h135z" />
    <glyph glyph-name="brokenbar" unicode="&#xa6;" horiz-adv-x="272" 
d="M102 307h68v-307h-68v307zM102 749h68v-307h-68v307z" />
    <glyph glyph-name="section" unicode="&#xa7;" horiz-adv-x="564" 
d="M85 -38l66 14q7 -46 38.5 -74.5t88.5 -28.5t87 25.5t30 64.5q0 72 -101 115l-60 25q-93 40 -136.5 83.5t-43.5 108.5q0 52 29 91t75 58q-58 48 -58 125q0 68 51.5 112t136.5 44q91 0 135.5 -44t55.5 -106l-66 -15q-6 46 -37.5 74.5t-89.5 28.5q-57 0 -86.5 -26t-29.5 -65
q0 -73 101 -114l59 -25q94 -39 137 -82.5t43 -109.5q0 -53 -29 -92t-76 -59q59 -45 59 -123q0 -69 -51 -112.5t-137 -43.5q-48 0 -85 14t-58 37.5t-32 47.5t-16 52zM302 371l-89 38q-41 -12 -66.5 -41t-25.5 -69q0 -45 34 -73t108 -61l88 -39q40 11 66.5 41t26.5 70
q0 46 -34.5 74.5t-107.5 59.5z" />
    <glyph glyph-name="dieresis" unicode="&#xa8;" horiz-adv-x="390" 
d="M121 630q-21 0 -34.5 13.5t-13.5 33.5q0 21 13.5 34.5t34.5 13.5t34.5 -13.5t13.5 -34.5q0 -20 -13.5 -33.5t-34.5 -13.5zM269 630q-21 0 -34.5 13.5t-13.5 33.5q0 21 13.5 34.5t34.5 13.5q20 0 34 -13.5t14 -34.5q0 -20 -14 -33.5t-34 -13.5z" />
    <glyph glyph-name="copyright" unicode="&#xa9;" horiz-adv-x="796" 
d="M30 356q0 158 104 263.5t265 105.5q162 0 265.5 -105.5t103.5 -263.5t-103.5 -263.5t-265.5 -105.5q-161 0 -265 105.5t-104 263.5zM92 356q0 -138 85 -226t222 -88q138 0 223 88t85 226t-85 226t-223 88q-137 0 -222 -88t-85 -226zM213 356q0 84 52.5 140t133.5 56
t127.5 -45t52.5 -101h-62q-6 36 -35 63.5t-82 27.5q-59 0 -91.5 -39t-32.5 -102t32.5 -102.5t91.5 -39.5q53 0 82 27.5t35 64.5h62q-6 -56 -52.5 -101t-127.5 -45t-133.5 56t-52.5 140z" />
    <glyph glyph-name="ordfeminine" unicode="&#xaa;" horiz-adv-x="422" 
d="M358 566v-155q0 -29 27 -29l11 1v-56q-6 -1 -17 -1q-60 0 -78 48q-43 -53 -131 -53q-64 0 -97 29t-33 79q0 54 42 83t123 39l91 12v10q0 81 -89 81q-83 0 -96 -73l-60 13q10 49 47.5 82t110.5 33q149 0 149 -143zM103 429q0 -56 74 -56q57 0 88 30t31 84v26l-81 -12
q-59 -8 -85.5 -25t-26.5 -47z" />
    <glyph glyph-name="guillemotleft" unicode="&#xab;" horiz-adv-x="500" 
d="M63 254l110 212h75l-110 -212l110 -211h-75zM252 254l109 212h76l-110 -212l110 -211h-76z" />
    <glyph glyph-name="logicalnot" unicode="&#xac;" 
d="M33 288h516v-246h-69v178h-447v68z" />
    <glyph glyph-name="registered" unicode="&#xae;" horiz-adv-x="586" 
d="M294 197q-116 0 -190 76.5t-74 187.5t74 187.5t190 76.5t190 -76.5t74 -187.5q0 -112 -74 -188t-190 -76zM294 246q95 0 153 59.5t58 155.5t-58 155.5t-153 59.5t-152.5 -59.5t-57.5 -155.5t57.5 -155.5t152.5 -59.5zM409 331h-58l-40 82q-10 -1 -17 -1h-44v-81h-50v259
h97q53 0 80.5 -24t27.5 -65q0 -55 -46 -77zM304 543h-54v-83h54q50 0 50 41q0 42 -50 42z" />
    <glyph glyph-name="macron" unicode="&#xaf;" horiz-adv-x="397" 
d="M359 697v-60h-321v60h321z" />
    <glyph glyph-name="degree" unicode="&#xb0;" horiz-adv-x="384" 
d="M27 562q0 68 47.5 115.5t116.5 47.5t116 -47.5t47 -115.5q0 -69 -47 -116.5t-116 -47.5t-116.5 47.5t-47.5 116.5zM88 562q0 -46 28 -77t75 -31t74.5 31t27.5 77q0 45 -27.5 76t-74.5 31t-75 -31t-28 -76z" />
    <glyph glyph-name="plusminus" unicode="&#xb1;" 
d="M257 509h69v-162h223v-69h-223v-161h-69v161h-224v69h224v162zM549 69v-69h-516v69h516z" />
    <glyph glyph-name="twosuperior" unicode="&#xb2;" horiz-adv-x="385" 
d="M341 438h-292v47l170 151q28 26 41 48.5t13 54.5q0 38 -21 61t-59 23q-41 0 -62 -24.5t-21 -67.5v-13l-61 14q0 66 39 106.5t105 40.5q67 0 104.5 -39t37.5 -99q0 -79 -80 -147l-114 -99h200v-57z" />
    <glyph glyph-name="threesuperior" unicode="&#xb3;" horiz-adv-x="387" 
d="M46 552l57 12q4 -37 26.5 -58.5t60.5 -21.5t61.5 20t23.5 57q0 69 -88 69h-48v52h49q42 0 62.5 19.5t20.5 51.5q0 33 -20.5 51.5t-60.5 18.5q-37 0 -57.5 -20.5t-23.5 -54.5l-58 14q9 52 45.5 84.5t93.5 32.5q68 0 104.5 -33.5t36.5 -90.5q0 -68 -61 -96q33 -12 50.5 -39
t17.5 -60q0 -59 -40 -95.5t-108 -36.5q-62 0 -99 33t-45 91z" />
    <glyph glyph-name="acute" unicode="&#xb4;" horiz-adv-x="349" 
d="M168 759h77l-77 -170h-66z" />
    <glyph glyph-name="mu" unicode="&#xb5;" horiz-adv-x="593" 
d="M434 208v301h71v-509h-68v74q-17 -32 -58.5 -59t-106.5 -27q-81 0 -123 45q0 -17 1 -62.5t1 -73.5v-85h-69v697h71v-311q0 -148 131 -148q65 0 107.5 40.5t42.5 117.5z" />
    <glyph glyph-name="paragraph" unicode="&#xb6;" horiz-adv-x="613" 
d="M284 -198v471q-116 0 -175.5 61t-59.5 157q0 95 63 157t172 62h227v-908h-69v841h-88v-841h-70z" />
    <glyph glyph-name="periodcentered" unicode="&#xb7;" horiz-adv-x="216" 
d="M108 203q-24 0 -39.5 15t-15.5 39q0 23 15.5 38.5t39.5 15.5q23 0 39 -15.5t16 -38.5q0 -24 -15.5 -39t-39.5 -15z" />
    <glyph glyph-name="cedilla" unicode="&#xb8;" horiz-adv-x="271" 
d="M48 -212l25 40q21 -20 54 -20q24 0 39 13t15 35q0 48 -51 48q-13 0 -24.5 -5t-15.5 -9l-5 -5l-31 17l42 112h45l-27 -72q9 5 29 5q41 0 66 -25.5t25 -64.5q0 -43 -29.5 -69.5t-76.5 -26.5q-24 0 -44 6.5t-28 13.5z" />
    <glyph glyph-name="onesuperior" unicode="&#xb9;" horiz-adv-x="275" 
d="M179 869v-432h-61v373h-91v47l106 12h46z" />
    <glyph glyph-name="ordmasculine" unicode="&#xba;" horiz-adv-x="437" 
d="M219 321q-84 0 -137.5 55t-53.5 139t53.5 139t137.5 55q83 0 136.5 -55t53.5 -139t-53.5 -139t-136.5 -55zM219 651q-59 0 -93 -38t-34 -98t34 -98t93 -38q58 0 92 38t34 98t-34 98t-92 38z" />
    <glyph glyph-name="guillemotright" unicode="&#xbb;" horiz-adv-x="500" 
d="M327 466l109 -212l-109 -211h-75l110 211l-110 212h75zM139 466l109 -212l-109 -211h-76l110 211l-110 212h76z" />
    <glyph glyph-name="onequarter" unicode="&#xbc;" horiz-adv-x="786" 
d="M123 277v373h-91v47l106 12h46v-432h-61zM146 0l392 710h63l-392 -710h-63zM404 101v50l203 281h63v-276h56v-55h-56v-101h-59v101h-207zM471 156h140v194z" />
    <glyph glyph-name="onehalf" unicode="&#xbd;" horiz-adv-x="838" 
d="M778 0h-292v47l170 151q28 26 41 48.5t13 54.5q0 38 -21 61t-59 23q-41 0 -62 -24.5t-21 -67.5v-13l-61 14q0 66 39 106.5t105 40.5q67 0 104.5 -39t37.5 -99q0 -79 -80 -147l-114 -99h200v-57zM146 0l392 710h63l-392 -710h-63zM123 277v373h-91v47l106 12h46v-432h-61z
" />
    <glyph glyph-name="threequarters" unicode="&#xbe;" horiz-adv-x="863" 
d="M224 0l392 710h62l-392 -710h-62zM482 101v50l203 281h62v-276h56v-55h-56v-101h-58v101h-207zM548 156h141v194zM64 387l57 12q4 -37 26.5 -58.5t60.5 -21.5t61.5 20t23.5 57q0 69 -88 69h-48v52h49q42 0 62.5 19.5t20.5 51.5q0 33 -20.5 51.5t-60.5 18.5
q-37 0 -57.5 -20.5t-23.5 -54.5l-58 14q9 52 45.5 84.5t93.5 32.5q68 0 104.5 -33.5t36.5 -90.5q0 -68 -61 -96q33 -12 50.5 -39t17.5 -60q0 -59 -40 -95.5t-108 -36.5q-62 0 -99 33t-45 91z" />
    <glyph glyph-name="questiondown" unicode="&#xbf;" horiz-adv-x="522" 
d="M410 0l74 -12q-2 -87 -61.5 -145t-156.5 -58q-103 0 -160 55.5t-57 142.5q0 49 20 90t48 69t56 52.5t48 52.5t20 58l-4 41h70q5 -24 5 -42q0 -41 -19.5 -75.5t-47.5 -59.5t-55.5 -50.5t-47 -59t-19.5 -72.5q0 -64 38.5 -100t104.5 -36q65 0 104.5 41t39.5 108zM268 518
q24 0 39 -14.5t15 -37.5t-15 -38t-39 -15q-23 0 -38 15t-15 38q0 22 15 37t38 15z" />
    <glyph glyph-name="Agrave" unicode="&#xc0;" horiz-adv-x="673" 
d="M82 0h-78l292 710h79l293 -710h-81l-67 166h-370zM336 621h-2l-158 -387h317zM230 939h78l66 -170h-66z" />
    <glyph glyph-name="Aacute" unicode="&#xc1;" horiz-adv-x="673" 
d="M82 0h-78l292 710h79l293 -710h-81l-67 166h-370zM336 621h-2l-158 -387h317zM373 940h77l-77 -170h-66z" />
    <glyph glyph-name="Acircumflex" unicode="&#xc2;" horiz-adv-x="673" 
d="M82 0h-78l292 710h79l293 -710h-81l-67 166h-370zM336 621h-2l-158 -387h317zM202 830l134 70l135 -70v-65l-135 68l-134 -68v65z" />
    <glyph glyph-name="Atilde" unicode="&#xc3;" horiz-adv-x="673" 
d="M82 0h-78l292 710h79l293 -710h-81l-67 166h-370zM336 621h-2l-158 -387h317zM399 788q-29 0 -70 20t-62 20q-35 0 -42 -36h-55q5 44 31.5 69t69.5 25q29 0 69.5 -19.5t61.5 -19.5q35 0 42 36h55q-5 -44 -31 -69.5t-69 -25.5z" />
    <glyph glyph-name="Adieresis" unicode="&#xc4;" horiz-adv-x="673" 
d="M82 0h-78l292 710h79l293 -710h-81l-67 166h-370zM336 621h-2l-158 -387h317zM261 767q-21 0 -34.5 13.5t-13.5 33.5q0 21 13.5 34.5t34.5 13.5t34.5 -13.5t13.5 -34.5q0 -20 -13.5 -33.5t-34.5 -13.5zM409 767q-21 0 -34.5 13.5t-13.5 33.5q0 21 13.5 34.5t34.5 13.5
q20 0 34 -13.5t14 -34.5q0 -20 -14 -33.5t-34 -13.5z" />
    <glyph glyph-name="Aring" unicode="&#xc5;" horiz-adv-x="673" 
d="M82 0h-78l292 710h79l293 -710h-81l-67 166h-370zM336 621h-2l-158 -387h317zM278 860q0 -27 16 -45t44 -18q27 0 43.5 18t16.5 45q0 26 -16.5 44.5t-43.5 18.5q-28 0 -44 -18t-16 -45zM226 860q0 47 31.5 78.5t80.5 31.5t79.5 -31.5t30.5 -78.5t-30.5 -79t-79.5 -32
t-80.5 32t-31.5 79z" />
    <glyph glyph-name="AE" unicode="&#xc6;" horiz-adv-x="986" 
d="M63 0h-85l429 710h522v-69h-404v-246h382v-69h-382v-257h404v-69h-477v166h-289zM446 638l-244 -404h250v404h-6z" />
    <glyph glyph-name="Ccedilla" unicode="&#xc7;" horiz-adv-x="781" 
d="M331 -212l25 40q21 -20 54 -20q24 0 39 13t15 35q0 48 -51 48q-13 0 -24.5 -5t-16.5 -9l-4 -5l-31 17l31 85q-144 11 -230 113.5t-86 254.5q0 161 96.5 265.5t254.5 104.5q118 0 204.5 -60t120.5 -164l-71 -24q-25 83 -93 131t-161 48q-124 0 -199.5 -83t-75.5 -218
t75.5 -218t199.5 -83q93 0 161 48t93 131l71 -24q-33 -101 -116.5 -161t-198.5 -63l-16 -43q9 5 29 5q41 0 66 -25.5t25 -64.5q0 -43 -29.5 -69.5t-76.5 -26.5q-24 0 -44 6.5t-28 13.5z" />
    <glyph glyph-name="Egrave" unicode="&#xc8;" horiz-adv-x="636" 
d="M578 69v-69h-477v710h477v-69h-404v-246h383v-69h-383v-257h404zM236 940h78l66 -170h-66z" />
    <glyph glyph-name="Eacute" unicode="&#xc9;" horiz-adv-x="636" 
d="M578 69v-69h-477v710h477v-69h-404v-246h383v-69h-383v-257h404zM366 940h77l-77 -170h-66z" />
    <glyph glyph-name="Ecircumflex" unicode="&#xca;" horiz-adv-x="636" 
d="M578 69v-69h-477v710h477v-69h-404v-246h383v-69h-383v-257h404zM210 830l134 70l135 -70v-65l-135 68l-134 -68v65z" />
    <glyph glyph-name="Edieresis" unicode="&#xcb;" horiz-adv-x="636" 
d="M578 69v-69h-477v710h477v-69h-404v-246h383v-69h-383v-257h404zM261 767q-21 0 -34.5 13.5t-13.5 33.5q0 21 13.5 34.5t34.5 13.5t34.5 -13.5t13.5 -34.5q0 -20 -13.5 -33.5t-34.5 -13.5zM409 767q-21 0 -34.5 13.5t-13.5 33.5q0 21 13.5 34.5t34.5 13.5q20 0 34 -13.5
t14 -34.5q0 -20 -14 -33.5t-34 -13.5z" />
    <glyph glyph-name="Igrave" unicode="&#xcc;" horiz-adv-x="276" 
d="M174 710v-710h-73v710h73zM28 940h78l66 -170h-66z" />
    <glyph glyph-name="Iacute" unicode="&#xcd;" horiz-adv-x="276" 
d="M174 710v-710h-73v710h73zM172 940h77l-77 -170h-66z" />
    <glyph glyph-name="Icircumflex" unicode="&#xce;" horiz-adv-x="276" 
d="M174 710v-710h-73v710h73zM3 839l134 70l135 -70v-65l-135 68l-134 -68v65z" />
    <glyph glyph-name="Idieresis" unicode="&#xcf;" horiz-adv-x="276" 
d="M174 710v-710h-73v710h73zM64 767q-21 0 -34.5 13.5t-13.5 33.5q0 21 13.5 34.5t34.5 13.5t34.5 -13.5t13.5 -34.5q0 -20 -13.5 -33.5t-34.5 -13.5zM212 767q-21 0 -34.5 13.5t-13.5 33.5q0 21 13.5 34.5t34.5 13.5q20 0 34 -13.5t14 -34.5q0 -20 -14 -33.5t-34 -13.5z
" />
    <glyph glyph-name="Eth" unicode="&#xd0;" horiz-adv-x="763" 
d="M316 0h-215v322h-82v66h82v322h215q186 0 290.5 -96t104.5 -259t-104.5 -259t-290.5 -96zM635 355q0 135 -82.5 210t-240.5 75h-138v-252h183v-66h-183v-252h138q158 0 240.5 75t82.5 210z" />
    <glyph glyph-name="Ntilde" unicode="&#xd1;" horiz-adv-x="766" 
d="M174 593v-593h-73v710h77l414 -594v594h73v-710h-77zM453 766q-29 0 -70 20t-62 20q-35 0 -42 -36h-55q5 44 31.5 69t69.5 25q29 0 69.5 -19.5t61.5 -19.5q35 0 42 36h55q-5 -44 -31 -69.5t-69 -25.5z" />
    <glyph glyph-name="Ograve" unicode="&#xd2;" horiz-adv-x="828" 
d="M128 355q0 -133 81 -217t205 -84t205 84t81 217t-81 217t-205 84t-205 -84t-81 -217zM776 355q0 -158 -100.5 -264t-261.5 -106t-261.5 106t-100.5 264t100.5 264t261.5 106t261.5 -106t100.5 -264zM308 940h78l66 -170h-66z" />
    <glyph glyph-name="Oacute" unicode="&#xd3;" horiz-adv-x="828" 
d="M128 355q0 -133 81 -217t205 -84t205 84t81 217t-81 217t-205 84t-205 -84t-81 -217zM776 355q0 -158 -100.5 -264t-261.5 -106t-261.5 106t-100.5 264t100.5 264t261.5 106t261.5 -106t100.5 -264zM444 940h77l-77 -170h-66z" />
    <glyph glyph-name="Ocircumflex" unicode="&#xd4;" horiz-adv-x="828" 
d="M128 355q0 -133 81 -217t205 -84t205 84t81 217t-81 217t-205 84t-205 -84t-81 -217zM776 355q0 -158 -100.5 -264t-261.5 -106t-261.5 106t-100.5 264t100.5 264t261.5 106t261.5 -106t100.5 -264zM278 846l134 70l135 -70v-65l-135 68l-134 -68v65z" />
    <glyph glyph-name="Otilde" unicode="&#xd5;" horiz-adv-x="828" 
d="M128 355q0 -133 81 -217t205 -84t205 84t81 217t-81 217t-205 84t-205 -84t-81 -217zM776 355q0 -158 -100.5 -264t-261.5 -106t-261.5 106t-100.5 264t100.5 264t261.5 106t261.5 -106t100.5 -264zM479 788q-29 0 -70 20t-62 20q-35 0 -42 -36h-55q5 44 31.5 69t69.5 25
q29 0 69.5 -19.5t61.5 -19.5q35 0 42 36h55q-5 -44 -31 -69.5t-69 -25.5z" />
    <glyph glyph-name="Odieresis" unicode="&#xd6;" horiz-adv-x="828" 
d="M128 355q0 -133 81 -217t205 -84t205 84t81 217t-81 217t-205 84t-205 -84t-81 -217zM776 355q0 -158 -100.5 -264t-261.5 -106t-261.5 106t-100.5 264t100.5 264t261.5 106t261.5 -106t100.5 -264zM343 787q-21 0 -34.5 13.5t-13.5 33.5q0 21 13.5 34.5t34.5 13.5
t34.5 -13.5t13.5 -34.5q0 -20 -13.5 -33.5t-34.5 -13.5zM491 787q-21 0 -34.5 13.5t-13.5 33.5q0 21 13.5 34.5t34.5 13.5q20 0 34 -13.5t14 -34.5q0 -20 -14 -33.5t-34 -13.5z" />
    <glyph glyph-name="multiply" unicode="&#xd7;" 
d="M64 433l49 48l178 -178l177 177l49 -48l-178 -178l178 -177l-49 -49l-177 178l-178 -178l-49 48l178 178z" />
    <glyph glyph-name="Oslash" unicode="&#xd8;" horiz-adv-x="828" 
d="M776 355q0 -158 -100.5 -264t-261.5 -106q-129 0 -220 69l-77 -92l-39 33l77 93q-103 105 -103 267q0 158 100.5 264t261.5 106q122 0 215 -67l75 90l39 -35l-74 -89q107 -105 107 -269zM699 355q0 130 -78 213l-380 -459q73 -56 173 -56q124 0 204.5 84.5t80.5 217.5z
M128 355q0 -127 75 -210l379 458q-72 53 -168 53q-124 0 -205 -84t-81 -217z" />
    <glyph glyph-name="Ugrave" unicode="&#xd9;" horiz-adv-x="734" 
d="M367 -15q-129 0 -205.5 79t-76.5 229v417h73v-424q0 -108 54.5 -171t154.5 -63t154.5 63t54.5 171v424h73v-417q0 -150 -77 -229t-205 -79zM257 940h78l66 -170h-66z" />
    <glyph glyph-name="Uacute" unicode="&#xda;" horiz-adv-x="734" 
d="M367 -15q-129 0 -205.5 79t-76.5 229v417h73v-424q0 -108 54.5 -171t154.5 -63t154.5 63t54.5 171v424h73v-417q0 -150 -77 -229t-205 -79zM390 941h77l-77 -170h-66z" />
    <glyph glyph-name="Ucircumflex" unicode="&#xdb;" horiz-adv-x="734" 
d="M367 -15q-129 0 -205.5 79t-76.5 229v417h73v-424q0 -108 54.5 -171t154.5 -63t154.5 63t54.5 171v424h73v-417q0 -150 -77 -229t-205 -79zM231 839l134 70l135 -70v-65l-135 68l-134 -68v65z" />
    <glyph glyph-name="Udieresis" unicode="&#xdc;" horiz-adv-x="734" 
d="M367 -15q-129 0 -205.5 79t-76.5 229v417h73v-424q0 -108 54.5 -171t154.5 -63t154.5 63t54.5 171v424h73v-417q0 -150 -77 -229t-205 -79zM293 767q-21 0 -34.5 13.5t-13.5 33.5q0 21 13.5 34.5t34.5 13.5t34.5 -13.5t13.5 -34.5q0 -20 -13.5 -33.5t-34.5 -13.5z
M441 767q-21 0 -34.5 13.5t-13.5 33.5q0 21 13.5 34.5t34.5 13.5q20 0 34 -13.5t14 -34.5q0 -20 -14 -33.5t-34 -13.5z" />
    <glyph glyph-name="Yacute" unicode="&#xdd;" horiz-adv-x="615" 
d="M530 710h85l-271 -458v-252h-73v252l-271 458h82l225 -381h2zM337 940h77l-77 -170h-66z" />
    <glyph glyph-name="Thorn" unicode="&#xde;" horiz-adv-x="644" 
d="M174 195v-195h-73v710h73v-105h203q117 0 173 -56.5t56 -148.5t-56.5 -148.5t-172.5 -56.5h-203zM174 264h206q76 0 113.5 35.5t37.5 100.5t-37.5 100.5t-113.5 35.5h-206v-272z" />
    <glyph glyph-name="germandbls" unicode="&#xdf;" horiz-adv-x="612" 
d="M391 -11q-80 0 -125.5 40t-54.5 96l68 14q4 -38 33.5 -63t77.5 -25q47 0 74 25.5t27 71.5q0 47 -53 89l-26 21q-62 48 -62 107q0 37 30 90l9 15q22 40 22 73q0 53 -33 82t-91 29q-63 0 -96 -39.5t-33 -111.5v-503h-71v496q0 104 54 163.5t147 59.5q88 0 140 -48.5
t52 -125.5q0 -50 -34 -107l-8 -14q-19 -34 -19 -55q0 -18 8 -29.5t31 -30.5l25 -21q79 -66 79 -139q0 -74 -47.5 -117t-123.5 -43z" />
    <glyph glyph-name="agrave" unicode="&#xe0;" horiz-adv-x="580" 
d="M278 460q-124 0 -144 -101l-67 14q14 68 66.5 108t147.5 40q106 0 159 -51.5t53 -139.5v-223q0 -49 43 -49l18 2v-59q-10 -3 -32 -3q-36 0 -63 22t-33 59q-29 -43 -81.5 -67t-114.5 -24q-88 0 -133 40.5t-45 111.5q0 129 192 154l178 23v14q0 129 -144 129zM422 261
l-169 -23q-70 -9 -100.5 -33.5t-30.5 -64.5q0 -50 34 -71.5t84 -21.5q85 0 133.5 47.5t48.5 107.5v59zM182 759h78l66 -170h-66z" />
    <glyph glyph-name="aacute" unicode="&#xe1;" horiz-adv-x="580" 
d="M278 460q-124 0 -144 -101l-67 14q14 68 66.5 108t147.5 40q106 0 159 -51.5t53 -139.5v-223q0 -49 43 -49l18 2v-59q-10 -3 -32 -3q-36 0 -63 22t-33 59q-29 -43 -81.5 -67t-114.5 -24q-88 0 -133 40.5t-45 111.5q0 129 192 154l178 23v14q0 129 -144 129zM422 261
l-169 -23q-70 -9 -100.5 -33.5t-30.5 -64.5q0 -50 34 -71.5t84 -21.5q85 0 133.5 47.5t48.5 107.5v59zM302 759h77l-77 -170h-66z" />
    <glyph glyph-name="acircumflex" unicode="&#xe2;" horiz-adv-x="580" 
d="M278 460q-124 0 -144 -101l-67 14q14 68 66.5 108t147.5 40q106 0 159 -51.5t53 -139.5v-223q0 -49 43 -49l18 2v-59q-10 -3 -32 -3q-36 0 -63 22t-33 59q-29 -43 -81.5 -67t-114.5 -24q-88 0 -133 40.5t-45 111.5q0 129 192 154l178 23v14q0 129 -144 129zM422 261
l-169 -23q-70 -9 -100.5 -33.5t-30.5 -64.5q0 -50 34 -71.5t84 -21.5q85 0 133.5 47.5t48.5 107.5v59zM142 664l134 70l135 -70v-65l-135 68l-134 -68v65z" />
    <glyph glyph-name="atilde" unicode="&#xe3;" horiz-adv-x="580" 
d="M278 460q-124 0 -144 -101l-67 14q14 68 66.5 108t147.5 40q106 0 159 -51.5t53 -139.5v-223q0 -49 43 -49l18 2v-59q-10 -3 -32 -3q-36 0 -63 22t-33 59q-29 -43 -81.5 -67t-114.5 -24q-88 0 -133 40.5t-45 111.5q0 129 192 154l178 23v14q0 129 -144 129zM422 261
l-169 -23q-70 -9 -100.5 -33.5t-30.5 -64.5q0 -50 34 -71.5t84 -21.5q85 0 133.5 47.5t48.5 107.5v59zM341 622q-29 0 -70 20t-62 20q-35 0 -42 -36h-55q5 44 31.5 69t69.5 25q29 0 69.5 -19.5t61.5 -19.5q35 0 42 36h55q-5 -44 -31 -69.5t-69 -25.5z" />
    <glyph glyph-name="adieresis" unicode="&#xe4;" horiz-adv-x="580" 
d="M278 460q-124 0 -144 -101l-67 14q14 68 66.5 108t147.5 40q106 0 159 -51.5t53 -139.5v-223q0 -49 43 -49l18 2v-59q-10 -3 -32 -3q-36 0 -63 22t-33 59q-29 -43 -81.5 -67t-114.5 -24q-88 0 -133 40.5t-45 111.5q0 129 192 154l178 23v14q0 129 -144 129zM422 261
l-169 -23q-70 -9 -100.5 -33.5t-30.5 -64.5q0 -50 34 -71.5t84 -21.5q85 0 133.5 47.5t48.5 107.5v59zM202 630q-21 0 -34.5 13.5t-13.5 33.5q0 21 13.5 34.5t34.5 13.5t34.5 -13.5t13.5 -34.5q0 -20 -13.5 -33.5t-34.5 -13.5zM350 630q-21 0 -34.5 13.5t-13.5 33.5
q0 21 13.5 34.5t34.5 13.5q20 0 34 -13.5t14 -34.5q0 -20 -14 -33.5t-34 -13.5z" />
    <glyph glyph-name="aring" unicode="&#xe5;" horiz-adv-x="580" 
d="M278 460q-124 0 -144 -101l-67 14q14 68 66.5 108t147.5 40q106 0 159 -51.5t53 -139.5v-223q0 -49 43 -49l18 2v-59q-10 -3 -32 -3q-36 0 -63 22t-33 59q-29 -43 -81.5 -67t-114.5 -24q-88 0 -133 40.5t-45 111.5q0 129 192 154l178 23v14q0 129 -144 129zM422 261
l-169 -23q-70 -9 -100.5 -33.5t-30.5 -64.5q0 -50 34 -71.5t84 -21.5q85 0 133.5 47.5t48.5 107.5v59zM216 695q0 -27 16 -45t44 -18q27 0 43.5 18t16.5 45q0 26 -16.5 44.5t-43.5 18.5q-28 0 -44 -18t-16 -45zM164 695q0 47 31.5 78.5t80.5 31.5t79.5 -31.5t30.5 -78.5
t-30.5 -79t-79.5 -32t-80.5 32t-31.5 79z" />
    <glyph glyph-name="ae" unicode="&#xe6;" horiz-adv-x="965" 
d="M240 47q86 0 134 46.5t48 108.5v59l-169 -23q-70 -9 -100.5 -33.5t-30.5 -64.5q0 -50 34 -71.5t84 -21.5zM672 457q-72 0 -120 -46.5t-57 -118.5h351q-8 75 -54 120t-120 45zM673 52q57 0 99 28.5t62 77.5l62 -27q-28 -65 -86.5 -104t-137.5 -39q-74 0 -129 34t-86 91
q-26 -59 -85 -92t-138 -33q-88 0 -135 40.5t-47 111.5q0 129 192 154l179 23v14q0 129 -145 129q-124 0 -144 -101l-67 14q14 68 66.5 108t147.5 40q147 0 192 -106q71 106 199 106q111 0 178 -74.5t67 -185.5l-1 -27h-423q5 -79 53.5 -130.5t126.5 -51.5z" />
    <glyph glyph-name="ccedilla" unicode="&#xe7;" horiz-adv-x="577" 
d="M234 -211l25 39q20 -20 54 -20q24 0 38.5 13t14.5 35q0 48 -51 48q-13 0 -24 -5t-15 -9l-5 -5l-31 18l32 86q-101 10 -162 86.5t-61 178.5q0 109 69.5 188t181.5 79q98 0 160 -55.5t78 -137.5h-72q-16 60 -59 94.5t-107 34.5q-80 0 -129.5 -57t-49.5 -146
q0 -88 49.5 -145t129.5 -57q64 0 107 34.5t59 94.5h72q-16 -79 -73 -133t-149 -59l-17 -48q9 5 30 5q41 0 65 -25t24 -64q0 -42 -29.5 -68.5t-75.5 -26.5q-23 0 -43 7t-28 13z" />
    <glyph glyph-name="egrave" unicode="&#xe8;" horiz-adv-x="593" 
d="M462 158l62 -27q-28 -65 -86.5 -104t-137.5 -39q-116 0 -183.5 77.5t-67.5 189.5q0 110 69.5 188t180.5 78t178 -74.5t67 -185.5l-1 -27h-423q5 -80 54 -131t127 -51q57 0 99 28.5t62 77.5zM299 457q-72 0 -120 -46.5t-57 -118.5h351q-7 75 -53.5 120t-120.5 45zM199 759
h78l66 -170h-66z" />
    <glyph glyph-name="eacute" unicode="&#xe9;" horiz-adv-x="593" 
d="M462 158l62 -27q-28 -65 -86.5 -104t-137.5 -39q-116 0 -183.5 77.5t-67.5 189.5q0 110 69.5 188t180.5 78t178 -74.5t67 -185.5l-1 -27h-423q5 -80 54 -131t127 -51q57 0 99 28.5t62 77.5zM299 457q-72 0 -120 -46.5t-57 -118.5h351q-7 75 -53.5 120t-120.5 45zM331 759
h77l-77 -170h-66z" />
    <glyph glyph-name="ecircumflex" unicode="&#xea;" horiz-adv-x="593" 
d="M462 158l62 -27q-28 -65 -86.5 -104t-137.5 -39q-116 0 -183.5 77.5t-67.5 189.5q0 110 69.5 188t180.5 78t178 -74.5t67 -185.5l-1 -27h-423q5 -80 54 -131t127 -51q57 0 99 28.5t62 77.5zM299 457q-72 0 -120 -46.5t-57 -118.5h351q-7 75 -53.5 120t-120.5 45zM171 664
l134 70l135 -70v-65l-135 68l-134 -68v65z" />
    <glyph glyph-name="edieresis" unicode="&#xeb;" horiz-adv-x="593" 
d="M462 158l62 -27q-28 -65 -86.5 -104t-137.5 -39q-116 0 -183.5 77.5t-67.5 189.5q0 110 69.5 188t180.5 78t178 -74.5t67 -185.5l-1 -27h-423q5 -80 54 -131t127 -51q57 0 99 28.5t62 77.5zM299 457q-72 0 -120 -46.5t-57 -118.5h351q-7 75 -53.5 120t-120.5 45zM226 630
q-21 0 -34.5 13.5t-13.5 33.5q0 21 13.5 34.5t34.5 13.5t34.5 -13.5t13.5 -34.5q0 -20 -13.5 -33.5t-34.5 -13.5zM374 630q-21 0 -34.5 13.5t-13.5 33.5q0 21 13.5 34.5t34.5 13.5q20 0 34 -13.5t14 -34.5q0 -20 -14 -33.5t-34 -13.5z" />
    <glyph glyph-name="igrave" unicode="&#xec;" horiz-adv-x="246" 
d="M16 759h78l66 -170h-66zM158 509v-509h-71v509h71z" />
    <glyph glyph-name="iacute" unicode="&#xed;" horiz-adv-x="246" 
d="M153 759h77l-77 -170h-66zM158 509v-509h-71v509h71z" />
    <glyph glyph-name="icircumflex" unicode="&#xee;" horiz-adv-x="246" 
d="M158 509v-509h-71v509h71zM-11 664l134 70l135 -70v-65l-135 68l-134 -68v65z" />
    <glyph glyph-name="idieresis" unicode="&#xef;" horiz-adv-x="246" 
d="M49 630q-21 0 -34.5 13.5t-13.5 33.5q0 21 13.5 34.5t34.5 13.5t34.5 -13.5t13.5 -34.5q0 -20 -13.5 -33.5t-34.5 -13.5zM197 630q-21 0 -34.5 13.5t-13.5 33.5q0 21 13.5 34.5t34.5 13.5q20 0 34 -13.5t14 -34.5q0 -20 -14 -33.5t-34 -13.5zM158 509v-509h-71v509h71z
" />
    <glyph glyph-name="eth" unicode="&#xf0;" horiz-adv-x="614" 
d="M205 581l-24 41l112 56q-36 25 -95 56l40 43q60 -31 113 -70l109 55l25 -42l-95 -47q174 -160 174 -403q0 -119 -71 -200.5t-187 -81.5q-115 0 -186 78.5t-71 187.5q0 110 69 188.5t183 78.5q56 0 103 -23t71 -57q-48 122 -141 204zM121 254q0 -86 51 -144t134 -58
q84 0 135 58t51 144q0 87 -51 145t-135 58q-83 0 -134 -58t-51 -145z" />
    <glyph glyph-name="ntilde" unicode="&#xf1;" horiz-adv-x="598" 
d="M155 509v-78q18 34 60 62t108 28q92 0 142.5 -54t50.5 -142v-325h-71v311q0 71 -33.5 109.5t-100.5 38.5t-110 -41t-43 -115v-303h-71v509h68zM363 622q-29 0 -70 20t-62 20q-35 0 -42 -36h-55q5 44 31.5 69t69.5 25q29 0 69.5 -19.5t61.5 -19.5q35 0 42 36h55
q-5 -44 -31 -69.5t-69 -25.5z" />
    <glyph glyph-name="ograve" unicode="&#xf2;" horiz-adv-x="617" 
d="M308 -12q-116 0 -187.5 78.5t-71.5 187.5q0 110 71.5 188.5t187.5 78.5q117 0 188.5 -78.5t71.5 -188.5q0 -109 -71.5 -187.5t-188.5 -78.5zM121 254q0 -87 52 -144.5t135 -57.5q84 0 136 57.5t52 144.5q0 88 -52 145.5t-136 57.5t-135.5 -57.5t-51.5 -145.5zM210 759h78
l66 -170h-66z" />
    <glyph glyph-name="oacute" unicode="&#xf3;" horiz-adv-x="617" 
d="M308 -12q-116 0 -187.5 78.5t-71.5 187.5q0 110 71.5 188.5t187.5 78.5q117 0 188.5 -78.5t71.5 -188.5q0 -109 -71.5 -187.5t-188.5 -78.5zM121 254q0 -87 52 -144.5t135 -57.5q84 0 136 57.5t52 144.5q0 88 -52 145.5t-136 57.5t-135.5 -57.5t-51.5 -145.5zM344 759h77
l-77 -170h-66z" />
    <glyph glyph-name="ocircumflex" unicode="&#xf4;" horiz-adv-x="617" 
d="M308 -12q-116 0 -187.5 78.5t-71.5 187.5q0 110 71.5 188.5t187.5 78.5q117 0 188.5 -78.5t71.5 -188.5q0 -109 -71.5 -187.5t-188.5 -78.5zM121 254q0 -87 52 -144.5t135 -57.5q84 0 136 57.5t52 144.5q0 88 -52 145.5t-136 57.5t-135.5 -57.5t-51.5 -145.5zM184 664
l134 70l135 -70v-65l-135 68l-134 -68v65z" />
    <glyph glyph-name="otilde" unicode="&#xf5;" horiz-adv-x="617" 
d="M308 -12q-116 0 -187.5 78.5t-71.5 187.5q0 110 71.5 188.5t187.5 78.5q117 0 188.5 -78.5t71.5 -188.5q0 -109 -71.5 -187.5t-188.5 -78.5zM121 254q0 -87 52 -144.5t135 -57.5q84 0 136 57.5t52 144.5q0 88 -52 145.5t-136 57.5t-135.5 -57.5t-51.5 -145.5zM372 622
q-29 0 -70 20t-62 20q-35 0 -42 -36h-55q5 44 31.5 69t69.5 25q29 0 69.5 -19.5t61.5 -19.5q35 0 42 36h55q-5 -44 -31 -69.5t-69 -25.5z" />
    <glyph glyph-name="odieresis" unicode="&#xf6;" horiz-adv-x="617" 
d="M308 -12q-116 0 -187.5 78.5t-71.5 187.5q0 110 71.5 188.5t187.5 78.5q117 0 188.5 -78.5t71.5 -188.5q0 -109 -71.5 -187.5t-188.5 -78.5zM121 254q0 -87 52 -144.5t135 -57.5q84 0 136 57.5t52 144.5q0 88 -52 145.5t-136 57.5t-135.5 -57.5t-51.5 -145.5zM234 630
q-21 0 -34.5 13.5t-13.5 33.5q0 21 13.5 34.5t34.5 13.5t34.5 -13.5t13.5 -34.5q0 -20 -13.5 -33.5t-34.5 -13.5zM382 630q-21 0 -34.5 13.5t-13.5 33.5q0 21 13.5 34.5t34.5 13.5q20 0 34 -13.5t14 -34.5q0 -20 -14 -33.5t-34 -13.5z" />
    <glyph glyph-name="divide" unicode="&#xf7;" 
d="M291 37q-23 0 -37.5 14t-14.5 37t14.5 37.5t37.5 14.5t37.5 -14.5t14.5 -37.5q0 -22 -14.5 -36.5t-37.5 -14.5zM291 368q-23 0 -37.5 14.5t-14.5 37.5t14.5 37.5t37.5 14.5t37.5 -15t14.5 -37t-14.5 -37t-37.5 -15zM549 288v-68h-516v68h516z" />
    <glyph glyph-name="oslash" unicode="&#xf8;" horiz-adv-x="617" 
d="M308 -12q-86 0 -151 46l-53 -63l-35 30l54 63q-74 76 -74 190q0 110 71.5 188.5t187.5 78.5q89 0 155 -50l63 75l35 -30l-63 -75q70 -76 70 -187q0 -109 -71.5 -187.5t-188.5 -78.5zM496 254q0 79 -43 133l-253 -303q48 -32 108 -32q84 0 136 57.5t52 144.5zM121 254
q0 -83 46 -137l253 304q-47 36 -112 36q-84 0 -135.5 -57.5t-51.5 -145.5z" />
    <glyph glyph-name="ugrave" unicode="&#xf9;" horiz-adv-x="593" 
d="M434 208v301h71v-509h-68v74q-17 -32 -58.5 -59t-106.5 -27q-92 0 -141 53.5t-49 141.5v326h71v-311q0 -148 131 -148q65 0 107.5 40.5t42.5 117.5zM181 759h78l66 -170h-66z" />
    <glyph glyph-name="uacute" unicode="&#xfa;" horiz-adv-x="593" 
d="M434 208v301h71v-509h-68v74q-17 -32 -58.5 -59t-106.5 -27q-92 0 -141 53.5t-49 141.5v326h71v-311q0 -148 131 -148q65 0 107.5 40.5t42.5 117.5zM317 759h77l-77 -170h-66z" />
    <glyph glyph-name="ucircumflex" unicode="&#xfb;" horiz-adv-x="593" 
d="M434 208v301h71v-509h-68v74q-17 -32 -58.5 -59t-106.5 -27q-92 0 -141 53.5t-49 141.5v326h71v-311q0 -148 131 -148q65 0 107.5 40.5t42.5 117.5zM153 664l134 70l135 -70v-65l-135 68l-134 -68v65z" />
    <glyph glyph-name="udieresis" unicode="&#xfc;" horiz-adv-x="593" 
d="M434 208v301h71v-509h-68v74q-17 -32 -58.5 -59t-106.5 -27q-92 0 -141 53.5t-49 141.5v326h71v-311q0 -148 131 -148q65 0 107.5 40.5t42.5 117.5zM212 630q-21 0 -34.5 13.5t-13.5 33.5q0 21 13.5 34.5t34.5 13.5t34.5 -13.5t13.5 -34.5q0 -20 -13.5 -33.5t-34.5 -13.5
zM360 630q-21 0 -34.5 13.5t-13.5 33.5q0 21 13.5 34.5t34.5 13.5q20 0 34 -13.5t14 -34.5q0 -20 -14 -33.5t-34 -13.5z" />
    <glyph glyph-name="yacute" unicode="&#xfd;" horiz-adv-x="532" 
d="M82 -154q42 0 71.5 22t53.5 78l22 54l-213 509h77l173 -427l175 427h75l-246 -584q-61 -144 -185 -144l-20 1v65q8 -1 17 -1zM300 759h77l-77 -170h-66z" />
    <glyph glyph-name="thorn" unicode="&#xfe;" horiz-adv-x="637" 
d="M158 89v-297h-71v957h71v-329q58 101 189 101q113 0 176.5 -77t63.5 -190q0 -111 -63.5 -188.5t-176.5 -77.5q-131 0 -189 101zM157 256q0 -89 46.5 -146.5t130.5 -57.5q83 0 132 57.5t49 144.5q0 88 -49 146t-132 58q-82 0 -129.5 -57.5t-47.5 -144.5z" />
    <glyph glyph-name="ydieresis" unicode="&#xff;" horiz-adv-x="532" 
d="M82 -154q42 0 71.5 22t53.5 78l22 54l-213 509h77l173 -427l175 427h75l-246 -584q-61 -144 -185 -144l-20 1v65q8 -1 17 -1zM193 630q-21 0 -34.5 13.5t-13.5 33.5q0 21 13.5 34.5t34.5 13.5t34.5 -13.5t13.5 -34.5q0 -20 -13.5 -33.5t-34.5 -13.5zM341 630
q-21 0 -34.5 13.5t-13.5 33.5q0 21 13.5 34.5t34.5 13.5q20 0 34 -13.5t14 -34.5q0 -20 -14 -33.5t-34 -13.5z" />
    <glyph glyph-name="Amacron" unicode="&#x100;" horiz-adv-x="673" 
d="M82 0h-78l292 710h79l293 -710h-81l-67 166h-370zM336 621h-2l-158 -387h317zM496 830v-60h-321v60h321z" />
    <glyph glyph-name="amacron" unicode="&#x101;" horiz-adv-x="580" 
d="M278 460q-124 0 -144 -101l-67 14q14 68 66.5 108t147.5 40q106 0 159 -51.5t53 -139.5v-223q0 -49 43 -49l18 2v-59q-10 -3 -32 -3q-36 0 -63 22t-33 59q-29 -43 -81.5 -67t-114.5 -24q-88 0 -133 40.5t-45 111.5q0 129 192 154l178 23v14q0 129 -144 129zM422 261
l-169 -23q-70 -9 -100.5 -33.5t-30.5 -64.5q0 -50 34 -71.5t84 -21.5q85 0 133.5 47.5t48.5 107.5v59zM443 697v-60h-321v60h321z" />
    <glyph glyph-name="Abreve" unicode="&#x102;" horiz-adv-x="673" 
d="M82 0h-78l292 710h79l293 -710h-81l-67 166h-370zM336 621h-2l-158 -387h317zM336 817q37 0 58.5 20t21.5 57h57q0 -61 -37 -95.5t-100 -34.5t-100.5 34.5t-37.5 95.5h58q0 -37 21.5 -57t58.5 -20z" />
    <glyph glyph-name="abreve" unicode="&#x103;" horiz-adv-x="580" 
d="M278 460q-124 0 -144 -101l-67 14q14 68 66.5 108t147.5 40q106 0 159 -51.5t53 -139.5v-223q0 -49 43 -49l18 2v-59q-10 -3 -32 -3q-36 0 -63 22t-33 59q-29 -43 -81.5 -67t-114.5 -24q-88 0 -133 40.5t-45 111.5q0 129 192 154l178 23v14q0 129 -144 129zM422 261
l-169 -23q-70 -9 -100.5 -33.5t-30.5 -64.5q0 -50 34 -71.5t84 -21.5q85 0 133.5 47.5t48.5 107.5v59zM276 648q37 0 58.5 20t21.5 57h57q0 -61 -37 -95.5t-100 -34.5t-100.5 34.5t-37.5 95.5h58q0 -37 21.5 -57t58.5 -20z" />
    <glyph glyph-name="Aogonek" unicode="&#x104;" horiz-adv-x="673" 
d="M669 -128l26 -41q-1 0 -5.5 -4.5t-11 -9t-16 -9.5t-23 -8.5t-28.5 -3.5q-47 0 -71.5 30t-24.5 73q0 77 64 122l-59 145h-370l-68 -166h-78l292 710h79l293 -710h-24q-71 -32 -71 -98q0 -23 12.5 -38.5t35.5 -15.5q10 0 19.5 3.5t15 8t9.5 8.5zM336 621h-2l-158 -387h317z
" />
    <glyph glyph-name="aogonek" unicode="&#x105;" horiz-adv-x="580" 
d="M519 -127l26 -41q-1 0 -5.5 -4.5t-11 -9t-16 -9.5t-23 -8.5t-28.5 -3.5q-47 0 -71.5 30t-24.5 73q0 87 81 133q-15 19 -20 46q-29 -43 -81.5 -67t-114.5 -24q-88 0 -133 40.5t-45 111.5q0 129 192 154l178 23v14q0 129 -144 129q-124 0 -144 -101l-67 14q14 68 66.5 108
t147.5 40q106 0 159 -51.5t53 -139.5v-223q0 -49 43 -49l18 2v-59q-10 -3 -32 -3q-12 0 -26 3q-36 -15 -54.5 -42t-18.5 -56q0 -23 12.5 -38.5t35.5 -15.5q10 0 19.5 3.5t15 8t9.5 8.5zM422 261l-169 -23q-70 -9 -100.5 -33.5t-30.5 -64.5q0 -50 34 -71.5t84 -21.5
q85 0 133.5 47.5t48.5 107.5v59z" />
    <glyph glyph-name="Cacute" unicode="&#x106;" horiz-adv-x="781" 
d="M52 355q0 161 96.5 265.5t254.5 104.5q118 0 204.5 -60t120.5 -164l-71 -24q-25 83 -93 131t-161 48q-124 0 -199.5 -83t-75.5 -218t75.5 -218t199.5 -83q93 0 161 48t93 131l71 -24q-34 -104 -120.5 -164t-204.5 -60q-158 0 -254.5 104.5t-96.5 265.5zM431 940h77
l-77 -170h-66z" />
    <glyph glyph-name="cacute" unicode="&#x107;" horiz-adv-x="573" 
d="M300 52q60 0 102 31t60 85l66 -26q-25 -68 -84 -111t-144 -43q-112 0 -181.5 78.5t-69.5 187.5t69.5 188t181.5 79q85 0 144 -43t84 -111l-66 -26q-18 54 -60 85t-102 31q-80 0 -129.5 -57t-49.5 -146q0 -88 49.5 -145t129.5 -57zM324 759h77l-77 -170h-66z" />
    <glyph glyph-name="Ccircumflex" unicode="&#x108;" horiz-adv-x="781" 
d="M52 355q0 161 96.5 265.5t254.5 104.5q118 0 204.5 -60t120.5 -164l-71 -24q-25 83 -93 131t-161 48q-124 0 -199.5 -83t-75.5 -218t75.5 -218t199.5 -83q93 0 161 48t93 131l71 -24q-34 -104 -120.5 -164t-204.5 -60q-158 0 -254.5 104.5t-96.5 265.5zM264 838l134 70
l135 -70v-65l-135 68l-134 -68v65z" />
    <glyph glyph-name="ccircumflex" unicode="&#x109;" horiz-adv-x="573" 
d="M300 52q60 0 102 31t60 85l66 -26q-25 -68 -84 -111t-144 -43q-112 0 -181.5 78.5t-69.5 187.5t69.5 188t181.5 79q85 0 144 -43t84 -111l-66 -26q-18 54 -60 85t-102 31q-80 0 -129.5 -57t-49.5 -146q0 -88 49.5 -145t129.5 -57zM167 664l134 70l135 -70v-65l-135 68
l-134 -68v65z" />
    <glyph glyph-name="Cdotaccent" unicode="&#x10a;" horiz-adv-x="781" 
d="M52 355q0 161 96.5 265.5t254.5 104.5q118 0 204.5 -60t120.5 -164l-71 -24q-25 83 -93 131t-161 48q-124 0 -199.5 -83t-75.5 -218t75.5 -218t199.5 -83q93 0 161 48t93 131l71 -24q-34 -104 -120.5 -164t-204.5 -60q-158 0 -254.5 104.5t-96.5 265.5zM399 775
q-22 0 -36.5 14t-14.5 36q0 23 14 37t37 14q22 0 36.5 -14.5t14.5 -36.5t-14.5 -36t-36.5 -14z" />
    <glyph glyph-name="cdotaccent" unicode="&#x10b;" horiz-adv-x="573" 
d="M300 52q60 0 102 31t60 85l66 -26q-25 -68 -84 -111t-144 -43q-112 0 -181.5 78.5t-69.5 187.5t69.5 188t181.5 79q85 0 144 -43t84 -111l-66 -26q-18 54 -60 85t-102 31q-80 0 -129.5 -57t-49.5 -146q0 -88 49.5 -145t129.5 -57zM291 627q-22 0 -36.5 14t-14.5 36
q0 23 14 37t37 14q22 0 36.5 -14.5t14.5 -36.5t-14.5 -36t-36.5 -14z" />
    <glyph glyph-name="Ccaron" unicode="&#x10c;" horiz-adv-x="781" 
d="M52 355q0 161 96.5 265.5t254.5 104.5q118 0 204.5 -60t120.5 -164l-71 -24q-25 83 -93 131t-161 48q-124 0 -199.5 -83t-75.5 -218t75.5 -218t199.5 -83q93 0 161 48t93 131l71 -24q-34 -104 -120.5 -164t-204.5 -60q-158 0 -254.5 104.5t-96.5 265.5zM404 766l-134 70
v65l134 -67l135 67v-65z" />
    <glyph glyph-name="ccaron" unicode="&#x10d;" horiz-adv-x="573" 
d="M300 52q60 0 102 31t60 85l66 -26q-25 -68 -84 -111t-144 -43q-112 0 -181.5 78.5t-69.5 187.5t69.5 188t181.5 79q85 0 144 -43t84 -111l-66 -26q-18 54 -60 85t-102 31q-80 0 -129.5 -57t-49.5 -146q0 -88 49.5 -145t129.5 -57zM301 591l-134 70v65l134 -67l135 67v-65
z" />
    <glyph glyph-name="Dcaron" unicode="&#x10e;" horiz-adv-x="763" 
d="M316 0h-215v710h215q186 0 290.5 -96t104.5 -259t-104.5 -259t-290.5 -96zM635 355q0 135 -82.5 210t-240.5 75h-138v-570h138q158 0 240.5 75t82.5 210zM344 766l-134 70v65l134 -67l135 67v-65z" />
    <glyph glyph-name="dcaron" unicode="&#x10f;" horiz-adv-x="638" 
d="M479 417v333h71v-750h-68v94q-57 -106 -193 -106q-112 0 -176 77.5t-64 188.5q0 112 64 189.5t176 77.5q132 0 190 -104zM482 254q0 88 -48 145.5t-131 57.5t-132.5 -58t-49.5 -145q0 -86 49.5 -144t132.5 -58t131 58t48 144zM641 679q0 21 -8.5 36.5t-14.5 20.5l57 20
q29 -27 29 -75q0 -27 -7.5 -51t-18 -39t-21 -26.5t-17.5 -16.5l-8 -5l-39 46q5 3 13 9.5t21.5 30t13.5 50.5z" />
    <glyph glyph-name="Dcroat" unicode="&#x110;" horiz-adv-x="763" 
d="M316 0h-215v322h-82v66h82v322h215q186 0 290.5 -96t104.5 -259t-104.5 -259t-290.5 -96zM635 355q0 135 -82.5 210t-240.5 75h-138v-252h183v-66h-183v-252h138q158 0 240.5 75t82.5 210z" />
    <glyph glyph-name="dcroat" unicode="&#x111;" horiz-adv-x="638" 
d="M479 417v171h-165v60h165v102h71v-102h77v-60h-77v-588h-68v94q-57 -106 -193 -106q-112 0 -176 77.5t-64 188.5q0 112 64 189.5t176 77.5q132 0 190 -104zM482 254q0 88 -48 145.5t-131 57.5t-132.5 -58t-49.5 -145q0 -86 49.5 -144t132.5 -58t131 58t48 144z" />
    <glyph glyph-name="Emacron" unicode="&#x112;" horiz-adv-x="636" 
d="M578 69v-69h-477v710h477v-69h-404v-246h383v-69h-383v-257h404zM500 830v-60h-321v60h321z" />
    <glyph glyph-name="emacron" unicode="&#x113;" horiz-adv-x="593" 
d="M462 158l62 -27q-28 -65 -86.5 -104t-137.5 -39q-116 0 -183.5 77.5t-67.5 189.5q0 110 69.5 188t180.5 78t178 -74.5t67 -185.5l-1 -27h-423q5 -80 54 -131t127 -51q57 0 99 28.5t62 77.5zM299 457q-72 0 -120 -46.5t-57 -118.5h351q-7 75 -53.5 120t-120.5 45zM461 697
v-60h-321v60h321z" />
    <glyph glyph-name="Ebreve" unicode="&#x114;" horiz-adv-x="636" 
d="M578 69v-69h-477v710h477v-69h-404v-246h383v-69h-383v-257h404zM335 817q37 0 58.5 20t21.5 57h57q0 -61 -37 -95.5t-100 -34.5t-100.5 34.5t-37.5 95.5h58q0 -37 21.5 -57t58.5 -20z" />
    <glyph glyph-name="ebreve" unicode="&#x115;" horiz-adv-x="593" 
d="M462 158l62 -27q-28 -65 -86.5 -104t-137.5 -39q-116 0 -183.5 77.5t-67.5 189.5q0 110 69.5 188t180.5 78t178 -74.5t67 -185.5l-1 -27h-423q5 -80 54 -131t127 -51q57 0 99 28.5t62 77.5zM299 457q-72 0 -120 -46.5t-57 -118.5h351q-7 75 -53.5 120t-120.5 45zM299 648
q37 0 58.5 20t21.5 57h57q0 -61 -37 -95.5t-100 -34.5t-100.5 34.5t-37.5 95.5h58q0 -37 21.5 -57t58.5 -20z" />
    <glyph glyph-name="Edotaccent" unicode="&#x116;" horiz-adv-x="636" 
d="M578 69v-69h-477v710h477v-69h-404v-246h383v-69h-383v-257h404zM341 775q-22 0 -36.5 14t-14.5 36q0 23 14 37t37 14q22 0 36.5 -14.5t14.5 -36.5t-14.5 -36t-36.5 -14z" />
    <glyph glyph-name="edotaccent" unicode="&#x117;" horiz-adv-x="593" 
d="M462 158l62 -27q-28 -65 -86.5 -104t-137.5 -39q-116 0 -183.5 77.5t-67.5 189.5q0 110 69.5 188t180.5 78t178 -74.5t67 -185.5l-1 -27h-423q5 -80 54 -131t127 -51q57 0 99 28.5t62 77.5zM299 457q-72 0 -120 -46.5t-57 -118.5h351q-7 75 -53.5 120t-120.5 45zM299 627
q-22 0 -36.5 14t-14.5 36q0 23 14 37t37 14q22 0 36.5 -14.5t14.5 -36.5t-14.5 -36t-36.5 -14z" />
    <glyph glyph-name="Eogonek" unicode="&#x118;" horiz-adv-x="636" 
d="M543 -127l26 -41q-1 0 -5.5 -4.5t-11 -9t-16 -9.5t-23 -8.5t-28.5 -3.5q-47 0 -71.5 30t-24.5 73q0 58 39 100h-327v710h477v-69h-404v-246h383v-69h-383v-257h404v-69h-62q-69 -32 -69 -97q0 -23 12.5 -38.5t35.5 -15.5q10 0 19.5 3.5t15 8t9.5 8.5z" />
    <glyph glyph-name="eogonek" unicode="&#x119;" horiz-adv-x="593" 
d="M386 -130l26 -41q-1 0 -5.5 -4.5t-11 -9t-16 -9.5t-23 -8.5t-28.5 -3.5q-47 0 -71.5 30t-24.5 73q0 54 33 93q-101 12 -158.5 86.5t-57.5 178.5q0 110 69.5 188t180.5 78t178 -74.5t67 -185.5l-1 -27h-423q5 -80 54 -131t127 -51q57 0 99 28.5t62 77.5l62 -27
q-23 -54 -68 -90.5t-105 -47.5q-61 -33 -61 -93q0 -23 12.5 -38.5t35.5 -15.5q10 0 19.5 3.5t15 8t9.5 8.5zM299 457q-72 0 -120 -46.5t-57 -118.5h351q-7 75 -53.5 120t-120.5 45z" />
    <glyph glyph-name="Ecaron" unicode="&#x11a;" horiz-adv-x="636" 
d="M578 69v-69h-477v710h477v-69h-404v-246h383v-69h-383v-257h404zM339 766l-134 70v65l134 -67l135 67v-65z" />
    <glyph glyph-name="ecaron" unicode="&#x11b;" horiz-adv-x="593" 
d="M462 158l62 -27q-28 -65 -86.5 -104t-137.5 -39q-116 0 -183.5 77.5t-67.5 189.5q0 110 69.5 188t180.5 78t178 -74.5t67 -185.5l-1 -27h-423q5 -80 54 -131t127 -51q57 0 99 28.5t62 77.5zM299 457q-72 0 -120 -46.5t-57 -118.5h351q-7 75 -53.5 120t-120.5 45zM299 591
l-134 70v65l134 -67l135 67v-65z" />
    <glyph glyph-name="Gcircumflex" unicode="&#x11c;" horiz-adv-x="822" 
d="M403 725q118 0 204.5 -60t120.5 -164l-71 -24q-25 83 -93 131t-161 48q-124 0 -199.5 -83t-75.5 -218t76 -219t199 -84q112 0 186.5 70.5t78.5 188.5h-239v68h308v-379h-67v135q-38 -69 -109 -109t-161 -40q-157 0 -252.5 104t-95.5 265t96.5 265.5t254.5 104.5zM267 839
l134 70l135 -70v-65l-135 68l-134 -68v65z" />
    <glyph glyph-name="gcircumflex" unicode="&#x11d;" horiz-adv-x="559" 
d="M281 151q-56 0 -101 20q-3 -1 -6.5 -2.5t-12 -7t-14.5 -12t-11 -18t-5 -24.5q0 -22 13.5 -36t39.5 -14h185q84 0 123.5 -35t39.5 -95q0 -66 -60 -110t-185 -44q-124 0 -180 35t-56 105q0 27 12 50.5t23 33.5t22 17q-44 29 -44 88q0 67 68 102q-54 51 -54 132t55 133
t148 52q70 0 121 -32q10 40 44 63.5t79 23.5h13h10l3 -1v-65q-11 1 -28 1q-27 0 -44.5 -16t-17.5 -42q0 -22 6 -38q17 -37 17 -79q0 -81 -55 -133t-148 -52zM281 213q62 0 98 33t36 90t-36 90t-98 33t-98 -33t-36 -90t36 -90t98 -33zM376 -9h-207q-19 -7 -34 -26.5
t-15 -44.5q0 -42 40 -61t127 -19q176 0 176 87q0 64 -87 64zM153 664l134 70l135 -70v-65l-135 68l-134 -68v65z" />
    <glyph glyph-name="Gbreve" unicode="&#x11e;" horiz-adv-x="822" 
d="M403 725q118 0 204.5 -60t120.5 -164l-71 -24q-25 83 -93 131t-161 48q-124 0 -199.5 -83t-75.5 -218t76 -219t199 -84q112 0 186.5 70.5t78.5 188.5h-239v68h308v-379h-67v135q-38 -69 -109 -109t-161 -40q-157 0 -252.5 104t-95.5 265t96.5 265.5t254.5 104.5zM402 818
q37 0 58.5 20t21.5 57h57q0 -61 -37 -95.5t-100 -34.5t-100.5 34.5t-37.5 95.5h58q0 -37 21.5 -57t58.5 -20z" />
    <glyph glyph-name="gbreve" unicode="&#x11f;" horiz-adv-x="559" 
d="M281 151q-56 0 -101 20q-3 -1 -6.5 -2.5t-12 -7t-14.5 -12t-11 -18t-5 -24.5q0 -22 13.5 -36t39.5 -14h185q84 0 123.5 -35t39.5 -95q0 -66 -60 -110t-185 -44q-124 0 -180 35t-56 105q0 27 12 50.5t23 33.5t22 17q-44 29 -44 88q0 67 68 102q-54 51 -54 132t55 133
t148 52q70 0 121 -32q10 40 44 63.5t79 23.5h13h10l3 -1v-65q-11 1 -28 1q-27 0 -44.5 -16t-17.5 -42q0 -22 6 -38q17 -37 17 -79q0 -81 -55 -133t-148 -52zM281 213q62 0 98 33t36 90t-36 90t-98 33t-98 -33t-36 -90t36 -90t98 -33zM376 -9h-207q-19 -7 -34 -26.5
t-15 -44.5q0 -42 40 -61t127 -19q176 0 176 87q0 64 -87 64zM286 648q37 0 58.5 20t21.5 57h57q0 -61 -37 -95.5t-100 -34.5t-100.5 34.5t-37.5 95.5h58q0 -37 21.5 -57t58.5 -20z" />
    <glyph glyph-name="Gdotaccent" unicode="&#x120;" horiz-adv-x="822" 
d="M403 725q118 0 204.5 -60t120.5 -164l-71 -24q-25 83 -93 131t-161 48q-124 0 -199.5 -83t-75.5 -218t76 -219t199 -84q112 0 186.5 70.5t78.5 188.5h-239v68h308v-379h-67v135q-38 -69 -109 -109t-161 -40q-157 0 -252.5 104t-95.5 265t96.5 265.5t254.5 104.5zM404 775
q-22 0 -36.5 14t-14.5 36q0 23 14.5 37t36.5 14t36.5 -14.5t14.5 -36.5t-14.5 -36t-36.5 -14z" />
    <glyph glyph-name="gdotaccent" unicode="&#x121;" horiz-adv-x="559" 
d="M281 151q-56 0 -101 20q-3 -1 -6.5 -2.5t-12 -7t-14.5 -12t-11 -18t-5 -24.5q0 -22 13.5 -36t39.5 -14h185q84 0 123.5 -35t39.5 -95q0 -66 -60 -110t-185 -44q-124 0 -180 35t-56 105q0 27 12 50.5t23 33.5t22 17q-44 29 -44 88q0 67 68 102q-54 51 -54 132t55 133
t148 52q70 0 121 -32q10 40 44 63.5t79 23.5h13h10l3 -1v-65q-11 1 -28 1q-27 0 -44.5 -16t-17.5 -42q0 -22 6 -38q17 -37 17 -79q0 -81 -55 -133t-148 -52zM281 213q62 0 98 33t36 90t-36 90t-98 33t-98 -33t-36 -90t36 -90t98 -33zM376 -9h-207q-19 -7 -34 -26.5
t-15 -44.5q0 -42 40 -61t127 -19q176 0 176 87q0 64 -87 64zM286 627q-22 0 -36.5 14t-14.5 36q0 23 14.5 37t36.5 14t36.5 -14.5t14.5 -36.5t-14.5 -36t-36.5 -14z" />
    <glyph glyph-name="Gcommaaccent" unicode="&#x122;" horiz-adv-x="822" 
d="M403 725q118 0 204.5 -60t120.5 -164l-71 -24q-25 83 -93 131t-161 48q-124 0 -199.5 -83t-75.5 -218t76 -219t199 -84q112 0 186.5 70.5t78.5 188.5h-239v68h308v-379h-67v135q-38 -69 -109 -109t-161 -40q-157 0 -252.5 104t-95.5 265t96.5 265.5t254.5 104.5z
M381 -116q0 21 -8.5 36.5t-14.5 20.5l57 20q29 -27 29 -75q0 -27 -7.5 -51t-18 -39t-21 -26.5t-17.5 -16.5l-8 -5l-39 46q5 3 13 9.5t21.5 30t13.5 50.5z" />
    <glyph glyph-name="gcommaaccent" unicode="&#x123;" horiz-adv-x="559" 
d="M281 151q-56 0 -101 20q-3 -1 -6.5 -2.5t-12 -7t-14.5 -12t-11 -18t-5 -24.5q0 -22 13.5 -36t39.5 -14h185q84 0 123.5 -35t39.5 -95q0 -66 -60 -110t-185 -44q-124 0 -180 35t-56 105q0 27 12 50.5t23 33.5t22 17q-44 29 -44 88q0 67 68 102q-54 51 -54 132t55 133
t148 52q70 0 121 -32q10 40 44 63.5t79 23.5h13h10l3 -1v-65q-11 1 -28 1q-27 0 -44.5 -16t-17.5 -42q0 -22 6 -38q17 -37 17 -79q0 -81 -55 -133t-148 -52zM281 213q62 0 98 33t36 90t-36 90t-98 33t-98 -33t-36 -90t36 -90t98 -33zM376 -9h-207q-19 -7 -34 -26.5
t-15 -44.5q0 -42 40 -61t127 -19q176 0 176 87q0 64 -87 64zM295 668q0 -35 22 -57l-56 -20q-29 27 -29 75q0 27 7.5 51t18 39t21 26.5t17.5 16.5l8 5l39 -46q-5 -3 -13 -9.5t-21.5 -30t-13.5 -50.5z" />
    <glyph glyph-name="Hcircumflex" unicode="&#x124;" horiz-adv-x="764" 
d="M662 710v-710h-73v326h-415v-326h-73v710h73v-315h415v315h73zM246 830l134 70l135 -70v-65l-135 68l-134 -68v65z" />
    <glyph glyph-name="hcircumflex" unicode="&#x125;" horiz-adv-x="598" 
d="M158 750v-312q18 31 60 57t105 26q92 0 142.5 -54t50.5 -142v-325h-71v311q0 71 -33.5 109.5t-100.5 38.5t-110 -41.5t-43 -116.5v-301h-71v750h71zM-11 829l134 70l135 -70v-65l-135 68l-134 -68v65z" />
    <glyph glyph-name="Hbar" unicode="&#x126;" horiz-adv-x="764" 
d="M662 710v-143h60v-62h-60v-505h-73v326h-415v-326h-73v505h-60v62h60v143h73v-143h415v143h73zM174 395h415v110h-415v-110z" />
    <glyph glyph-name="hbar" unicode="&#x127;" horiz-adv-x="598" 
d="M158 750v-102h166v-60h-166v-150q18 31 60 57t105 26q92 0 142.5 -54t50.5 -142v-325h-71v311q0 71 -33.5 109.5t-100.5 38.5t-110 -41.5t-43 -116.5v-301h-71v588h-77v60h77v102h71z" />
    <glyph glyph-name="Itilde" unicode="&#x128;" horiz-adv-x="276" 
d="M174 710v-710h-73v710h73zM203 766q-29 0 -70 20t-62 20q-35 0 -42 -36h-55q5 44 31.5 69t69.5 25q29 0 69.5 -19.5t61.5 -19.5q35 0 42 36h55q-5 -44 -31 -69.5t-69 -25.5z" />
    <glyph glyph-name="itilde" unicode="&#x129;" horiz-adv-x="246" 
d="M188 622q-29 0 -70 20t-62 20q-35 0 -42 -36h-55q5 44 31.5 69t69.5 25q29 0 69.5 -19.5t61.5 -19.5q35 0 42 36h55q-5 -44 -31 -69.5t-69 -25.5zM158 509v-509h-71v509h71z" />
    <glyph glyph-name="Imacron" unicode="&#x12a;" horiz-adv-x="276" 
d="M174 710v-710h-73v710h73zM298 830v-60h-321v60h321z" />
    <glyph glyph-name="imacron" unicode="&#x12b;" horiz-adv-x="246" 
d="M284 697v-60h-321v60h321zM158 509v-509h-71v509h71z" />
    <glyph glyph-name="Ibreve" unicode="&#x12c;" horiz-adv-x="276" 
d="M174 710v-710h-73v710h73zM138 818q37 0 58.5 20t21.5 57h57q0 -61 -37 -95.5t-100 -34.5t-100.5 34.5t-37.5 95.5h58q0 -37 21.5 -57t58.5 -20z" />
    <glyph glyph-name="ibreve" unicode="&#x12d;" horiz-adv-x="246" 
d="M123 648q37 0 58.5 20t21.5 57h57q0 -61 -37 -95.5t-100 -34.5t-100.5 34.5t-37.5 95.5h58q0 -37 21.5 -57t58.5 -20zM158 509v-509h-71v509h71z" />
    <glyph glyph-name="Iogonek" unicode="&#x12e;" horiz-adv-x="276" 
d="M177 -127l26 -41q-1 0 -5.5 -4.5t-11 -9t-16 -9.5t-23 -8.5t-28.5 -3.5q-47 0 -71.5 30t-24.5 73q0 86 78 131v679h73v-710h-24q-69 -32 -69 -97q0 -23 12.5 -38.5t35.5 -15.5q10 0 19.5 3.5t15 8t9.5 8.5z" />
    <glyph glyph-name="iogonek" unicode="&#x12f;" horiz-adv-x="246" 
d="M174 -127l26 -41q-1 0 -5.5 -4.5t-11 -9t-16 -9.5t-23 -8.5t-28.5 -3.5q-47 0 -71.5 30t-24.5 73q0 78 67 124v485h71v-509h-11q-69 -32 -69 -97q0 -23 12.5 -38.5t35.5 -15.5q10 0 19.5 3.5t15 8t9.5 8.5zM123 635q-23 0 -37 13.5t-14 35.5t14 36.5t37 14.5
q22 0 36.5 -14.5t14.5 -36.5t-14.5 -35.5t-36.5 -13.5z" />
    <glyph glyph-name="Idotaccent" unicode="&#x130;" horiz-adv-x="276" 
d="M174 710v-710h-73v710h73zM137 775q-22 0 -36.5 14t-14.5 36q0 23 14 37t37 14q22 0 36.5 -14.5t14.5 -36.5t-14.5 -36t-36.5 -14z" />
    <glyph glyph-name="dotlessi" unicode="&#x131;" horiz-adv-x="246" 
d="M158 509v-509h-71v509h71z" />
    <glyph glyph-name="Jcircumflex" unicode="&#x134;" horiz-adv-x="591" 
d="M42 240l75 13q-2 -12 -2 -40q0 -71 40 -115.5t113 -44.5q74 0 114.5 44t40.5 124v489h73v-487q0 -108 -61 -172t-167 -64q-105 0 -166 61t-61 165q0 5 0.5 14.5t0.5 12.5zM326 839l134 70l135 -70v-65l-135 68l-134 -68v65z" />
    <glyph glyph-name="jcircumflex" unicode="&#x135;" horiz-adv-x="246" 
d="M-13 664l135 70l134 -70v-65l-134 68l-135 -68v65zM-21 -218v65q4 -1 22 -1q43 0 64.5 21t21.5 68v574h71v-571q0 -78 -41 -117.5t-110 -39.5z" />
    <glyph glyph-name="Kcommaaccent" unicode="&#x136;" horiz-adv-x="703" 
d="M700 0h-93l-278 362l-155 -152v-210h-73v710h73v-409l408 409h98l-300 -296zM345 -116q0 21 -8.5 36.5t-14.5 20.5l57 20q29 -27 29 -75q0 -27 -7.5 -51t-18 -39t-21 -26.5t-17.5 -16.5l-8 -5l-39 46q5 3 13 9.5t21.5 30t13.5 50.5z" />
    <glyph glyph-name="kcommaaccent" unicode="&#x137;" horiz-adv-x="553" 
d="M439 509h95l-211 -210l227 -299h-88l-189 251l-115 -112v-139h-71v750h71v-524zM287 -116q0 21 -8.5 36.5t-14.5 20.5l57 20q29 -27 29 -75q0 -27 -7.5 -51t-18 -39t-21 -26.5t-17.5 -16.5l-8 -5l-39 46q5 3 13 9.5t21.5 30t13.5 50.5z" />
    <glyph glyph-name="Lacute" unicode="&#x139;" horiz-adv-x="541" 
d="M530 69v-69h-429v710h73v-641h356zM169 940h77l-77 -170h-66z" />
    <glyph glyph-name="lacute" unicode="&#x13a;" horiz-adv-x="246" 
d="M158 0h-71v750h71v-750zM154 980h77l-77 -170h-66z" />
    <glyph glyph-name="Lcommaaccent" unicode="&#x13b;" horiz-adv-x="541" 
d="M530 69v-69h-429v710h73v-641h356zM310 -116q0 21 -8.5 36.5t-14.5 20.5l57 20q29 -27 29 -75q0 -27 -7.5 -51t-18 -39t-21 -26.5t-18.5 -16.5l-7 -5l-39 46q5 3 13 9.5t21.5 30t13.5 50.5z" />
    <glyph glyph-name="lcommaaccent" unicode="&#x13c;" horiz-adv-x="246" 
d="M158 0h-71v750h71v-750zM107 -116q0 21 -8.5 36.5t-14.5 20.5l57 20q29 -27 29 -75q0 -27 -7.5 -51t-18 -39t-21 -26.5t-17.5 -16.5l-8 -5l-39 46q5 3 13 9.5t21.5 30t13.5 50.5z" />
    <glyph glyph-name="Lcaron" unicode="&#x13d;" horiz-adv-x="541" 
d="M530 69v-69h-429v710h73v-641h356zM330 648q0 21 -8.5 36.5t-14.5 20.5l57 20q29 -27 29 -75q0 -27 -7.5 -51t-18 -39t-21 -26.5t-18.5 -16.5l-7 -5l-39 46q5 3 13 9.5t21.5 30t13.5 50.5z" />
    <glyph glyph-name="lcaron" unicode="&#x13e;" horiz-adv-x="246" 
d="M158 0h-71v750h71v-750zM249 679q0 21 -8.5 36.5t-14.5 20.5l57 20q29 -27 29 -75q0 -27 -7.5 -51t-18 -39t-21 -26.5t-17.5 -16.5l-8 -5l-39 46q5 3 13 9.5t21.5 30t13.5 50.5z" />
    <glyph glyph-name="Lslash" unicode="&#x141;" horiz-adv-x="541" 
d="M530 69v-69h-429v279l-89 -25v63l89 25v368h73v-348l125 35v-63l-125 -35v-230h356z" />
    <glyph glyph-name="lslash" unicode="&#x142;" horiz-adv-x="246" 
d="M159 0h-71v277l-81 -23v62l81 23v411h71v-390l81 23v-62l-81 -23v-298z" />
    <glyph glyph-name="Nacute" unicode="&#x143;" horiz-adv-x="766" 
d="M174 593v-593h-73v710h77l414 -594v594h73v-710h-77zM416 940h77l-77 -170h-66z" />
    <glyph glyph-name="nacute" unicode="&#x144;" horiz-adv-x="598" 
d="M155 509v-78q18 34 60 62t108 28q92 0 142.5 -54t50.5 -142v-325h-71v311q0 71 -33.5 109.5t-100.5 38.5t-110 -41t-43 -115v-303h-71v509h68zM323 759h77l-77 -170h-66z" />
    <glyph glyph-name="Ncommaaccent" unicode="&#x145;" horiz-adv-x="766" 
d="M174 593v-593h-73v710h77l414 -594v594h73v-710h-77zM369 -116q0 21 -8.5 36.5t-14.5 20.5l57 20q29 -27 29 -75q0 -27 -7.5 -51t-18 -39t-21 -26.5t-17.5 -16.5l-8 -5l-39 46q5 3 13 9.5t21.5 30t13.5 50.5z" />
    <glyph glyph-name="ncommaaccent" unicode="&#x146;" horiz-adv-x="598" 
d="M155 509v-78q18 34 60 62t108 28q92 0 142.5 -54t50.5 -142v-325h-71v311q0 71 -33.5 109.5t-100.5 38.5t-110 -41t-43 -115v-303h-71v509h68zM290 -116q0 21 -8.5 36.5t-14.5 20.5l57 20q29 -27 29 -75q0 -27 -7.5 -51t-18 -39t-21 -26.5t-18.5 -16.5l-7 -5l-39 46
q5 3 13 9.5t21.5 30t13.5 50.5z" />
    <glyph glyph-name="Ncaron" unicode="&#x147;" horiz-adv-x="766" 
d="M174 593v-593h-73v710h77l414 -594v594h73v-710h-77zM385 764l-134 70v65l134 -67l135 67v-65z" />
    <glyph glyph-name="ncaron" unicode="&#x148;" horiz-adv-x="598" 
d="M155 509v-78q18 34 60 62t108 28q92 0 142.5 -54t50.5 -142v-325h-71v311q0 71 -33.5 109.5t-100.5 38.5t-110 -41t-43 -115v-303h-71v509h68zM298 591l-134 70v65l134 -67l135 67v-65z" />
    <glyph glyph-name="Eng" unicode="&#x14a;" horiz-adv-x="766" 
d="M592 2l-418 589v-591h-73v710h77l414 -584v584h73v-682q0 -101 -46.5 -163.5t-140.5 -76.5l-19 61q68 12 98.5 48t34.5 105z" />
    <glyph glyph-name="eng" unicode="&#x14b;" horiz-adv-x="598" 
d="M445 31v280q0 71 -33.5 109.5t-100.5 38.5t-110 -41t-43 -115v-303h-71v509h68v-78q18 34 60 62t108 28q92 0 142.5 -54t50.5 -142v-279q0 -91 -41.5 -152.5t-124.5 -80.5l-22 59q117 30 117 159z" />
    <glyph glyph-name="Omacron" unicode="&#x14c;" horiz-adv-x="828" 
d="M128 355q0 -133 81 -217t205 -84t205 84t81 217t-81 217t-205 84t-205 -84t-81 -217zM776 355q0 -158 -100.5 -264t-261.5 -106t-261.5 106t-100.5 264t100.5 264t261.5 106t261.5 -106t100.5 -264zM574 831v-60h-321v60h321z" />
    <glyph glyph-name="omacron" unicode="&#x14d;" horiz-adv-x="617" 
d="M308 -12q-116 0 -187.5 78.5t-71.5 187.5q0 110 71.5 188.5t187.5 78.5q117 0 188.5 -78.5t71.5 -188.5q0 -109 -71.5 -187.5t-188.5 -78.5zM121 254q0 -87 52 -144.5t135 -57.5q84 0 136 57.5t52 144.5q0 88 -52 145.5t-136 57.5t-135.5 -57.5t-51.5 -145.5zM470 697
v-60h-321v60h321z" />
    <glyph glyph-name="Obreve" unicode="&#x14e;" horiz-adv-x="828" 
d="M128 355q0 -133 81 -217t205 -84t205 84t81 217t-81 217t-205 84t-205 -84t-81 -217zM776 355q0 -158 -100.5 -264t-261.5 -106t-261.5 106t-100.5 264t100.5 264t261.5 106t261.5 -106t100.5 -264zM414 817q37 0 58.5 20t21.5 57h57q0 -61 -37 -95.5t-100 -34.5
t-100.5 34.5t-37.5 95.5h58q0 -37 21.5 -57t58.5 -20z" />
    <glyph glyph-name="obreve" unicode="&#x14f;" horiz-adv-x="617" 
d="M308 -12q-116 0 -187.5 78.5t-71.5 187.5q0 110 71.5 188.5t187.5 78.5q117 0 188.5 -78.5t71.5 -188.5q0 -109 -71.5 -187.5t-188.5 -78.5zM121 254q0 -87 52 -144.5t135 -57.5q84 0 136 57.5t52 144.5q0 88 -52 145.5t-136 57.5t-135.5 -57.5t-51.5 -145.5zM308 648
q37 0 58.5 20t21.5 57h57q0 -61 -37 -95.5t-100 -34.5t-100.5 34.5t-37.5 95.5h58q0 -37 21.5 -57t58.5 -20z" />
    <glyph glyph-name="Ohungarumlaut" unicode="&#x150;" horiz-adv-x="828" 
d="M128 355q0 -133 81 -217t205 -84t205 84t81 217t-81 217t-205 84t-205 -84t-81 -217zM776 355q0 -158 -100.5 -264t-261.5 -106t-261.5 106t-100.5 264t100.5 264t261.5 106t261.5 -106t100.5 -264zM364 940h81l-85 -170h-61zM514 940h81l-86 -170h-61z" />
    <glyph glyph-name="ohungarumlaut" unicode="&#x151;" horiz-adv-x="617" 
d="M308 -12q-116 0 -187.5 78.5t-71.5 187.5q0 110 71.5 188.5t187.5 78.5q117 0 188.5 -78.5t71.5 -188.5q0 -109 -71.5 -187.5t-188.5 -78.5zM121 254q0 -87 52 -144.5t135 -57.5q84 0 136 57.5t52 144.5q0 88 -52 145.5t-136 57.5t-135.5 -57.5t-51.5 -145.5zM256 749h81
l-85 -170h-61zM406 749h81l-86 -170h-61z" />
    <glyph glyph-name="OE" unicode="&#x152;" horiz-adv-x="1233" 
d="M1175 69v-69h-477v136q-44 -72 -117 -111.5t-168 -39.5q-157 0 -259 106t-102 264t102 264t259 106q95 0 168 -40t117 -113v138h477v-69h-404v-246h382v-69h-382v-257h404zM413 657q-125 0 -205 -84t-80 -218t80 -218.5t205 -84.5t205 84.5t80 218.5t-80 218t-205 84z
" />
    <glyph glyph-name="oe" unicode="&#x153;" horiz-adv-x="1038" 
d="M746 52q57 0 99 28.5t62 77.5l62 -27q-28 -65 -86.5 -104t-137.5 -39q-149 0 -216 128q-31 -58 -88.5 -93t-132.5 -35q-116 0 -187.5 78.5t-71.5 187.5q0 110 71.5 188.5t187.5 78.5q75 0 132.5 -35.5t89.5 -94.5q31 59 87 94.5t128 35.5q111 0 178 -74.5t67 -185.5
l-1 -27h-423q5 -79 53.5 -130.5t126.5 -51.5zM568 292h350q-7 74 -53.5 119.5t-119.5 45.5q-72 0 -120 -46.5t-57 -118.5zM308 52q84 0 136 57.5t52 144.5q0 88 -52 145.5t-136 57.5t-135.5 -57.5t-51.5 -145.5q0 -87 52 -144.5t135 -57.5z" />
    <glyph glyph-name="Racute" unicode="&#x154;" horiz-adv-x="672" 
d="M637 0h-88l-167 309h-208v-309h-73v710h292q115 0 171.5 -55.5t56.5 -144.5q0 -75 -40.5 -127t-122.5 -67zM545 510q0 60 -37.5 95t-111.5 35h-222v-261h222q74 0 111.5 34.5t37.5 96.5zM359 940h77l-77 -170h-66z" />
    <glyph glyph-name="racute" unicode="&#x155;" horiz-adv-x="351" 
d="M335 513v-67q-12 1 -25 1q-68 0 -110 -40.5t-42 -117.5v-289h-71v509h68v-79q18 33 59 58.5t104 25.5zM218 759h77l-77 -170h-66z" />
    <glyph glyph-name="Rcommaaccent" unicode="&#x156;" horiz-adv-x="672" 
d="M637 0h-88l-167 309h-208v-309h-73v710h292q115 0 171.5 -55.5t56.5 -144.5q0 -75 -40.5 -127t-122.5 -67zM545 510q0 60 -37.5 95t-111.5 35h-222v-261h222q74 0 111.5 34.5t37.5 96.5zM330 -116q0 21 -8.5 36.5t-14.5 20.5l57 20q29 -27 29 -75q0 -27 -7.5 -51t-18 -39
t-21 -26.5t-18.5 -16.5l-7 -5l-39 46q5 3 13 9.5t21.5 30t13.5 50.5z" />
    <glyph glyph-name="rcommaaccent" unicode="&#x157;" horiz-adv-x="351" 
d="M335 513v-67q-12 1 -25 1q-68 0 -110 -40.5t-42 -117.5v-289h-71v509h68v-79q18 33 59 58.5t104 25.5zM107 -116q0 21 -8.5 36.5t-14.5 20.5l57 20q29 -27 29 -75q0 -27 -7.5 -51t-18 -39t-21 -26.5t-17.5 -16.5l-8 -5l-39 46q5 3 13 9.5t21.5 30t13.5 50.5z" />
    <glyph glyph-name="Rcaron" unicode="&#x158;" horiz-adv-x="672" 
d="M637 0h-88l-167 309h-208v-309h-73v710h292q115 0 171.5 -55.5t56.5 -144.5q0 -75 -40.5 -127t-122.5 -67zM545 510q0 60 -37.5 95t-111.5 35h-222v-261h222q74 0 111.5 34.5t37.5 96.5zM334 765l-134 70v65l134 -67l135 67v-65z" />
    <glyph glyph-name="rcaron" unicode="&#x159;" horiz-adv-x="351" 
d="M335 513v-67q-12 1 -25 1q-68 0 -110 -40.5t-42 -117.5v-289h-71v509h68v-79q18 33 59 58.5t104 25.5zM202 591l-134 70v65l134 -67l135 67v-65z" />
    <glyph glyph-name="Sacute" unicode="&#x15a;" horiz-adv-x="633" 
d="M39 196l71 16q7 -78 59 -119t136 -41q89 0 139.5 34.5t50.5 98.5q0 45 -23 74t-60 42t-81.5 22t-89 20t-81.5 29t-60 56.5t-23 96.5q0 82 65 141t178 59q108 0 171.5 -58t72.5 -151l-70 -15q-4 72 -50 115t-123 43q-80 0 -125.5 -35.5t-45.5 -95.5q0 -42 23 -68.5
t60 -39.5t81.5 -21.5t89.5 -21t82 -31.5t60 -58.5t23 -97.5q0 -92 -73.5 -148t-192.5 -56q-123 0 -188.5 58.5t-75.5 151.5zM346 940h77l-77 -170h-66z" />
    <glyph glyph-name="sacute" unicode="&#x15b;" horiz-adv-x="504" 
d="M41 144l71 13q5 -50 39.5 -78.5t97.5 -28.5t98.5 23.5t35.5 62.5q0 29 -17.5 47.5t-45 26.5t-60.5 13.5t-66.5 13.5t-61 21.5t-45 42t-17.5 70.5q0 62 51 106t138 44q86 0 132.5 -40t58.5 -98l-68 -23q-5 44 -36 71.5t-89 27.5q-57 0 -87.5 -24t-30.5 -61q0 -33 23 -52
t58 -24.5t75.5 -14.5t75.5 -20t58 -43t23 -82q0 -62 -52.5 -106t-150.5 -44t-148.5 43.5t-59.5 112.5zM284 759h77l-77 -170h-66z" />
    <glyph glyph-name="Scircumflex" unicode="&#x15c;" horiz-adv-x="633" 
d="M39 196l71 16q7 -78 59 -119t136 -41q89 0 139.5 34.5t50.5 98.5q0 45 -23 74t-60 42t-81.5 22t-89 20t-81.5 29t-60 56.5t-23 96.5q0 82 65 141t178 59q108 0 171.5 -58t72.5 -151l-70 -15q-4 72 -50 115t-123 43q-80 0 -125.5 -35.5t-45.5 -95.5q0 -42 23 -68.5
t60 -39.5t81.5 -21.5t89.5 -21t82 -31.5t60 -58.5t23 -97.5q0 -92 -73.5 -148t-192.5 -56q-123 0 -188.5 58.5t-75.5 151.5zM189 829l134 70l135 -70v-65l-135 68l-134 -68v65z" />
    <glyph glyph-name="scircumflex" unicode="&#x15d;" horiz-adv-x="504" 
d="M41 144l71 13q5 -50 39.5 -78.5t97.5 -28.5t98.5 23.5t35.5 62.5q0 29 -17.5 47.5t-45 26.5t-60.5 13.5t-66.5 13.5t-61 21.5t-45 42t-17.5 70.5q0 62 51 106t138 44q86 0 132.5 -40t58.5 -98l-68 -23q-5 44 -36 71.5t-89 27.5q-57 0 -87.5 -24t-30.5 -61q0 -33 23 -52
t58 -24.5t75.5 -14.5t75.5 -20t58 -43t23 -82q0 -62 -52.5 -106t-150.5 -44t-148.5 43.5t-59.5 112.5zM128 664l134 70l135 -70v-65l-135 68l-134 -68v65z" />
    <glyph glyph-name="Scedilla" unicode="&#x15e;" horiz-adv-x="633" 
d="M243 -212l25 40q21 -20 54 -20q24 0 39 13t15 35q0 48 -51 48q-13 0 -24.5 -5t-16.5 -9l-4 -5l-31 17l31 85q-112 6 -172 63.5t-69 145.5l71 16q7 -78 59 -119t136 -41q89 0 139.5 34.5t50.5 98.5q0 45 -23 74t-60 42t-81.5 22t-89 20t-81.5 29t-60 56.5t-23 96.5
q0 82 65 141t178 59q108 0 171.5 -58t72.5 -151l-70 -15q-4 72 -50 115t-123 43q-80 0 -125.5 -35.5t-45.5 -95.5q0 -42 23 -68.5t60 -39.5t81.5 -21.5t89.5 -21t82 -31.5t60 -58.5t23 -97.5q0 -87 -66.5 -142.5t-177.5 -60.5l-16 -45q9 5 29 5q41 0 66 -25.5t25 -64.5
q0 -43 -29.5 -69.5t-76.5 -26.5q-24 0 -44 6.5t-28 13.5z" />
    <glyph glyph-name="scedilla" unicode="&#x15f;" horiz-adv-x="504" 
d="M188 -212l25 40q21 -20 54 -20q24 0 39 13t15 35q0 48 -51 48q-13 0 -24.5 -5t-15.5 -9l-5 -5l-31 17l32 87q-87 5 -132 47.5t-53 107.5l71 13q5 -50 39.5 -78.5t97.5 -28.5t98.5 23.5t35.5 62.5q0 29 -17.5 47.5t-45 26.5t-60.5 13.5t-66.5 13.5t-61 21.5t-45 42
t-17.5 70.5q0 62 51 106t138 44q86 0 132.5 -40t58.5 -98l-68 -23q-5 44 -36 71.5t-89 27.5q-57 0 -87.5 -24t-30.5 -61q0 -33 23 -52t58 -24.5t75.5 -14.5t75.5 -20t58 -43t23 -82q0 -59 -46.5 -101.5t-134.5 -47.5l-17 -47q9 5 29 5q41 0 66 -25.5t25 -64.5
q0 -43 -29.5 -69.5t-76.5 -26.5q-24 0 -44 6.5t-28 13.5z" />
    <glyph glyph-name="Scaron" unicode="&#x160;" horiz-adv-x="633" 
d="M39 196l71 16q7 -78 59 -119t136 -41q89 0 139.5 34.5t50.5 98.5q0 45 -23 74t-60 42t-81.5 22t-89 20t-81.5 29t-60 56.5t-23 96.5q0 82 65 141t178 59q108 0 171.5 -58t72.5 -151l-70 -15q-4 72 -50 115t-123 43q-80 0 -125.5 -35.5t-45.5 -95.5q0 -42 23 -68.5
t60 -39.5t81.5 -21.5t89.5 -21t82 -31.5t60 -58.5t23 -97.5q0 -92 -73.5 -148t-192.5 -56q-123 0 -188.5 58.5t-75.5 151.5zM319 764l-134 70v65l134 -67l135 67v-65z" />
    <glyph glyph-name="scaron" unicode="&#x161;" horiz-adv-x="504" 
d="M41 144l71 13q5 -50 39.5 -78.5t97.5 -28.5t98.5 23.5t35.5 62.5q0 29 -17.5 47.5t-45 26.5t-60.5 13.5t-66.5 13.5t-61 21.5t-45 42t-17.5 70.5q0 62 51 106t138 44q86 0 132.5 -40t58.5 -98l-68 -23q-5 44 -36 71.5t-89 27.5q-57 0 -87.5 -24t-30.5 -61q0 -33 23 -52
t58 -24.5t75.5 -14.5t75.5 -20t58 -43t23 -82q0 -62 -52.5 -106t-150.5 -44t-148.5 43.5t-59.5 112.5zM260 591l-134 70v65l134 -67l135 67v-65z" />
    <glyph glyph-name="Tcommaaccent" unicode="&#x162;" horiz-adv-x="545" 
d="M536 710v-70h-227v-640h-73v640h-227v70h527zM257 -116q0 21 -8.5 36.5t-14.5 20.5l57 20q29 -27 29 -75q0 -27 -7.5 -51t-18 -39t-21 -26.5t-17.5 -16.5l-8 -5l-39 46q5 3 13 9.5t21.5 30t13.5 50.5z" />
    <glyph glyph-name="tcommaaccent" unicode="&#x163;" horiz-adv-x="334" 
d="M302 67v-64q-18 -5 -54 -5q-132 0 -132 139v312h-97v60h97v145h71v-145h117v-60h-117v-307q0 -80 70 -80zM192 -116q0 21 -8.5 36.5t-14.5 20.5l57 20q29 -27 29 -75q0 -27 -7.5 -51t-18 -39t-21 -26.5t-18.5 -16.5l-7 -5l-39 46q5 3 13 9.5t21.5 30t13.5 50.5z" />
    <glyph glyph-name="Tcaron" unicode="&#x164;" horiz-adv-x="545" 
d="M536 710v-70h-227v-640h-73v640h-227v70h527zM272 764l-134 70v65l134 -67l135 67v-65z" />
    <glyph glyph-name="tcaron" unicode="&#x165;" horiz-adv-x="334" 
d="M302 67v-64q-18 -5 -54 -5q-132 0 -132 139v312h-97v60h97v145h71v-145h117v-60h-117v-307q0 -80 70 -80zM286 682q0 14 -5 27t-10 19.5t-8 8.5l56 19q29 -26 29 -73q0 -41 -18 -74.5t-36 -46.5l-17 -12l-39 44q5 3 13 9.5t21.5 29t13.5 49.5z" />
    <glyph glyph-name="Tbar" unicode="&#x166;" horiz-adv-x="545" 
d="M536 710v-70h-227v-249h141v-62h-141v-329h-73v329h-141v62h141v249h-227v70h527z" />
    <glyph glyph-name="tbar" unicode="&#x167;" horiz-adv-x="334" 
d="M301 67v-64q-18 -5 -53 -5q-132 0 -132 139v129h-74v60h74v123h-97v60h97v145h71v-145h117v-60h-117v-123h87v-60h-87v-124q0 -80 70 -80z" />
    <glyph glyph-name="Utilde" unicode="&#x168;" horiz-adv-x="734" 
d="M367 -15q-129 0 -205.5 79t-76.5 229v417h73v-424q0 -108 54.5 -171t154.5 -63t154.5 63t54.5 171v424h73v-417q0 -150 -77 -229t-205 -79zM431 766q-29 0 -70 20t-62 20q-35 0 -42 -36h-55q5 44 31.5 69t69.5 25q29 0 69.5 -19.5t61.5 -19.5q35 0 42 36h55
q-5 -44 -31 -69.5t-69 -25.5z" />
    <glyph glyph-name="utilde" unicode="&#x169;" horiz-adv-x="593" 
d="M434 208v301h71v-509h-68v74q-17 -32 -58.5 -59t-106.5 -27q-92 0 -141 53.5t-49 141.5v326h71v-311q0 -148 131 -148q65 0 107.5 40.5t42.5 117.5zM361 622q-29 0 -70 20t-62 20q-35 0 -42 -36h-55q5 44 31.5 69t69.5 25q29 0 69.5 -19.5t61.5 -19.5q35 0 42 36h55
q-5 -44 -31 -69.5t-69 -25.5z" />
    <glyph glyph-name="Umacron" unicode="&#x16a;" horiz-adv-x="734" 
d="M367 -15q-129 0 -205.5 79t-76.5 229v417h73v-424q0 -108 54.5 -171t154.5 -63t154.5 63t54.5 171v424h73v-417q0 -150 -77 -229t-205 -79zM528 830v-60h-321v60h321z" />
    <glyph glyph-name="umacron" unicode="&#x16b;" horiz-adv-x="593" 
d="M434 208v301h71v-509h-68v74q-17 -32 -58.5 -59t-106.5 -27q-92 0 -141 53.5t-49 141.5v326h71v-311q0 -148 131 -148q65 0 107.5 40.5t42.5 117.5zM456 697v-60h-321v60h321z" />
    <glyph glyph-name="Ubreve" unicode="&#x16c;" horiz-adv-x="734" 
d="M367 -15q-129 0 -205.5 79t-76.5 229v417h73v-424q0 -108 54.5 -171t154.5 -63t154.5 63t54.5 171v424h73v-417q0 -150 -77 -229t-205 -79zM367 818q37 0 58.5 20t21.5 57h57q0 -61 -37 -95.5t-100 -34.5t-100.5 34.5t-37.5 95.5h58q0 -37 21.5 -57t58.5 -20z" />
    <glyph glyph-name="ubreve" unicode="&#x16d;" horiz-adv-x="593" 
d="M434 208v301h71v-509h-68v74q-17 -32 -58.5 -59t-106.5 -27q-92 0 -141 53.5t-49 141.5v326h71v-311q0 -148 131 -148q65 0 107.5 40.5t42.5 117.5zM296 648q37 0 58.5 20t21.5 57h57q0 -61 -37 -95.5t-100 -34.5t-100.5 34.5t-37.5 95.5h58q0 -37 21.5 -57t58.5 -20z
" />
    <glyph glyph-name="Uring" unicode="&#x16e;" horiz-adv-x="734" 
d="M367 -15q-129 0 -205.5 79t-76.5 229v417h73v-424q0 -108 54.5 -171t154.5 -63t154.5 63t54.5 171v424h73v-417q0 -150 -77 -229t-205 -79zM313 860q0 -27 16 -45t44 -18q27 0 43.5 18t16.5 45q0 26 -16.5 44.5t-43.5 18.5q-28 0 -44 -18t-16 -45zM261 860
q0 47 31.5 78.5t80.5 31.5t79.5 -31.5t30.5 -78.5t-30.5 -79t-79.5 -32t-80.5 32t-31.5 79z" />
    <glyph glyph-name="uring" unicode="&#x16f;" horiz-adv-x="593" 
d="M434 208v301h71v-509h-68v74q-17 -32 -58.5 -59t-106.5 -27q-92 0 -141 53.5t-49 141.5v326h71v-311q0 -148 131 -148q65 0 107.5 40.5t42.5 117.5zM236 695q0 -27 16 -45t44 -18q27 0 43.5 18t16.5 45q0 26 -16.5 44.5t-43.5 18.5q-28 0 -44 -18t-16 -45zM184 695
q0 47 31.5 78.5t80.5 31.5t79.5 -31.5t30.5 -78.5t-30.5 -79t-79.5 -32t-80.5 32t-31.5 79z" />
    <glyph glyph-name="Uhungarumlaut" unicode="&#x170;" horiz-adv-x="734" 
d="M367 -15q-129 0 -205.5 79t-76.5 229v417h73v-424q0 -108 54.5 -171t154.5 -63t154.5 63t54.5 171v424h73v-417q0 -150 -77 -229t-205 -79zM316 940h81l-85 -170h-61zM466 940h81l-86 -170h-61z" />
    <glyph glyph-name="uhungarumlaut" unicode="&#x171;" horiz-adv-x="593" 
d="M434 208v301h71v-509h-68v74q-17 -32 -58.5 -59t-106.5 -27q-92 0 -141 53.5t-49 141.5v326h71v-311q0 -148 131 -148q65 0 107.5 40.5t42.5 117.5zM245 749h81l-85 -170h-61zM395 749h81l-86 -170h-61z" />
    <glyph glyph-name="Uogonek" unicode="&#x172;" horiz-adv-x="734" 
d="M444 -135l26 -41q-1 0 -5.5 -4.5t-11 -9t-16 -9.5t-23 -8.5t-28.5 -3.5q-47 0 -71.5 30t-24.5 73q0 54 35 95q-111 12 -175.5 90.5t-64.5 215.5v417h73v-424q0 -108 54.5 -171t154.5 -63t154.5 63t54.5 171v424h73v-417q0 -138 -65 -216t-177 -90q-59 -33 -59 -92
q0 -23 12.5 -38.5t35.5 -15.5q10 0 19.5 3.5t15 8t9.5 8.5z" />
    <glyph glyph-name="uogonek" unicode="&#x173;" horiz-adv-x="593" 
d="M523 -127l26 -41q-1 0 -5.5 -4.5t-11 -9t-16 -9.5t-23 -8.5t-28.5 -3.5q-47 0 -71.5 30t-24.5 73q0 80 68 124v50q-17 -32 -58.5 -59t-106.5 -27q-92 0 -141 53.5t-49 141.5v326h71v-311q0 -148 131 -148q65 0 107.5 40.5t42.5 117.5v301h71v-509h-9q-69 -32 -69 -97
q0 -23 12.5 -38.5t35.5 -15.5q10 0 19.5 3.5t15 8t9.5 8.5z" />
    <glyph glyph-name="Wcircumflex" unicode="&#x174;" horiz-adv-x="1032" 
d="M515 613l-191 -613h-80l-228 710h82l185 -613h2l190 613h83l190 -614h2l186 614h79l-228 -711h-81l-189 614h-2zM382 830l134 70l135 -70v-65l-135 68l-134 -68v65z" />
    <glyph glyph-name="wcircumflex" unicode="&#x175;" horiz-adv-x="824" 
d="M549 0l-137 419h-1l-139 -419h-74l-176 509h76l137 -425l140 425h74l138 -425l139 425h75l-178 -509h-74zM277 664l134 70l135 -70v-65l-135 68l-134 -68v65z" />
    <glyph glyph-name="Ycircumflex" unicode="&#x176;" horiz-adv-x="615" 
d="M530 710h85l-271 -458v-252h-73v252l-271 458h82l225 -381h2zM173 829l134 70l135 -70v-65l-135 68l-134 -68v65z" />
    <glyph glyph-name="ycircumflex" unicode="&#x177;" horiz-adv-x="532" 
d="M82 -154q42 0 71.5 22t53.5 78l22 54l-213 509h77l173 -427l175 427h75l-246 -584q-61 -144 -185 -144l-20 1v65q8 -1 17 -1zM132 664l134 70l135 -70v-65l-135 68l-134 -68v65z" />
    <glyph glyph-name="Ydieresis" unicode="&#x178;" horiz-adv-x="615" 
d="M530 710h85l-271 -458v-252h-73v252l-271 458h82l225 -381h2zM232 762q-21 0 -34.5 13.5t-13.5 33.5q0 21 13.5 34.5t34.5 13.5t34.5 -13.5t13.5 -34.5q0 -20 -13.5 -33.5t-34.5 -13.5zM380 762q-21 0 -34.5 13.5t-13.5 33.5q0 21 13.5 34.5t34.5 13.5q20 0 34 -13.5
t14 -34.5q0 -20 -14 -33.5t-34 -13.5z" />
    <glyph glyph-name="Zacute" unicode="&#x179;" horiz-adv-x="659" 
d="M602 710v-63l-455 -578h459v-69h-554v63l456 578h-452v69h546zM353 939h77l-77 -170h-66z" />
    <glyph glyph-name="zacute" unicode="&#x17a;" horiz-adv-x="526" 
d="M472 452l-330 -389h334v-63h-426v57l330 389h-326v63h418v-57zM284 759h77l-77 -170h-66z" />
    <glyph glyph-name="Zdotaccent" unicode="&#x17b;" horiz-adv-x="659" 
d="M602 710v-63l-455 -578h459v-69h-554v63l456 578h-452v69h546zM329 775q-22 0 -36.5 14t-14.5 36q0 23 14 37t37 14q22 0 36.5 -14.5t14.5 -36.5t-14.5 -36t-36.5 -14z" />
    <glyph glyph-name="zdotaccent" unicode="&#x17c;" horiz-adv-x="526" 
d="M472 452l-330 -389h334v-63h-426v57l330 389h-326v63h418v-57zM263 627q-22 0 -36.5 14t-14.5 36q0 23 14 37t37 14q22 0 36.5 -14.5t14.5 -36.5t-14.5 -36t-36.5 -14z" />
    <glyph glyph-name="Zcaron" unicode="&#x17d;" horiz-adv-x="659" 
d="M602 710v-63l-455 -578h459v-69h-554v63l456 578h-452v69h546zM332 766l-134 70v65l134 -67l135 67v-65z" />
    <glyph glyph-name="zcaron" unicode="&#x17e;" horiz-adv-x="526" 
d="M472 452l-330 -389h334v-63h-426v57l330 389h-326v63h418v-57zM259 591l-134 70v65l134 -67l135 67v-65z" />
    <glyph glyph-name="florin" unicode="&#x192;" 
d="M336 366l-72 -372q-32 -164 -167 -164q-26 0 -49.5 8t-33.5 16l-10 8l30 55q24 -24 64 -24t62 25t34 85l71 363h-108l12 64h108l31 156q32 164 166 164q26 0 49.5 -8t33.5 -16l10 -8l-30 -55q-24 24 -64 24q-39 0 -61.5 -25.5t-33.5 -84.5l-29 -147h110l-12 -64h-111z
" />
    <glyph glyph-name="Aringacute" unicode="&#x1fa;" horiz-adv-x="673" 
d="M226 860q0 39 22.5 68.5t59.5 37.5l53 138h73l-64 -138q36 -10 57 -39t21 -67q0 -47 -30.5 -79t-79.5 -32t-80.5 32t-31.5 79zM278 860q0 -27 16 -45t44 -18q27 0 43.5 18t16.5 45q0 26 -16.5 44.5t-43.5 18.5q-28 0 -44 -18t-16 -45zM82 0h-78l292 710h79l293 -710h-81
l-67 166h-370zM336 621h-2l-158 -387h317z" />
    <glyph glyph-name="aringacute" unicode="&#x1fb;" horiz-adv-x="580" 
d="M175 695q0 39 22 68t58 38l54 138h72l-64 -138q37 -10 58.5 -39t21.5 -67q0 -47 -31 -79t-80 -32t-80 32t-31 79zM226 695q0 -27 16 -45t44 -18t44 18t16 45t-16 45t-44 18t-44 -18t-16 -45zM278 460q-124 0 -144 -101l-67 14q14 68 66.5 108t147.5 40q106 0 159 -51.5
t53 -139.5v-223q0 -49 43 -49l18 2v-59q-10 -3 -32 -3q-36 0 -63 22t-33 59q-29 -43 -81.5 -67t-114.5 -24q-88 0 -133 40.5t-45 111.5q0 129 192 154l178 23v14q0 129 -144 129zM422 261l-169 -23q-70 -9 -100.5 -33.5t-30.5 -64.5q0 -50 34 -71.5t84 -21.5
q85 0 133.5 47.5t48.5 107.5v59z" />
    <glyph glyph-name="AEacute" unicode="&#x1fc;" horiz-adv-x="986" 
d="M63 0h-85l429 710h522v-69h-404v-246h382v-69h-382v-257h404v-69h-477v166h-289zM446 638l-244 -404h250v404h-6zM575 940h77l-77 -170h-66z" />
    <glyph glyph-name="aeacute" unicode="&#x1fd;" horiz-adv-x="965" 
d="M240 47q86 0 134 46.5t48 108.5v59l-169 -23q-70 -9 -100.5 -33.5t-30.5 -64.5q0 -50 34 -71.5t84 -21.5zM672 457q-72 0 -120 -46.5t-57 -118.5h351q-8 75 -54 120t-120 45zM673 52q57 0 99 28.5t62 77.5l62 -27q-28 -65 -86.5 -104t-137.5 -39q-74 0 -129 34t-86 91
q-26 -59 -85 -92t-138 -33q-88 0 -135 40.5t-47 111.5q0 129 192 154l179 23v14q0 129 -145 129q-124 0 -144 -101l-67 14q14 68 66.5 108t147.5 40q147 0 192 -106q71 106 199 106q111 0 178 -74.5t67 -185.5l-1 -27h-423q5 -79 53.5 -130.5t126.5 -51.5zM503 759h77
l-77 -170h-66z" />
    <glyph glyph-name="Oslashacute" unicode="&#x1fe;" horiz-adv-x="828" 
d="M438 940h77l-77 -170h-66zM776 355q0 -158 -100.5 -264t-261.5 -106q-129 0 -220 69l-77 -92l-39 33l77 93q-103 105 -103 267q0 158 100.5 264t261.5 106q122 0 215 -67l75 90l39 -35l-74 -89q107 -105 107 -269zM699 355q0 130 -78 213l-380 -459q73 -56 173 -56
q124 0 204.5 84.5t80.5 217.5zM128 355q0 -127 75 -210l379 458q-72 53 -168 53q-124 0 -205 -84t-81 -217z" />
    <glyph glyph-name="oslashacute" unicode="&#x1ff;" horiz-adv-x="617" 
d="M334 759h77l-77 -170h-66zM308 -12q-86 0 -151 46l-53 -63l-35 30l54 63q-74 76 -74 190q0 110 71.5 188.5t187.5 78.5q89 0 155 -50l63 75l35 -30l-63 -75q70 -76 70 -187q0 -109 -71.5 -187.5t-188.5 -78.5zM496 254q0 79 -43 133l-253 -303q48 -32 108 -32
q84 0 136 57.5t52 144.5zM121 254q0 -83 46 -137l253 304q-47 36 -112 36q-84 0 -135.5 -57.5t-51.5 -145.5z" />
    <glyph glyph-name="Scommaaccent" unicode="&#x218;" horiz-adv-x="633" 
d="M39 196l71 16q7 -78 59 -119t136 -41q89 0 139.5 34.5t50.5 98.5q0 45 -23 74t-60 42t-81.5 22t-89 20t-81.5 29t-60 56.5t-23 96.5q0 82 65 141t178 59q108 0 171.5 -58t72.5 -151l-70 -15q-4 72 -50 115t-123 43q-80 0 -125.5 -35.5t-45.5 -95.5q0 -42 23 -68.5
t60 -39.5t81.5 -21.5t89.5 -21t82 -31.5t60 -58.5t23 -97.5q0 -92 -73.5 -148t-192.5 -56q-123 0 -188.5 58.5t-75.5 151.5zM298 -116q0 21 -8.5 36.5t-14.5 20.5l57 20q29 -27 29 -75q0 -27 -7.5 -51t-18 -39t-21 -26.5t-18.5 -16.5l-7 -5l-39 46q5 3 13 9.5t21.5 30
t13.5 50.5z" />
    <glyph glyph-name="scommaaccent" unicode="&#x219;" horiz-adv-x="504" 
d="M41 144l71 13q5 -50 39.5 -78.5t97.5 -28.5t98.5 23.5t35.5 62.5q0 29 -17.5 47.5t-45 26.5t-60.5 13.5t-66.5 13.5t-61 21.5t-45 42t-17.5 70.5q0 62 51 106t138 44q86 0 132.5 -40t58.5 -98l-68 -23q-5 44 -36 71.5t-89 27.5q-57 0 -87.5 -24t-30.5 -61q0 -33 23 -52
t58 -24.5t75.5 -14.5t75.5 -20t58 -43t23 -82q0 -62 -52.5 -106t-150.5 -44t-148.5 43.5t-59.5 112.5zM244 -116q0 21 -8.5 36.5t-14.5 20.5l57 20q29 -27 29 -75q0 -27 -7.5 -51t-18 -39t-21 -26.5t-18.5 -16.5l-7 -5l-39 46q5 3 13 9.5t21.5 30t13.5 50.5z" />
    <glyph glyph-name="circumflex" unicode="&#x2c6;" horiz-adv-x="418" 
d="M75 664l134 70l135 -70v-65l-135 68l-134 -68v65z" />
    <glyph glyph-name="caron" unicode="&#x2c7;" horiz-adv-x="418" 
d="M209 591l-134 70v65l134 -67l135 67v-65z" />
    <glyph glyph-name="breve" unicode="&#x2d8;" horiz-adv-x="374" 
d="M187 648q37 0 58.5 20t21.5 57h57q0 -61 -37 -95.5t-100 -34.5t-100.5 34.5t-37.5 95.5h58q0 -37 21.5 -57t58.5 -20z" />
    <glyph glyph-name="dotaccent" unicode="&#x2d9;" horiz-adv-x="246" 
d="M123 627q-22 0 -36.5 14t-14.5 36q0 23 14 37t37 14q22 0 36.5 -14.5t14.5 -36.5t-14.5 -36t-36.5 -14z" />
    <glyph glyph-name="ring" unicode="&#x2da;" horiz-adv-x="303" 
d="M93 695q0 -27 16 -45t44 -18q27 0 43.5 18t16.5 45q0 26 -16.5 44.5t-43.5 18.5q-28 0 -44 -18t-16 -45zM41 695q0 47 31.5 78.5t80.5 31.5t79.5 -31.5t30.5 -78.5t-30.5 -79t-79.5 -32t-80.5 32t-31.5 79z" />
    <glyph glyph-name="ogonek" unicode="&#x2db;" horiz-adv-x="271" 
d="M200 -127l26 -41q-1 0 -5.5 -4.5t-11 -9t-16 -9.5t-23 -8.5t-28.5 -3.5q-47 0 -71.5 30t-24.5 73q0 45 25.5 83t76.5 60l30 -41q-36 -16 -55 -42.5t-19 -56.5q0 -23 12.5 -38.5t35.5 -15.5q10 0 19.5 3.5t15 8t9.5 8.5z" />
    <glyph glyph-name="tilde" unicode="&#x2dc;" horiz-adv-x="421" 
d="M275 622q-29 0 -70 20t-62 20q-35 0 -42 -36h-55q5 44 31.5 69t69.5 25q29 0 69.5 -19.5t61.5 -19.5q35 0 42 36h55q-5 -44 -31 -69.5t-69 -25.5z" />
    <glyph glyph-name="hungarumlaut" unicode="&#x2dd;" horiz-adv-x="412" 
d="M123 749h81l-85 -170h-61zM273 749h81l-86 -170h-61z" />
    <glyph glyph-name="pi" unicode="&#x3c0;" horiz-adv-x="793" 
d="M30 356q0 158 104 263.5t265 105.5q162 0 265.5 -105.5t103.5 -263.5t-103.5 -263.5t-265.5 -105.5q-161 0 -265 105.5t-104 263.5zM92 356q0 -138 85 -226t222 -88q138 0 223 88t85 226t-85 226t-223 88q-137 0 -222 -88t-85 -226zM266 162v377h159q74 0 112 -36t38 -95
q0 -58 -38.5 -94t-111.5 -36h-97v-116h-62zM328 335h95q90 0 90 73q0 74 -90 74h-95v-147z" />
    <glyph glyph-name="Wgrave" unicode="&#x1e80;" horiz-adv-x="1032" 
d="M515 613l-191 -613h-80l-228 710h82l185 -613h2l190 613h83l190 -614h2l186 614h79l-228 -711h-81l-189 614h-2zM406 940h78l66 -170h-66z" />
    <glyph glyph-name="wgrave" unicode="&#x1e81;" horiz-adv-x="824" 
d="M549 0l-137 419h-1l-139 -419h-74l-176 509h76l137 -425l140 425h74l138 -425l139 425h75l-178 -509h-74zM299 759h78l66 -170h-66z" />
    <glyph glyph-name="Wacute" unicode="&#x1e82;" horiz-adv-x="1032" 
d="M515 613l-191 -613h-80l-228 710h82l185 -613h2l190 613h83l190 -614h2l186 614h79l-228 -711h-81l-189 614h-2zM550 940h77l-77 -170h-66z" />
    <glyph glyph-name="wacute" unicode="&#x1e83;" horiz-adv-x="824" 
d="M549 0l-137 419h-1l-139 -419h-74l-176 509h76l137 -425l140 425h74l138 -425l139 425h75l-178 -509h-74zM441 759h77l-77 -170h-66z" />
    <glyph glyph-name="Wdieresis" unicode="&#x1e84;" horiz-adv-x="1032" 
d="M515 613l-191 -613h-80l-228 710h82l185 -613h2l190 613h83l190 -614h2l186 614h79l-228 -711h-81l-189 614h-2zM442 767q-21 0 -34.5 13.5t-13.5 33.5q0 21 13.5 34.5t34.5 13.5t34.5 -13.5t13.5 -34.5q0 -20 -13.5 -33.5t-34.5 -13.5zM590 767q-21 0 -34.5 13.5
t-13.5 33.5q0 21 13.5 34.5t34.5 13.5q20 0 34 -13.5t14 -34.5q0 -20 -14 -33.5t-34 -13.5z" />
    <glyph glyph-name="wdieresis" unicode="&#x1e85;" horiz-adv-x="824" 
d="M549 0l-137 419h-1l-139 -419h-74l-176 509h76l137 -425l140 425h74l138 -425l139 425h75l-178 -509h-74zM337 630q-21 0 -34.5 13.5t-13.5 33.5q0 21 13.5 34.5t34.5 13.5t34.5 -13.5t13.5 -34.5q0 -20 -13.5 -33.5t-34.5 -13.5zM485 630q-21 0 -34.5 13.5t-13.5 33.5
q0 21 13.5 34.5t34.5 13.5q20 0 34 -13.5t14 -34.5q0 -20 -14 -33.5t-34 -13.5z" />
    <glyph glyph-name="Ygrave" unicode="&#x1ef2;" horiz-adv-x="615" 
d="M530 710h85l-271 -458v-252h-73v252l-271 458h82l225 -381h2zM204 940h78l66 -170h-66z" />
    <glyph glyph-name="ygrave" unicode="&#x1ef3;" horiz-adv-x="532" 
d="M82 -154q42 0 71.5 22t53.5 78l22 54l-213 509h77l173 -427l175 427h75l-246 -584q-61 -144 -185 -144l-20 1v65q8 -1 17 -1zM161 759h78l66 -170h-66z" />
    <glyph glyph-name="endash" unicode="&#x2013;" horiz-adv-x="500" 
d="M500 288v-67h-500v67h500z" />
    <glyph glyph-name="emdash" unicode="&#x2014;" horiz-adv-x="1000" 
d="M1000 288v-67h-1000v67h1000z" />
    <glyph glyph-name="quoteleft" unicode="&#x2018;" horiz-adv-x="215" 
d="M123 511h-80l68 199h61z" />
    <glyph glyph-name="quoteright" unicode="&#x2019;" horiz-adv-x="215" 
d="M91 710h81l-68 -199h-61z" />
    <glyph glyph-name="quotesinglbase" unicode="&#x201a;" horiz-adv-x="215" 
d="M91 94h81l-68 -198h-61z" />
    <glyph glyph-name="quotedblleft" unicode="&#x201c;" horiz-adv-x="368" 
d="M277 511h-81l68 199h61zM123 511h-80l68 199h61z" />
    <glyph glyph-name="quotedblright" unicode="&#x201d;" horiz-adv-x="368" 
d="M91 710h81l-68 -199h-61zM245 710h80l-68 -199h-61z" />
    <glyph glyph-name="quotedblbase" unicode="&#x201e;" horiz-adv-x="368" 
d="M91 95h81l-68 -199h-61zM245 95h80l-68 -199h-61z" />
    <glyph glyph-name="dagger" unicode="&#x2020;" horiz-adv-x="525" 
d="M298 -80h-71v524h-177v65h177v201h71v-201h178v-65h-178v-524z" />
    <glyph glyph-name="daggerdbl" unicode="&#x2021;" horiz-adv-x="525" 
d="M227 710h71v-201h178v-65h-178v-258h178v-65h-178v-201h-71v201h-177v65h177v258h-177v65h177v201z" />
    <glyph glyph-name="bullet" unicode="&#x2022;" horiz-adv-x="517" 
d="M111 357q0 62 43 105t104 43q62 0 105 -43.5t43 -104.5t-43 -104t-105 -43t-104.5 43t-42.5 104z" />
    <glyph glyph-name="ellipsis" unicode="&#x2026;" horiz-adv-x="646" 
d="M107 -8q-24 0 -39 14.5t-15 37.5t15 38t39 15q23 0 38 -15t15 -38q0 -22 -15 -37t-38 -15zM323 -8q-23 0 -38 14.5t-15 37.5t15 38t38 15t38 -15t15 -38q0 -22 -15 -37t-38 -15zM540 -8q-24 0 -39 14.5t-15 37.5t15 38t39 15q23 0 38 -15t15 -38q0 -22 -15 -37t-38 -15z
" />
    <glyph glyph-name="perthousand" unicode="&#x2030;" horiz-adv-x="1282" 
d="M233 0l392 710h62l-392 -710h-62zM128 490q0 -168 93 -168q92 0 92 168q0 169 -92 169q-93 0 -93 -169zM66 490q0 107 39.5 166.5t115.5 59.5q75 0 114.5 -59.5t39.5 -166.5t-39.5 -166t-114.5 -59q-76 0 -115.5 59t-39.5 166zM607 219q0 -168 93 -168q92 0 92 168
q0 169 -92 169q-93 0 -93 -169zM545 219q0 107 39.5 166.5t115.5 59.5q75 0 114.5 -59.5t39.5 -166.5t-39.5 -166t-114.5 -59q-76 0 -115.5 59t-39.5 166zM968 219q0 -168 93 -168t93 168q0 169 -93 169t-93 -169zM906 219q0 107 40 166.5t115 59.5t115 -59.5t40 -166.5
t-40 -166t-115 -59t-115 59t-40 166z" />
    <glyph glyph-name="guilsinglleft" unicode="&#x2039;" horiz-adv-x="312" 
d="M63 258l110 212h75l-110 -212l110 -211h-75z" />
    <glyph glyph-name="guilsinglright" unicode="&#x203a;" horiz-adv-x="313" 
d="M139 470l109 -212l-109 -211h-76l110 211l-110 212h76z" />
    <glyph glyph-name="fraction" unicode="&#x2044;" horiz-adv-x="383" 
d="M-36 0l392 710h63l-392 -710h-63z" />
    <glyph glyph-name="zerosuperior" unicode="&#x2070;" horiz-adv-x="394" 
d="M104 653q0 -168 93 -168t93 168q0 169 -93 169t-93 -169zM42 653q0 107 39.5 166.5t115.5 59.5t115.5 -59.5t39.5 -166.5t-40 -166t-115 -59t-115 59t-40 166z" />
    <glyph glyph-name="foursuperior" unicode="&#x2074;" horiz-adv-x="392" 
d="M358 593v-54h-60v-102h-58v102h-205v50l201 280h62v-276h60zM240 786l-139 -193h139v193z" />
    <glyph glyph-name="fivesuperior" unicode="&#x2075;" horiz-adv-x="392" 
d="M53 549l58 12q13 -78 90 -78q40 0 63.5 25.5t23.5 70.5q0 41 -23 66t-64 25q-36 0 -56.5 -17t-27.5 -38h-58l36 254h234v-57h-184l-16 -112q24 24 78 24q65 0 104 -42t39 -103q0 -65 -42 -108t-107 -43q-60 0 -99 32.5t-49 88.5z" />
    <glyph glyph-name="sixsuperior" unicode="&#x2076;" horiz-adv-x="390" 
d="M208 869h85q-108 -88 -152 -164l3 2q4 2 9.5 5.5t13 6.5t18 5t21.5 2q66 0 106 -43t40 -106q0 -62 -42.5 -105.5t-109.5 -43.5q-70 0 -111 44t-41 111q0 141 160 286zM289 577q0 42 -25 68.5t-64 26.5q-40 0 -64.5 -26.5t-24.5 -68.5q0 -41 24.5 -67.5t64.5 -26.5
q38 0 63.5 26.5t25.5 67.5z" />
    <glyph glyph-name="sevensuperior" unicode="&#x2077;" horiz-adv-x="332" 
d="M315 869v-49q-128 -162 -172 -383h-64q47 225 158 375h-150v-58h-59v115h287z" />
    <glyph glyph-name="eightsuperior" unicode="&#x2078;" horiz-adv-x="389" 
d="M194 481q44 0 66.5 20.5t22.5 55.5q0 34 -24 54t-65 20t-65 -20t-24 -54t23 -55t66 -21zM194 686q38 0 59 19.5t21 50.5t-20.5 50t-59.5 19t-59.5 -19t-20.5 -50t21 -50.5t59 -19.5zM194 428q-72 0 -110.5 35.5t-38.5 92.5q0 71 61 105q-50 31 -50 96q0 53 36.5 87.5
t101.5 34.5t101.5 -34.5t36.5 -87.5q0 -63 -51 -96q62 -32 62 -105q0 -57 -38 -92.5t-111 -35.5z" />
    <glyph glyph-name="ninesuperior" unicode="&#x2079;" horiz-adv-x="390" 
d="M182 437h-85q109 90 152 165l-3 -2q-4 -2 -9.5 -5t-13 -6.5t-18 -5.5t-21.5 -2q-66 0 -106 43t-40 106q0 62 42.5 105.5t109.5 43.5q70 0 111 -44t41 -111q0 -142 -160 -287zM101 730q0 -42 25 -68.5t64 -26.5q40 0 64.5 26.5t24.5 68.5q0 41 -24.5 67.5t-64.5 26.5
q-38 0 -63.5 -26.5t-25.5 -67.5z" />
    <glyph glyph-name="zeroinferior" unicode="&#x2080;" horiz-adv-x="394" 
d="M104 56q0 -168 93 -168t93 168q0 169 -93 169t-93 -169zM42 56q0 107 40 166.5t115 59.5t115 -59.5t40 -166.5t-40 -166t-115 -59t-115 59t-40 166z" />
    <glyph glyph-name="oneinferior" unicode="&#x2081;" horiz-adv-x="275" 
d="M179 272v-432h-61v373h-91v47l106 12h46z" />
    <glyph glyph-name="twoinferior" unicode="&#x2082;" horiz-adv-x="385" 
d="M341 -160h-292v47l170 151q28 26 41 48.5t13 54.5q0 38 -21 61t-59 23q-41 0 -62 -24.5t-21 -67.5v-13l-61 14q0 66 39 106.5t105 40.5q67 0 104.5 -39t37.5 -99q0 -79 -80 -147l-114 -99h200v-57z" />
    <glyph glyph-name="threeinferior" unicode="&#x2083;" horiz-adv-x="387" 
d="M46 -45l57 12q4 -37 26.5 -58.5t60.5 -21.5t61.5 20t23.5 57q0 69 -88 69h-48v52h49q42 0 62.5 19.5t20.5 51.5q0 33 -20.5 51.5t-60.5 18.5q-37 0 -57.5 -20.5t-23.5 -54.5l-58 14q9 52 45.5 84.5t93.5 32.5q68 0 104.5 -33.5t36.5 -90.5q0 -68 -61 -96q33 -12 50.5 -39
t17.5 -60q0 -59 -40 -95.5t-108 -36.5q-62 0 -99 33t-45 91z" />
    <glyph glyph-name="fourinferior" unicode="&#x2084;" horiz-adv-x="392" 
d="M358 -4v-54h-60v-102h-58v102h-205v50l201 280h62v-276h60zM240 189l-139 -193h139v193z" />
    <glyph glyph-name="fiveinferior" unicode="&#x2085;" horiz-adv-x="392" 
d="M53 -42l58 12q13 -78 90 -78q40 0 63.5 25.5t23.5 70.5q0 41 -23 66t-64 25q-36 0 -56.5 -17t-27.5 -38h-58l36 254h234v-57h-184l-16 -112q24 24 78 24q65 0 104 -42t39 -103q0 -65 -42 -108t-107 -43q-60 0 -99 32.5t-49 88.5z" />
    <glyph glyph-name="sixinferior" unicode="&#x2086;" horiz-adv-x="390" 
d="M208 278h85q-110 -91 -152 -164l3 2q4 2 9.5 5t13 6.5t18 5.5t21.5 2q66 0 106 -43.5t40 -105.5q0 -63 -42.5 -106t-109.5 -43q-70 0 -111 44t-41 111q0 141 160 286zM289 -14q0 42 -25 68t-64 26q-40 0 -64.5 -26t-24.5 -68t24.5 -68t64.5 -26q39 0 64 26t25 68z" />
    <glyph glyph-name="seveninferior" unicode="&#x2087;" horiz-adv-x="332" 
d="M315 272v-49q-128 -162 -172 -383h-64q47 225 158 375h-150v-58h-59v115h287z" />
    <glyph glyph-name="eightinferior" unicode="&#x2088;" horiz-adv-x="389" 
d="M194 -116q44 0 66.5 20.5t22.5 55.5q0 34 -24 54t-65 20t-65 -20t-24 -54t23 -55t66 -21zM194 89q38 0 59 19.5t21 50.5t-20.5 50t-59.5 19t-59.5 -19t-20.5 -50t21 -50.5t59 -19.5zM194 -169q-72 0 -110.5 35.5t-38.5 92.5q0 71 61 105q-50 31 -50 96q0 53 36.5 87.5
t101.5 34.5t101.5 -34.5t36.5 -87.5q0 -63 -51 -96q62 -32 62 -105q0 -57 -38 -92.5t-111 -35.5z" />
    <glyph glyph-name="nineinferior" unicode="&#x2089;" horiz-adv-x="390" 
d="M182 -160h-85q107 87 152 165l-3 -2q-4 -2 -9.5 -5t-13 -6.5t-18 -5.5t-21.5 -2q-66 0 -106 43t-40 105q0 63 42.5 106.5t109.5 43.5q70 0 111 -44.5t41 -111.5q0 -141 -160 -286zM101 132q0 -42 25 -68t64 -26q40 0 64.5 26t24.5 68t-24.5 68t-64.5 26q-39 0 -64 -26
t-25 -68z" />
    <glyph glyph-name="Euro" unicode="&#x20ac;" 
d="M44 253v58h67q-1 12 -1 44q0 8 0.5 24t0.5 22h-67v58h74q22 125 98 195.5t200 70.5q37 0 70.5 -6.5t47.5 -13.5l15 -7v-71q-54 32 -133 32q-188 0 -223 -200h224v-58h-231q-2 -26 -2 -46q0 -30 1 -44h232v-58h-224q35 -201 223 -201q35 0 68.5 8t49.5 16l15 7v-71
q-49 -27 -133 -27q-125 0 -201 70.5t-97 197.5h-74z" />
    <glyph glyph-name="trademark" unicode="&#x2122;" horiz-adv-x="869" 
d="M598 529l141 181h55v-410h-60v316l-134 -171h-4l-135 171v-316h-60v410h55zM349 710v-57h-127v-353h-59v353h-127v57h313z" />
    <glyph glyph-name="minus" unicode="&#x2212;" 
d="M549 288v-68h-516v68h516z" />
    <glyph glyph-name="approxequal" unicode="&#x2248;" 
d="M46 315q2 3 5 8.5t15 19t27 24t40.5 19t55.5 8.5q44 0 107.5 -23t97.5 -23q28 0 50 12t30 24l8 12l53 -38q-1 -3 -4.5 -8.5t-15 -19.5t-26.5 -24.5t-40.5 -19t-55.5 -8.5q-43 0 -107 23t-98 23q-28 0 -50 -12t-30 -24l-8 -11zM46 142q2 3 5 8.5t15 19t27 24t40.5 19
t55.5 8.5q44 0 107.5 -23t97.5 -23q28 0 50 11.5t30 23.5l8 12l53 -37q-1 -3 -4.5 -8.5t-15 -19.5t-26.5 -24.5t-40.5 -19t-55.5 -8.5q-43 0 -107 23t-98 23q-28 0 -50 -11.5t-30 -23.5l-8 -12z" />
    <glyph glyph-name="notequal" unicode="&#x2260;" 
d="M549 187v-69h-284l-57 -118h-77l57 118h-155v69h185l66 134h-251v69h282l58 119h77l-58 -119h157v-69h-188l-66 -134h254z" />
    <glyph glyph-name="lessequal" unicode="&#x2264;" 
d="M208 0l-188 254l188 255h84l-164 -221h434v-67h-434l164 -221h-84z" />
    <glyph glyph-name="greaterequal" unicode="&#x2265;" 
d="M562 254l-188 -254h-84l164 221h-434v67h434l-164 221h84z" />
    <glyph glyph-name="hyphen.cap" horiz-adv-x="396" 
d="M352 393v-66h-308v66h308z" />
    <glyph glyph-name="exclamdown.cap" horiz-adv-x="247" 
d="M94 546h59l12 -546h-83zM124 718q23 0 38 -15t15 -38t-15 -38t-38 -15q-24 0 -39 15t-15 38t15 38t39 15z" />
    <glyph glyph-name="questiondown.cap" horiz-adv-x="522" 
d="M410 200l74 -12q-2 -87 -61.5 -145t-156.5 -58q-103 0 -160 55.5t-57 142.5q0 49 20 90t48 69t56 52.5t48 52.5t20 58l-4 41h70q5 -24 5 -42q0 -41 -19.5 -75.5t-47.5 -59.5t-55.5 -50.5t-47 -59t-19.5 -72.5q0 -64 38.5 -100t104.5 -36q65 0 104.5 41t39.5 108zM268 718
q24 0 39 -14.5t15 -37.5t-15 -38t-39 -15q-23 0 -38 15t-15 38q0 22 15 37t38 15z" />
    <glyph glyph-name="endash.cap" horiz-adv-x="500" 
d="M500 393v-66h-500v66h500z" />
    <glyph glyph-name="emdash.cap" horiz-adv-x="1000" 
d="M1000 393v-66h-1000v66h1000z" />
    <glyph glyph-name="periodcentered.cap" horiz-adv-x="216" 
d="M108 307q-24 0 -39.5 15t-15.5 38q0 24 15.5 39.5t39.5 15.5q23 0 39 -15.5t16 -39.5q0 -23 -16 -38t-39 -15z" />
    <glyph glyph-name="parenleft.cap" horiz-adv-x="315" 
d="M163 355q0 -255 116 -458h-72q-117 187 -117 458t117 458h72q-116 -204 -116 -458z" />
    <glyph glyph-name="parenright.cap" horiz-adv-x="315" 
d="M152 355q0 252 -117 458h72q118 -189 118 -458t-118 -458h-72q117 205 117 458z" />
    <glyph glyph-name="bracketleft.cap" horiz-adv-x="301" 
d="M279 -38v-65h-204v916h204v-66h-135v-785h135z" />
    <glyph glyph-name="bracketright.cap" horiz-adv-x="301" 
d="M22 -103v65h135v785h-135v66h204v-916h-204z" />
    <glyph glyph-name="braceleft.cap" horiz-adv-x="314" 
d="M243 -103q-65 0 -97 36t-32 101v235q0 54 -51 54h-23v63h23q51 0 51 55v235q0 65 32.5 101t96.5 36l49 -5v-65q-20 4 -45 4q-35 0 -49.5 -17t-14.5 -52v-232q0 -68 -40 -91q40 -25 40 -92v-232q0 -35 14.5 -52t49.5 -17l45 5v-66q-18 -4 -49 -4z" />
    <glyph glyph-name="braceright.cap" horiz-adv-x="314" 
d="M71 -103l-49 4v66q20 -5 44 -5q35 0 50 17t15 52v232q0 68 40 92q-40 23 -40 91v232q0 35 -15 52t-50 17l-44 -4v65q18 5 49 5q64 0 96 -36t32 -101v-235q0 -55 51 -55h24v-63h-24q-51 0 -51 -54v-235q0 -65 -32 -101t-96 -36z" />
    <glyph glyph-name="at.cap" horiz-adv-x="825" 
d="M502 379q0 49 -21 78t-64 29q-55 0 -87 -43.5t-32 -113.5q0 -108 93 -108q50 0 80.5 48t30.5 110zM653 130h67q-48 -70 -128 -110t-174 -40q-171 0 -269 102t-98 267q0 161 104.5 270.5t273.5 109.5q157 0 251 -87.5t94 -226.5q0 -111 -58 -179t-134 -68q-36 0 -57 17.5
t-28 43.5q-41 -61 -118 -61q-66 0 -105 43t-39 117q0 88 47 150.5t127 62.5q84 0 115 -66l11 52h58l-44 -222q-3 -13 -3 -27q0 -26 12.5 -40.5t34.5 -14.5q57 0 90.5 54t33.5 133q0 124 -79 194.5t-210 70.5q-145 0 -230.5 -93t-85.5 -233q0 -148 82.5 -232t224.5 -84
q76 0 137.5 28t96.5 69z" />
    <glyph glyph-name="zero.slash" 
d="M291 -15q-118 0 -183 99t-65 271t65 271t183 99t183 -99t65 -271t-65 -271t-183 -99zM291 657q-81 0 -127 -77t-46 -225t50 -225l204 502q-38 25 -81 25zM291 53q81 0 127 77t46 225q0 147 -51 224l-204 -501q35 -25 82 -25z" />
    <glyph glyph-name="commaaccentcomb" horiz-adv-x="208" 
d="M96 -116q0 21 -8.5 36.5t-14.5 20.5l57 20q29 -27 29 -75q0 -27 -7.5 -51t-18 -39t-21 -26.5t-18.5 -16.5l-7 -5l-39 46q5 3 13 9.5t21.5 30t13.5 50.5z" />
    <glyph glyph-name="zero.onum" horiz-adv-x="636" 
d="M123 264q0 -91 53 -150.5t142 -59.5t142 59.5t53 150.5t-53 151t-142 60t-142 -60t-53 -151zM49 264q0 117 75 197t194 80t194 -80t75 -197t-75 -196.5t-194 -79.5t-194 79.5t-75 196.5z" />
    <glyph glyph-name="one.onum" horiz-adv-x="324" 
d="M209 0h-71v458h-108v50l124 21h55v-529z" />
    <glyph glyph-name="two.onum" horiz-adv-x="513" 
d="M131 329l-74 15q0 92 53 144.5t147 52.5q90 0 142 -48.5t52 -127.5q0 -70 -44.5 -121.5t-136.5 -112.5l-99 -66h307v-65h-423v59l168 116q85 59 119.5 97.5t34.5 91.5q0 49 -32.5 80t-88.5 31q-59 0 -92 -35t-33 -100v-11z" />
    <glyph glyph-name="three.onum" horiz-adv-x="534" 
d="M132 359l-70 20q13 75 66.5 118.5t134.5 43.5q96 0 149.5 -49t53.5 -130q0 -46 -25 -85.5t-72 -59.5q106 -34 106 -150q0 -85 -57 -139.5t-155 -54.5q-89 0 -146 50.5t-69 131.5l72 14q6 -54 44.5 -91.5t98.5 -37.5q63 0 100.5 32.5t37.5 94.5q0 56 -38.5 85.5
t-106.5 29.5h-63v65h59q68 0 104.5 32t36.5 80q0 53 -33 83.5t-97 30.5q-58 0 -91 -32t-40 -82z" />
    <glyph glyph-name="four.onum" horiz-adv-x="526" 
d="M506 107v-66h-92v-153h-68v153h-322v63l312 424h78v-421h92zM105 107h241v324h-2z" />
    <glyph glyph-name="five.onum" horiz-adv-x="542" 
d="M62 48l71 17q9 -52 46 -87t99 -35q64 0 104.5 42.5t40.5 114.5q0 66 -39.5 107.5t-105.5 41.5q-50 0 -86.5 -27t-48.5 -58h-67l52 365h331v-65h-273l-28 -196q15 15 49 29.5t81 14.5q95 0 152 -61t57 -151q0 -95 -62 -159t-157 -64q-87 0 -144.5 47t-71.5 124z" />
    <glyph glyph-name="six.onum" horiz-adv-x="532" 
d="M286 640h98q-164 -134 -222 -260q47 41 118 41q95 0 153.5 -63t58.5 -155q0 -90 -62.5 -153.5t-159.5 -63.5q-100 0 -160.5 64.5t-60.5 161.5q0 218 237 428zM418 203q0 70 -41 112t-107 42q-67 0 -107 -42.5t-40 -111.5q0 -68 41 -110t106 -42q66 0 107 42t41 110z" />
    <glyph glyph-name="seven.onum" horiz-adv-x="448" 
d="M91 460v-94h-71v163h412v-65q-91 -121 -137.5 -257t-74.5 -318h-75q49 341 202 571h-256z" />
    <glyph glyph-name="eight.onum" horiz-adv-x="542" 
d="M271 50q70 0 106.5 34t36.5 91q0 56 -38.5 88.5t-104.5 32.5q-65 0 -103.5 -32.5t-38.5 -88.5q0 -57 36 -91t106 -34zM271 359q62 0 95.5 32.5t33.5 83.5t-33 83t-96 32q-62 0 -95.5 -32.5t-33.5 -82.5q0 -51 34 -83.5t95 -32.5zM271 -14q-104 0 -160 52t-56 134
q0 51 26 93.5t76 64.5q-40 22 -62.5 62.5t-22.5 84.5q0 75 53 126t146 51q94 0 146.5 -51t52.5 -126q0 -45 -22 -85t-63 -62q49 -22 75.5 -64.5t26.5 -93.5q0 -82 -55.5 -134t-160.5 -52z" />
    <glyph glyph-name="nine.onum" horiz-adv-x="532" 
d="M246 -114h-98q163 133 222 261q-45 -41 -118 -41q-95 0 -153.5 63t-58.5 155q0 90 62.5 153.5t159.5 63.5q100 0 160.5 -64.5t60.5 -162.5q0 -218 -237 -428zM114 324q0 -71 41 -113t107 -42t106.5 43t40.5 112q0 67 -41 109.5t-106 42.5t-106.5 -42.5t-41.5 -109.5z" />
    <glyph glyph-name="zero.pnum" 
d="M291 -15q-118 0 -183 99t-65 271t65 271t183 99t183 -99t65 -271t-65 -271t-183 -99zM291 657q-81 0 -127 -77t-46 -225t46 -225t127 -77t127 77t46 225t-46 225t-127 77z" />
    <glyph glyph-name="one.pnum" horiz-adv-x="387" 
d="M247 710v-710h-73v639h-119v50l135 21h57z" />
    <glyph glyph-name="two.pnum" horiz-adv-x="547" 
d="M115 484l-74 13q1 103 61 165.5t164 62.5q109 0 168 -60.5t59 -158.5q0 -68 -30.5 -124t-97.5 -115l-223 -198h368v-69h-471v62l284 261q95 87 95 180q0 71 -40 113t-112 42q-76 0 -113.5 -45t-37.5 -120v-9z" />
    <glyph glyph-name="three.pnum" horiz-adv-x="557" 
d="M39 183l72 14q8 -64 50.5 -105t114.5 -41q74 0 117.5 38t43.5 110q0 65 -45 98.5t-124 33.5h-65v65h60q80 0 122.5 36t42.5 91q0 63 -39.5 99t-115.5 36q-67 0 -104.5 -37t-43.5 -92l-71 14q12 79 71 130.5t149 51.5q106 0 166.5 -55t60.5 -144q0 -54 -29.5 -97
t-87.5 -63q65 -19 96.5 -63t31.5 -104q0 -95 -63 -154.5t-173 -59.5q-101 0 -162.5 53.5t-74.5 144.5z" />
    <glyph glyph-name="four.pnum" horiz-adv-x="585" 
d="M552 240v-66h-92v-174h-71v174h-356v64l349 472h78v-470h92zM389 608h-1l-272 -368h273v368z" />
    <glyph glyph-name="five.pnum" horiz-adv-x="565" 
d="M53 171l72 18q9 -58 50 -97.5t113 -39.5t117.5 49.5t45.5 129.5q0 75 -44 121t-120 46q-58 0 -98.5 -30.5t-53.5 -64.5h-66l57 407h366v-69h-309l-32 -236q58 58 148 58q104 0 165 -67t61 -165q0 -104 -66.5 -175t-170.5 -71q-96 0 -158 50.5t-77 135.5z" />
    <glyph glyph-name="six.pnum" horiz-adv-x="570" 
d="M294 -15q-110 0 -176 71t-66 178q0 236 268 476h97q-186 -151 -255 -304q57 55 143 55q104 0 168 -69t64 -168t-68.5 -169t-174.5 -70zM461 224q0 77 -47 125.5t-120 48.5q-74 0 -120.5 -48t-46.5 -126t46.5 -125.5t120.5 -47.5q73 0 120 48t47 125z" />
    <glyph glyph-name="seven.pnum" horiz-adv-x="502" 
d="M480 710v-65q-190 -240 -245 -645h-79q64 409 237 641h-296v-94h-71v163h454z" />
    <glyph glyph-name="eight.pnum" horiz-adv-x="565" 
d="M283 -15q-115 0 -177 57.5t-62 147.5q0 57 31 105.5t87 71.5q-48 23 -73 68t-25 97q0 82 58 137.5t161 55.5t161.5 -55.5t58.5 -138.5q0 -51 -26 -96t-74 -68q56 -23 87 -71.5t31 -105.5q0 -91 -61.5 -148t-176.5 -57zM283 332q-75 0 -119.5 -37.5t-44.5 -101.5
t42 -103.5t122 -39.5t122 39.5t42 103.5t-44.5 101.5t-119.5 37.5zM283 397q70 0 109.5 37t39.5 96q0 57 -38.5 93.5t-110.5 36.5t-110.5 -36t-38.5 -93q0 -60 39 -97t110 -37z" />
    <glyph glyph-name="nine.pnum" horiz-adv-x="570" 
d="M276 725q110 0 176 -71.5t66 -177.5q0 -237 -269 -476h-96q181 146 254 303q-60 -55 -143 -55q-103 0 -167 69.5t-64 168.5t68.5 169t174.5 70zM109 486q0 -78 46.5 -126.5t120.5 -48.5q73 0 120 48.5t47 126.5q0 77 -47 125t-120 48q-74 0 -120.5 -48t-46.5 -125z" />
    <glyph glyph-name="zero.dnom" horiz-adv-x="394" 
d="M104 216q0 -169 93 -169t93 169q0 168 -93 168t-93 -168zM42 216q0 107 40 166t115 59t115 -59t40 -166t-39.5 -166.5t-115.5 -59.5t-115.5 59.5t-39.5 166.5z" />
    <glyph glyph-name="one.dnom" horiz-adv-x="275" 
d="M179 431v-431h-61v373h-91v46l106 12h46z" />
    <glyph glyph-name="two.dnom" horiz-adv-x="385" 
d="M341 0h-292v47l170 151q28 26 41 48.5t13 54.5q0 38 -21 61t-59 23q-41 0 -62 -24.5t-21 -67.5v-13l-61 14q0 66 39 106.5t105 40.5q67 0 104.5 -39t37.5 -99q0 -79 -80 -147l-114 -99h200v-57z" />
    <glyph glyph-name="three.dnom" horiz-adv-x="387" 
d="M46 114l57 12q4 -37 26.5 -58.5t60.5 -21.5t61.5 20t23.5 57q0 69 -88 69h-48v52h49q42 0 62.5 19.5t20.5 51.5q0 33 -20.5 51.5t-60.5 18.5q-37 0 -57.5 -20.5t-23.5 -54.5l-58 14q9 52 45.5 84.5t93.5 32.5q68 0 104.5 -33.5t36.5 -90.5q0 -68 -61 -96q33 -12 50.5 -39
t17.5 -60q0 -59 -40 -95.5t-108 -36.5q-62 0 -99 33t-45 91z" />
    <glyph glyph-name="four.dnom" horiz-adv-x="392" 
d="M358 156v-55h-60v-101h-58v101h-205v50l201 280h62v-275h60zM240 349l-139 -193h139v193z" />
    <glyph glyph-name="five.dnom" horiz-adv-x="392" 
d="M53 110l58 12q13 -78 90 -78q40 0 63.5 25.5t23.5 70.5q0 41 -23 66t-64 25q-36 0 -56.5 -17t-27.5 -38h-58l36 254h234v-57h-184l-16 -112q24 24 78 24q65 0 104 -42t39 -103q0 -65 -42 -108t-107 -43q-60 0 -99 32.5t-49 88.5z" />
    <glyph glyph-name="six.dnom" horiz-adv-x="390" 
d="M208 430h85q-110 -91 -152 -164l3 2q4 2 9.5 5t13 6.5t18 5.5t21.5 2q66 0 106 -43.5t40 -105.5q0 -63 -42.5 -106t-109.5 -43q-70 0 -111 44t-41 111q0 141 160 286zM289 138q0 42 -25 68t-64 26q-40 0 -64.5 -26t-24.5 -68t24.5 -68t64.5 -26q39 0 64 26t25 68z" />
    <glyph glyph-name="seven.dnom" horiz-adv-x="332" 
d="M315 431v-49q-68 -86 -108.5 -176t-63.5 -206h-64q47 224 158 374h-150v-58h-59v115h287z" />
    <glyph glyph-name="eight.dnom" horiz-adv-x="389" 
d="M194 44q44 0 66.5 20.5t22.5 55.5q0 34 -24 54t-65 20t-65 -20t-24 -54t23 -55t66 -21zM194 248q38 0 59 19.5t21 51.5q0 31 -21 50t-59 19t-59 -19t-21 -50q0 -32 21 -51.5t59 -19.5zM194 -10q-72 0 -110.5 35.5t-38.5 92.5q0 71 61 105q-50 33 -50 96q0 53 36.5 87.5
t101.5 34.5t101.5 -34.5t36.5 -87.5q0 -61 -51 -96q62 -32 62 -105q0 -57 -38 -92.5t-111 -35.5z" />
    <glyph glyph-name="nine.dnom" horiz-adv-x="390" 
d="M182 0h-85q107 87 152 165l-3 -2q-3 -2 -6.5 -4t-9.5 -5t-12.5 -5.5t-15.5 -4t-18 -1.5q-66 0 -106 43.5t-40 105.5q0 63 42.5 106t109.5 43q70 0 111 -44t41 -111q0 -143 -160 -286zM101 292q0 -42 25 -68t64 -26q40 0 64.5 26t24.5 68t-24.5 68t-64.5 26q-39 0 -64 -26
t-25 -68z" />
    <glyph glyph-name="zero.numerator" horiz-adv-x="394" 
d="M104 494q0 -168 93 -168t93 168q0 169 -93 169t-93 -169zM42 494q0 107 40 166.5t115 59.5t115 -59.5t40 -166.5t-40 -166t-115 -59t-115 59t-40 166z" />
    <glyph glyph-name="one.numerator" horiz-adv-x="275" 
d="M179 710v-432h-61v373h-91v47l106 12h46z" />
    <glyph glyph-name="two.numerator" horiz-adv-x="385" 
d="M341 278h-292v47l170 151q28 26 41 48.5t13 54.5q0 38 -21 61t-59 23q-41 0 -62 -24.5t-21 -67.5v-13l-61 14q0 66 39 106.5t105 40.5q67 0 104.5 -39t37.5 -99q0 -79 -80 -147l-114 -99h200v-57z" />
    <glyph glyph-name="three.numerator" horiz-adv-x="387" 
d="M46 393l57 12q4 -37 26.5 -58.5t60.5 -21.5t61.5 20t23.5 57q0 69 -88 69h-48v52h49q42 0 62.5 19.5t20.5 51.5q0 33 -20.5 51.5t-60.5 18.5q-37 0 -57.5 -20.5t-23.5 -54.5l-58 14q9 52 45.5 84.5t93.5 32.5q68 0 104.5 -33.5t36.5 -90.5q0 -68 -61 -96q33 -12 50.5 -39
t17.5 -60q0 -59 -40 -95.5t-108 -36.5q-62 0 -99 33t-45 91z" />
    <glyph glyph-name="four.numerator" horiz-adv-x="392" 
d="M358 434v-54h-60v-102h-58v102h-205v50l201 280h62v-276h60zM240 627l-139 -193h139v193z" />
    <glyph glyph-name="five.numerator" horiz-adv-x="392" 
d="M53 390l58 12q13 -78 90 -78q40 0 63.5 25.5t23.5 70.5q0 41 -23 66t-64 25q-36 0 -56.5 -17t-27.5 -38h-58l36 254h234v-57h-184l-16 -112q24 24 78 24q65 0 104 -42t39 -103q0 -65 -42 -108t-107 -43q-60 0 -99 32.5t-49 88.5z" />
    <glyph glyph-name="six.numerator" horiz-adv-x="390" 
d="M208 710h85q-108 -88 -152 -164l3 2q4 2 9.5 5t13 6.5t18 5.5t21.5 2q66 0 106 -43t40 -106q0 -62 -42.5 -105.5t-109.5 -43.5q-70 0 -111 44t-41 111q0 141 160 286zM289 418q0 42 -25 68.5t-64 26.5q-40 0 -64.5 -26.5t-24.5 -68.5q0 -41 24.5 -67.5t64.5 -26.5
q38 0 63.5 26.5t25.5 67.5z" />
    <glyph glyph-name="seven.numerator" horiz-adv-x="332" 
d="M315 710v-49q-128 -162 -172 -383h-64q47 225 158 375h-150v-58h-59v115h287z" />
    <glyph glyph-name="eight.numerator" horiz-adv-x="389" 
d="M194 322q44 0 66.5 20.5t22.5 55.5q0 34 -24 54t-65 20t-65 -20t-24 -54t23 -55t66 -21zM194 527q38 0 59 19.5t21 50.5t-20.5 50t-59.5 19t-59.5 -19t-20.5 -50t21 -50.5t59 -19.5zM194 269q-72 0 -110.5 35.5t-38.5 92.5q0 71 61 105q-50 31 -50 96q0 53 36.5 87.5
t101.5 34.5t101.5 -34.5t36.5 -87.5q0 -63 -51 -96q62 -32 62 -105q0 -57 -38 -92.5t-111 -35.5z" />
    <glyph glyph-name="nine.numerator" horiz-adv-x="390" 
d="M182 278h-85q109 90 152 165l-3 -2q-4 -2 -9.5 -5.5t-13 -6.5t-18 -5t-21.5 -2q-66 0 -106 43t-40 106q0 62 42.5 105.5t109.5 43.5q70 0 111 -44t41 -111q0 -142 -160 -287zM101 571q0 -42 25 -68.5t64 -26.5q40 0 64.5 26.5t24.5 68.5q0 41 -24.5 67.5t-64.5 26.5
q-38 0 -63.5 -26.5t-25.5 -67.5z" />
    <glyph glyph-name="Euro.oldstyle" horiz-adv-x="565" 
d="M54 216v59h71q-2 15 -2 44q0 16 2 46h-71v59h79q23 104 90 167t176 63q37 0 69 -7t46 -13l13 -7v-72q-50 32 -128 32q-154 0 -190 -163h217v-59h-226q-2 -15 -2 -46q0 -30 2 -44h226v-59h-217q36 -164 190 -164q34 0 66 8t47 16l15 7v-71q-44 -27 -128 -27
q-110 0 -176.5 63t-89.5 168h-79z" />
    <glyph glyph-name="dollar.oldstyle" horiz-adv-x="588" 
d="M53 174l72 14q5 -58 44.5 -94.5t109.5 -41.5v243l-19 5q-97 22 -137.5 65.5t-40.5 112.5q0 71 50.5 120t146.5 53v108h49v-108q91 -8 138.5 -58t57.5 -120l-69 -13q-21 107 -127 123v-227l14 -3q104 -24 145 -70t41 -120q0 -68 -50.5 -117.5t-149.5 -56.5v-113h-49v112
q-104 5 -160 56.5t-66 129.5zM155 480q0 -45 28 -70t96 -42v218q-124 -7 -124 -106zM455 163q0 45 -29 74t-98 45v-228q64 6 95.5 35t31.5 74z" />
    <glyph glyph-name="cent.oldstyle" horiz-adv-x="581" 
d="M445 253l67 -13q-18 -67 -67.5 -112.5t-124.5 -51.5v-95h-48v95q-95 9 -151.5 79.5t-56.5 164.5t56.5 164.5t151.5 79.5v96h48v-96q75 -7 124.5 -52t67.5 -111l-66 -17q-13 47 -46 78t-80 37v-358q47 6 79 35.5t46 76.5zM134 320q0 -73 38 -122.5t100 -57.5v360
q-62 -9 -100 -58.5t-38 -121.5z" />
    <glyph glyph-name="sterling.oldstyle" horiz-adv-x="565" 
d="M518 444l-72 -15q1 10 1 16q0 65 -34 104t-102 39q-67 0 -100.5 -36t-33.5 -95q0 -55 48 -146h175v-59h-154q7 -24 7 -51q0 -67 -37 -111q33 -2 87.5 -21.5t91.5 -19.5q20 0 38.5 6.5t30 15.5t20.5 17.5t13 15.5l4 6l46 -39q-2 -4 -6 -9.5t-18.5 -20.5t-31.5 -26.5
t-46.5 -21t-61.5 -9.5q-44 0 -103.5 21.5t-93.5 21.5q-23 0 -46 -10.5t-34 -21.5l-11 -11l-38 46q25 32 72 49q58 44 58 117q0 28 -11 56h-104v59h76q-42 88 -42 151q0 84 53.5 138t151.5 54q97 0 152 -56t55 -151v-3z" />
    <glyph glyph-name="florin.oldstyle" horiz-adv-x="449" 
d="M257 324l-65 -330q-33 -164 -167 -164q-55 0 -87 26l30 56q22 -19 59 -19q39 0 61 25t34 85l63 321h-107l11 64h108l21 101q33 164 166 164q58 0 87 -26l-29 -56q-25 19 -59 19q-40 0 -62 -25t-33 -85l-18 -92h109l-11 -64h-111z" />
    <glyph glyph-name="yen.oldstyle" horiz-adv-x="512" 
d="M20 654h79l155 -276h2l154 276h82l-192 -328h124v-58h-132v-75h132v-56h-132v-137h-73v137h-132v56h132v75h-132v58h122z" />
    <glyph glyph-name="zero.onumtab" horiz-adv-x="552" 
d="M120 264q0 -96 42 -153.5t114 -57.5t114 57.5t42 153.5t-42 153.5t-114 57.5t-114 -57.5t-42 -153.5zM46 264q0 118 62 197.5t168 79.5t168 -79.5t62 -197.5t-62 -197.5t-168 -79.5t-168 79.5t-62 197.5z" />
    <glyph glyph-name="one.onumtab" horiz-adv-x="552" 
d="M500 64v-64h-423v64h175v394h-159v50l175 21h57v-465h175z" />
    <glyph glyph-name="two.onumtab" horiz-adv-x="552" 
d="M147 329l-74 15q0 92 53 144.5t147 52.5q90 0 142 -48.5t52 -127.5q0 -70 -44.5 -121.5t-136.5 -112.5l-99 -66h307v-65h-423v59l168 116q85 59 119.5 97.5t34.5 91.5q0 49 -32.5 80t-88.5 31q-59 0 -92 -35t-33 -100v-11z" />
    <glyph glyph-name="three.onumtab" horiz-adv-x="552" 
d="M140 359l-70 20q13 75 66.5 118.5t134.5 43.5q96 0 149.5 -49t53.5 -130q0 -46 -25 -85.5t-72 -59.5q106 -34 106 -150q0 -85 -57 -139.5t-155 -54.5q-89 0 -146 50.5t-69 131.5l72 14q6 -54 44.5 -91.5t98.5 -37.5q63 0 100.5 32.5t37.5 94.5q0 56 -38.5 85.5
t-106.5 29.5h-63v65h59q68 0 104.5 32t36.5 80q0 53 -33 83.5t-97 30.5q-58 0 -91 -32t-40 -82z" />
    <glyph glyph-name="four.onumtab" horiz-adv-x="552" 
d="M531 107v-66h-112v-153h-68v153h-322v63l312 424h78v-421h112zM110 107h241v324h-2z" />
    <glyph glyph-name="five.onumtab" horiz-adv-x="552" 
d="M61 48l71 17q9 -52 46 -87t99 -35q64 0 104.5 42.5t40.5 114.5q0 66 -39.5 107.5t-105.5 41.5q-50 0 -86.5 -27t-48.5 -58h-67l52 365h331v-65h-273l-28 -196q15 15 49 29.5t81 14.5q95 0 152 -61t57 -151q0 -95 -62 -159t-157 -64q-87 0 -144.5 47t-71.5 124z" />
    <glyph glyph-name="six.onumtab" horiz-adv-x="552" 
d="M290 640h99q-164 -132 -223 -260q47 41 119 41q94 0 152.5 -63t58.5 -155q0 -90 -62.5 -153.5t-159.5 -63.5q-100 0 -160 64.5t-60 161.5q0 217 236 428zM422 203q0 70 -41 112t-107 42q-67 0 -107 -42.5t-40 -111.5q0 -68 41 -110t106 -42q66 0 107 42t41 110z" />
    <glyph glyph-name="seven.onumtab" horiz-adv-x="552" 
d="M37 529h479v-65q-106 -126 -161 -259.5t-82 -315.5h-75q29 182 83 316t148 255h-321v-94h-71v163z" />
    <glyph glyph-name="eight.onumtab" horiz-adv-x="538" 
d="M269 50q70 0 106.5 34t36.5 91q0 56 -38.5 88.5t-104.5 32.5q-65 0 -104 -33t-39 -88q0 -57 36 -91t107 -34zM269 359q61 0 95 32.5t34 83.5t-33 83t-96 32q-62 0 -95.5 -32.5t-33.5 -82.5q0 -51 34 -83.5t95 -32.5zM269 -14q-105 0 -160.5 52t-55.5 134q0 51 26 93.5
t76 64.5q-40 22 -62.5 62.5t-22.5 84.5q0 75 52.5 126t146.5 51t146.5 -51t52.5 -126q0 -45 -22 -85t-63 -62q49 -22 75.5 -64.5t26.5 -93.5q0 -82 -55.5 -134t-160.5 -52z" />
    <glyph glyph-name="nine.onumtab" horiz-adv-x="552" 
d="M258 -114h-98q163 133 222 261q-45 -41 -118 -41q-95 0 -153.5 63t-58.5 155q0 90 62.5 153.5t159.5 63.5q100 0 160.5 -64.5t60.5 -162.5q0 -218 -237 -428zM126 324q0 -71 41 -113t107 -42t106.5 43t40.5 112q0 67 -41 109.5t-106 42.5t-106.5 -42.5t-41.5 -109.5z" />
    </font>
</defs>
</svg>
