<svg width="375" height="44" viewBox="0 0 375 44" xmlns="http://www.w3.org/2000/svg" style="background:#000000">
  <title>
    UI Bars / Status Bars / White Base
  </title>
  <g fill="none" fill-rule="evenodd">
    <g transform="translate(336 17)">
      <rect stroke="#FFF" opacity=".35" x=".5" y=".833" width="21" height="10.333" rx="2.667"/>
      <path d="M23 4v4c.805-.34 1.328-1.127 1.328-2S23.805 4.34 23 4" fill="#FFF" fill-rule="nonzero" opacity=".4"/>
      <rect fill="#FFF" fill-rule="nonzero" x="2" y="2.333" width="18" height="7.333" rx="1.333"/>
    </g>
    <path d="M323.33 19.608c2.216 0 4.347.852 5.953 2.378.12.118.315.117.434-.003l1.156-1.167c.06-.06.094-.143.093-.228 0-.086-.035-.168-.096-.228-4.215-4.04-10.865-4.04-15.08 0-.06.06-.096.142-.096.228 0 .085.033.168.093.228l1.156 1.167c.12.12.313.12.434.003 1.606-1.527 3.737-2.378 5.953-2.378zm0 3.796c1.218 0 2.392.452 3.294 1.27.122.115.315.113.434-.006l1.154-1.167c.06-.06.095-.143.094-.23 0-.086-.036-.168-.098-.228-2.75-2.556-7.004-2.556-9.753 0-.062.06-.097.142-.098.23 0 .085.033.168.094.23l1.155 1.166c.12.12.312.12.434.005.9-.816 2.074-1.27 3.29-1.27zm2.22 2.784c.06-.06.095-.144.093-.23 0-.087-.04-.17-.103-.227-1.276-1.078-3.144-1.078-4.42 0-.064.06-.1.14-.103.227-.002.087.032.17.094.23l2 2.017c.057.06.137.092.22.092.084 0 .163-.033.222-.092l1.997-2.016zM294.667 24.333h1c.552 0 1 .448 1 1v2c0 .553-.448 1-1 1h-1c-.553 0-1-.447-1-1v-2c0-.552.447-1 1-1zm4.666-2h1c.553 0 1 .448 1 1v4c0 .553-.447 1-1 1h-1c-.552 0-1-.447-1-1v-4c0-.552.448-1 1-1zM304 20h1c.552 0 1 .448 1 1v6.333c0 .553-.448 1-1 1h-1c-.552 0-1-.447-1-1V21c0-.552.448-1 1-1zm4.667-2.333h1c.552 0 1 .447 1 1v8.666c0 .553-.448 1-1 1h-1c-.553 0-1-.447-1-1v-8.666c0-.553.447-1 1-1z" fill="#FFF" fill-rule="nonzero"/>
    <text transform="translate(21 12)" font-size="15" font-family="SFProText-Semibold, SF Pro Text" letter-spacing="-.3" fill="#FFF" font-weight="500">
      <tspan x="11.487" y="16">9:41</tspan>
    </text>
  </g>
</svg>
