<?xml version="1.0" standalone="no"?>
<!DOCTYPE svg PUBLIC "-//W3C//DTD SVG 1.1//EN" "http://www.w3.org/Graphics/SVG/1.1/DTD/svg11.dtd" >
<svg xmlns="http://www.w3.org/2000/svg" xmlns:xlink="http://www.w3.org/1999/xlink" version="1.1">
<metadata>
Created by FontForge 20170731 at Fri Mar 25 15:37:06 2016
 By Aleksey,,,
Copyright (c) 2013 Textaxis. v 1.0 by In~igo Jerez. Barcelona. All rights reserved.
</metadata>
<defs>
<font id="Eina01-RegularItalic" horiz-adv-x="582" >
  <font-face 
    font-family="Eina01-RegularItalic"
    font-weight="400"
    font-style="italic"
    font-stretch="normal"
    units-per-em="1000"
    panose-1="2 0 0 0 0 0 0 0 0 0"
    ascent="774"
    descent="-226"
    x-height="509"
    cap-height="710"
    bbox="-155 -251 1282 1104"
    underline-thickness="50"
    underline-position="-150"
    unicode-range="U+0020-FB02"
  />
<missing-glyph horiz-adv-x="260" 
 />
    <glyph glyph-name="fi" unicode="fi" horiz-adv-x="562" 
d="M55 448q5 25 14 61h98l18 77q21 87 64.5 125.5t114.5 38.5l41 -4q-2 -10 -7 -31t-7 -32q-18 3 -31 3q-46 0 -70.5 -26t-37.5 -86l-14 -65h115q-5 -25 -14 -61h-115l-103 -448h-71l103 448h-98zM342 0l117 509h70l-117 -509h-70zM483 682q0 22 15.5 37.5t38.5 15.5
t35.5 -13t12.5 -34q0 -22 -15 -37.5t-39 -15.5q-22 0 -35 13t-13 34z" />
    <glyph glyph-name="fl" unicode="fl" horiz-adv-x="560" 
d="M55 448q5 25 14 61h98l18 77q21 87 64.5 125.5t114.5 38.5l41 -4q-2 -10 -7 -31t-7 -32q-18 3 -31 3q-46 0 -70.5 -26t-37.5 -86l-14 -65h115q-5 -25 -14 -61h-115l-103 -448h-71l103 448h-98zM411 0h-70l172 750h70z" />
    <glyph glyph-name=".notdef" horiz-adv-x="260" 
 />
    <glyph glyph-name=".null" horiz-adv-x="0" 
 />
    <glyph glyph-name="nonmarkingreturn" horiz-adv-x="333" 
 />
    <glyph glyph-name="space" unicode=" " horiz-adv-x="260" 
 />
    <glyph glyph-name="exclam" unicode="!" horiz-adv-x="247" 
d="M70 164l113 546h84l-138 -546h-59zM19 42q0 22 16.5 38.5t40.5 16.5q23 0 36.5 -14t13.5 -35q0 -23 -16.5 -39.5t-40.5 -16.5q-23 0 -36.5 14t-13.5 36z" />
    <glyph glyph-name="quotedbl" unicode="&#x22;" horiz-adv-x="403" 
d="M246 710l-69 -296h-70l69 296h70zM416 710l-69 -296h-69l69 296h69z" />
    <glyph glyph-name="numbersign" unicode="#" horiz-adv-x="616" 
d="M626 494l-25 -59h-108l-71 -162h107l-25 -59h-108l-94 -214h-64l93 214h-129l-93 -214h-64l93 214h-107l26 59h108l71 162h-108l26 59h108l96 216h64l-95 -216h129l95 216h64l-95 -216h106zM300 435l-71 -162h129l71 162h-129z" />
    <glyph glyph-name="dollar" unicode="$" 
d="M182 -123l26 111q-91 9 -143 60t-52 130l1 33h69q-1 -8 -1 -23q0 -59 36.5 -93.5t104.5 -41.5l65 282q-80 32 -119 74.5t-39 106.5q0 100 69 154.5t179 54.5l25 109h52l-26 -114q77 -13 123 -62.5t46 -128.5q0 -22 -3 -34h-67q2 10 2 23q0 54 -31 89.5t-86 46.5l-61 -266
q77 -30 121.5 -72t44.5 -110q0 -110 -72.5 -163.5t-186.5 -55.5l-25 -110h-52zM443 196q0 46 -28 73t-80 48l-61 -265q80 4 124.5 39.5t44.5 104.5zM202 522q0 -75 102 -116l58 252q-67 0 -113.5 -35.5t-46.5 -100.5z" />
    <glyph glyph-name="percent" unicode="%" horiz-adv-x="940" 
d="M172 0l555 710h67l-555 -710h-67zM854 300q0 -73 -23 -142.5t-70 -117.5t-106 -48q-62 0 -94 38t-32 104q0 74 23 143.5t70 117.5t106 48q62 0 94 -38t32 -105zM795 301q0 85 -68 85q-41 0 -74 -42t-49 -99t-16 -111q0 -84 68 -84q41 0 74 41.5t49 98.5t16 111zM437 577
q0 -73 -23 -142.5t-70 -117.5t-106 -48q-62 0 -94 37.5t-32 104.5q0 74 23 143.5t70 117.5t106 48q62 0 94 -38.5t32 -104.5zM378 577q0 86 -68 86q-41 0 -74 -42t-49 -99t-16 -112q0 -84 68 -84q41 0 74 41.5t49 98.5t16 111z" />
    <glyph glyph-name="ampersand" unicode="&#x26;" horiz-adv-x="673" 
d="M638 398q-2 -72 -29.5 -146.5t-78.5 -133.5l97 -118h-93l-57 69q-104 -84 -240 -84q-97 0 -150 50t-53 125q0 153 191 224q-58 76 -58 146q0 82 60 138.5t150 56.5q77 0 123.5 -41.5t46.5 -103.5q0 -84 -53.5 -133.5t-159.5 -88.5l154 -187q81 102 83 227h67zM251 50
q105 0 187 69l-175 213q-82 -29 -119.5 -67t-37.5 -102q0 -52 38.5 -82.5t106.5 -30.5zM238 534q0 -54 56 -125q47 17 73 28.5t55 31t42 45.5t13 61q0 41 -29 64.5t-75 23.5q-59 0 -97 -35.5t-38 -93.5z" />
    <glyph glyph-name="quotesingle" unicode="'" horiz-adv-x="232" 
d="M245 710l-69 -296h-70l69 296h70z" />
    <glyph glyph-name="parenleft" unicode="(" horiz-adv-x="315" 
d="M400 750q-116 -146 -182.5 -323.5t-66.5 -359.5q0 -125 38 -233h-70q-36 93 -36 233q0 183 64 364t179 319h74z" />
    <glyph glyph-name="parenright" unicode=")" horiz-adv-x="315" 
d="M-69 -166q116 146 182.5 323t66.5 360q0 123 -38 233h70q36 -94 36 -234q0 -183 -63.5 -363t-178.5 -319h-75z" />
    <glyph glyph-name="asterisk" unicode="*" horiz-adv-x="389" 
d="M425 545l-128 -10l50 -118l-51 -22l-50 118l-97 -85l-36 43l98 84l-111 66l29 48l110 -68l28 126l55 -13l-30 -125l128 11z" />
    <glyph glyph-name="plus" unicode="+" 
d="M316 509h69l-51 -221h223l-16 -68h-223l-51 -220h-69l51 220h-224l16 68h224z" />
    <glyph glyph-name="comma" unicode="," horiz-adv-x="216" 
d="M49 94h84l-120 -203h-63z" />
    <glyph glyph-name="hyphen" unicode="-" horiz-adv-x="396" 
d="M359 288l-15 -67h-308l15 67h308z" />
    <glyph glyph-name="period" unicode="." horiz-adv-x="216" 
d="M60 -8q-24 0 -38 14.5t-14 36.5q0 23 17 40t41 17t38 -14.5t14 -36.5q0 -23 -17 -40t-41 -17z" />
    <glyph glyph-name="slash" unicode="/" horiz-adv-x="408" 
d="M-41 0l451 710h77l-451 -710h-77z" />
    <glyph glyph-name="zero" unicode="0" 
d="M258 53q70 0 125.5 67.5t83 163.5t27.5 194q0 179 -134 179q-70 0 -125.5 -67.5t-83 -163.5t-27.5 -194q0 -179 134 -179zM258 -15q-100 0 -154 64.5t-54 182.5q0 123 36.5 234.5t109 185t165.5 73.5q99 0 153 -64.5t54 -182.5q0 -123 -36.5 -234.5t-109 -185
t-164.5 -73.5z" />
    <glyph glyph-name="one" unicode="1" 
d="M466 64l-14 -64h-409l15 64h167l133 575h-152l12 50l172 21h57l-149 -646h168z" />
    <glyph glyph-name="two" unicode="2" 
d="M464 0h-470l15 62l343 261q69 53 102.5 101t33.5 113q0 54 -34.5 87.5t-96.5 33.5q-82 0 -125.5 -50.5t-49.5 -134.5h-74q8 114 75 183t179 69q94 0 147.5 -52t53.5 -133q0 -82 -45 -147t-128 -126l-269 -198h359z" />
    <glyph glyph-name="three" unicode="3" 
d="M230 330l15 66h60q85 0 140.5 35.5t55.5 110.5q0 51 -34.5 83.5t-97.5 32.5q-73 0 -116.5 -39t-53.5 -94h-73q15 89 82 144.5t168 55.5q91 0 144 -49t53 -124q0 -70 -41.5 -122t-113.5 -74q86 -44 86 -150q0 -101 -75.5 -161t-180.5 -60q-96 0 -155 50.5t-59 142.5
q0 6 1 13.5t1 9.5h71v-15q0 -66 41.5 -101t109.5 -35q70 0 121.5 41.5t51.5 115.5q0 56 -36.5 89.5t-102.5 33.5h-62z" />
    <glyph glyph-name="four" unicode="4" 
d="M543 240l-16 -66h-92l-40 -174h-70l39 174h-355l14 62l458 474h77l-108 -470h93zM463 602h-1l-351 -362h269z" />
    <glyph glyph-name="five" unicode="5" 
d="M89 303l150 407h366l-16 -69h-304l-81 -222q5 5 14.5 12.5t43.5 19.5t73 12q87 0 139.5 -54.5t52.5 -134.5q0 -120 -78.5 -204.5t-202.5 -84.5q-94 0 -147.5 54t-53.5 144v8h72q0 -61 34.5 -100t107.5 -39q84 0 139 63.5t55 150.5q0 59 -35.5 94.5t-94.5 35.5
q-111 0 -160 -93h-74z" />
    <glyph glyph-name="six" unicode="6" 
d="M253 -15q-98 0 -152.5 57.5t-54.5 150.5q0 72 33.5 148t90.5 143.5t117.5 122.5t128.5 103h106q-196 -131 -310 -282q51 33 114 33q94 0 149.5 -54.5t55.5 -138.5q0 -119 -77 -201t-201 -82zM257 51q84 0 141 58t57 152q0 64 -39 100.5t-105 36.5q-85 0 -138 -58.5
t-53 -146.5q0 -65 35.5 -103.5t101.5 -38.5z" />
    <glyph glyph-name="seven" unicode="7" 
d="M128 710h481l-15 -67q-143 -151 -229.5 -293.5t-166.5 -349.5h-80q80 205 167.5 353t215.5 290h-318l-21 -94h-71z" />
    <glyph glyph-name="eight" unicode="8" 
d="M510 217q0 -106 -74 -169t-192 -63q-99 0 -152.5 51.5t-53.5 128.5q0 75 42 130t118 83q-65 40 -65 128q0 96 67.5 157.5t171.5 61.5q88 0 142.5 -49t54.5 -122q0 -66 -37 -118.5t-103 -77.5q38 -19 59.5 -57.5t21.5 -83.5zM498 550q0 47 -34.5 78.5t-94.5 31.5
q-71 0 -118.5 -42t-47.5 -112q0 -47 33 -78t91 -31q73 0 122 39.5t49 113.5zM249 50q81 0 134 42.5t53 123.5q0 51 -36 83.5t-102 32.5q-78 0 -131.5 -42.5t-53.5 -122.5q0 -52 35 -84.5t101 -32.5z" />
    <glyph glyph-name="nine" unicode="9" 
d="M364 725q98 0 152.5 -57.5t54.5 -150.5q0 -72 -33.5 -148t-90.5 -143.5t-117.5 -122.5t-128.5 -103h-106q196 131 310 282q-51 -33 -114 -33q-94 0 -149.5 54.5t-55.5 138.5q0 119 77 201t201 82zM360 659q-84 0 -141 -58t-57 -152q0 -64 39 -100.5t105 -36.5
q85 0 138 58.5t53 146.5q0 65 -35.5 103.5t-101.5 38.5z" />
    <glyph glyph-name="colon" unicode=":" horiz-adv-x="216" 
d="M60 -8q-24 0 -38 14.5t-14 36.5q0 23 17 40t41 17t38 -14.5t14 -36.5q0 -23 -17 -40t-41 -17zM155 408q-24 0 -38 14.5t-14 36.5q0 23 17.5 40.5t41.5 17.5t38 -14.5t14 -36.5q0 -24 -17 -41t-42 -17z" />
    <glyph glyph-name="semicolon" unicode=";" horiz-adv-x="216" 
d="M155 408q-24 0 -38 14.5t-14 36.5q0 23 17.5 40.5t41.5 17.5t38 -14.5t14 -36.5q0 -24 -17 -41t-42 -17zM49 94h84l-120 -203h-63z" />
    <glyph glyph-name="less" unicode="&#x3c;" 
d="M491 96l-15 -69l-430 194l15 61l518 194l-18 -78l-419 -151z" />
    <glyph glyph-name="equal" unicode="=" 
d="M533 187l-16 -69h-516l16 69h516zM580 390l-16 -69h-516l16 69h516z" />
    <glyph glyph-name="greater" unicode="&#x3e;" 
d="M89 407l16 69l430 -194l-15 -61l-518 -194l18 78l419 151z" />
    <glyph glyph-name="question" unicode="?" horiz-adv-x="519" 
d="M99 478q3 108 66 177.5t171 69.5q92 0 145.5 -51t53.5 -123q0 -51 -19.5 -92t-48.5 -66.5t-63.5 -52t-64.5 -48.5t-51.5 -56t-24.5 -74h-73q4 58 34 103t69 74.5t77 56.5t64.5 64.5t26.5 83.5q0 48 -34 81.5t-92 33.5q-78 0 -119.5 -50t-44.5 -131h-72zM158 42
q0 23 16 39t41 16q23 0 37 -13.5t14 -35.5q0 -24 -15.5 -40t-40.5 -16q-23 0 -37.5 14t-14.5 36z" />
    <glyph glyph-name="at" unicode="@" horiz-adv-x="825" 
d="M641 28h70q-51 -70 -133 -110t-176 -40q-165 0 -257.5 93t-92.5 248q0 172 111.5 290t285.5 118q153 0 242 -82t89 -217q0 -120 -61.5 -191t-139.5 -71q-36 0 -57.5 18t-27.5 44q-46 -62 -121 -62q-63 0 -100 40t-37 109q0 94 51.5 159t132.5 65q84 0 113 -66l13 52h59
l-54 -216q-6 -28 -6 -40q0 -48 44 -48q43 0 75 32.5t45.5 77t13.5 92.5q0 118 -75.5 184.5t-201.5 66.5q-146 0 -239.5 -101.5t-93.5 -252.5q0 -137 78 -213t215 -76q75 0 136.5 28t98.5 69zM381 119q56 0 90.5 45.5t34.5 123.5q0 44 -22.5 70.5t-59.5 26.5
q-56 0 -90.5 -45.5t-34.5 -123.5q0 -44 22.5 -70.5t59.5 -26.5z" />
    <glyph glyph-name="A" unicode="A" horiz-adv-x="667" 
d="M23 0h-83l455 710h79l129 -710h-75l-30 166h-370zM419 621h-2l-247 -387h317z" />
    <glyph glyph-name="B" unicode="B" horiz-adv-x="674" 
d="M319 0h-280l163 710h245q103 0 156.5 -46t53.5 -124q0 -67 -39.5 -116t-109.5 -70q43 -17 67 -51.5t24 -81.5q0 -103 -75.5 -162t-204.5 -59zM384 326h-198l-60 -258h208q94 0 143.5 40.5t49.5 111.5q0 53 -37.5 79.5t-105.5 26.5zM440 642h-181l-57 -248h209
q80 0 126.5 36t46.5 102q0 110 -144 110z" />
    <glyph glyph-name="C" unicode="C" horiz-adv-x="781" 
d="M381 -15q-145 0 -230 90.5t-85 227.5q0 178 112.5 300t291.5 122q126 0 206 -72.5t91 -192.5h-72q-10 90 -73 143t-158 53q-143 0 -232 -101t-89 -251q0 -116 67.5 -183.5t179.5 -67.5q94 0 169.5 53.5t107.5 143.5h77q-39 -121 -137.5 -193t-225.5 -72z" />
    <glyph glyph-name="D" unicode="D" horiz-adv-x="761" 
d="M730 418q0 -194 -119 -306t-340 -112h-232l163 710h190q166 0 252 -79.5t86 -212.5zM127 69h147q180 0 280 87.5t100 253.5q0 230 -276 230h-118z" />
    <glyph glyph-name="E" unicode="E" horiz-adv-x="636" 
d="M531 69l-15 -69h-477l163 710h477l-15 -69h-404l-57 -246h382l-16 -69h-382l-60 -257h404z" />
    <glyph glyph-name="F" unicode="F" horiz-adv-x="583" 
d="M112 0h-73l163 710h452l-15 -69h-379l-57 -246h357l-16 -69h-357z" />
    <glyph glyph-name="G" unicode="G" horiz-adv-x="822" 
d="M390 53q110 0 190.5 71t102.5 186h-238l15 68h308l-87 -378h-65l25 108q-94 -123 -266 -123q-141 0 -225 90.5t-84 227.5q0 178 113 300t292 122q125 0 206 -71.5t92 -190.5h-73q-10 88 -73.5 140.5t-157.5 52.5q-144 0 -233 -101t-89 -251q0 -116 67.5 -183.5
t179.5 -67.5z" />
    <glyph glyph-name="H" unicode="H" horiz-adv-x="764" 
d="M763 710l-163 -710h-73l75 326h-415l-75 -326h-73l163 710h73l-72 -315h415l72 315h73z" />
    <glyph glyph-name="I" unicode="I" horiz-adv-x="276" 
d="M275 710l-163 -710h-73l163 710h73z" />
    <glyph glyph-name="J" unicode="J" horiz-adv-x="593" 
d="M412 230l110 480h73l-114 -494q-52 -229 -253 -229q-90 0 -146 51.5t-56 139.5q0 19 3 39t7 30l3 10h70q-13 -37 -13 -76q0 -57 35.5 -92.5t98.5 -35.5q78 0 119.5 43t62.5 134z" />
    <glyph glyph-name="K" unicode="K" horiz-adv-x="693" 
d="M781 710l-368 -298l224 -412h-84l-196 366l-197 -159l-48 -207h-73l163 710h73l-92 -400l491 400h107z" />
    <glyph glyph-name="L" unicode="L" horiz-adv-x="541" 
d="M483 69l-15 -69h-429l163 710h73l-148 -641h356z" />
    <glyph glyph-name="M" unicode="M" horiz-adv-x="849" 
d="M262 710l182 -331l333 331h72l-163 -710h-72l135 588l-323 -318h-4l-176 318l-135 -588h-72l163 710h60z" />
    <glyph glyph-name="N" unicode="N" horiz-adv-x="766" 
d="M249 602l-138 -602h-72l163 710h77l276 -602l138 602h72l-162 -710h-78z" />
    <glyph glyph-name="O" unicode="O" horiz-adv-x="828" 
d="M395 53q143 0 234 101.5t91 251.5q0 117 -68.5 183.5t-182.5 66.5q-143 0 -234 -101.5t-91 -250.5q0 -117 68.5 -184t182.5 -67zM388 -15q-148 0 -234.5 90t-86.5 228q0 177 115.5 299.5t293.5 122.5q148 0 234.5 -90t86.5 -228q0 -177 -115.5 -299.5t-293.5 -122.5z" />
    <glyph glyph-name="P" unicode="P" horiz-adv-x="644" 
d="M197 369h205q87 0 135.5 40.5t48.5 116.5q0 55 -38.5 85t-105.5 30h-182zM181 299l-69 -299h-73l163 710h244q99 0 157.5 -49t58.5 -133q0 -108 -75.5 -168.5t-192.5 -60.5h-213z" />
    <glyph glyph-name="Q" unicode="Q" horiz-adv-x="828" 
d="M388 -15q-148 0 -234.5 90t-86.5 228q0 177 115.5 299.5t293.5 122.5q148 0 234.5 -90t86.5 -228q0 -115 -52 -211.5t-143 -151.5l90 -174h-81l-72 142q-73 -27 -151 -27zM395 53q143 0 234 101.5t91 251.5q0 117 -68.5 183.5t-182.5 66.5q-143 0 -234 -101.5t-91 -250.5
q0 -117 68.5 -184t182.5 -67z" />
    <glyph glyph-name="R" unicode="R" horiz-adv-x="685" 
d="M575 0h-81l-98 309h-213l-71 -309h-73l163 710h265q105 0 158 -49t53 -122q0 -91 -54.5 -148.5t-154.5 -74.5zM199 379h219q82 0 134 37.5t52 116.5q0 49 -35.5 78.5t-104.5 29.5h-204z" />
    <glyph glyph-name="S" unicode="S" horiz-adv-x="623" 
d="M265 52q89 0 145.5 36.5t56.5 107.5q0 47 -33.5 77t-81.5 48t-96 37.5t-81.5 58.5t-33.5 98q0 100 72.5 155t180.5 55q101 0 166.5 -53t65.5 -146l-2 -31h-70q1 8 1 22q0 65 -46.5 103.5t-122.5 38.5q-72 0 -120.5 -35t-48.5 -101q0 -44 34 -73t82 -46.5t96 -38t82 -61
t34 -100.5q0 -73 -41.5 -123.5t-103.5 -72.5t-139 -22q-111 0 -178 52.5t-67 146.5l1 30h72q-1 -6 -1 -21q0 -67 47 -104.5t130 -37.5z" />
    <glyph glyph-name="T" unicode="T" horiz-adv-x="545" 
d="M637 710l-15 -70h-227l-148 -640h-73l147 640h-227l15 70h528z" />
    <glyph glyph-name="U" unicode="U" horiz-adv-x="734" 
d="M328 -15q-108 0 -174 60t-66 178q0 53 15 119l85 368h73l-88 -383q-12 -53 -12 -101q0 -87 45.5 -130.5t128.5 -43.5q102 0 161.5 61.5t87.5 184.5l95 412h73l-97 -421q-36 -155 -116 -229.5t-211 -74.5z" />
    <glyph glyph-name="V" unicode="V" horiz-adv-x="669" 
d="M672 710h84l-448 -710h-78l-123 710h78l100 -617h2z" />
    <glyph glyph-name="W" unicode="W" horiz-adv-x="1033" 
d="M593 613l-332 -613h-80l-64 710h77l44 -613h2l332 613h83l47 -614h2l328 614h84l-393 -711h-80l-48 614h-2z" />
    <glyph glyph-name="X" unicode="X" horiz-adv-x="695" 
d="M769 710l-359 -355l207 -355h-84l-174 303l-304 -303h-100l370 365l-200 345h84l166 -293l295 293h99z" />
    <glyph glyph-name="Y" unicode="Y" horiz-adv-x="615" 
d="M624 710h90l-378 -463l-56 -247h-73l58 255l-166 455h78l138 -383h2z" />
    <glyph glyph-name="Z" unicode="Z" horiz-adv-x="659" 
d="M704 710l-14 -63l-579 -578h449l-15 -69h-554l14 63l578 578h-441l15 69h547z" />
    <glyph glyph-name="bracketleft" unicode="[" horiz-adv-x="301" 
d="M197 -100l-15 -66h-203l210 916h204l-15 -66h-135l-181 -784h135z" />
    <glyph glyph-name="backslash" unicode="\" horiz-adv-x="408" 
d="M196 710l126 -710h-68l-126 710h68z" />
    <glyph glyph-name="bracketright" unicode="]" horiz-adv-x="301" 
d="M-74 -166l15 66h134l181 784h-135l15 66h204l-211 -916h-203z" />
    <glyph glyph-name="asciicircum" unicode="^" 
d="M505 241h-68l-64 378l-238 -378h-78l302 469h61z" />
    <glyph glyph-name="underscore" unicode="_" horiz-adv-x="500" 
d="M416 -96l-16 -67h-499l15 67h500z" />
    <glyph glyph-name="grave" unicode="`" horiz-adv-x="349" 
d="M180 759h77l59 -170h-66z" />
    <glyph glyph-name="a" unicode="a" horiz-adv-x="579" 
d="M27 121q0 83 58.5 123.5t164.5 52.5l186 21q7 28 7 49q0 93 -125 93q-130 0 -159 -102h-73q43 163 239 163q92 0 139.5 -39.5t47.5 -110.5q0 -28 -7 -59l-46 -197q-14 -59 -14 -96q0 -9 2 -19h-67q-1 5 -1 16q0 30 6 59q-67 -87 -199 -87q-75 0 -117 37.5t-42 95.5z
M206 46q84 0 137 46.5t67 111.5l13 56l-172 -21q-74 -9 -114 -34.5t-40 -79.5q0 -39 29 -59t80 -20z" />
    <glyph glyph-name="b" unicode="b" horiz-adv-x="639" 
d="M309 -12q-69 0 -118.5 32t-70.5 82l-24 -102h-69l173 750h70l-71 -309q63 80 182 80q97 0 153.5 -62.5t56.5 -162.5q0 -125 -79 -216.5t-203 -91.5zM310 52q93 0 151 71.5t58 171.5q0 73 -40 118t-114 45q-95 0 -154 -73t-59 -176q0 -72 41.5 -114.5t116.5 -42.5z" />
    <glyph glyph-name="c" unicode="c" horiz-adv-x="577" 
d="M47 222q0 123 78 211t206 88q97 0 153.5 -56t63.5 -137h-72q-8 60 -47 94.5t-104 34.5q-85 0 -145.5 -65t-60.5 -171q0 -76 41 -122.5t114 -46.5q64 0 113 35.5t70 93.5h74q-27 -83 -95 -138t-169 -55q-103 0 -161.5 67.5t-58.5 166.5z" />
    <glyph glyph-name="d" unicode="d" horiz-adv-x="638" 
d="M330 521q69 0 119 -32.5t68 -82.5l79 344h71l-173 -750h-67l17 73q-70 -85 -187 -85q-96 0 -152.5 62.5t-56.5 162.5q0 126 78.5 217t203.5 91zM329 457q-93 0 -151.5 -71.5t-58.5 -172.5q0 -73 40 -117.5t114 -44.5q95 0 154 73t59 176q0 72 -41 114.5t-116 42.5z" />
    <glyph glyph-name="e" unicode="e" horiz-adv-x="591" 
d="M542 234h-423v-7q0 -81 41 -129t115 -48q58 0 104.5 30t69.5 79h75q-32 -76 -99 -123.5t-156 -47.5q-104 0 -162.5 67t-58.5 167q0 122 77.5 210.5t202.5 88.5q101 0 160.5 -62.5t59.5 -158.5q0 -33 -6 -66zM324 460q-75 0 -128 -46.5t-70 -121.5h351q1 11 1 19
q0 67 -41.5 108t-112.5 41z" />
    <glyph glyph-name="f" unicode="f" horiz-adv-x="311" 
d="M55 448q5 25 14 61h98l18 77q21 87 64.5 125.5t114.5 38.5l41 -4q-2 -10 -7 -31t-7 -32q-18 3 -31 3q-46 0 -70.5 -26t-37.5 -86l-14 -65h115q-5 -25 -14 -61h-115l-103 -448h-71l103 448h-98z" />
    <glyph glyph-name="g" unicode="g" horiz-adv-x="636" 
d="M325 521q69 0 119 -33t67 -87l25 108h70l-115 -499q-54 -229 -275 -229q-98 0 -150.5 48.5t-59.5 113.5h71q8 -45 45.5 -72t101.5 -27q156 0 197 170l15 63q-66 -77 -185 -77q-99 0 -153.5 62t-54.5 160q0 125 78 212t204 87zM480 300q0 71 -41 114t-116 43
q-92 0 -150 -67t-58 -167q0 -72 39 -115.5t113 -43.5q95 0 154 68t59 168z" />
    <glyph glyph-name="h" unicode="h" horiz-adv-x="598" 
d="M269 750l-72 -314q64 85 174 85q73 0 116.5 -40.5t43.5 -114.5q0 -32 -11 -82l-66 -284h-71l71 305q7 28 7 55q0 99 -110 99q-69 0 -118 -42t-69 -127l-68 -290h-70l173 750h70z" />
    <glyph glyph-name="i" unicode="i" horiz-adv-x="246" 
d="M27 0l117 509h70l-117 -509h-70zM168 682q0 22 15.5 37.5t38.5 15.5t35.5 -13t12.5 -34q0 -22 -15 -37.5t-39 -15.5q-22 0 -35 13t-13 34z" />
    <glyph glyph-name="j" unicode="j" horiz-adv-x="246" 
d="M-126 -216l14 63q10 -2 22 -2q45 0 68.5 24.5t36.5 82.5l128 557h71l-130 -566q-20 -84 -62.5 -123t-116.5 -39zM168 682q0 22 15 37.5t39 15.5q22 0 35 -13t13 -34q0 -22 -15.5 -37.5t-38.5 -15.5t-35.5 13t-12.5 34z" />
    <glyph glyph-name="k" unicode="k" horiz-adv-x="554" 
d="M411 0l-135 255l-148 -118q-20 -92 -31 -137h-70l172 750h71l-119 -518l337 277h102l-259 -209l158 -300h-78z" />
    <glyph glyph-name="l" unicode="l" horiz-adv-x="246" 
d="M97 0h-70l172 750h70z" />
    <glyph glyph-name="m" unicode="m" horiz-adv-x="929" 
d="M366 521q58 0 95 -26t50 -75q71 101 194 101q73 0 115 -40.5t42 -114.5q0 -32 -11 -82l-66 -284h-70l70 305q7 28 7 55q0 99 -107 99q-137 0 -176 -169l-67 -290h-71l70 305q8 32 8 55q0 99 -103 99q-68 0 -115 -42t-67 -127l-67 -290h-71l117 509h68l-18 -78
q65 90 173 90z" />
    <glyph glyph-name="n" unicode="n" horiz-adv-x="598" 
d="M211 509l-18 -78q61 90 178 90q73 0 116.5 -40.5t43.5 -114.5q0 -32 -11 -82l-66 -284h-71l71 305q7 28 7 55q0 99 -110 99q-69 0 -118 -42t-69 -127l-68 -290h-70l117 509h68z" />
    <glyph glyph-name="o" unicode="o" horiz-adv-x="617" 
d="M119 223q0 -76 43 -123.5t122 -47.5q94 0 154 68t60 166q0 76 -43 123.5t-122 47.5q-94 0 -154 -68t-60 -166zM48 218q0 127 81 215t210 88q105 0 167.5 -65.5t62.5 -164.5q0 -127 -81 -215t-210 -88q-105 0 -167.5 65.5t-62.5 164.5z" />
    <glyph glyph-name="p" unicode="p" horiz-adv-x="638" 
d="M308 -12q-69 0 -117 31t-71 83l-71 -310h-70l164 717h67l-16 -73q68 85 186 85q97 0 153.5 -62.5t56.5 -162.5q0 -126 -78.5 -217t-203.5 -91zM309 51q92 0 150.5 72t58.5 172q0 73 -40 117.5t-114 44.5q-94 0 -153 -73t-59 -176q0 -73 41 -115t116 -42z" />
    <glyph glyph-name="q" unicode="q" horiz-adv-x="643" 
d="M330 520q68 0 117 -32t71 -82l24 103h69l-165 -717h-70l63 275q-64 -79 -182 -79q-96 0 -152.5 62t-56.5 162q0 126 78.5 217t203.5 91zM329 457q-93 0 -151.5 -72t-58.5 -172q0 -73 40 -117.5t114 -44.5q95 0 154 73t59 176q0 72 -41 114.5t-116 42.5z" />
    <glyph glyph-name="r" unicode="r" horiz-adv-x="353" 
d="M391 513l-15 -67q-12 1 -25 1q-68 0 -119 -41.5t-70 -122.5l-65 -283h-71l117 509h67l-17 -77q25 32 71.5 57t110.5 25z" />
    <glyph glyph-name="s" unicode="s" horiz-adv-x="485" 
d="M191 -12q-91 0 -135.5 44t-44.5 109l1 18h69q-1 -6 -1 -15q0 -44 30 -69.5t91 -25.5q67 0 101 27t34 69q0 29 -24 48t-59 30.5t-69.5 26t-58.5 43.5t-24 72q0 73 54 114.5t135 41.5q85 0 131 -40.5t46 -103.5l-1 -18h-69q1 9 1 17q0 37 -28 60t-85 23q-52 0 -84 -24.5
t-32 -62.5q0 -29 24.5 -48.5t59 -32t69 -27t59 -44t24.5 -73.5q0 -75 -60 -117t-154 -42z" />
    <glyph glyph-name="t" unicode="t" horiz-adv-x="322" 
d="M246 67l-14 -64q-15 -5 -49 -5q-109 0 -109 101q0 26 7 55l68 295h-97l14 60h97l33 145h71l-33 -145h117l-14 -60h-117l-70 -303q-4 -17 -4 -34q0 -50 55 -50z" />
    <glyph glyph-name="u" unicode="u" horiz-adv-x="590" 
d="M373 0l18 77q-69 -89 -176 -89q-72 0 -114.5 40.5t-42.5 113.5q0 27 12 83l65 284h71l-70 -305q-8 -32 -8 -55q0 -99 108 -99q68 0 116.5 42t67.5 126l67 291h71l-117 -509h-68z" />
    <glyph glyph-name="v" unicode="v" horiz-adv-x="532" 
d="M218 83l273 426h79l-332 -509h-72l-95 509h73z" />
    <glyph glyph-name="w" unicode="w" horiz-adv-x="827" 
d="M486 0l-40 418h-1l-236 -418h-74l-58 509h74l38 -423l238 423h75l40 -424l236 424h78l-296 -509h-74z" />
    <glyph glyph-name="x" unicode="x" horiz-adv-x="540" 
d="M-42 0l267 260l-146 249h82l113 -199l200 199h94l-262 -256l151 -253h-83l-117 203l-206 -203h-93z" />
    <glyph glyph-name="y" unicode="y" horiz-adv-x="532" 
d="M24 -208l140 216l-93 501h73l74 -426l273 426h79l-468 -717h-78z" />
    <glyph glyph-name="z" unicode="z" horiz-adv-x="526" 
d="M517 452l-416 -389h330l-14 -63h-426l13 57l416 389h-322l14 63h419z" />
    <glyph glyph-name="braceleft" unicode="{" horiz-adv-x="314" 
d="M146 -166q-51 0 -76.5 25.5t-25.5 71.5q0 24 7 51l52 224q3 10 3 20q0 34 -42 34h-24l16 64h23q51 0 63 54l57 244q30 128 157 128l49 -5l-15 -65q-19 4 -44 4q-65 0 -80 -68l-55 -241q-16 -67 -61 -91q23 -19 23 -54q0 -15 -5 -38l-52 -224q-4 -20 -4 -26q0 -42 53 -42
l45 4l-15 -66q-18 -4 -49 -4z" />
    <glyph glyph-name="bar" unicode="|" horiz-adv-x="274" 
d="M172 0h-70v750h70v-750z" />
    <glyph glyph-name="braceright" unicode="}" horiz-adv-x="314" 
d="M185 750q50 0 75.5 -25.5t25.5 -71.5q0 -19 -7 -51l-52 -224q-2 -7 -2 -21q0 -33 41 -33h24l-16 -64h-23q-51 0 -63 -54l-57 -244q-15 -65 -53 -96.5t-104 -31.5l-49 4l15 66q20 -4 44 -4q65 0 80 68l56 240q16 69 61 92q-24 18 -24 54q0 15 5 37l52 225q4 20 4 26
q0 42 -53 42l-45 -4l15 66q19 4 50 4z" />
    <glyph glyph-name="asciitilde" unicode="~" 
d="M389 261q30 0 56 13.5t37 26.5l11 13l46 -39q-2 -3 -6 -8.5t-17.5 -19.5t-29.5 -24.5t-43 -19t-56 -8.5q-45 0 -104 25t-92 25q-30 0 -56 -13.5t-37 -26.5l-11 -13l-46 39q2 3 6 8.5t17.5 19.5t29.5 24.5t43 19t56 8.5q45 0 104 -25t92 -25z" />
    <glyph glyph-name="exclamdown" unicode="&#xa1;" horiz-adv-x="247" 
d="M167 346l-113 -546h-83l138 546h58zM218 468q0 -23 -16.5 -39.5t-40.5 -16.5q-23 0 -36.5 14t-13.5 36q0 23 16.5 39.5t40.5 16.5q23 0 36.5 -14t13.5 -36z" />
    <glyph glyph-name="cent" unicode="&#xa2;" 
d="M66 322q0 123 78 211t206 88h5l24 105h51l-26 -111q73 -15 115 -67t48 -120h-72q-14 101 -106 124l-92 -400q62 1 109.5 36t69.5 93h74q-27 -83 -95 -138t-169 -55h-4l-24 -104h-51l25 109q-79 17 -122.5 80.5t-43.5 148.5zM138 321q0 -63 28.5 -106.5t80.5 -57.5l93 400
q-84 -2 -143 -66.5t-59 -169.5z" />
    <glyph glyph-name="sterling" unicode="&#xa3;" 
d="M-19 34q26 28 72 47q27 15 46 32q75 66 75 146q0 7 -2 27h-120l14 59h96q-22 92 -22 132q0 113 64 180.5t181 67.5q91 0 149 -51t58 -135q0 -17 -2 -33t-4 -24l-2 -8h-69q7 25 7 60q0 55 -38 90t-103 35q-78 0 -125 -46t-47 -129q0 -43 22 -139h194l-14 -59h-171
q0 -121 -77 -191q31 -3 88.5 -24t100.5 -21q37 0 69 16.5t45 33.5l14 16l42 -41q-2 -4 -6.5 -10t-21.5 -21.5t-36.5 -27.5t-52.5 -21.5t-69 -9.5q-46 0 -112 24t-105 24q-26 0 -52.5 -11.5t-40.5 -23.5l-14 -11z" />
    <glyph glyph-name="currency" unicode="&#xa4;" horiz-adv-x="600" 
d="M112 252q0 58 35 106l-74 75l49 48l74 -75q47 34 104 34q56 0 103 -34l74 74l50 -48l-74 -73q35 -49 35 -107t-33 -104l71 -71l-49 -49l-71 70q-47 -34 -106 -34t-107 35l-71 -71l-49 49l72 72q-33 46 -33 103zM172 252q0 -53 37.5 -91t90.5 -38t90.5 38t37.5 91
t-37.5 90.5t-90.5 37.5q-52 0 -90 -38t-38 -90z" />
    <glyph glyph-name="yen" unicode="&#xa5;" 
d="M133 710h74l107 -305h2l243 305h86l-295 -359h136l-14 -58h-143l-19 -85h143l-13 -58h-143l-35 -150h-73l35 150h-143l13 58h143l19 85h-143l14 58h134z" />
    <glyph glyph-name="brokenbar" unicode="&#xa6;" horiz-adv-x="272" 
d="M124 749h68v-307h-68v307zM124 307h68v-307h-68v307z" />
    <glyph glyph-name="section" unicode="&#xa7;" horiz-adv-x="564" 
d="M328 451l54 -28q57 -29 89 -66t32 -92q0 -129 -139 -182q33 -42 33 -97q0 -79 -57 -127t-145 -48q-93 0 -136 45t-43 107l1 18h68q-1 -9 -1 -13q0 -44 30 -69.5t85 -25.5q58 0 92.5 29t34.5 76q0 36 -17.5 57.5t-60.5 43.5l-42 21q-75 38 -110 75.5t-35 95.5
q0 62 35 108.5t103 72.5q-33 39 -33 97q0 80 57 128t146 48q91 0 135 -45.5t44 -104.5l-1 -18h-69v5q1 5 1 8q0 41 -30.5 67t-83.5 26q-57 0 -92 -29.5t-35 -75.5q0 -40 17.5 -59.5t72.5 -47.5zM300 384l-51 25q-51 -14 -84 -49t-33 -84q0 -36 23.5 -60.5t88.5 -55.5l36 -17
q31 -16 35 -18q52 15 84.5 49.5t32.5 84.5q0 35 -22.5 59.5t-81.5 52.5q-5 2 -14 6t-14 7z" />
    <glyph glyph-name="dieresis" unicode="&#xa8;" horiz-adv-x="390" 
d="M155 674q0 22 14.5 36.5t37.5 14.5q21 0 33 -12.5t12 -32.5q0 -21 -14.5 -35.5t-36.5 -14.5t-34 12.5t-12 31.5zM303 674q0 22 14.5 36.5t36.5 14.5q21 0 33.5 -12.5t12.5 -32.5q0 -21 -15 -35.5t-37 -14.5q-21 0 -33 12.5t-12 31.5z" />
    <glyph glyph-name="copyright" unicode="&#xa9;" horiz-adv-x="796" 
d="M419 42q138 0 223 88t85 226t-85 226t-223 88t-223 -88t-85 -226t85 -226t223 -88zM233 356q0 84 52.5 140t132.5 56q81 0 127.5 -45t52.5 -101h-61q-7 37 -36 64t-82 27q-59 0 -91.5 -39t-32.5 -102t32.5 -102.5t91.5 -39.5q53 0 82 27.5t36 64.5h61q-6 -56 -52.5 -101
t-127.5 -45q-80 0 -132.5 56t-52.5 140zM419 -13q-162 0 -265.5 105.5t-103.5 263.5t103.5 263.5t265.5 105.5t265.5 -105.5t103.5 -263.5t-103.5 -263.5t-265.5 -105.5z" />
    <glyph glyph-name="ordfeminine" unicode="&#xaa;" horiz-adv-x="412" 
d="M72 421q0 61 39 90t114 37l136 15q4 15 4 31q0 59 -81 59q-88 0 -108 -72h-64q34 128 176 128q66 0 101.5 -30t35.5 -83q0 -22 -8 -58l-30 -129q-7 -30 -7 -60v-12l1 -7h-59q0 1 -0.5 8t-0.5 11q0 9 2 23q-47 -51 -132 -51q-56 0 -87.5 28.5t-31.5 71.5zM341 479
q6 22 8 33l-115 -15q-48 -7 -74 -22.5t-26 -48.5q0 -24 19.5 -37.5t50.5 -13.5q56 0 91.5 30t45.5 74z" />
    <glyph glyph-name="guillemotleft" unicode="&#xab;" horiz-adv-x="501" 
d="M65 263l153 207h79l-159 -215l61 -208h-70zM254 263l153 207h79l-159 -215l61 -208h-70z" />
    <glyph glyph-name="logicalnot" unicode="&#xac;" 
d="M31 288h517l-57 -246h-69l41 178h-448z" />
    <glyph glyph-name="registered" unicode="&#xae;" horiz-adv-x="586" 
d="M330 197q-116 0 -190 76.5t-74 187.5t74 187.5t190 76.5t190 -76.5t74 -187.5q0 -112 -74 -188t-190 -76zM330 246q95 0 152.5 59t57.5 156q0 96 -57.5 155.5t-152.5 59.5t-152.5 -59.5t-57.5 -155.5q0 -97 57.5 -156t152.5 -59zM445 331h-58q-4 9 -12.5 25.5t-15 30
t-11.5 25.5h-62v-81h-50v259h97q53 0 80.5 -24t27.5 -65q0 -55 -46 -77zM340 542h-54v-83h54q50 0 50 42q0 41 -50 41z" />
    <glyph glyph-name="macron" unicode="&#xaf;" horiz-adv-x="397" 
d="M455 697l-15 -60h-320l14 60h321z" />
    <glyph glyph-name="degree" unicode="&#xb0;" horiz-adv-x="384" 
d="M153 544q0 -40 24 -65.5t67 -25.5q49 0 82.5 35.5t33.5 88.5q0 40 -24 66t-67 26q-49 0 -82.5 -35.5t-33.5 -89.5zM93 540q0 74 50 129.5t129 55.5q64 0 106.5 -40.5t42.5 -102.5q0 -74 -50 -129.5t-129 -55.5q-65 0 -107 40.5t-42 102.5z" />
    <glyph glyph-name="plusminus" unicode="&#xb1;" 
d="M316 509h68l-37 -162h223l-15 -69h-224l-38 -161h-68q14 65 38 161h-225l16 69h224q5 21 38 162zM506 68q-7 -28 -16 -68h-515q7 28 16 68h515z" />
    <glyph glyph-name="twosuperior" unicode="&#xb2;" horiz-adv-x="385" 
d="M377 438h-295l11 50l204 154q40 30 58.5 55.5t18.5 61.5q0 29 -18.5 46.5t-51.5 17.5q-45 0 -69 -29.5t-27 -79.5h-61q5 76 47 120.5t112 44.5q59 0 93.5 -33t34.5 -85q0 -89 -104 -164l-142 -102h202z" />
    <glyph glyph-name="threesuperior" unicode="&#xb3;" horiz-adv-x="387" 
d="M216 630l12 53h43q45 0 75.5 19.5t30.5 60.5q0 26 -18.5 43t-51.5 17q-42 0 -65.5 -22t-30.5 -55h-61q12 61 52.5 97t107.5 36q58 0 93 -32t35 -79q0 -85 -81 -116q39 -31 39 -85q0 -63 -47.5 -101t-111.5 -38q-61 0 -97.5 33t-36.5 91l1 14h59q-1 -4 -1 -8q0 -74 81 -74
q37 0 64 21.5t27 61.5q0 63 -71 63h-47z" />
    <glyph glyph-name="acute" unicode="&#xb4;" horiz-adv-x="349" 
d="M283 759h78l-116 -170h-67z" />
    <glyph glyph-name="mu" unicode="&#xb5;" horiz-adv-x="590" 
d="M215 -12q-85 0 -123 56q-15 -83 -30 -147l-19 -85h-67l159 697h71l-70 -305q-8 -32 -8 -55q0 -99 108 -99q68 0 116.5 42t67.5 126l67 291h71l-117 -509h-68l18 77q-69 -89 -176 -89z" />
    <glyph glyph-name="paragraph" unicode="&#xb6;" horiz-adv-x="613" 
d="M186 -198l109 471q-94 0 -139.5 49.5t-45.5 127.5q0 118 78.5 189t203.5 71h230l-209 -908h-70l194 841h-88l-194 -841h-69z" />
    <glyph glyph-name="periodcentered" unicode="&#xb7;" horiz-adv-x="216" 
d="M106 203q-25 0 -39 14.5t-14 37.5t16.5 39.5t40.5 16.5t38.5 -15t14.5 -37q0 -23 -16.5 -39.5t-40.5 -16.5z" />
    <glyph glyph-name="cedilla" unicode="&#xb8;" horiz-adv-x="271" 
d="M-18 -212l32 40q19 -20 51 -20q27 0 44.5 14.5t17.5 40.5q0 18 -11 29.5t-34 11.5q-13 0 -25 -5t-17 -9l-5 -5l-32 17l60 112h49l-39 -72q10 5 27 5q37 0 57.5 -23t20.5 -57q0 -47 -32.5 -76.5t-84.5 -29.5q-24 0 -43.5 6.5t-27.5 13.5z" />
    <glyph glyph-name="onesuperior" unicode="&#xb9;" horiz-adv-x="275" 
d="M301 869l-99 -432h-61l87 372h-75l10 46l91 14h47z" />
    <glyph glyph-name="ordmasculine" unicode="&#xba;" horiz-adv-x="437" 
d="M252 379q64 0 104 46t40 112q0 51 -28.5 82t-80.5 31q-65 0 -105.5 -46t-40.5 -112q0 -51 28.5 -82t82.5 -31zM247 321q-77 0 -122.5 47.5t-45.5 120.5q0 91 59.5 155.5t152.5 64.5q76 0 121.5 -48t45.5 -121q0 -90 -59 -154.5t-152 -64.5z" />
    <glyph glyph-name="guillemotright" unicode="&#xbb;" horiz-adv-x="502" 
d="M437 253l-153 -206h-79l159 214l-62 209h71zM248 253l-153 -206h-79l159 214l-62 209h71z" />
    <glyph glyph-name="onequarter" unicode="&#xbc;" horiz-adv-x="788" 
d="M87 0l555 710h67l-555 -710h-67zM281 710l-99 -432h-61l86 372h-74l9 46l91 14h48zM742 155l-12 -54h-58q-12 -60 -22 -101h-58q12 60 22 101h-207l9 52l270 278h62l-63 -276h57zM488 155h139q5 23 42 185z" />
    <glyph glyph-name="onehalf" unicode="&#xbd;" horiz-adv-x="836" 
d="M87 0l555 710h67l-555 -710h-67zM282 710l-99 -432h-61l86 372h-75l10 46l91 14h48zM735 0h-295l11 50l204 154q41 31 59 55.5t18 61.5q0 29 -18.5 46t-51.5 17q-89 0 -96 -109h-61q5 76 47 121t112 45q59 0 93.5 -33t34.5 -85q0 -89 -104 -164l-142 -103h202z" />
    <glyph glyph-name="threequarters" unicode="&#xbe;" horiz-adv-x="866" 
d="M156 0l555 710h67l-555 -710h-67zM780 155l-12 -54h-58q-12 -60 -22 -101h-58q12 60 22 101h-207l9 52l270 278h62l-63 -276h57zM526 155h139q5 23 42 185zM191 466l12 53h43q45 0 75.5 19.5t30.5 60.5q0 26 -18.5 43t-51.5 17q-42 0 -65.5 -22t-30.5 -55h-61
q12 61 52.5 97t107.5 36q58 0 93 -32t35 -79q0 -85 -81 -116q39 -31 39 -85q0 -63 -47.5 -101t-111.5 -38q-61 0 -97.5 33t-36.5 91l1 14h59q-1 -4 -1 -8q0 -74 81 -74q37 0 64 21.5t27 61.5q0 63 -71 63h-47z" />
    <glyph glyph-name="questiondown" unicode="&#xbf;" horiz-adv-x="519" 
d="M426 32q-3 -108 -66 -177.5t-171 -69.5q-92 0 -145.5 51t-53.5 123q0 51 19.5 92t48.5 66.5t63.5 52t64.5 48.5t51.5 56t24.5 74h73q-4 -58 -34 -103t-69 -74.5t-77 -56.5t-64.5 -64.5t-26.5 -83.5q0 -48 34 -81.5t92 -33.5q78 0 119.5 50t44.5 131h72zM367 468
q0 -23 -16 -39t-41 -16q-23 0 -37 13.5t-14 35.5q0 24 15.5 40t40.5 16q23 0 37.5 -14t14.5 -36z" />
    <glyph glyph-name="Agrave" unicode="&#xc0;" horiz-adv-x="667" 
d="M23 0h-83l455 710h79l129 -710h-75l-30 166h-370zM419 621h-2l-247 -387h317zM328 939h77l59 -170h-66z" />
    <glyph glyph-name="Aacute" unicode="&#xc1;" horiz-adv-x="667" 
d="M23 0h-83l455 710h79l129 -710h-75l-30 166h-370zM419 621h-2l-247 -387h317zM514 940h78l-116 -170h-67z" />
    <glyph glyph-name="Acircumflex" unicode="&#xc2;" horiz-adv-x="667" 
d="M23 0h-83l455 710h79l129 -710h-75l-30 166h-370zM419 621h-2l-247 -387h317zM314 832l148 68l127 -75l-15 -62l-119 71l-156 -71z" />
    <glyph glyph-name="Atilde" unicode="&#xc3;" horiz-adv-x="671" 
d="M23 0h-83l455 710h79l129 -710h-75l-30 166h-370zM419 621h-2l-247 -387h317zM322 791h-58q24 95 110 95q31 0 72 -21t61 -21q38 0 51 39h57q-24 -95 -110 -95q-31 0 -71.5 21t-61.5 21q-38 0 -50 -39z" />
    <glyph glyph-name="Adieresis" unicode="&#xc4;" horiz-adv-x="667" 
d="M23 0h-83l455 710h79l129 -710h-75l-30 166h-370zM419 621h-2l-247 -387h317zM322 811q0 22 14.5 36.5t37.5 14.5q21 0 33 -12.5t12 -32.5q0 -21 -14.5 -35.5t-36.5 -14.5t-34 12.5t-12 31.5zM470 811q0 22 14.5 36.5t36.5 14.5q21 0 33.5 -12.5t12.5 -32.5
q0 -21 -15 -35.5t-37 -14.5q-21 0 -33 12.5t-12 31.5z" />
    <glyph glyph-name="Aring" unicode="&#xc5;" horiz-adv-x="667" 
d="M23 0h-83l455 710h79l129 -710h-75l-30 166h-370zM419 621h-2l-247 -387h317zM395 850q0 -24 13.5 -38.5t38.5 -14.5q30 0 50 21t20 52q0 24 -13 38.5t-38 14.5q-31 0 -51 -21t-20 -52zM344 845q0 51 35 88t90 37q45 0 72 -27t27 -68q0 -51 -35 -88.5t-90 -37.5
q-45 0 -72 27.5t-27 68.5z" />
    <glyph glyph-name="AE" unicode="&#xc6;" horiz-adv-x="971" 
d="M-14 0h-89l590 710h528q-2 -8 -7.5 -32t-7.5 -37h-404l-58 -247h382q-9 -40 -16 -68h-382l-59 -258h404q-1 -4 -7 -29t-8 -39h-478l38 166h-290zM515 640l-339 -406h252l94 406h-7z" />
    <glyph glyph-name="Ccedilla" unicode="&#xc7;" horiz-adv-x="781" 
d="M271 -212l32 40q19 -20 51 -20q27 0 44.5 14.5t17.5 40.5q0 18 -11 29.5t-34 11.5q-13 0 -25 -5t-17 -9l-5 -5l-32 17l46 86q-126 13 -199 100.5t-73 214.5q0 178 112.5 300t291.5 122q126 0 206 -72.5t91 -192.5h-72q-10 90 -73 143t-158 53q-143 0 -232 -101t-89 -251
q0 -116 67.5 -183.5t179.5 -67.5q94 0 169.5 53.5t107.5 143.5h77q-39 -120 -136.5 -191.5t-222.5 -73.5l-23 -43q10 5 27 5q37 0 57.5 -23t20.5 -57q0 -47 -32.5 -76.5t-84.5 -29.5q-24 0 -43.5 6.5t-27.5 13.5z" />
    <glyph glyph-name="Egrave" unicode="&#xc8;" horiz-adv-x="636" 
d="M531 69l-15 -69h-477l163 710h477l-15 -69h-404l-57 -246h382l-16 -69h-382l-60 -257h404zM344 940h77l59 -170h-66z" />
    <glyph glyph-name="Eacute" unicode="&#xc9;" horiz-adv-x="636" 
d="M531 69l-15 -69h-477l163 710h477l-15 -69h-404l-57 -246h382l-16 -69h-382l-60 -257h404zM503 940h78l-116 -170h-67z" />
    <glyph glyph-name="Ecircumflex" unicode="&#xca;" horiz-adv-x="636" 
d="M531 69l-15 -69h-477l163 710h477l-15 -69h-404l-57 -246h382l-16 -69h-382l-60 -257h404zM320 832l148 68l127 -75l-15 -62l-119 71l-156 -71z" />
    <glyph glyph-name="Edieresis" unicode="&#xcb;" horiz-adv-x="636" 
d="M531 69l-15 -69h-477l163 710h477l-15 -69h-404l-57 -246h382l-16 -69h-382l-60 -257h404zM325 811q0 22 14.5 36.5t37.5 14.5q21 0 33 -12.5t12 -32.5q0 -21 -14.5 -35.5t-36.5 -14.5t-34 12.5t-12 31.5zM473 811q0 22 14.5 36.5t36.5 14.5q21 0 33.5 -12.5t12.5 -32.5
q0 -21 -15 -35.5t-37 -14.5q-21 0 -33 12.5t-12 31.5z" />
    <glyph glyph-name="Igrave" unicode="&#xcc;" horiz-adv-x="276" 
d="M275 710l-163 -710h-73l163 710h73zM141 940h77l59 -170h-66z" />
    <glyph glyph-name="Iacute" unicode="&#xcd;" horiz-adv-x="276" 
d="M275 710l-163 -710h-73l163 710h73zM320 940h78l-116 -170h-67z" />
    <glyph glyph-name="Icircumflex" unicode="&#xce;" horiz-adv-x="276" 
d="M275 710l-163 -710h-73l163 710h73zM130 841l148 68l127 -75l-15 -62l-119 71l-156 -71z" />
    <glyph glyph-name="Idieresis" unicode="&#xcf;" horiz-adv-x="276" 
d="M275 710l-163 -710h-73l163 710h73zM136 811q0 22 14.5 36.5t37.5 14.5q21 0 33 -12.5t12 -32.5q0 -21 -14.5 -35.5t-36.5 -14.5t-34 12.5t-12 31.5zM284 811q0 22 14.5 36.5t36.5 14.5q21 0 33.5 -12.5t12.5 -32.5q0 -21 -15 -35.5t-37 -14.5q-21 0 -33 12.5t-12 31.5z
" />
    <glyph glyph-name="Eth" unicode="&#xd0;" horiz-adv-x="761" 
d="M730 418q0 -194 -119 -306t-340 -112h-232l74 322h-82l15 66h82l74 322h190q166 0 252 -79.5t86 -212.5zM127 69h147q180 0 280 87.5t100 253.5q0 230 -276 230h-118l-59 -252h183l-15 -66h-183z" />
    <glyph glyph-name="Ntilde" unicode="&#xd1;" horiz-adv-x="766" 
d="M249 602l-138 -602h-72l163 710h77l276 -602l138 602h72l-162 -710h-78zM379 769h-58q24 95 110 95q31 0 72 -21t61 -21q38 0 51 39h57q-24 -95 -110 -95q-31 0 -71.5 21t-61.5 21q-38 0 -50 -39z" />
    <glyph glyph-name="Ograve" unicode="&#xd2;" horiz-adv-x="828" 
d="M395 53q143 0 234 101.5t91 251.5q0 117 -68.5 183.5t-182.5 66.5q-143 0 -234 -101.5t-91 -250.5q0 -117 68.5 -184t182.5 -67zM388 -15q-148 0 -234.5 90t-86.5 228q0 177 115.5 299.5t293.5 122.5q148 0 234.5 -90t86.5 -228q0 -177 -115.5 -299.5t-293.5 -122.5z
M392 940h77l59 -170h-66z" />
    <glyph glyph-name="Oacute" unicode="&#xd3;" horiz-adv-x="828" 
d="M395 53q143 0 234 101.5t91 251.5q0 117 -68.5 183.5t-182.5 66.5q-143 0 -234 -101.5t-91 -250.5q0 -117 68.5 -184t182.5 -67zM388 -15q-148 0 -234.5 90t-86.5 228q0 177 115.5 299.5t293.5 122.5q148 0 234.5 -90t86.5 -228q0 -177 -115.5 -299.5t-293.5 -122.5z
M557 940h78l-116 -170h-67z" />
    <glyph glyph-name="Ocircumflex" unicode="&#xd4;" horiz-adv-x="828" 
d="M395 53q143 0 234 101.5t91 251.5q0 117 -68.5 183.5t-182.5 66.5q-143 0 -234 -101.5t-91 -250.5q0 -117 68.5 -184t182.5 -67zM388 -15q-148 0 -234.5 90t-86.5 228q0 177 115.5 299.5t293.5 122.5q148 0 234.5 -90t86.5 -228q0 -177 -115.5 -299.5t-293.5 -122.5z
M375 848l148 68l127 -75l-15 -62l-119 71l-156 -71z" />
    <glyph glyph-name="Otilde" unicode="&#xd5;" horiz-adv-x="828" 
d="M395 53q143 0 234 101.5t91 251.5q0 117 -68.5 183.5t-182.5 66.5q-143 0 -234 -101.5t-91 -250.5q0 -117 68.5 -184t182.5 -67zM388 -15q-148 0 -234.5 90t-86.5 228q0 177 115.5 299.5t293.5 122.5q148 0 234.5 -90t86.5 -228q0 -177 -115.5 -299.5t-293.5 -122.5z
M393 791h-58q24 95 110 95q31 0 72 -21t61 -21q38 0 51 39h57q-24 -95 -110 -95q-31 0 -71.5 21t-61.5 21q-38 0 -50 -39z" />
    <glyph glyph-name="Odieresis" unicode="&#xd6;" horiz-adv-x="828" 
d="M395 53q143 0 234 101.5t91 251.5q0 117 -68.5 183.5t-182.5 66.5q-143 0 -234 -101.5t-91 -250.5q0 -117 68.5 -184t182.5 -67zM388 -15q-148 0 -234.5 90t-86.5 228q0 177 115.5 299.5t293.5 122.5q148 0 234.5 -90t86.5 -228q0 -177 -115.5 -299.5t-293.5 -122.5z
M385 831q0 22 14.5 36.5t37.5 14.5q21 0 33 -12.5t12 -32.5q0 -21 -14.5 -35.5t-36.5 -14.5t-34 12.5t-12 31.5zM533 831q0 22 14.5 36.5t36.5 14.5q21 0 33.5 -12.5t12.5 -32.5q0 -21 -15 -35.5t-37 -14.5q-21 0 -33 12.5t-12 31.5z" />
    <glyph glyph-name="multiply" unicode="&#xd7;" 
d="M159 479l135 -177l221 180q3 -3 18 -23t23 -30l-220 -179l136 -177l-53 -42l-135 176l-222 -180l-42 53l222 179l-136 178z" />
    <glyph glyph-name="Oslash" unicode="&#xd8;" horiz-adv-x="828" 
d="M388 -15q-126 0 -210 68l-87 -91l-37 33l88 92q-75 87 -75 216q0 177 115.5 299.5t293.5 122.5q123 0 208 -67l86 90l37 -35l-86 -90q76 -88 76 -216q0 -177 -115.5 -299.5t-293.5 -122.5zM395 53q143 0 234 101.5t91 251.5q0 97 -50 163l-442 -463q65 -53 167 -53z
M144 304q0 -97 49 -162l441 463q-66 51 -165 51q-143 0 -234 -101.5t-91 -250.5z" />
    <glyph glyph-name="Ugrave" unicode="&#xd9;" horiz-adv-x="734" 
d="M328 -15q-108 0 -174 60t-66 178q0 53 15 119l85 368h73l-88 -383q-12 -53 -12 -101q0 -87 45.5 -130.5t128.5 -43.5q102 0 161.5 61.5t87.5 184.5l95 412h73l-97 -421q-36 -155 -116 -229.5t-211 -74.5zM371 940h77l59 -170h-66z" />
    <glyph glyph-name="Uacute" unicode="&#xda;" horiz-adv-x="734" 
d="M328 -15q-108 0 -174 60t-66 178q0 53 15 119l85 368h73l-88 -383q-12 -53 -12 -101q0 -87 45.5 -130.5t128.5 -43.5q102 0 161.5 61.5t87.5 184.5l95 412h73l-97 -421q-36 -155 -116 -229.5t-211 -74.5zM536 941h78l-116 -170h-67z" />
    <glyph glyph-name="Ucircumflex" unicode="&#xdb;" horiz-adv-x="734" 
d="M328 -15q-108 0 -174 60t-66 178q0 53 15 119l85 368h73l-88 -383q-12 -53 -12 -101q0 -87 45.5 -130.5t128.5 -43.5q102 0 161.5 61.5t87.5 184.5l95 412h73l-97 -421q-36 -155 -116 -229.5t-211 -74.5zM347 841l148 68l127 -75l-15 -62l-119 71l-156 -71z" />
    <glyph glyph-name="Udieresis" unicode="&#xdc;" horiz-adv-x="734" 
d="M328 -15q-108 0 -174 60t-66 178q0 53 15 119l85 368h73l-88 -383q-12 -53 -12 -101q0 -87 45.5 -130.5t128.5 -43.5q102 0 161.5 61.5t87.5 184.5l95 412h73l-97 -421q-36 -155 -116 -229.5t-211 -74.5zM357 811q0 22 14.5 36.5t37.5 14.5q21 0 33 -12.5t12 -32.5
q0 -21 -14.5 -35.5t-36.5 -14.5t-34 12.5t-12 31.5zM505 811q0 22 14.5 36.5t36.5 14.5q21 0 33.5 -12.5t12.5 -32.5q0 -21 -15 -35.5t-37 -14.5q-21 0 -33 12.5t-12 31.5z" />
    <glyph glyph-name="Yacute" unicode="&#xdd;" horiz-adv-x="615" 
d="M624 710h90l-378 -463l-56 -247h-73l58 255l-166 455h78l138 -383h2zM474 940h78l-116 -170h-67z" />
    <glyph glyph-name="Thorn" unicode="&#xde;" horiz-adv-x="665" 
d="M275 710l-24 -105h170q100 0 158.5 -49t58.5 -132q0 -108 -76 -168.5t-192 -60.5h-213l-45 -195h-73l163 710h73zM418 536h-183l-62 -272h205q86 0 134.5 40.5t48.5 116.5q0 55 -38 85t-105 30z" />
    <glyph glyph-name="germandbls" unicode="&#xdf;" horiz-adv-x="600" 
d="M533 159q0 -76 -55 -123t-142 -47q-77 0 -116.5 37.5t-39.5 89.5q0 17 2 27h68v-3q0 -3 -0.5 -7t-0.5 -8q0 -32 23 -54t66 -22q57 0 91.5 29.5t34.5 82.5q0 31 -22 61.5t-44.5 61t-22.5 62.5q0 31 16.5 60.5t36.5 49.5t36.5 49t16.5 59q0 41 -28 68t-76 27
q-64 0 -104.5 -44.5t-58.5 -119.5l-116 -495h-71l122 519q24 101 84.5 150.5t148.5 49.5q78 0 123 -43t45 -108q0 -39 -16.5 -73.5t-36 -54.5t-36 -44t-16.5 -45q0 -18 13.5 -39t30.5 -38.5t30.5 -48.5t13.5 -66z" />
    <glyph glyph-name="agrave" unicode="&#xe0;" horiz-adv-x="579" 
d="M27 121q0 83 58.5 123.5t164.5 52.5l186 21q7 28 7 49q0 93 -125 93q-130 0 -159 -102h-73q43 163 239 163q92 0 139.5 -39.5t47.5 -110.5q0 -28 -7 -59l-46 -197q-14 -59 -14 -96q0 -9 2 -19h-67q-1 5 -1 16q0 30 6 59q-67 -87 -199 -87q-75 0 -117 37.5t-42 95.5z
M206 46q84 0 137 46.5t67 111.5l13 56l-172 -21q-74 -9 -114 -34.5t-40 -79.5q0 -39 29 -59t80 -20zM235 759h77l59 -170h-66z" />
    <glyph glyph-name="aacute" unicode="&#xe1;" horiz-adv-x="579" 
d="M27 121q0 83 58.5 123.5t164.5 52.5l186 21q7 28 7 49q0 93 -125 93q-130 0 -159 -102h-73q43 163 239 163q92 0 139.5 -39.5t47.5 -110.5q0 -28 -7 -59l-46 -197q-14 -59 -14 -96q0 -9 2 -19h-67q-1 5 -1 16q0 30 6 59q-67 -87 -199 -87q-75 0 -117 37.5t-42 95.5z
M206 46q84 0 137 46.5t67 111.5l13 56l-172 -21q-74 -9 -114 -34.5t-40 -79.5q0 -39 29 -59t80 -20zM403 759h78l-116 -170h-67z" />
    <glyph glyph-name="acircumflex" unicode="&#xe2;" horiz-adv-x="579" 
d="M27 121q0 83 58.5 123.5t164.5 52.5l186 21q7 28 7 49q0 93 -125 93q-130 0 -159 -102h-73q43 163 239 163q92 0 139.5 -39.5t47.5 -110.5q0 -28 -7 -59l-46 -197q-14 -59 -14 -96q0 -9 2 -19h-67q-1 5 -1 16q0 30 6 59q-67 -87 -199 -87q-75 0 -117 37.5t-42 95.5z
M206 46q84 0 137 46.5t67 111.5l13 56l-172 -21q-74 -9 -114 -34.5t-40 -79.5q0 -39 29 -59t80 -20zM210 666l148 68l127 -75l-15 -62l-119 71l-156 -71z" />
    <glyph glyph-name="atilde" unicode="&#xe3;" horiz-adv-x="579" 
d="M27 121q0 83 58.5 123.5t164.5 52.5l186 21q7 28 7 49q0 93 -125 93q-130 0 -159 -102h-73q43 163 239 163q92 0 139.5 -39.5t47.5 -110.5q0 -28 -7 -59l-46 -197q-14 -59 -14 -96q0 -9 2 -19h-67q-1 5 -1 16q0 30 6 59q-67 -87 -199 -87q-75 0 -117 37.5t-42 95.5z
M206 46q84 0 137 46.5t67 111.5l13 56l-172 -21q-74 -9 -114 -34.5t-40 -79.5q0 -39 29 -59t80 -20zM231 625h-58q24 95 110 95q31 0 72 -21t61 -21q38 0 51 39h57q-24 -95 -110 -95q-31 0 -71.5 21t-61.5 21q-38 0 -50 -39z" />
    <glyph glyph-name="adieresis" unicode="&#xe4;" horiz-adv-x="579" 
d="M27 121q0 83 58.5 123.5t164.5 52.5l186 21q7 28 7 49q0 93 -125 93q-130 0 -159 -102h-73q43 163 239 163q92 0 139.5 -39.5t47.5 -110.5q0 -28 -7 -59l-46 -197q-14 -59 -14 -96q0 -9 2 -19h-67q-1 5 -1 16q0 30 6 59q-67 -87 -199 -87q-75 0 -117 37.5t-42 95.5z
M206 46q84 0 137 46.5t67 111.5l13 56l-172 -21q-74 -9 -114 -34.5t-40 -79.5q0 -39 29 -59t80 -20zM231 674q0 22 14.5 36.5t37.5 14.5q21 0 33 -12.5t12 -32.5q0 -21 -14.5 -35.5t-36.5 -14.5t-34 12.5t-12 31.5zM379 674q0 22 14.5 36.5t36.5 14.5q21 0 33.5 -12.5
t12.5 -32.5q0 -21 -15 -35.5t-37 -14.5q-21 0 -33 12.5t-12 31.5z" />
    <glyph glyph-name="aring" unicode="&#xe5;" horiz-adv-x="579" 
d="M27 121q0 83 58.5 123.5t164.5 52.5l186 21q7 28 7 49q0 93 -125 93q-130 0 -159 -102h-73q43 163 239 163q92 0 139.5 -39.5t47.5 -110.5q0 -28 -7 -59l-46 -197q-14 -59 -14 -96q0 -9 2 -19h-67q-1 5 -1 16q0 30 6 59q-67 -87 -199 -87q-75 0 -117 37.5t-42 95.5z
M206 46q84 0 137 46.5t67 111.5l13 56l-172 -21q-74 -9 -114 -34.5t-40 -79.5q0 -39 29 -59t80 -20zM295 685q0 -24 13.5 -38.5t38.5 -14.5q30 0 50 21t20 52q0 24 -13 38.5t-38 14.5q-31 0 -51 -21t-20 -52zM244 680q0 51 35 88t90 37q45 0 72 -27t27 -68q0 -51 -35 -88.5
t-90 -37.5q-45 0 -72 27.5t-27 68.5z" />
    <glyph glyph-name="ae" unicode="&#xe6;" horiz-adv-x="968" 
d="M444 125q-38 -65 -95.5 -101t-151.5 -36q-80 0 -125 37.5t-45 95.5q0 82 59 123t164 53l186 21q7 32 7 49q0 93 -125 93q-126 0 -159 -102h-73q48 163 239 163q143 0 173 -96q78 96 206 96q101 0 160.5 -62.5t59.5 -158.5q0 -33 -6 -66h-423v-7q0 -81 41 -129t115 -48
q58 0 104.5 30t69.5 79h75q-32 -76 -99 -123.5t-156 -47.5q-77 0 -128 36.5t-73 100.5zM206 46q183 0 217 214l-175 -21q-74 -9 -112.5 -35.5t-38.5 -79.5q0 -40 33 -59t76 -19zM700 460q-75 0 -128 -46.5t-70 -121.5h351q1 11 1 19q0 67 -41.5 108t-112.5 41z" />
    <glyph glyph-name="ccedilla" unicode="&#xe7;" horiz-adv-x="577" 
d="M164 -212l32 40q19 -20 51 -20q27 0 44.5 14.5t17.5 40.5q0 18 -11 29.5t-34 11.5q-13 0 -25 -5t-17 -9l-5 -5l-32 17l47 89q-88 11 -136.5 76t-48.5 155q0 123 78 211t206 88q97 0 153.5 -56t63.5 -137h-72q-8 60 -47 94.5t-104 34.5q-85 0 -145.5 -65t-60.5 -171
q0 -76 41 -122.5t114 -46.5q64 0 113 35.5t70 93.5h74q-26 -80 -90.5 -134.5t-160.5 -58.5l-25 -46q10 5 27 5q37 0 57.5 -23t20.5 -57q0 -47 -32.5 -76.5t-84.5 -29.5q-24 0 -43.5 6.5t-27.5 13.5z" />
    <glyph glyph-name="egrave" unicode="&#xe8;" horiz-adv-x="592" 
d="M542 234h-423v-7q0 -81 41 -129t115 -48q58 0 104.5 30t69.5 79h75q-32 -76 -99 -123.5t-156 -47.5q-104 0 -162.5 67t-58.5 167q0 122 77.5 210.5t202.5 88.5q101 0 160.5 -62.5t59.5 -158.5q0 -33 -6 -66zM324 460q-75 0 -128 -46.5t-70 -121.5h351q1 11 1 19
q0 67 -41.5 108t-112.5 41zM242 759h77l59 -170h-66z" />
    <glyph glyph-name="eacute" unicode="&#xe9;" horiz-adv-x="592" 
d="M542 234h-423v-7q0 -81 41 -129t115 -48q58 0 104.5 30t69.5 79h75q-32 -76 -99 -123.5t-156 -47.5q-104 0 -162.5 67t-58.5 167q0 122 77.5 210.5t202.5 88.5q101 0 160.5 -62.5t59.5 -158.5q0 -33 -6 -66zM324 460q-75 0 -128 -46.5t-70 -121.5h351q1 11 1 19
q0 67 -41.5 108t-112.5 41zM408 759h78l-116 -170h-67z" />
    <glyph glyph-name="ecircumflex" unicode="&#xea;" horiz-adv-x="592" 
d="M542 234h-423v-7q0 -81 41 -129t115 -48q58 0 104.5 30t69.5 79h75q-32 -76 -99 -123.5t-156 -47.5q-104 0 -162.5 67t-58.5 167q0 122 77.5 210.5t202.5 88.5q101 0 160.5 -62.5t59.5 -158.5q0 -33 -6 -66zM324 460q-75 0 -128 -46.5t-70 -121.5h351q1 11 1 19
q0 67 -41.5 108t-112.5 41zM221 666l148 68l127 -75l-15 -62l-119 71l-156 -71z" />
    <glyph glyph-name="edieresis" unicode="&#xeb;" horiz-adv-x="592" 
d="M542 234h-423v-7q0 -81 41 -129t115 -48q58 0 104.5 30t69.5 79h75q-32 -76 -99 -123.5t-156 -47.5q-104 0 -162.5 67t-58.5 167q0 122 77.5 210.5t202.5 88.5q101 0 160.5 -62.5t59.5 -158.5q0 -33 -6 -66zM324 460q-75 0 -128 -46.5t-70 -121.5h351q1 11 1 19
q0 67 -41.5 108t-112.5 41zM236 674q0 22 14.5 36.5t37.5 14.5q21 0 33 -12.5t12 -32.5q0 -21 -14.5 -35.5t-36.5 -14.5t-34 12.5t-12 31.5zM384 674q0 22 14.5 36.5t36.5 14.5q21 0 33.5 -12.5t12.5 -32.5q0 -21 -15 -35.5t-37 -14.5q-21 0 -33 12.5t-12 31.5z" />
    <glyph glyph-name="igrave" unicode="&#xec;" horiz-adv-x="246" 
d="M88 759h77l59 -170h-66zM27 0l117 509h70l-117 -509h-70z" />
    <glyph glyph-name="iacute" unicode="&#xed;" horiz-adv-x="246" 
d="M267 759h78l-116 -170h-67zM27 0l117 509h70l-117 -509h-70z" />
    <glyph glyph-name="icircumflex" unicode="&#xee;" horiz-adv-x="246" 
d="M27 0l117 509h70l-117 -509h-70zM74 666l148 68l127 -75l-15 -62l-119 71l-156 -71z" />
    <glyph glyph-name="idieresis" unicode="&#xef;" horiz-adv-x="246" 
d="M89 674q0 22 14.5 36.5t37.5 14.5q21 0 33 -12.5t12 -32.5q0 -21 -14.5 -35.5t-36.5 -14.5t-34 12.5t-12 31.5zM237 674q0 22 14.5 36.5t36.5 14.5q21 0 33.5 -12.5t12.5 -32.5q0 -21 -15 -35.5t-37 -14.5q-21 0 -33 12.5t-12 31.5zM27 0l117 509h70l-117 -509h-70z" />
    <glyph glyph-name="eth" unicode="&#xf0;" horiz-adv-x="620" 
d="M336 521q105 0 159 -71q-30 114 -113 195l-136 -64l-19 41l119 56q-36 28 -88 56l45 43q64 -37 103 -70l117 55l20 -42l-101 -47q131 -137 131 -353q0 -143 -79.5 -237.5t-215.5 -94.5q-105 0 -167.5 65.5t-62.5 164.5q0 124 80.5 213.5t207.5 89.5zM284 51q94 0 154 69
t60 166q0 76 -43 123.5t-122 47.5q-93 0 -153.5 -68.5t-60.5 -165.5q0 -76 43 -124t122 -48z" />
    <glyph glyph-name="ntilde" unicode="&#xf1;" horiz-adv-x="598" 
d="M211 509l-18 -78q61 90 178 90q73 0 116.5 -40.5t43.5 -114.5q0 -32 -11 -82l-66 -284h-71l71 305q7 28 7 55q0 99 -110 99q-69 0 -118 -42t-69 -127l-68 -290h-70l117 509h68zM261 625h-58q24 95 110 95q31 0 72 -21t61 -21q38 0 51 39h57q-24 -95 -110 -95
q-31 0 -71.5 21t-61.5 21q-38 0 -50 -39z" />
    <glyph glyph-name="ograve" unicode="&#xf2;" horiz-adv-x="617" 
d="M119 223q0 -76 43 -123.5t122 -47.5q94 0 154 68t60 166q0 76 -43 123.5t-122 47.5q-94 0 -154 -68t-60 -166zM48 218q0 127 81 215t210 88q105 0 167.5 -65.5t62.5 -164.5q0 -127 -81 -215t-210 -88q-105 0 -167.5 65.5t-62.5 164.5zM258 759h77l59 -170h-66z" />
    <glyph glyph-name="oacute" unicode="&#xf3;" horiz-adv-x="617" 
d="M119 223q0 -76 43 -123.5t122 -47.5q94 0 154 68t60 166q0 76 -43 123.5t-122 47.5q-94 0 -154 -68t-60 -166zM48 218q0 127 81 215t210 88q105 0 167.5 -65.5t62.5 -164.5q0 -127 -81 -215t-210 -88q-105 0 -167.5 65.5t-62.5 164.5zM428 759h78l-116 -170h-67z" />
    <glyph glyph-name="ocircumflex" unicode="&#xf4;" horiz-adv-x="617" 
d="M119 223q0 -76 43 -123.5t122 -47.5q94 0 154 68t60 166q0 76 -43 123.5t-122 47.5q-94 0 -154 -68t-60 -166zM48 218q0 127 81 215t210 88q105 0 167.5 -65.5t62.5 -164.5q0 -127 -81 -215t-210 -88q-105 0 -167.5 65.5t-62.5 164.5zM235 666l148 68l127 -75l-15 -62
l-119 71l-156 -71z" />
    <glyph glyph-name="otilde" unicode="&#xf5;" horiz-adv-x="617" 
d="M119 223q0 -76 43 -123.5t122 -47.5q94 0 154 68t60 166q0 76 -43 123.5t-122 47.5q-94 0 -154 -68t-60 -166zM48 218q0 127 81 215t210 88q105 0 167.5 -65.5t62.5 -164.5q0 -127 -81 -215t-210 -88q-105 0 -167.5 65.5t-62.5 164.5zM247 625h-58q24 95 110 95
q31 0 72 -21t61 -21q38 0 51 39h57q-24 -95 -110 -95q-31 0 -71.5 21t-61.5 21q-38 0 -50 -39z" />
    <glyph glyph-name="odieresis" unicode="&#xf6;" horiz-adv-x="617" 
d="M119 223q0 -76 43 -123.5t122 -47.5q94 0 154 68t60 166q0 76 -43 123.5t-122 47.5q-94 0 -154 -68t-60 -166zM48 218q0 127 81 215t210 88q105 0 167.5 -65.5t62.5 -164.5q0 -127 -81 -215t-210 -88q-105 0 -167.5 65.5t-62.5 164.5zM246 674q0 22 14.5 36.5t37.5 14.5
q21 0 33 -12.5t12 -32.5q0 -21 -14.5 -35.5t-36.5 -14.5t-34 12.5t-12 31.5zM394 674q0 22 14.5 36.5t36.5 14.5q21 0 33.5 -12.5t12.5 -32.5q0 -21 -15 -35.5t-37 -14.5q-21 0 -33 12.5t-12 31.5z" />
    <glyph glyph-name="divide" unicode="&#xf7;" 
d="M558 288l-16 -68h-517l16 68h517zM277 417q0 22 16 38.5t40 16.5q23 0 36 -14t13 -35q0 -22 -16 -38.5t-40 -16.5q-23 0 -36 14t-13 35zM200 86q0 22 16 38t40 16q23 0 36.5 -13.5t13.5 -34.5q0 -23 -16.5 -39t-39.5 -16t-36.5 14t-13.5 35z" />
    <glyph glyph-name="oslash" unicode="&#xf8;" horiz-adv-x="617" 
d="M48 218q0 127 81 215t210 88q87 0 148 -48l70 73l35 -30l-73 -76q50 -62 50 -149q0 -127 -81 -215t-210 -88q-86 0 -146 46l-60 -63q-4 3 -11.5 9.5t-13.5 11.5t-11 9l62 65q-50 61 -50 152zM119 223q0 -64 28 -105l292 305q-42 34 -106 34q-94 0 -154 -68t-60 -166z
M498 286q0 59 -28 103l-291 -305q41 -32 105 -32q94 0 154 68t60 166z" />
    <glyph glyph-name="ugrave" unicode="&#xf9;" horiz-adv-x="590" 
d="M373 0l18 77q-69 -89 -176 -89q-72 0 -114.5 40.5t-42.5 113.5q0 27 12 83l65 284h71l-70 -305q-8 -32 -8 -55q0 -99 108 -99q68 0 116.5 42t67.5 126l67 291h71l-117 -509h-68zM255 759h77l59 -170h-66z" />
    <glyph glyph-name="uacute" unicode="&#xfa;" horiz-adv-x="590" 
d="M373 0l18 77q-69 -89 -176 -89q-72 0 -114.5 40.5t-42.5 113.5q0 27 12 83l65 284h71l-70 -305q-8 -32 -8 -55q0 -99 108 -99q68 0 116.5 42t67.5 126l67 291h71l-117 -509h-68zM420 759h78l-116 -170h-67z" />
    <glyph glyph-name="ucircumflex" unicode="&#xfb;" horiz-adv-x="590" 
d="M373 0l18 77q-69 -89 -176 -89q-72 0 -114.5 40.5t-42.5 113.5q0 27 12 83l65 284h71l-70 -305q-8 -32 -8 -55q0 -99 108 -99q68 0 116.5 42t67.5 126l67 291h71l-117 -509h-68zM238 666l148 68l127 -75l-15 -62l-119 71l-156 -71z" />
    <glyph glyph-name="udieresis" unicode="&#xfc;" horiz-adv-x="590" 
d="M373 0l18 77q-69 -89 -176 -89q-72 0 -114.5 40.5t-42.5 113.5q0 27 12 83l65 284h71l-70 -305q-8 -32 -8 -55q0 -99 108 -99q68 0 116.5 42t67.5 126l67 291h71l-117 -509h-68zM250 674q0 22 14.5 36.5t37.5 14.5q21 0 33 -12.5t12 -32.5q0 -21 -14.5 -35.5t-36.5 -14.5
t-34 12.5t-12 31.5zM398 674q0 22 14.5 36.5t36.5 14.5q21 0 33.5 -12.5t12.5 -32.5q0 -21 -15 -35.5t-37 -14.5q-21 0 -33 12.5t-12 31.5z" />
    <glyph glyph-name="yacute" unicode="&#xfd;" horiz-adv-x="532" 
d="M24 -208l140 216l-93 501h73l74 -426l273 426h79l-468 -717h-78zM410 759h78l-116 -170h-67z" />
    <glyph glyph-name="thorn" unicode="&#xfe;" horiz-adv-x="638" 
d="M309 51q92 0 150.5 72t58.5 172q0 73 -40 117.5t-114 44.5q-94 0 -153 -73t-59 -176q0 -73 41 -115t116 -42zM267 749l-71 -311q66 83 184 83q97 0 153.5 -62.5t56.5 -162.5q0 -126 -78.5 -217t-203.5 -91q-69 0 -117 31t-71 83l-71 -310h-70l218 957h70z" />
    <glyph glyph-name="ydieresis" unicode="&#xff;" horiz-adv-x="532" 
d="M24 -208l140 216l-93 501h73l74 -426l273 426h79l-468 -717h-78zM219 674q0 22 14.5 36.5t37.5 14.5q21 0 33 -12.5t12 -32.5q0 -21 -14.5 -35.5t-36.5 -14.5t-34 12.5t-12 31.5zM367 674q0 22 14.5 36.5t36.5 14.5q21 0 33.5 -12.5t12.5 -32.5q0 -21 -15 -35.5
t-37 -14.5q-21 0 -33 12.5t-12 31.5z" />
    <glyph glyph-name="Amacron" unicode="&#x100;" horiz-adv-x="667" 
d="M23 0h-83l455 710h79l129 -710h-75l-30 166h-370zM419 621h-2l-247 -387h317zM609 830l-15 -60h-320l14 60h321z" />
    <glyph glyph-name="amacron" unicode="&#x101;" horiz-adv-x="579" 
d="M27 121q0 83 58.5 123.5t164.5 52.5l186 21q7 28 7 49q0 93 -125 93q-130 0 -159 -102h-73q43 163 239 163q92 0 139.5 -39.5t47.5 -110.5q0 -28 -7 -59l-46 -197q-14 -59 -14 -96q0 -9 2 -19h-67q-1 5 -1 16q0 30 6 59q-67 -87 -199 -87q-75 0 -117 37.5t-42 95.5z
M206 46q84 0 137 46.5t67 111.5l13 56l-172 -21q-74 -9 -114 -34.5t-40 -79.5q0 -39 29 -59t80 -20zM528 697l-15 -60h-320l14 60h321z" />
    <glyph glyph-name="Abreve" unicode="&#x102;" horiz-adv-x="667" 
d="M23 0h-83l455 710h79l129 -710h-75l-30 166h-370zM419 621h-2l-247 -387h317zM447 817q39 0 65 20t34 57h59q-14 -63 -56.5 -96.5t-106.5 -33.5q-52 0 -84 26.5t-32 72.5q0 15 4 31h54l-1 -8q-1 -9 -1 -14q0 -55 65 -55z" />
    <glyph glyph-name="abreve" unicode="&#x103;" horiz-adv-x="579" 
d="M27 121q0 83 58.5 123.5t164.5 52.5l186 21q7 28 7 49q0 93 -125 93q-130 0 -159 -102h-73q43 163 239 163q92 0 139.5 -39.5t47.5 -110.5q0 -28 -7 -59l-46 -197q-14 -59 -14 -96q0 -9 2 -19h-67q-1 5 -1 16q0 30 6 59q-67 -87 -199 -87q-75 0 -117 37.5t-42 95.5z
M206 46q84 0 137 46.5t67 111.5l13 56l-172 -21q-74 -9 -114 -34.5t-40 -79.5q0 -39 29 -59t80 -20zM349 648q39 0 65 20t34 57h59q-14 -63 -56.5 -96.5t-106.5 -33.5q-52 0 -84 26.5t-32 72.5q0 15 4 31h54l-1 -9q-1 -8 -1 -13q0 -55 65 -55z" />
    <glyph glyph-name="Aogonek" unicode="&#x104;" horiz-adv-x="667" 
d="M570 -127l21 -39q-33 -36 -86 -36q-38 0 -60.5 23.5t-22.5 58.5q0 93 101 148l-25 138h-370l-105 -166h-83l455 710h79l129 -710h-26q-37 -14 -67.5 -44.5t-30.5 -67.5q0 -39 38 -39q8 0 15.5 2t14 6t11 7t8.5 6zM419 621h-2l-247 -387h317z" />
    <glyph glyph-name="aogonek" unicode="&#x105;" horiz-adv-x="579" 
d="M430 -127l21 -39q-33 -36 -86 -36q-38 0 -60.5 23.5t-22.5 58.5q0 92 97 146q0 23 6 49q-67 -87 -199 -87q-75 0 -117 37.5t-42 95.5q0 83 58.5 123.5t164.5 52.5l186 21q7 28 7 49q0 93 -125 93q-130 0 -159 -102h-73q43 163 239 163q92 0 139.5 -39.5t47.5 -110.5
q0 -28 -7 -59l-46 -197q-14 -59 -14 -96q0 -9 2 -19h-10q-37 -14 -67.5 -44.5t-30.5 -67.5q0 -39 38 -39q8 0 15.5 2t14 6t11 7t8.5 6zM206 46q84 0 137 46.5t67 111.5l13 56l-172 -21q-74 -9 -114 -34.5t-40 -79.5q0 -39 29 -59t80 -20z" />
    <glyph glyph-name="Cacute" unicode="&#x106;" horiz-adv-x="781" 
d="M381 -15q-145 0 -230 90.5t-85 227.5q0 178 112.5 300t291.5 122q126 0 206 -72.5t91 -192.5h-72q-10 90 -73 143t-158 53q-143 0 -232 -101t-89 -251q0 -116 67.5 -183.5t179.5 -67.5q94 0 169.5 53.5t107.5 143.5h77q-39 -121 -137.5 -193t-225.5 -72zM541 940h78
l-116 -170h-67z" />
    <glyph glyph-name="cacute" unicode="&#x107;" horiz-adv-x="577" 
d="M47 222q0 123 78 211t206 88q97 0 153.5 -56t63.5 -137h-72q-8 60 -47 94.5t-104 34.5q-85 0 -145.5 -65t-60.5 -171q0 -76 41 -122.5t114 -46.5q64 0 113 35.5t70 93.5h74q-27 -83 -95 -138t-169 -55q-103 0 -161.5 67.5t-58.5 166.5zM411 759h78l-116 -170h-67z" />
    <glyph glyph-name="Ccircumflex" unicode="&#x108;" horiz-adv-x="781" 
d="M381 -15q-145 0 -230 90.5t-85 227.5q0 178 112.5 300t291.5 122q126 0 206 -72.5t91 -192.5h-72q-10 90 -73 143t-158 53q-143 0 -232 -101t-89 -251q0 -116 67.5 -183.5t179.5 -67.5q94 0 169.5 53.5t107.5 143.5h77q-39 -121 -137.5 -193t-225.5 -72zM368 840l148 68
l127 -75l-15 -62l-119 71l-156 -71z" />
    <glyph glyph-name="ccircumflex" unicode="&#x109;" horiz-adv-x="577" 
d="M47 222q0 123 78 211t206 88q97 0 153.5 -56t63.5 -137h-72q-8 60 -47 94.5t-104 34.5q-85 0 -145.5 -65t-60.5 -171q0 -76 41 -122.5t114 -46.5q64 0 113 35.5t70 93.5h74q-27 -83 -95 -138t-169 -55q-103 0 -161.5 67.5t-58.5 166.5zM229 666l148 68l127 -75l-15 -62
l-119 71l-156 -71z" />
    <glyph glyph-name="Cdotaccent" unicode="&#x10a;" horiz-adv-x="781" 
d="M381 -15q-145 0 -230 90.5t-85 227.5q0 178 112.5 300t291.5 122q126 0 206 -72.5t91 -192.5h-72q-10 90 -73 143t-158 53q-143 0 -232 -101t-89 -251q0 -116 67.5 -183.5t179.5 -67.5q94 0 169.5 53.5t107.5 143.5h77q-39 -121 -137.5 -193t-225.5 -72zM451 821
q0 23 15.5 38.5t39.5 15.5q22 0 35 -13.5t13 -34.5q0 -22 -15.5 -37.5t-39.5 -15.5q-22 0 -35 13t-13 34z" />
    <glyph glyph-name="cdotaccent" unicode="&#x10b;" horiz-adv-x="577" 
d="M47 222q0 123 78 211t206 88q97 0 153.5 -56t63.5 -137h-72q-8 60 -47 94.5t-104 34.5q-85 0 -145.5 -65t-60.5 -171q0 -76 41 -122.5t114 -46.5q64 0 113 35.5t70 93.5h74q-27 -83 -95 -138t-169 -55q-103 0 -161.5 67.5t-58.5 166.5zM327 674q0 23 15.5 38.5t39.5 15.5
q22 0 35 -13.5t13 -34.5q0 -22 -15.5 -37.5t-39.5 -15.5q-22 0 -35 13t-13 34z" />
    <glyph glyph-name="Ccaron" unicode="&#x10c;" horiz-adv-x="781" 
d="M381 -15q-145 0 -230 90.5t-85 227.5q0 178 112.5 300t291.5 122q126 0 206 -72.5t91 -192.5h-72q-10 90 -73 143t-158 53q-143 0 -232 -101t-89 -251q0 -116 67.5 -183.5t179.5 -67.5q94 0 169.5 53.5t107.5 143.5h77q-39 -121 -137.5 -193t-225.5 -72zM640 834
l-148 -68l-126 76l14 61l119 -71l157 71z" />
    <glyph glyph-name="ccaron" unicode="&#x10d;" horiz-adv-x="577" 
d="M47 222q0 123 78 211t206 88q97 0 153.5 -56t63.5 -137h-72q-8 60 -47 94.5t-104 34.5q-85 0 -145.5 -65t-60.5 -171q0 -76 41 -122.5t114 -46.5q64 0 113 35.5t70 93.5h74q-27 -83 -95 -138t-169 -55q-103 0 -161.5 67.5t-58.5 166.5zM504 659l-148 -68l-126 76l14 61
l119 -71l157 71z" />
    <glyph glyph-name="Dcaron" unicode="&#x10e;" horiz-adv-x="761" 
d="M730 418q0 -194 -119 -306t-340 -112h-232l163 710h190q166 0 252 -79.5t86 -212.5zM127 69h147q180 0 280 87.5t100 253.5q0 230 -276 230h-118zM578 834l-148 -68l-126 76l14 61l119 -71l157 71z" />
    <glyph glyph-name="dcaron" unicode="&#x10f;" horiz-adv-x="638" 
d="M330 521q69 0 119 -32.5t68 -82.5l79 344h71l-173 -750h-67l17 73q-70 -85 -187 -85q-96 0 -152.5 62.5t-56.5 162.5q0 126 78.5 217t203.5 91zM329 457q-93 0 -151.5 -71.5t-58.5 -172.5q0 -73 40 -117.5t114 -44.5q95 0 154 73t59 176q0 72 -41 114.5t-116 42.5z
M747 740l60 17q9 -21 9 -58q0 -46 -28 -89t-74 -66l-28 48q68 38 68 105q0 14 -4 29z" />
    <glyph glyph-name="Dcroat" unicode="&#x110;" horiz-adv-x="761" 
d="M730 418q0 -194 -119 -306t-340 -112h-232l74 322h-82l15 66h82l74 322h190q166 0 252 -79.5t86 -212.5zM127 69h147q180 0 280 87.5t100 253.5q0 230 -276 230h-118l-59 -252h183l-15 -66h-183z" />
    <glyph glyph-name="dcroat" unicode="&#x111;" horiz-adv-x="638" 
d="M330 521q69 0 119 -32.5t68 -82.5l42 182h-166q2 10 7 30t7 30h166q7 34 23 102h71l-24 -102h77l-13 -60h-78l-135 -588h-67l17 73q-70 -85 -187 -85q-96 0 -152.5 62.5t-56.5 162.5q0 126 78.5 217t203.5 91zM329 457q-93 0 -151.5 -71.5t-58.5 -172.5q0 -73 40 -117.5
t114 -44.5q95 0 154 73t59 176q0 72 -41 114.5t-116 42.5z" />
    <glyph glyph-name="Emacron" unicode="&#x112;" horiz-adv-x="636" 
d="M531 69l-15 -69h-477l163 710h477l-15 -69h-404l-57 -246h382l-16 -69h-382l-60 -257h404zM618 830l-15 -60h-320l14 60h321z" />
    <glyph glyph-name="emacron" unicode="&#x113;" horiz-adv-x="592" 
d="M542 234h-423v-7q0 -81 41 -129t115 -48q58 0 104.5 30t69.5 79h75q-32 -76 -99 -123.5t-156 -47.5q-104 0 -162.5 67t-58.5 167q0 122 77.5 210.5t202.5 88.5q101 0 160.5 -62.5t59.5 -158.5q0 -33 -6 -66zM324 460q-75 0 -128 -46.5t-70 -121.5h351q1 11 1 19
q0 67 -41.5 108t-112.5 41zM529 697l-15 -60h-320l14 60h321z" />
    <glyph glyph-name="Ebreve" unicode="&#x114;" horiz-adv-x="636" 
d="M531 69l-15 -69h-477l163 710h477l-15 -69h-404l-57 -246h382l-16 -69h-382l-60 -257h404zM444 817q39 0 65 20t34 57h59q-14 -63 -56.5 -96.5t-106.5 -33.5q-52 0 -84 26.5t-32 72.5q0 15 4 31h54l-1 -8q-1 -9 -1 -14q0 -55 65 -55z" />
    <glyph glyph-name="ebreve" unicode="&#x115;" horiz-adv-x="592" 
d="M542 234h-423v-7q0 -81 41 -129t115 -48q58 0 104.5 30t69.5 79h75q-32 -76 -99 -123.5t-156 -47.5q-104 0 -162.5 67t-58.5 167q0 122 77.5 210.5t202.5 88.5q101 0 160.5 -62.5t59.5 -158.5q0 -33 -6 -66zM324 460q-75 0 -128 -46.5t-70 -121.5h351q1 11 1 19
q0 67 -41.5 108t-112.5 41zM349 648q39 0 65 20t34 57h59q-14 -63 -56.5 -96.5t-106.5 -33.5q-52 0 -84 26.5t-32 72.5q0 15 4 31h54l-1 -9q-1 -8 -1 -13q0 -55 65 -55z" />
    <glyph glyph-name="Edotaccent" unicode="&#x116;" horiz-adv-x="636" 
d="M531 69l-15 -69h-477l163 710h477l-15 -69h-404l-57 -246h382l-16 -69h-382l-60 -257h404zM403 822q0 23 15.5 38.5t39.5 15.5q22 0 35 -13.5t13 -34.5q0 -22 -15.5 -37.5t-39.5 -15.5q-22 0 -35 13t-13 34z" />
    <glyph glyph-name="edotaccent" unicode="&#x117;" horiz-adv-x="592" 
d="M542 234h-423v-7q0 -81 41 -129t115 -48q58 0 104.5 30t69.5 79h75q-32 -76 -99 -123.5t-156 -47.5q-104 0 -162.5 67t-58.5 167q0 122 77.5 210.5t202.5 88.5q101 0 160.5 -62.5t59.5 -158.5q0 -33 -6 -66zM324 460q-75 0 -128 -46.5t-70 -121.5h351q1 11 1 19
q0 67 -41.5 108t-112.5 41zM318 674q0 23 15.5 38.5t39.5 15.5q22 0 35 -13.5t13 -34.5q0 -22 -15.5 -37.5t-39.5 -15.5q-22 0 -35 13t-13 34z" />
    <glyph glyph-name="Eogonek" unicode="&#x118;" horiz-adv-x="636" 
d="M495 -127l21 -39q-33 -36 -86 -36q-38 0 -60.5 23.5t-22.5 58.5q0 69 59 120h-367l163 710h477l-15 -69h-404l-57 -246h382l-16 -69h-382l-60 -257h404l-15 -69h-14q-37 -14 -67.5 -44.5t-30.5 -67.5q0 -39 38 -39q8 0 15.5 2t14 6t11 7t8.5 6z" />
    <glyph glyph-name="eogonek" unicode="&#x119;" horiz-adv-x="592" 
d="M298 -130l21 -39q-33 -36 -86 -36q-38 0 -60.5 23.5t-22.5 58.5q0 69 57 119q-76 18 -117.5 80t-41.5 146q0 122 77.5 210.5t202.5 88.5q101 0 160.5 -62.5t59.5 -158.5q0 -33 -6 -66h-423v-7q0 -81 41 -129t115 -48q58 0 104.5 30t69.5 79h75q-31 -72 -93 -119t-145 -51
q-79 -43 -79 -104q0 -39 38 -39q8 0 15.5 2t14 6t11 7t8.5 6zM324 460q-75 0 -128 -46.5t-70 -121.5h351q1 11 1 19q0 67 -41.5 108t-112.5 41z" />
    <glyph glyph-name="Ecaron" unicode="&#x11a;" horiz-adv-x="636" 
d="M531 69l-15 -69h-477l163 710h477l-15 -69h-404l-57 -246h382l-16 -69h-382l-60 -257h404zM592 834l-148 -68l-126 76l14 61l119 -71l157 71z" />
    <glyph glyph-name="ecaron" unicode="&#x11b;" horiz-adv-x="592" 
d="M542 234h-423v-7q0 -81 41 -129t115 -48q58 0 104.5 30t69.5 79h75q-32 -76 -99 -123.5t-156 -47.5q-104 0 -162.5 67t-58.5 167q0 122 77.5 210.5t202.5 88.5q101 0 160.5 -62.5t59.5 -158.5q0 -33 -6 -66zM324 460q-75 0 -128 -46.5t-70 -121.5h351q1 11 1 19
q0 67 -41.5 108t-112.5 41zM499 659l-148 -68l-126 76l14 61l119 -71l157 71z" />
    <glyph glyph-name="Gcircumflex" unicode="&#x11c;" horiz-adv-x="822" 
d="M390 53q110 0 190.5 71t102.5 186h-238l15 68h308l-87 -378h-65l25 108q-94 -123 -266 -123q-141 0 -225 90.5t-84 227.5q0 178 113 300t292 122q125 0 206 -71.5t92 -190.5h-73q-10 88 -73.5 140.5t-157.5 52.5q-144 0 -233 -101t-89 -251q0 -116 67.5 -183.5
t179.5 -67.5zM361 841l148 68l127 -75l-15 -62l-119 71l-156 -71z" />
    <glyph glyph-name="gcircumflex" unicode="&#x11d;" horiz-adv-x="636" 
d="M325 521q69 0 119 -33t67 -87l25 108h70l-115 -499q-54 -229 -275 -229q-98 0 -150.5 48.5t-59.5 113.5h71q8 -45 45.5 -72t101.5 -27q156 0 197 170l15 63q-66 -77 -185 -77q-99 0 -153.5 62t-54.5 160q0 125 78 212t204 87zM480 300q0 71 -41 114t-116 43
q-92 0 -150 -67t-58 -167q0 -72 39 -115.5t113 -43.5q95 0 154 68t59 168zM244 666l148 68l127 -75l-15 -62l-119 71l-156 -71z" />
    <glyph glyph-name="Gbreve" unicode="&#x11e;" horiz-adv-x="822" 
d="M390 53q110 0 190.5 71t102.5 186h-238l15 68h308l-87 -378h-65l25 108q-94 -123 -266 -123q-141 0 -225 90.5t-84 227.5q0 178 113 300t292 122q125 0 206 -71.5t92 -190.5h-73q-10 88 -73.5 140.5t-157.5 52.5q-144 0 -233 -101t-89 -251q0 -116 67.5 -183.5
t179.5 -67.5zM494 817q39 0 65 20t34 57h59q-14 -63 -56.5 -96.5t-106.5 -33.5q-52 0 -84 26.5t-32 72.5q0 15 4 31h54l-1 -8q-1 -9 -1 -14q0 -55 65 -55z" />
    <glyph glyph-name="gbreve" unicode="&#x11f;" horiz-adv-x="636" 
d="M325 521q69 0 119 -33t67 -87l25 108h70l-115 -499q-54 -229 -275 -229q-98 0 -150.5 48.5t-59.5 113.5h71q8 -45 45.5 -72t101.5 -27q156 0 197 170l15 63q-66 -77 -185 -77q-99 0 -153.5 62t-54.5 160q0 125 78 212t204 87zM480 300q0 71 -41 114t-116 43
q-92 0 -150 -67t-58 -167q0 -72 39 -115.5t113 -43.5q95 0 154 68t59 168zM381 648q39 0 65 20t34 57h59q-14 -63 -56.5 -96.5t-106.5 -33.5q-52 0 -84 26.5t-32 72.5q0 15 4 31h54l-1 -9q-1 -8 -1 -13q0 -55 65 -55z" />
    <glyph glyph-name="Gdotaccent" unicode="&#x120;" horiz-adv-x="822" 
d="M390 53q110 0 190.5 71t102.5 186h-238l15 68h308l-87 -378h-65l25 108q-94 -123 -266 -123q-141 0 -225 90.5t-84 227.5q0 178 113 300t292 122q125 0 206 -71.5t92 -190.5h-73q-10 88 -73.5 140.5t-157.5 52.5q-144 0 -233 -101t-89 -251q0 -116 67.5 -183.5
t179.5 -67.5zM454 821q0 23 15.5 38.5t39.5 15.5q22 0 35 -13.5t13 -34.5q0 -22 -15.5 -37.5t-39.5 -15.5q-22 0 -35 13t-13 34z" />
    <glyph glyph-name="gdotaccent" unicode="&#x121;" horiz-adv-x="636" 
d="M325 521q69 0 119 -33t67 -87l25 108h70l-115 -499q-54 -229 -275 -229q-98 0 -150.5 48.5t-59.5 113.5h71q8 -45 45.5 -72t101.5 -27q156 0 197 170l15 63q-66 -77 -185 -77q-99 0 -153.5 62t-54.5 160q0 125 78 212t204 87zM480 300q0 71 -41 114t-116 43
q-92 0 -150 -67t-58 -167q0 -72 39 -115.5t113 -43.5q95 0 154 68t59 168zM344 674q0 23 15.5 38.5t39.5 15.5q22 0 35 -13.5t13 -34.5q0 -22 -15.5 -37.5t-39.5 -15.5q-22 0 -35 13t-13 34z" />
    <glyph glyph-name="Gcommaaccent" unicode="&#x122;" horiz-adv-x="822" 
d="M390 53q110 0 190.5 71t102.5 186h-238l15 68h308l-87 -378h-65l25 108q-94 -123 -266 -123q-141 0 -225 90.5t-84 227.5q0 178 113 300t292 122q125 0 206 -71.5t92 -190.5h-73q-10 88 -73.5 140.5t-157.5 52.5q-144 0 -233 -101t-89 -251q0 -116 67.5 -183.5
t179.5 -67.5zM349 -55l60 17q9 -21 9 -58q0 -46 -28 -89t-74 -66l-28 48q68 38 68 105q0 14 -4 28z" />
    <glyph glyph-name="gcommaaccent" unicode="&#x123;" horiz-adv-x="636" 
d="M325 521q69 0 119 -33t67 -87l25 108h70l-115 -499q-54 -229 -275 -229q-98 0 -150.5 48.5t-59.5 113.5h71q8 -45 45.5 -72t101.5 -27q156 0 197 170l15 63q-66 -77 -185 -77q-99 0 -153.5 62t-54.5 160q0 125 78 212t204 87zM480 300q0 71 -41 114t-116 43
q-92 0 -150 -67t-58 -167q0 -72 39 -115.5t113 -43.5q95 0 154 68t59 168zM407 607l-60 -17q-9 21 -9 58q0 46 28 89t74 66l28 -48q-68 -38 -68 -105q0 -14 4 -28z" />
    <glyph glyph-name="Hcircumflex" unicode="&#x124;" horiz-adv-x="764" 
d="M763 710l-163 -710h-73l75 326h-415l-75 -326h-73l163 710h73l-72 -315h415l72 315h73zM365 832l148 68l127 -75l-15 -62l-119 71l-156 -71z" />
    <glyph glyph-name="hcircumflex" unicode="&#x125;" horiz-adv-x="598" 
d="M269 750l-72 -314q64 85 174 85q73 0 116.5 -40.5t43.5 -114.5q0 -32 -11 -82l-66 -284h-71l71 305q7 28 7 55q0 99 -110 99q-69 0 -118 -42t-69 -127l-68 -290h-70l173 750h70zM111 831l148 68l127 -75l-15 -62l-119 71l-156 -71z" />
    <glyph glyph-name="Hbar" unicode="&#x126;" horiz-adv-x="764" 
d="M763 710l-33 -143h60l-14 -62h-60l-116 -505h-73l75 326h-415l-75 -326h-73l116 505h-60l14 62h60l33 143h73l-33 -143h415l33 143h73zM203 395h415l25 110h-415z" />
    <glyph glyph-name="hbar" unicode="&#x127;" horiz-adv-x="598" 
d="M269 750l-24 -102h167l-14 -60h-166l-35 -152q64 85 174 85q73 0 116.5 -40.5t43.5 -114.5q0 -32 -11 -82l-66 -284h-71l71 305q7 28 7 55q0 99 -110 99q-69 0 -118 -42t-69 -127l-68 -290h-70l135 588h-77l15 60h76l24 102h70z" />
    <glyph glyph-name="Itilde" unicode="&#x128;" horiz-adv-x="276" 
d="M275 710l-163 -710h-73l163 710h73zM134 769h-58q24 95 110 95q31 0 72 -21t61 -21q38 0 51 39h57q-24 -95 -110 -95q-31 0 -71.5 21t-61.5 21q-38 0 -50 -39z" />
    <glyph glyph-name="itilde" unicode="&#x129;" horiz-adv-x="246" 
d="M89 625h-58q24 95 110 95q31 0 72 -21t61 -21q38 0 51 39h57q-24 -95 -110 -95q-31 0 -71.5 21t-61.5 21q-38 0 -50 -39zM27 0l117 509h70l-117 -509h-70z" />
    <glyph glyph-name="Imacron" unicode="&#x12a;" horiz-adv-x="276" 
d="M275 710l-163 -710h-73l163 710h73zM424 830l-15 -60h-320l14 60h321z" />
    <glyph glyph-name="imacron" unicode="&#x12b;" horiz-adv-x="246" 
d="M378 697l-15 -60h-320l14 60h321zM27 0l117 509h70l-117 -509h-70z" />
    <glyph glyph-name="Ibreve" unicode="&#x12c;" horiz-adv-x="276" 
d="M275 710l-163 -710h-73l163 710h73zM252 817q39 0 65 20t34 57h59q-14 -63 -56.5 -96.5t-106.5 -33.5q-52 0 -84 26.5t-32 72.5q0 15 4 31h54l-1 -8q-1 -9 -1 -14q0 -55 65 -55z" />
    <glyph glyph-name="ibreve" unicode="&#x12d;" horiz-adv-x="246" 
d="M203 648q39 0 65 20t34 57h59q-14 -63 -56.5 -96.5t-106.5 -33.5q-52 0 -84 26.5t-32 72.5q0 15 4 31h54l-1 -9q-1 -8 -1 -13q0 -55 65 -55zM27 0l117 509h70l-117 -509h-70z" />
    <glyph glyph-name="Iogonek" unicode="&#x12e;" horiz-adv-x="276" 
d="M96 -127l21 -39q-33 -36 -86 -36q-38 0 -60.5 23.5t-22.5 58.5q0 91 97 146l157 684h73l-163 -710h-9q-37 -14 -67.5 -44.5t-30.5 -67.5q0 -39 38 -39q8 0 15.5 2t14 6t11 7t8.5 6z" />
    <glyph glyph-name="iogonek" unicode="&#x12f;" horiz-adv-x="246" 
d="M79 -127l21 -39q-33 -36 -86 -36q-38 0 -60.5 23.5t-22.5 58.5q0 92 103 150l110 479h70l-117 -509h-11q-37 -14 -67.5 -44.5t-30.5 -67.5q0 -39 38 -39q8 0 15.5 2t14 6t11 7t8.5 6zM168 682q0 22 15.5 37.5t38.5 15.5t35.5 -13t12.5 -34q0 -22 -15 -37.5t-39 -15.5
q-22 0 -35 13t-13 34z" />
    <glyph glyph-name="Idotaccent" unicode="&#x130;" horiz-adv-x="276" 
d="M275 710l-163 -710h-73l163 710h73zM209 821q0 23 15.5 38.5t39.5 15.5q22 0 35 -13.5t13 -34.5q0 -22 -15.5 -37.5t-39.5 -15.5q-22 0 -35 13t-13 34z" />
    <glyph glyph-name="dotlessi" unicode="&#x131;" horiz-adv-x="246" 
d="M27 0l117 509h70l-117 -509h-70z" />
    <glyph glyph-name="Jcircumflex" unicode="&#x134;" horiz-adv-x="596" 
d="M412 230l110 480h73l-114 -494q-52 -229 -253 -229q-90 0 -146 51.5t-56 139.5q0 19 3 39t7 30l3 10h70q-13 -37 -13 -76q0 -57 35.5 -92.5t98.5 -35.5q78 0 119.5 43t62.5 134zM442 840l148 68l127 -75l-15 -62l-119 71l-156 -71z" />
    <glyph glyph-name="jcircumflex" unicode="&#x135;" horiz-adv-x="246" 
d="M-126 -216l14 63q10 -2 22 -2q45 0 68.5 24.5t36.5 82.5l128 557h71l-130 -566q-20 -84 -62.5 -123t-116.5 -39zM77 666l148 68l127 -75l-15 -62l-119 71l-156 -71z" />
    <glyph glyph-name="Kcommaaccent" unicode="&#x136;" horiz-adv-x="693" 
d="M781 710l-368 -298l224 -412h-84l-196 366l-197 -159l-48 -207h-73l163 710h73l-92 -400l491 400h107zM276 -55l60 17q9 -21 9 -58q0 -46 -28 -89t-74 -66l-28 48q68 38 68 105q0 14 -3 28z" />
    <glyph glyph-name="kcommaaccent" unicode="&#x137;" horiz-adv-x="553" 
d="M410 0l-135 255l-148 -118q-20 -92 -31 -137h-70l172 750h71l-119 -518l337 277h102l-259 -209l158 -300h-78zM216 -55l60 17q9 -21 9 -58q0 -46 -28 -89t-74 -66l-28 48q68 38 68 105q0 14 -3 28z" />
    <glyph glyph-name="Lacute" unicode="&#x139;" horiz-adv-x="541" 
d="M483 69l-15 -69h-429l163 710h73l-148 -641h356zM321 940h78l-116 -170h-67z" />
    <glyph glyph-name="lacute" unicode="&#x13a;" horiz-adv-x="246" 
d="M97 0h-70l172 750h70zM321 980h78l-116 -170h-67z" />
    <glyph glyph-name="Lcommaaccent" unicode="&#x13b;" horiz-adv-x="541" 
d="M483 69l-15 -69h-429l163 710h73l-148 -641h356zM225 -55l60 17q9 -21 9 -58q0 -46 -28 -89t-74 -66l-28 48q68 38 68 105q0 14 -4 28z" />
    <glyph glyph-name="lcommaaccent" unicode="&#x13c;" horiz-adv-x="246" 
d="M97 0h-70l172 750h70zM9 -55l60 17q9 -21 9 -58q0 -46 -28 -89t-74 -66l-28 48q68 38 68 105q0 14 -4 28z" />
    <glyph glyph-name="Lcaron" unicode="&#x13d;" horiz-adv-x="541" 
d="M483 69l-15 -69h-429l163 710h73l-148 -641h356zM436 709l60 17q9 -21 9 -58q0 -46 -28 -89t-74 -66l-28 48q68 38 68 105q0 14 -3 28z" />
    <glyph glyph-name="lcaron" unicode="&#x13e;" horiz-adv-x="246" 
d="M97 0h-70l172 750h70zM356 740l60 17q9 -21 9 -58q0 -46 -28 -89t-74 -66l-28 48q68 38 68 105q0 14 -3 29z" />
    <glyph glyph-name="Lslash" unicode="&#x141;" horiz-adv-x="541" 
d="M483 69l-15 -69h-429l64 279l-93 -25l13 63l95 25l84 368h73l-80 -348l133 35l-14 -63l-133 -35l-54 -230h356z" />
    <glyph glyph-name="lslash" unicode="&#x142;" horiz-adv-x="246" 
d="M97 0h-70l63 277l-86 -23l14 62l86 23l95 411h70l-90 -390l86 23l-14 -62l-86 -23z" />
    <glyph glyph-name="Nacute" unicode="&#x143;" horiz-adv-x="766" 
d="M249 602l-138 -602h-72l163 710h77l276 -602l138 602h72l-162 -710h-78zM567 940h78l-116 -170h-67z" />
    <glyph glyph-name="nacute" unicode="&#x144;" horiz-adv-x="598" 
d="M211 509l-18 -78q61 90 178 90q73 0 116.5 -40.5t43.5 -114.5q0 -32 -11 -82l-66 -284h-71l71 305q7 28 7 55q0 99 -110 99q-69 0 -118 -42t-69 -127l-68 -290h-70l117 509h68zM427 759h78l-116 -170h-67z" />
    <glyph glyph-name="Ncommaaccent" unicode="&#x145;" horiz-adv-x="766" 
d="M249 602l-138 -602h-72l163 710h77l276 -602l138 602h72l-162 -710h-78zM321 -55l60 17q9 -21 9 -58q0 -46 -28 -89t-74 -66l-28 48q68 38 68 105q0 14 -4 28z" />
    <glyph glyph-name="ncommaaccent" unicode="&#x146;" horiz-adv-x="598" 
d="M211 509l-18 -78q61 90 178 90q73 0 116.5 -40.5t43.5 -114.5q0 -32 -11 -82l-66 -284h-71l71 305q7 28 7 55q0 99 -110 99q-69 0 -118 -42t-69 -127l-68 -290h-70l117 509h68zM208 -55l60 17q9 -21 9 -58q0 -46 -28 -89t-74 -66l-28 48q68 38 68 105q0 14 -3 28z" />
    <glyph glyph-name="Ncaron" unicode="&#x147;" horiz-adv-x="766" 
d="M249 602l-138 -602h-72l163 710h77l276 -602l138 602h72l-162 -710h-78zM633 832l-148 -68l-126 76l14 61l119 -71l157 71z" />
    <glyph glyph-name="ncaron" unicode="&#x148;" horiz-adv-x="598" 
d="M211 509l-18 -78q61 90 178 90q73 0 116.5 -40.5t43.5 -114.5q0 -32 -11 -82l-66 -284h-71l71 305q7 28 7 55q0 99 -110 99q-69 0 -118 -42t-69 -127l-68 -290h-70l117 509h68zM518 659l-148 -68l-126 76l14 61l119 -71l157 71z" />
    <glyph glyph-name="Eng" unicode="&#x14a;" horiz-adv-x="766" 
d="M525 0l-276 602l-138 -602h-72l163 710h77l276 -602l138 602h72l-155 -682q-23 -101 -84 -163.5t-158 -76.5l-11 62q71 12 110 47t58 103z" />
    <glyph glyph-name="eng" unicode="&#x14b;" horiz-adv-x="598" 
d="M390 31l64 274q7 28 7 55q0 99 -110 99q-69 0 -118 -42t-69 -127l-68 -290h-70l117 509h68l-18 -78q61 90 178 90q73 0 116.5 -40.5t43.5 -114.5q0 -32 -11 -82l-55 -238q-21 -91 -77 -152.5t-143 -80.5l-10 65q126 30 155 153z" />
    <glyph glyph-name="Omacron" unicode="&#x14c;" horiz-adv-x="828" 
d="M395 53q143 0 234 101.5t91 251.5q0 117 -68.5 183.5t-182.5 66.5q-143 0 -234 -101.5t-91 -250.5q0 -117 68.5 -184t182.5 -67zM388 -15q-148 0 -234.5 90t-86.5 228q0 177 115.5 299.5t293.5 122.5q148 0 234.5 -90t86.5 -228q0 -177 -115.5 -299.5t-293.5 -122.5z
M671 831l-15 -60h-320l14 60h321z" />
    <glyph glyph-name="omacron" unicode="&#x14d;" horiz-adv-x="617" 
d="M119 223q0 -76 43 -123.5t122 -47.5q94 0 154 68t60 166q0 76 -43 123.5t-122 47.5q-94 0 -154 -68t-60 -166zM48 218q0 127 81 215t210 88q105 0 167.5 -65.5t62.5 -164.5q0 -127 -81 -215t-210 -88q-105 0 -167.5 65.5t-62.5 164.5zM543 697l-15 -60h-320l14 60h321z
" />
    <glyph glyph-name="Obreve" unicode="&#x14e;" horiz-adv-x="828" 
d="M395 53q143 0 234 101.5t91 251.5q0 117 -68.5 183.5t-182.5 66.5q-143 0 -234 -101.5t-91 -250.5q0 -117 68.5 -184t182.5 -67zM388 -15q-148 0 -234.5 90t-86.5 228q0 177 115.5 299.5t293.5 122.5q148 0 234.5 -90t86.5 -228q0 -177 -115.5 -299.5t-293.5 -122.5z
M502 817q39 0 65 20t34 57h59q-14 -63 -56.5 -96.5t-106.5 -33.5q-52 0 -84 26.5t-32 72.5q0 15 4 31h54l-1 -8q-1 -9 -1 -14q0 -55 65 -55z" />
    <glyph glyph-name="obreve" unicode="&#x14f;" horiz-adv-x="617" 
d="M119 223q0 -76 43 -123.5t122 -47.5q94 0 154 68t60 166q0 76 -43 123.5t-122 47.5q-94 0 -154 -68t-60 -166zM48 218q0 127 81 215t210 88q105 0 167.5 -65.5t62.5 -164.5q0 -127 -81 -215t-210 -88q-105 0 -167.5 65.5t-62.5 164.5zM373 648q39 0 65 20t34 57h59
q-14 -63 -56.5 -96.5t-106.5 -33.5q-52 0 -84 26.5t-32 72.5q0 15 4 31h54l-1 -9q-1 -8 -1 -13q0 -55 65 -55z" />
    <glyph glyph-name="Ohungarumlaut" unicode="&#x150;" horiz-adv-x="828" 
d="M395 53q143 0 234 101.5t91 251.5q0 117 -68.5 183.5t-182.5 66.5q-143 0 -234 -101.5t-91 -250.5q0 -117 68.5 -184t182.5 -67zM388 -15q-148 0 -234.5 90t-86.5 228q0 177 115.5 299.5t293.5 122.5q148 0 234.5 -90t86.5 -228q0 -177 -115.5 -299.5t-293.5 -122.5z
M471 940h81l-124 -170h-61zM621 940h81l-125 -170h-61z" />
    <glyph glyph-name="ohungarumlaut" unicode="&#x151;" horiz-adv-x="617" 
d="M119 223q0 -76 43 -123.5t122 -47.5q94 0 154 68t60 166q0 76 -43 123.5t-122 47.5q-94 0 -154 -68t-60 -166zM48 218q0 127 81 215t210 88q105 0 167.5 -65.5t62.5 -164.5q0 -127 -81 -215t-210 -88q-105 0 -167.5 65.5t-62.5 164.5zM339 749h81l-124 -170h-61zM489 749
h81l-125 -170h-61z" />
    <glyph glyph-name="OE" unicode="&#x152;" horiz-adv-x="1239" 
d="M1132 69l-16 -69h-477l24 110q-102 -125 -275 -125q-148 0 -234.5 90t-86.5 228q0 177 115.5 299.5t293.5 122.5q111 0 186.5 -53.5t100.5 -143.5l42 182h477l-15 -69h-404l-59 -246h383l-17 -69h-382l-60 -257h404zM395 53q143 0 234 101.5t91 251.5q0 117 -68.5 183.5
t-182.5 66.5q-143 0 -234 -101.5t-91 -250.5q0 -117 68.5 -184t182.5 -67z" />
    <glyph glyph-name="oe" unicode="&#x153;" horiz-adv-x="1039" 
d="M339 521q74 0 126.5 -35t77.5 -94q38 60 97.5 94.5t135.5 34.5q101 0 160.5 -62.5t59.5 -158.5q0 -33 -6 -66h-423v-7q0 -81 41 -129t115 -48q58 0 104.5 30t69.5 79h75q-32 -76 -99 -123.5t-156 -47.5q-74 0 -125.5 35t-75.5 94q-37 -59 -98.5 -94t-139.5 -35
q-105 0 -167.5 65.5t-62.5 164.5q0 125 81 214t210 89zM284 51q93 0 153.5 69t60.5 166q0 76 -43 123.5t-122 47.5q-94 0 -154 -68.5t-60 -165.5q0 -76 43 -124t122 -48zM772 460q-75 0 -128 -46.5t-70 -121.5h351q1 11 1 19q0 67 -41.5 108t-112.5 41z" />
    <glyph glyph-name="Racute" unicode="&#x154;" horiz-adv-x="685" 
d="M575 0h-81l-98 309h-213l-71 -309h-73l163 710h265q105 0 158 -49t53 -122q0 -91 -54.5 -148.5t-154.5 -74.5zM199 379h219q82 0 134 37.5t52 116.5q0 49 -35.5 78.5t-104.5 29.5h-204zM490 940h78l-116 -170h-67z" />
    <glyph glyph-name="racute" unicode="&#x155;" horiz-adv-x="351" 
d="M391 513l-15 -67q-12 1 -25 1q-68 0 -119 -41.5t-70 -122.5l-65 -283h-71l117 509h67l-17 -77q25 32 71.5 57t110.5 25zM269 759h78l-116 -170h-67z" />
    <glyph glyph-name="Rcommaaccent" unicode="&#x156;" horiz-adv-x="685" 
d="M575 0h-81l-98 309h-213l-71 -309h-73l163 710h265q105 0 158 -49t53 -122q0 -91 -54.5 -148.5t-154.5 -74.5zM199 379h219q82 0 134 37.5t52 116.5q0 49 -35.5 78.5t-104.5 29.5h-204zM265 -55l60 17q9 -21 9 -58q0 -46 -28 -89t-74 -66l-28 48q68 38 68 105q0 14 -4 28
z" />
    <glyph glyph-name="rcommaaccent" unicode="&#x157;" horiz-adv-x="351" 
d="M391 513l-15 -67q-12 1 -25 1q-68 0 -119 -41.5t-70 -122.5l-65 -283h-71l117 509h67l-17 -77q25 32 71.5 57t110.5 25zM14 -55l60 17q9 -21 9 -58q0 -46 -28 -89t-74 -66l-28 48q68 38 68 105q0 14 -3 28z" />
    <glyph glyph-name="Rcaron" unicode="&#x158;" horiz-adv-x="685" 
d="M575 0h-81l-98 309h-213l-71 -309h-73l163 710h265q105 0 158 -49t53 -122q0 -91 -54.5 -148.5t-154.5 -74.5zM199 379h219q82 0 134 37.5t52 116.5q0 49 -35.5 78.5t-104.5 29.5h-204zM582 832l-148 -68l-126 76l14 61l119 -71l157 71z" />
    <glyph glyph-name="rcaron" unicode="&#x159;" horiz-adv-x="351" 
d="M391 513l-15 -67q-12 1 -25 1q-68 0 -119 -41.5t-70 -122.5l-65 -283h-71l117 509h67l-17 -77q25 32 71.5 57t110.5 25zM397 659l-148 -68l-126 76l14 61l119 -71l157 71z" />
    <glyph glyph-name="Sacute" unicode="&#x15a;" horiz-adv-x="623" 
d="M265 52q89 0 145.5 36.5t56.5 107.5q0 47 -33.5 77t-81.5 48t-96 37.5t-81.5 58.5t-33.5 98q0 100 72.5 155t180.5 55q101 0 166.5 -53t65.5 -146l-2 -31h-70q1 8 1 22q0 65 -46.5 103.5t-122.5 38.5q-72 0 -120.5 -35t-48.5 -101q0 -44 34 -73t82 -46.5t96 -38t82 -61
t34 -100.5q0 -73 -41.5 -123.5t-103.5 -72.5t-139 -22q-111 0 -178 52.5t-67 146.5l1 30h72q-1 -6 -1 -21q0 -67 47 -104.5t130 -37.5zM494 940h78l-116 -170h-67z" />
    <glyph glyph-name="sacute" unicode="&#x15b;" horiz-adv-x="485" 
d="M191 -12q-91 0 -135.5 44t-44.5 109l1 18h69q-1 -6 -1 -15q0 -44 30 -69.5t91 -25.5q67 0 101 27t34 69q0 29 -24 48t-59 30.5t-69.5 26t-58.5 43.5t-24 72q0 73 54 114.5t135 41.5q85 0 131 -40.5t46 -103.5l-1 -18h-69q1 9 1 17q0 37 -28 60t-85 23q-52 0 -84 -24.5
t-32 -62.5q0 -29 24.5 -48.5t59 -32t69 -27t59 -44t24.5 -73.5q0 -75 -60 -117t-154 -42zM393 759h78l-116 -170h-67z" />
    <glyph glyph-name="Scircumflex" unicode="&#x15c;" horiz-adv-x="623" 
d="M265 52q89 0 145.5 36.5t56.5 107.5q0 47 -33.5 77t-81.5 48t-96 37.5t-81.5 58.5t-33.5 98q0 100 72.5 155t180.5 55q101 0 166.5 -53t65.5 -146l-2 -31h-70q1 8 1 22q0 65 -46.5 103.5t-122.5 38.5q-72 0 -120.5 -35t-48.5 -101q0 -44 34 -73t82 -46.5t96 -38t82 -61
t34 -100.5q0 -73 -41.5 -123.5t-103.5 -72.5t-139 -22q-111 0 -178 52.5t-67 146.5l1 30h72q-1 -6 -1 -21q0 -67 47 -104.5t130 -37.5zM295 831l148 68l127 -75l-15 -62l-119 71l-156 -71z" />
    <glyph glyph-name="scircumflex" unicode="&#x15d;" horiz-adv-x="485" 
d="M191 -12q-91 0 -135.5 44t-44.5 109l1 18h69q-1 -6 -1 -15q0 -44 30 -69.5t91 -25.5q67 0 101 27t34 69q0 29 -24 48t-59 30.5t-69.5 26t-58.5 43.5t-24 72q0 73 54 114.5t135 41.5q85 0 131 -40.5t46 -103.5l-1 -18h-69q1 9 1 17q0 37 -28 60t-85 23q-52 0 -84 -24.5
t-32 -62.5q0 -29 24.5 -48.5t59 -32t69 -27t59 -44t24.5 -73.5q0 -75 -60 -117t-154 -42zM211 666l148 68l127 -75l-15 -62l-119 71l-156 -71z" />
    <glyph glyph-name="Scedilla" unicode="&#x15e;" horiz-adv-x="623" 
d="M154 -212l32 40q19 -20 51 -20q27 0 44.5 14.5t17.5 40.5q0 18 -11 29.5t-34 11.5q-13 0 -25 -5t-17 -9l-5 -5l-32 17l46 86q-95 9 -150 60.5t-55 136.5l1 30h72q-1 -6 -1 -21q0 -67 47 -104.5t130 -37.5q89 0 145.5 36.5t56.5 107.5q0 47 -33.5 77t-81.5 48t-96 37.5
t-81.5 58.5t-33.5 98q0 100 72.5 155t180.5 55q101 0 166.5 -53t65.5 -146l-2 -31h-70q1 8 1 22q0 65 -46.5 103.5t-122.5 38.5q-72 0 -120.5 -35t-48.5 -101q0 -44 34 -73t82 -46.5t96 -38t82 -61t34 -100.5q0 -72 -40 -122t-100.5 -72t-135.5 -24l-24 -44q10 5 27 5
q37 0 57.5 -23t20.5 -57q0 -47 -32.5 -76.5t-84.5 -29.5q-24 0 -43.5 6.5t-27.5 13.5z" />
    <glyph glyph-name="scedilla" unicode="&#x15f;" horiz-adv-x="485" 
d="M82 -212l32 40q19 -20 51 -20q27 0 44.5 14.5t17.5 40.5q0 18 -11 29.5t-34 11.5q-13 0 -25 -5t-17 -9l-5 -5l-32 17l47 89q-70 9 -104.5 51t-34.5 99l1 18h69q-1 -6 -1 -15q0 -44 30 -69.5t91 -25.5q67 0 101 27t34 69q0 29 -24 48t-59 30.5t-69.5 26t-58.5 43.5t-24 72
q0 73 54 114.5t135 41.5q85 0 131 -40.5t46 -103.5l-1 -18h-69q1 9 1 17q0 37 -28 60t-85 23q-52 0 -84 -24.5t-32 -62.5q0 -29 24.5 -48.5t59 -32t69 -27t59 -44t24.5 -73.5q0 -73 -58 -115t-149 -44l-25 -46q10 5 27 5q37 0 57.5 -23t20.5 -57q0 -47 -32.5 -76.5
t-84.5 -29.5q-24 0 -43.5 6.5t-27.5 13.5z" />
    <glyph glyph-name="Scaron" unicode="&#x160;" horiz-adv-x="623" 
d="M265 52q89 0 145.5 36.5t56.5 107.5q0 47 -33.5 77t-81.5 48t-96 37.5t-81.5 58.5t-33.5 98q0 100 72.5 155t180.5 55q101 0 166.5 -53t65.5 -146l-2 -31h-70q1 8 1 22q0 65 -46.5 103.5t-122.5 38.5q-72 0 -120.5 -35t-48.5 -101q0 -44 34 -73t82 -46.5t96 -38t82 -61
t34 -100.5q0 -73 -41.5 -123.5t-103.5 -72.5t-139 -22q-111 0 -178 52.5t-67 146.5l1 30h72q-1 -6 -1 -21q0 -67 47 -104.5t130 -37.5zM564 832l-148 -68l-126 76l14 61l119 -71l157 71z" />
    <glyph glyph-name="scaron" unicode="&#x161;" horiz-adv-x="485" 
d="M191 -12q-91 0 -135.5 44t-44.5 109l1 18h69q-1 -6 -1 -15q0 -44 30 -69.5t91 -25.5q67 0 101 27t34 69q0 29 -24 48t-59 30.5t-69.5 26t-58.5 43.5t-24 72q0 73 54 114.5t135 41.5q85 0 131 -40.5t46 -103.5l-1 -18h-69q1 9 1 17q0 37 -28 60t-85 23q-52 0 -84 -24.5
t-32 -62.5q0 -29 24.5 -48.5t59 -32t69 -27t59 -44t24.5 -73.5q0 -75 -60 -117t-154 -42zM475 659l-148 -68l-126 76l14 61l119 -71l157 71z" />
    <glyph glyph-name="Tcommaaccent" unicode="&#x162;" horiz-adv-x="545" 
d="M637 710l-15 -70h-227l-148 -640h-73l147 640h-227l15 70h528zM163 -55l60 17q9 -21 9 -58q0 -46 -28 -89t-74 -66l-28 48q68 38 68 105q0 14 -4 28z" />
    <glyph glyph-name="tcommaaccent" unicode="&#x163;" horiz-adv-x="322" 
d="M246 67l-14 -64q-15 -5 -49 -5q-109 0 -109 101q0 26 7 55l68 295h-97l14 60h97l33 145h71l-33 -145h117l-14 -60h-117l-70 -303q-4 -17 -4 -34q0 -50 55 -50zM102 -55l60 17q9 -21 9 -58q0 -46 -28 -89t-74 -66l-28 48q68 38 68 105q0 14 -3 28z" />
    <glyph glyph-name="Tcaron" unicode="&#x164;" horiz-adv-x="545" 
d="M637 710l-15 -70h-227l-148 -640h-73l147 640h-227l15 70h528zM518 832l-148 -68l-126 76l14 61l119 -71l157 71z" />
    <glyph glyph-name="tcaron" unicode="&#x165;" horiz-adv-x="322" 
d="M246 67l-14 -64q-15 -5 -49 -5q-109 0 -109 101q0 26 7 55l68 295h-97l14 60h97l33 145h71l-33 -145h117l-14 -60h-117l-70 -303q-4 -17 -4 -34q0 -50 55 -50zM390 740l59 16q9 -20 9 -56q0 -44 -28 -86t-73 -64l-27 46q67 37 67 102q0 13 -3 28z" />
    <glyph glyph-name="Tbar" unicode="&#x166;" horiz-adv-x="545" 
d="M637 710l-15 -70h-227l-58 -249h141l-15 -62h-140l-76 -329h-73l75 329h-141l15 62h141l57 249h-227l15 70h528z" />
    <glyph glyph-name="tbar" unicode="&#x167;" horiz-adv-x="322" 
d="M246 67l-14 -64q-15 -5 -49 -5q-109 0 -109 101q0 26 7 55l26 112h-73l13 60h74l28 123h-97l14 60h97l33 145h71l-33 -145h117l-14 -60h-117l-29 -123h88l-14 -60h-88l-27 -120q-4 -17 -4 -34q0 -50 55 -50z" />
    <glyph glyph-name="Utilde" unicode="&#x168;" horiz-adv-x="734" 
d="M328 -15q-108 0 -174 60t-66 178q0 53 15 119l85 368h73l-88 -383q-12 -53 -12 -101q0 -87 45.5 -130.5t128.5 -43.5q102 0 161.5 61.5t87.5 184.5l95 412h73l-97 -421q-36 -155 -116 -229.5t-211 -74.5zM362 769h-58q24 95 110 95q31 0 72 -21t61 -21q38 0 51 39h57
q-24 -95 -110 -95q-31 0 -71.5 21t-61.5 21q-38 0 -50 -39z" />
    <glyph glyph-name="utilde" unicode="&#x169;" horiz-adv-x="590" 
d="M373 0l18 77q-69 -89 -176 -89q-72 0 -114.5 40.5t-42.5 113.5q0 27 12 83l65 284h71l-70 -305q-8 -32 -8 -55q0 -99 108 -99q68 0 116.5 42t67.5 126l67 291h71l-117 -509h-68zM256 625h-58q24 95 110 95q31 0 72 -21t61 -21q38 0 51 39h57q-24 -95 -110 -95
q-31 0 -71.5 21t-61.5 21q-38 0 -50 -39z" />
    <glyph glyph-name="Umacron" unicode="&#x16a;" horiz-adv-x="734" 
d="M328 -15q-108 0 -174 60t-66 178q0 53 15 119l85 368h73l-88 -383q-12 -53 -12 -101q0 -87 45.5 -130.5t128.5 -43.5q102 0 161.5 61.5t87.5 184.5l95 412h73l-97 -421q-36 -155 -116 -229.5t-211 -74.5zM652 830l-15 -60h-320l14 60h321z" />
    <glyph glyph-name="umacron" unicode="&#x16b;" horiz-adv-x="590" 
d="M373 0l18 77q-69 -89 -176 -89q-72 0 -114.5 40.5t-42.5 113.5q0 27 12 83l65 284h71l-70 -305q-8 -32 -8 -55q0 -99 108 -99q68 0 116.5 42t67.5 126l67 291h71l-117 -509h-68zM542 697l-15 -60h-320l14 60h321z" />
    <glyph glyph-name="Ubreve" unicode="&#x16c;" horiz-adv-x="734" 
d="M328 -15q-108 0 -174 60t-66 178q0 53 15 119l85 368h73l-88 -383q-12 -53 -12 -101q0 -87 45.5 -130.5t128.5 -43.5q102 0 161.5 61.5t87.5 184.5l95 412h73l-97 -421q-36 -155 -116 -229.5t-211 -74.5zM480 817q39 0 65 20t34 57h59q-14 -63 -56.5 -96.5t-106.5 -33.5
q-52 0 -84 26.5t-32 72.5q0 15 4 31h54l-1 -8q-1 -9 -1 -14q0 -55 65 -55z" />
    <glyph glyph-name="ubreve" unicode="&#x16d;" horiz-adv-x="590" 
d="M373 0l18 77q-69 -89 -176 -89q-72 0 -114.5 40.5t-42.5 113.5q0 27 12 83l65 284h71l-70 -305q-8 -32 -8 -55q0 -99 108 -99q68 0 116.5 42t67.5 126l67 291h71l-117 -509h-68zM365 648q39 0 65 20t34 57h59q-14 -63 -56.5 -96.5t-106.5 -33.5q-52 0 -84 26.5t-32 72.5
q0 15 4 31h54l-1 -9q-1 -8 -1 -13q0 -55 65 -55z" />
    <glyph glyph-name="Uring" unicode="&#x16e;" horiz-adv-x="734" 
d="M328 -15q-108 0 -174 60t-66 178q0 53 15 119l85 368h73l-88 -383q-12 -53 -12 -101q0 -87 45.5 -130.5t128.5 -43.5q102 0 161.5 61.5t87.5 184.5l95 412h73l-97 -421q-36 -155 -116 -229.5t-211 -74.5zM428 850q0 -24 13.5 -38.5t38.5 -14.5q30 0 50 21t20 52
q0 24 -13 38.5t-38 14.5q-31 0 -51 -21t-20 -52zM377 845q0 51 35 88t90 37q45 0 72 -27t27 -68q0 -51 -35 -88.5t-90 -37.5q-45 0 -72 27.5t-27 68.5z" />
    <glyph glyph-name="uring" unicode="&#x16f;" horiz-adv-x="590" 
d="M373 0l18 77q-69 -89 -176 -89q-72 0 -114.5 40.5t-42.5 113.5q0 27 12 83l65 284h71l-70 -305q-8 -32 -8 -55q0 -99 108 -99q68 0 116.5 42t67.5 126l67 291h71l-117 -509h-68zM315 685q0 -24 13.5 -38.5t38.5 -14.5q30 0 50 21t20 52q0 24 -13 38.5t-38 14.5
q-31 0 -51 -21t-20 -52zM264 680q0 51 35 88t90 37q45 0 72 -27t27 -68q0 -51 -35 -88.5t-90 -37.5q-45 0 -72 27.5t-27 68.5z" />
    <glyph glyph-name="Uhungarumlaut" unicode="&#x170;" horiz-adv-x="734" 
d="M328 -15q-108 0 -174 60t-66 178q0 53 15 119l85 368h73l-88 -383q-12 -53 -12 -101q0 -87 45.5 -130.5t128.5 -43.5q102 0 161.5 61.5t87.5 184.5l95 412h73l-97 -421q-36 -155 -116 -229.5t-211 -74.5zM462 940h81l-124 -170h-61zM612 940h81l-125 -170h-61z" />
    <glyph glyph-name="uhungarumlaut" unicode="&#x171;" horiz-adv-x="590" 
d="M373 0l18 77q-69 -89 -176 -89q-72 0 -114.5 40.5t-42.5 113.5q0 27 12 83l65 284h71l-70 -305q-8 -32 -8 -55q0 -99 108 -99q68 0 116.5 42t67.5 126l67 291h71l-117 -509h-68zM346 749h81l-124 -170h-61zM496 749h81l-125 -170h-61z" />
    <glyph glyph-name="Uogonek" unicode="&#x172;" horiz-adv-x="734" 
d="M352 -134l21 -39q-33 -36 -86 -36q-38 0 -60.5 23.5t-22.5 58.5q0 68 58 119q-80 16 -127 74.5t-47 156.5q0 53 15 119l85 368h73l-88 -383q-12 -53 -12 -101q0 -87 45.5 -130.5t128.5 -43.5q102 0 161.5 61.5t87.5 184.5l95 412h73l-97 -421q-35 -151 -112 -225.5
t-202 -78.5q-33 -17 -56.5 -44.5t-23.5 -59.5q0 -39 38 -39q8 0 15.5 2t14 6t11 7t8.5 6z" />
    <glyph glyph-name="uogonek" unicode="&#x173;" horiz-adv-x="590" 
d="M423 -127l21 -39q-33 -36 -86 -36q-38 0 -60.5 23.5t-22.5 58.5q0 96 105 151l11 46q-69 -89 -176 -89q-72 0 -114.5 40.5t-42.5 113.5q0 27 12 83l65 284h71l-70 -305q-8 -32 -8 -55q0 -99 108 -99q68 0 116.5 42t67.5 126l67 291h71l-117 -509h-11q-37 -14 -67.5 -44.5
t-30.5 -67.5q0 -39 38 -39q8 0 15.5 2t14 6t11 7t8.5 6z" />
    <glyph glyph-name="Wcircumflex" unicode="&#x174;" horiz-adv-x="1033" 
d="M593 613l-332 -613h-80l-64 710h77l44 -613h2l332 613h83l47 -614h2l328 614h84l-393 -711h-80l-48 614h-2zM489 832l148 68l127 -75l-15 -62l-119 71l-156 -71z" />
    <glyph glyph-name="wcircumflex" unicode="&#x175;" horiz-adv-x="827" 
d="M486 0l-40 418h-1l-236 -418h-74l-58 509h74l38 -423l238 423h75l40 -424l236 424h78l-296 -509h-74zM349 666l148 68l127 -75l-15 -62l-119 71l-156 -71z" />
    <glyph glyph-name="Ycircumflex" unicode="&#x176;" horiz-adv-x="615" 
d="M624 710h90l-378 -463l-56 -247h-73l58 255l-166 455h78l138 -383h2zM271 831l148 68l127 -75l-15 -62l-119 71l-156 -71z" />
    <glyph glyph-name="ycircumflex" unicode="&#x177;" horiz-adv-x="532" 
d="M24 -208l140 216l-93 501h73l74 -426l273 426h79l-468 -717h-78zM208 666l148 68l127 -75l-15 -62l-119 71l-156 -71z" />
    <glyph glyph-name="Ydieresis" unicode="&#x178;" horiz-adv-x="615" 
d="M624 710h90l-378 -463l-56 -247h-73l58 255l-166 455h78l138 -383h2zM282 806q0 22 14.5 36.5t37.5 14.5q21 0 33 -12.5t12 -32.5q0 -21 -14.5 -35.5t-36.5 -14.5t-34 12.5t-12 31.5zM430 806q0 22 14.5 36.5t36.5 14.5q21 0 33.5 -12.5t12.5 -32.5q0 -21 -15 -35.5
t-37 -14.5q-21 0 -33 12.5t-12 31.5z" />
    <glyph glyph-name="Zacute" unicode="&#x179;" horiz-adv-x="667" 
d="M712 710l-14 -63l-579 -578h449l-15 -69h-554l14 63l578 578h-441l15 69h547zM494 939h78l-116 -170h-67z" />
    <glyph glyph-name="zacute" unicode="&#x17a;" horiz-adv-x="526" 
d="M389 759h78l-116 -170h-67zM517 452l-416 -389h330l-14 -63h-426l13 57l416 389h-322l14 63h419z" />
    <glyph glyph-name="Zdotaccent" unicode="&#x17b;" horiz-adv-x="667" 
d="M712 710l-14 -63l-579 -578h449l-15 -69h-554l14 63l578 578h-441l15 69h547zM395 821q0 23 15.5 38.5t39.5 15.5q22 0 35 -13.5t13 -34.5q0 -22 -15.5 -37.5t-39.5 -15.5q-22 0 -35 13t-13 34z" />
    <glyph glyph-name="zdotaccent" unicode="&#x17c;" horiz-adv-x="526" 
d="M298 674q0 23 15.5 38.5t39.5 15.5q22 0 35 -13.5t13 -34.5q0 -22 -15.5 -37.5t-39.5 -15.5q-22 0 -35 13t-13 34zM517 452l-416 -389h330l-14 -63h-426l13 57l416 389h-322l14 63h419z" />
    <glyph glyph-name="Zcaron" unicode="&#x17d;" horiz-adv-x="667" 
d="M712 710l-14 -63l-579 -578h449l-15 -69h-554l14 63l578 578h-441l15 69h547zM584 834l-148 -68l-126 76l14 61l119 -71l157 71z" />
    <glyph glyph-name="zcaron" unicode="&#x17e;" horiz-adv-x="526" 
d="M482 659l-148 -68l-126 76l14 61l119 -71l157 71zM517 452l-416 -389h330l-14 -63h-426l13 57l416 389h-322l14 63h419z" />
    <glyph glyph-name="florin" unicode="&#x192;" 
d="M119 4l155 362h-107l27 64h107l72 167q36 83 79.5 118t106.5 35q29 0 54 -9t35 -18l11 -9l-40 -51q-20 22 -62 22q-40 0 -66.5 -24t-52.5 -85l-63 -146h109l-27 -64h-110l-163 -383q-35 -83 -78.5 -118t-107.5 -35q-29 0 -54 9t-36 18l-10 9l40 51q20 -22 62 -22
q40 0 66.5 24t52.5 85z" />
    <glyph glyph-name="Aringacute" unicode="&#x1fa;" horiz-adv-x="671" 
d="M353 843q0 46 28.5 82t75.5 43l85 136h70l-98 -143q28 -9 44 -32t16 -54q0 -51 -34.5 -88.5t-88.5 -37.5q-44 0 -71 26.5t-27 67.5zM402 849q0 -23 13.5 -37.5t38.5 -14.5q29 0 49.5 21t20.5 52q0 23 -13.5 37.5t-38.5 14.5q-29 0 -49.5 -21t-20.5 -52zM23 0h-83l455 710
h79l129 -710h-75l-30 166h-370zM419 621h-2l-247 -387h317z" />
    <glyph glyph-name="aringacute" unicode="&#x1fb;" horiz-adv-x="579" 
d="M268 677q0 46 28.5 82t75.5 43l85 136h70l-98 -143q28 -9 44 -32t16 -54q0 -51 -34.5 -88.5t-88.5 -37.5q-44 0 -71 26.5t-27 67.5zM317 683q0 -23 13.5 -37.5t38.5 -14.5q29 0 49.5 21t20.5 52q0 23 -13.5 37.5t-38.5 14.5q-29 0 -49.5 -21t-20.5 -52zM27 121
q0 83 58.5 123.5t164.5 52.5l186 21q7 28 7 49q0 93 -125 93q-130 0 -159 -102h-73q43 163 239 163q92 0 139.5 -39.5t47.5 -110.5q0 -28 -7 -59l-46 -197q-14 -59 -14 -96q0 -9 2 -19h-67q-1 5 -1 16q0 30 6 59q-67 -87 -199 -87q-75 0 -117 37.5t-42 95.5zM206 46
q84 0 137 46.5t67 111.5l13 56l-172 -21q-74 -9 -114 -34.5t-40 -79.5q0 -39 29 -59t80 -20z" />
    <glyph glyph-name="AEacute" unicode="&#x1fc;" horiz-adv-x="986" 
d="M-14 0h-89l590 710h528q-2 -8 -7.5 -32t-7.5 -37h-404l-58 -247h382q-9 -40 -16 -68h-382l-59 -258h404q-1 -4 -7 -29t-8 -39h-478l38 166h-290zM515 640l-339 -406h252l94 406h-7zM666 940h78l-116 -170h-67z" />
    <glyph glyph-name="aeacute" unicode="&#x1fd;" horiz-adv-x="968" 
d="M444 125q-38 -65 -95.5 -101t-151.5 -36q-80 0 -125 37.5t-45 95.5q0 82 59 123t164 53l186 21q7 32 7 49q0 93 -125 93q-126 0 -159 -102h-73q48 163 239 163q143 0 173 -96q78 96 206 96q101 0 160.5 -62.5t59.5 -158.5q0 -33 -6 -66h-423v-7q0 -81 41 -129t115 -48
q58 0 104.5 30t69.5 79h75q-32 -76 -99 -123.5t-156 -47.5q-77 0 -128 36.5t-73 100.5zM206 46q183 0 217 214l-175 -21q-74 -9 -112.5 -35.5t-38.5 -79.5q0 -40 33 -59t76 -19zM700 460q-75 0 -128 -46.5t-70 -121.5h351q1 11 1 19q0 67 -41.5 108t-112.5 41zM600 759h78
l-116 -170h-67z" />
    <glyph glyph-name="Oslashacute" unicode="&#x1fe;" horiz-adv-x="828" 
d="M555 940h78l-116 -170h-67zM388 -15q-126 0 -210 68l-87 -91l-37 33l88 92q-75 87 -75 216q0 177 115.5 299.5t293.5 122.5q123 0 208 -67l86 90l37 -35l-86 -90q76 -88 76 -216q0 -177 -115.5 -299.5t-293.5 -122.5zM395 53q143 0 234 101.5t91 251.5q0 97 -50 163
l-442 -463q65 -53 167 -53zM144 304q0 -97 49 -162l441 463q-66 51 -165 51q-143 0 -234 -101.5t-91 -250.5z" />
    <glyph glyph-name="oslashacute" unicode="&#x1ff;" horiz-adv-x="617" 
d="M428 759h78l-116 -170h-67zM48 218q0 127 81 215t210 88q87 0 148 -48l70 73l35 -30l-73 -76q50 -62 50 -149q0 -127 -81 -215t-210 -88q-86 0 -146 46l-60 -63q-4 3 -11.5 9.5t-13.5 11.5t-11 9l62 65q-50 61 -50 152zM119 223q0 -64 28 -105l292 305q-42 34 -106 34
q-94 0 -154 -68t-60 -166zM498 286q0 59 -28 103l-291 -305q41 -32 105 -32q94 0 154 68t60 166z" />
    <glyph glyph-name="Scommaaccent" unicode="&#x218;" horiz-adv-x="623" 
d="M265 52q89 0 145.5 36.5t56.5 107.5q0 47 -33.5 77t-81.5 48t-96 37.5t-81.5 58.5t-33.5 98q0 100 72.5 155t180.5 55q101 0 166.5 -53t65.5 -146l-2 -31h-70q1 8 1 22q0 65 -46.5 103.5t-122.5 38.5q-72 0 -120.5 -35t-48.5 -101q0 -44 34 -73t82 -46.5t96 -38t82 -61
t34 -100.5q0 -73 -41.5 -123.5t-103.5 -72.5t-139 -22q-111 0 -178 52.5t-67 146.5l1 30h72q-1 -6 -1 -21q0 -67 47 -104.5t130 -37.5zM215 -55l60 17q9 -21 9 -58q0 -46 -28 -89t-74 -66l-28 48q68 38 68 105q0 14 -4 28z" />
    <glyph glyph-name="scommaaccent" unicode="&#x219;" horiz-adv-x="485" 
d="M191 -12q-91 0 -135.5 44t-44.5 109l1 18h69q-1 -6 -1 -15q0 -44 30 -69.5t91 -25.5q67 0 101 27t34 69q0 29 -24 48t-59 30.5t-69.5 26t-58.5 43.5t-24 72q0 73 54 114.5t135 41.5q85 0 131 -40.5t46 -103.5l-1 -18h-69q1 9 1 17q0 37 -28 60t-85 23q-52 0 -84 -24.5
t-32 -62.5q0 -29 24.5 -48.5t59 -32t69 -27t59 -44t24.5 -73.5q0 -75 -60 -117t-154 -42zM147 -55l60 17q9 -21 9 -58q0 -46 -28 -89t-74 -66l-28 48q68 38 68 105q0 14 -4 28z" />
    <glyph glyph-name="circumflex" unicode="&#x2c6;" horiz-adv-x="418" 
d="M158 666l148 68l127 -75l-15 -62l-119 71l-156 -71z" />
    <glyph glyph-name="caron" unicode="&#x2c7;" horiz-adv-x="418" 
d="M433 659l-148 -68l-126 76l14 61l119 -71l157 71z" />
    <glyph glyph-name="breve" unicode="&#x2d8;" horiz-adv-x="374" 
d="M261 648q39 0 65 20t34 57h59q-14 -63 -56.5 -96.5t-106.5 -33.5q-52 0 -84 26.5t-32 72.5q0 15 4 31h54l-1 -9q-1 -8 -1 -13q0 -55 65 -55z" />
    <glyph glyph-name="dotaccent" unicode="&#x2d9;" horiz-adv-x="246" 
d="M157 674q0 23 15.5 38.5t39.5 15.5q22 0 35 -13.5t13 -34.5q0 -22 -15.5 -37.5t-39.5 -15.5q-22 0 -35 13t-13 34z" />
    <glyph glyph-name="ring" unicode="&#x2da;" horiz-adv-x="303" 
d="M180 685q0 -24 13.5 -38.5t38.5 -14.5q30 0 50 21t20 52q0 24 -13 38.5t-38 14.5q-31 0 -51 -21t-20 -52zM129 680q0 51 35 88t90 37q45 0 72 -27t27 -68q0 -51 -35 -88.5t-90 -37.5q-45 0 -72 27.5t-27 68.5z" />
    <glyph glyph-name="ogonek" unicode="&#x2db;" horiz-adv-x="271" 
d="M124 -127l21 -39q-33 -36 -86 -36q-38 0 -60.5 23.5t-22.5 58.5q0 56 37.5 98t98.5 68l22 -45q-38 -14 -69.5 -45t-31.5 -68q0 -39 38 -39q8 0 15.5 2t14 6t11 7t8.5 6z" />
    <glyph glyph-name="tilde" unicode="&#x2dc;" horiz-adv-x="421" 
d="M179 625h-58q24 95 110 95q31 0 72 -21t61 -21q38 0 51 39h57q-24 -95 -110 -95q-31 0 -71.5 21t-61.5 21q-38 0 -50 -39z" />
    <glyph glyph-name="hungarumlaut" unicode="&#x2dd;" horiz-adv-x="412" 
d="M224 749h81l-124 -170h-61zM374 749h81l-125 -170h-61z" />
    <glyph glyph-name="pi" unicode="&#x3c0;" horiz-adv-x="796" 
d="M50 356q0 158 103.5 263.5t265.5 105.5q161 0 265 -105.5t104 -263.5t-104 -263.5t-265 -105.5q-162 0 -265.5 105.5t-103.5 263.5zM111 356q0 -138 85 -226t223 -88q137 0 222 88t85 226t-85 226t-222 88q-138 0 -223 -88t-85 -226zM285 162v377h159q74 0 112 -36
t38 -95q0 -58 -38.5 -94t-111.5 -36h-97v-116h-62zM347 335h96q89 0 89 73q0 74 -89 74h-96v-147z" />
    <glyph glyph-name="Wgrave" unicode="&#x1e80;" horiz-adv-x="1033" 
d="M593 613l-332 -613h-80l-64 710h77l44 -613h2l332 613h83l47 -614h2l328 614h84l-393 -711h-80l-48 614h-2zM516 940h77l59 -170h-66z" />
    <glyph glyph-name="wgrave" unicode="&#x1e81;" horiz-adv-x="827" 
d="M486 0l-40 418h-1l-236 -418h-74l-58 509h74l38 -423l238 423h75l40 -424l236 424h78l-296 -509h-74zM366 759h77l59 -170h-66z" />
    <glyph glyph-name="Wacute" unicode="&#x1e82;" horiz-adv-x="1033" 
d="M593 613l-332 -613h-80l-64 710h77l44 -613h2l332 613h83l47 -614h2l328 614h84l-393 -711h-80l-48 614h-2zM694 940h78l-116 -170h-67z" />
    <glyph glyph-name="wacute" unicode="&#x1e83;" horiz-adv-x="827" 
d="M486 0l-40 418h-1l-236 -418h-74l-58 509h74l38 -423l238 423h75l40 -424l236 424h78l-296 -509h-74zM553 759h78l-116 -170h-67z" />
    <glyph glyph-name="Wdieresis" unicode="&#x1e84;" horiz-adv-x="1033" 
d="M593 613l-332 -613h-80l-64 710h77l44 -613h2l332 613h83l47 -614h2l328 614h84l-393 -711h-80l-48 614h-2zM500 811q0 22 14.5 36.5t37.5 14.5q21 0 33 -12.5t12 -32.5q0 -21 -14.5 -35.5t-36.5 -14.5t-34 12.5t-12 31.5zM648 811q0 22 14.5 36.5t36.5 14.5
q21 0 33.5 -12.5t12.5 -32.5q0 -21 -15 -35.5t-37 -14.5q-21 0 -33 12.5t-12 31.5z" />
    <glyph glyph-name="wdieresis" unicode="&#x1e85;" horiz-adv-x="827" 
d="M486 0l-40 418h-1l-236 -418h-74l-58 509h74l38 -423l238 423h75l40 -424l236 424h78l-296 -509h-74zM365 674q0 22 14.5 36.5t37.5 14.5q21 0 33 -12.5t12 -32.5q0 -21 -14.5 -35.5t-36.5 -14.5t-34 12.5t-12 31.5zM513 674q0 22 14.5 36.5t36.5 14.5q21 0 33.5 -12.5
t12.5 -32.5q0 -21 -15 -35.5t-37 -14.5q-21 0 -33 12.5t-12 31.5z" />
    <glyph glyph-name="Ygrave" unicode="&#x1ef2;" horiz-adv-x="615" 
d="M624 710h90l-378 -463l-56 -247h-73l58 255l-166 455h78l138 -383h2zM296 940h77l59 -170h-66z" />
    <glyph glyph-name="ygrave" unicode="&#x1ef3;" horiz-adv-x="532" 
d="M24 -208l140 216l-93 501h73l74 -426l273 426h79l-468 -717h-78zM243 759h77l59 -170h-66z" />
    <glyph glyph-name="endash" unicode="&#x2013;" horiz-adv-x="500" 
d="M507 288l-15 -67h-500l15 67h500z" />
    <glyph glyph-name="emdash" unicode="&#x2014;" horiz-adv-x="1000" 
d="M1007 288l-15 -67h-1000l15 67h1000z" />
    <glyph glyph-name="quoteleft" unicode="&#x2018;" horiz-adv-x="215" 
d="M178 511h-81l121 199h60z" />
    <glyph glyph-name="quoteright" unicode="&#x2019;" horiz-adv-x="215" 
d="M198 710h80l-120 -199h-61z" />
    <glyph glyph-name="quotesinglbase" unicode="&#x201a;" horiz-adv-x="216" 
d="M52 94h81l-121 -198h-60z" />
    <glyph glyph-name="quotedblleft" unicode="&#x201c;" horiz-adv-x="368" 
d="M331 511h-80l120 199h61zM178 511h-81l121 199h61z" />
    <glyph glyph-name="quotedblright" unicode="&#x201d;" horiz-adv-x="368" 
d="M198 710h80l-120 -199h-61zM351 710h81l-121 -199h-61z" />
    <glyph glyph-name="quotedblbase" unicode="&#x201e;" horiz-adv-x="369" 
d="M52 94h81l-121 -198h-60zM206 94h80l-120 -198h-61z" />
    <glyph glyph-name="dagger" unicode="&#x2020;" horiz-adv-x="525" 
d="M215 -80h-70l121 524h-178l15 65h178l47 201h70l-46 -201h177l-15 -65h-177z" />
    <glyph glyph-name="daggerdbl" unicode="&#x2021;" horiz-adv-x="525" 
d="M328 710h70l-46 -201h177l-15 -65h-177l-60 -258h178l-15 -65h-178l-47 -201h-70l46 201h-177l15 65h177l60 258h-178l15 65h178z" />
    <glyph glyph-name="bullet" unicode="&#x2022;" horiz-adv-x="517" 
d="M123 357q0 62 43 105t104 43q62 0 105 -43.5t43 -104.5t-43 -104t-105 -43t-104.5 43t-42.5 104z" />
    <glyph glyph-name="ellipsis" unicode="&#x2026;" horiz-adv-x="647" 
d="M275 -8q-23 0 -37 14t-14 35q0 23 16.5 39.5t40.5 16.5q23 0 37 -14t14 -35q0 -23 -16.5 -39.5t-40.5 -16.5zM492 -8q-24 0 -37.5 14t-13.5 36q0 23 16.5 39.5t40.5 16.5t37.5 -14t13.5 -36q0 -23 -16.5 -39.5t-40.5 -16.5zM58 -8q-23 0 -36.5 14t-13.5 35
q0 23 16.5 39.5t40.5 16.5q23 0 36.5 -14t13.5 -35q0 -23 -16.5 -39.5t-40.5 -16.5z" />
    <glyph glyph-name="perthousand" unicode="&#x2030;" horiz-adv-x="1301" 
d="M172 0l555 710h67l-555 -710h-67zM437 577q0 -73 -23 -142.5t-70 -117.5t-106 -48q-62 0 -94 38t-32 104q0 74 23 143.5t70 117.5t106 48q62 0 94 -38t32 -105zM378 577q0 86 -68 86q-41 0 -74 -42t-49 -99t-16 -111q0 -84 68 -84q41 0 74 41.5t49 98t16 110.5zM854 300
q0 -73 -23 -142.5t-70 -117.5t-106 -48q-62 0 -94 38t-32 104q0 74 23 143.5t70 117.5t106 48q62 0 94 -38t32 -105zM795 300q0 86 -68 86q-41 0 -74 -42t-49 -99t-16 -111q0 -84 68 -84q41 0 74 41.5t49 98t16 110.5zM1215 300q0 -73 -23 -142.5t-70 -117.5t-106 -48
q-62 0 -94 38t-32 104q0 74 23 143.5t70 117.5t106 48q62 0 94 -38t32 -105zM1156 300q0 86 -68 86q-41 0 -74 -42t-49 -99t-16 -111q0 -84 68 -84q41 0 74 41.5t49 98t16 110.5z" />
    <glyph glyph-name="guilsinglleft" unicode="&#x2039;" horiz-adv-x="312" 
d="M65 263l153 207h79l-159 -215l61 -208h-70z" />
    <glyph glyph-name="guilsinglright" unicode="&#x203a;" horiz-adv-x="313" 
d="M248 253l-153 -206h-79l159 214l-62 209h71z" />
    <glyph glyph-name="fraction" unicode="&#x2044;" horiz-adv-x="383" 
d="M-96 0l555 710h67l-555 -710h-67z" />
    <glyph glyph-name="zerosuperior" unicode="&#x2070;" horiz-adv-x="394" 
d="M436 736q0 -73 -23 -142.5t-70 -117.5t-106 -48q-62 0 -94 38t-32 104q0 74 23 143.5t70 117.5t106 48q62 0 94 -38t32 -105zM377 736q0 86 -68 86q-41 0 -74 -42t-49 -99t-16 -111q0 -84 68 -84q41 0 74 41.5t49 98t16 110.5z" />
    <glyph glyph-name="foursuperior" unicode="&#x2074;" horiz-adv-x="392" 
d="M426 593l-12 -54h-58q-8 -34 -22 -102h-59q8 34 22 102h-207q5 19 10 52l270 278h61l-63 -276h58zM171 593h139l42 185z" />
    <glyph glyph-name="fivesuperior" unicode="&#x2075;" horiz-adv-x="392" 
d="M135 613l93 256h233q-8 -38 -13 -57h-179l-39 -104q28 15 65 15q55 0 86.5 -33.5t31.5 -84.5q0 -72 -48.5 -124.5t-124.5 -52.5q-63 0 -95 37.5t-32 101.5h60q0 -82 75 -82q45 0 75 34t30 81q0 31 -19.5 50.5t-51.5 19.5q-64 0 -90 -57h-57z" />
    <glyph glyph-name="sixsuperior" unicode="&#x2076;" horiz-adv-x="390" 
d="M246 428q-62 0 -96.5 36t-34.5 95q0 83 65 163.5t156 146.5h94q-124 -85 -180 -150q16 6 40 6q60 0 94 -34.5t34 -87.5q0 -73 -48 -124t-124 -51zM248 485q46 0 77.5 31t31.5 83q0 34 -20.5 53.5t-55.5 19.5q-46 0 -76 -32.5t-30 -79.5q0 -35 19 -55t54 -20z" />
    <glyph glyph-name="sevensuperior" unicode="&#x2077;" horiz-adv-x="332" 
d="M150 869h288l-11 -57q-90 -89 -146 -173.5t-104 -201.5h-64q88 215 240 375h-155l-13 -54h-60z" />
    <glyph glyph-name="eightsuperior" unicode="&#x2078;" horiz-adv-x="389" 
d="M403 572q0 -66 -46 -105t-120 -39q-62 0 -96 32.5t-34 81.5q0 91 85 127q-29 26 -29 73q0 61 42 99t107 38q56 0 90.5 -30.5t34.5 -79.5q0 -79 -72 -115q38 -30 38 -82zM167 544q0 -27 19 -43.5t55 -16.5q44 0 72 22t28 65q0 27 -19 43.5t-55 16.5q-42 0 -71 -22t-29 -65
zM222 743q0 -25 17 -40.5t48 -15.5q40 0 65.5 20t25.5 59q0 25 -18.5 41.5t-49.5 16.5q-38 0 -63 -22t-25 -59z" />
    <glyph glyph-name="ninesuperior" unicode="&#x2079;" horiz-adv-x="390" 
d="M304 879q62 0 96 -36t34 -95q0 -83 -65 -164t-156 -146h-93q127 88 180 150q-18 -6 -40 -6q-60 0 -94 34.5t-34 87.5q0 73 48 124t124 51zM301 822q-46 0 -77 -31t-31 -83q0 -34 20.5 -53.5t55.5 -19.5q46 0 75.5 32.5t29.5 79.5q0 35 -18.5 55t-54.5 20z" />
    <glyph glyph-name="zeroinferior" unicode="&#x2080;" horiz-adv-x="394" 
d="M310 139q0 -73 -23 -142.5t-70 -117.5t-106 -48q-62 0 -94 38t-32 104q0 74 23 143.5t70 117.5t106 48q62 0 94 -38t32 -105zM251 139q0 86 -68 86q-41 0 -74 -42t-49 -99t-16 -111q0 -84 68 -84q41 0 74 41.5t49 98t16 110.5z" />
    <glyph glyph-name="oneinferior" unicode="&#x2081;" horiz-adv-x="275" 
d="M175 271l-99 -431h-61l86 371h-75l10 47l91 13h48z" />
    <glyph glyph-name="twoinferior" unicode="&#x2082;" horiz-adv-x="385" 
d="M250 -160h-295l11 50l204 154q40 30 58.5 55.5t18.5 61.5q0 29 -18.5 46.5t-51.5 17.5q-45 0 -69 -29.5t-27 -79.5h-61q5 76 47 120.5t112 44.5q59 0 93.5 -33t34.5 -85q0 -89 -104 -164l-142 -102h202z" />
    <glyph glyph-name="threeinferior" unicode="&#x2083;" horiz-adv-x="387" 
d="M89 32l12 53h43q45 0 75.5 19.5t30.5 60.5q0 26 -18.5 43t-51.5 17q-42 0 -65.5 -22t-30.5 -55h-61q12 61 52.5 97t107.5 36q58 0 93 -32t35 -79q0 -85 -81 -116q39 -31 39 -85q0 -63 -47.5 -101t-111.5 -38q-61 0 -97.5 33t-36.5 91l1 14h59q-1 -4 -1 -8q0 -74 81 -74
q37 0 64 21.5t27 61.5q0 63 -71 63h-47z" />
    <glyph glyph-name="fourinferior" unicode="&#x2084;" horiz-adv-x="392" 
d="M298 -4l-12 -54h-58q-8 -34 -22 -102h-59q8 34 22 102h-206q5 28 10 52l269 277h61l-63 -275h58zM43 -4h139l42 184z" />
    <glyph glyph-name="fiveinferior" unicode="&#x2085;" horiz-adv-x="392" 
d="M9 22l93 255h233l-12 -56h-179l-40 -105q26 16 65 16q55 0 86.5 -34t31.5 -85q0 -72 -48 -124t-124 -52q-63 0 -95 38t-32 102h59q0 -35 18 -59t57 -24q46 0 75.5 34t29.5 80q0 31 -19 51t-52 20q-64 0 -90 -57h-57z" />
    <glyph glyph-name="sixinferior" unicode="&#x2086;" horiz-adv-x="390" 
d="M120 -163q-62 0 -96.5 36t-34.5 95q0 83 65 163.5t156 146.5h94q-124 -85 -180 -150q16 6 40 6q60 0 94 -34.5t34 -87.5q0 -73 -48 -124t-124 -51zM122 -106q46 0 77.5 31t31.5 83q0 34 -20.5 53.5t-55.5 19.5q-46 0 -76 -32.5t-30 -79.5q0 -35 19 -55t54 -20z" />
    <glyph glyph-name="seveninferior" unicode="&#x2087;" horiz-adv-x="332" 
d="M25 271h288l-11 -57q-90 -89 -146 -173.5t-104 -201.5h-64q88 215 240 375h-155l-13 -54h-60z" />
    <glyph glyph-name="eightinferior" unicode="&#x2088;" horiz-adv-x="389" 
d="M276 -25q0 -66 -46 -105t-120 -39q-62 0 -96 32.5t-34 81.5q0 91 85 127q-29 26 -29 73q0 61 42 99t107 38q56 0 90.5 -30.5t34.5 -79.5q0 -79 -72 -115q38 -30 38 -82zM40 -53q0 -27 19 -43.5t55 -16.5q44 0 72 22t28 65q0 27 -19 43.5t-55 16.5q-42 0 -71 -22t-29 -65z
M95 146q0 -25 17 -40.5t48 -15.5q40 0 65.5 20t25.5 59q0 25 -18.5 41.5t-49.5 16.5q-38 0 -63 -22t-25 -59z" />
    <glyph glyph-name="nineinferior" unicode="&#x2089;" horiz-adv-x="375" 
d="M168 281q62 0 96 -36t34 -95q0 -83 -65 -164t-156 -146h-93q127 88 180 150q-18 -6 -40 -6q-60 0 -94 34.5t-34 87.5q0 73 48 124t124 51zM165 224q-46 0 -77 -31t-31 -83q0 -34 20.5 -53.5t55.5 -19.5q46 0 75.5 32.5t29.5 79.5q0 35 -18.5 55t-54.5 20z" />
    <glyph glyph-name="Euro" unicode="&#x20ac;" 
d="M410 253h-214q0 -101 37 -151.5t135 -50.5q36 0 71 8t52 16l17 8l-15 -71q-53 -26 -139 -26q-219 0 -230 227l-2 40h-85l13 58h76q5 50 16 89h-71l13 58h74q40 121 124 194t210 73q44 0 83 -9t55 -18l17 -9l-17 -65q-62 34 -143 34q-92 0 -155 -54.5t-98 -145.5h223
l-13 -58h-228q-9 -34 -17 -89h224z" />
    <glyph glyph-name="trademark" unicode="&#x2122;" horiz-adv-x="869" 
d="M627 529l184 181h58l-95 -410h-60l74 316l-175 -171h-4l-94 171l-74 -316h-60l95 410h52zM424 710l-13 -57h-127l-82 -353h-59l81 353h-127l14 57h313z" />
    <glyph glyph-name="minus" unicode="&#x2212;" 
d="M558 288l-16 -68h-517l16 68h517z" />
    <glyph glyph-name="approxequal" unicode="&#x2248;" 
d="M68 103l-47 39q2 3 6 8.5t17.5 19t30 24t43 19t55.5 8.5q45 0 104 -24.5t91 -24.5q30 0 56.5 13t37.5 25l12 13l46 -38q-2 -3 -6 -8.5t-17.5 -19.5t-30 -24.5t-43 -19t-55.5 -8.5q-44 0 -103 24.5t-91 24.5q-30 0 -56.5 -13t-37.5 -25zM108 276q-9 8 -26.5 22t-20.5 16
q2 3 6 8.5t18 19.5t30 24.5t43 19t56 8.5q45 0 103.5 -24.5t90.5 -24.5q30 0 56.5 12.5t37.5 25.5l12 13l46 -39q-2 -3 -6 -8.5t-17.5 -19t-29.5 -24t-43 -19t-56 -8.5q-45 0 -103.5 24.5t-90.5 24.5q-30 0 -56.5 -12.5t-37.5 -25.5z" />
    <glyph glyph-name="notequal" unicode="&#x2260;" 
d="M533 187l-16 -69h-282l-84 -118h-82l85 118h-153l16 69h183l97 134h-249l16 69h280l85 119h82l-86 -119h155l-16 -69h-185l-97 -134h251z" />
    <glyph glyph-name="lessequal" unicode="&#x2264;" 
d="M208 0l-188 254l188 255h84l-164 -221h434v-67h-434l164 -221h-84z" />
    <glyph glyph-name="greaterequal" unicode="&#x2265;" 
d="M562 254l-188 -254h-84l164 221h-434v67h434l-164 221h84z" />
    <glyph glyph-name="hyphen.cap" horiz-adv-x="396" 
d="M364 393l-16 -66h-308l16 66h308z" />
    <glyph glyph-name="exclamdown.cap" horiz-adv-x="247" 
d="M214 546l-114 -546h-83l138 546h59zM265 668q0 -23 -16.5 -39.5t-40.5 -16.5t-37.5 14t-13.5 36q0 23 16.5 39.5t40.5 16.5t37.5 -14t13.5 -36z" />
    <glyph glyph-name="questiondown.cap" horiz-adv-x="519" 
d="M470 232q-3 -108 -66 -177.5t-171 -69.5q-92 0 -145.5 51t-53.5 123q0 51 19.5 92t48.5 66.5t63.5 52t64.5 48.5t51.5 56t24.5 74h73q-4 -58 -34 -103t-69 -74.5t-77 -56.5t-64.5 -64.5t-26.5 -83.5q0 -48 34 -81.5t92 -33.5q78 0 119.5 50t44.5 131h72zM411 668
q0 -23 -16 -39t-41 -16q-23 0 -37 13.5t-14 35.5q0 24 15.5 40t40.5 16q23 0 37.5 -14t14.5 -36z" />
    <glyph glyph-name="endash.cap" horiz-adv-x="500" 
d="M527 393l-15 -66h-500l15 66h500z" />
    <glyph glyph-name="emdash.cap" horiz-adv-x="1000" 
d="M1027 393l-15 -66h-1000l15 66h1000z" />
    <glyph glyph-name="periodcentered.cap" horiz-adv-x="216" 
d="M128 307q-24 0 -38.5 15t-14.5 37q0 23 16.5 39.5t40.5 16.5t38.5 -15t14.5 -37q0 -24 -16.5 -40t-40.5 -16z" />
    <glyph glyph-name="parenleft.cap" horiz-adv-x="315" 
d="M404 813q-116 -146 -182.5 -323.5t-66.5 -359.5q0 -125 38 -233h-70q-36 93 -36 233q0 183 64 364t179 319h74z" />
    <glyph glyph-name="parenright.cap" horiz-adv-x="315" 
d="M-65 -103q116 146 182.5 323t66.5 360q0 123 -38 233h70q36 -94 36 -234q0 -183 -63.5 -363t-178.5 -319h-75z" />
    <glyph glyph-name="bracketleft.cap" horiz-adv-x="301" 
d="M209 -38l-15 -65h-203l210 916h204l-15 -66h-136l-181 -785h136z" />
    <glyph glyph-name="bracketright.cap" horiz-adv-x="301" 
d="M-62 -103l15 65h134l181 785h-135l15 66h203l-211 -916h-202z" />
    <glyph glyph-name="braceleft.cap" horiz-adv-x="314" 
d="M157 -103q-51 0 -76.5 25.5t-25.5 71.5q0 18 7 51l52 224q3 11 3 20q0 34 -42 34h-23l15 63h24q51 0 63 55l57 244q30 128 156 128l49 -5l-15 -66q-19 5 -44 5q-64 0 -80 -69l-55 -240q-16 -67 -61 -91q23 -20 23 -54q0 -21 -5 -38l-51 -224q-4 -20 -4 -26q0 -43 52 -43
l46 5l-15 -66q-19 -4 -50 -4z" />
    <glyph glyph-name="braceright.cap" horiz-adv-x="314" 
d="M196 813q50 0 75.5 -25.5t25.5 -72.5q0 -23 -6 -50l-52 -224q-3 -11 -3 -21q0 -34 42 -34h23l-15 -63h-24q-51 0 -63 -54l-57 -244q-15 -65 -53 -96.5t-104 -31.5l-48 4l15 66q19 -5 43 -5q65 0 81 69l55 240q16 69 61 92q-24 18 -24 53q0 15 5 38l52 224q4 20 4 27
q0 42 -53 42l-45 -4l15 65q19 5 50 5z" />
    <glyph glyph-name="at.cap" horiz-adv-x="825" 
d="M656 130h70q-51 -70 -133 -110t-176 -40q-165 0 -257.5 93t-92.5 248q0 172 111.5 290t285.5 118q153 0 242 -82t89 -217q0 -120 -61.5 -191t-139.5 -71q-36 0 -57.5 18t-27.5 44q-46 -62 -121 -62q-63 0 -100 40t-37 109q0 94 51.5 159t132.5 65q84 0 113 -66l13 52h59
l-54 -216q-6 -28 -6 -40q0 -48 44 -48q43 0 75 32.5t45.5 77t13.5 92.5q0 118 -75.5 184.5t-201.5 66.5q-146 0 -239.5 -101.5t-93.5 -252.5q0 -137 78 -213t215 -76q75 0 136.5 28t98.5 69zM396 221q56 0 90.5 45.5t34.5 123.5q0 44 -22.5 70.5t-59.5 26.5
q-56 0 -90.5 -45.5t-34.5 -123.5q0 -44 22.5 -70.5t59.5 -26.5z" />
    <glyph glyph-name="zero.slash" 
d="M258 -15q-100 0 -154 64.5t-54 182.5q0 123 36.5 234.5t109 185t165.5 73.5q99 0 153 -64.5t54 -182.5q0 -123 -36.5 -234.5t-109 -185t-164.5 -73.5zM124 232q0 -57 14 -97l311 490q-34 32 -89 32q-70 0 -125.5 -67.5t-83 -163.5t-27.5 -194zM258 53q70 0 125.5 67.5
t83 163.5t27.5 194q0 58 -13 94l-310 -488q31 -31 87 -31z" />
    <glyph glyph-name="commaaccentcomb" horiz-adv-x="208" 
d="M16 -55l60 17q9 -21 9 -58q0 -46 -28 -89t-74 -66l-28 48q68 38 68 105q0 14 -3 28z" />
    <glyph glyph-name="zero.onum" horiz-adv-x="640" 
d="M294 54q97 0 159.5 71t62.5 172q0 79 -44.5 128.5t-126.5 49.5q-97 0 -159 -71t-62 -172q0 -80 44 -129t126 -49zM289 -12q-110 0 -175 68t-65 171q0 129 84 221.5t218 92.5q110 0 174.5 -68t64.5 -172q0 -129 -83.5 -221t-217.5 -92z" />
    <glyph glyph-name="one.onum" horiz-adv-x="349" 
d="M151 0h-71l105 458h-108l12 50l128 21h56z" />
    <glyph glyph-name="two.onum" horiz-adv-x="520" 
d="M154 322h-73q10 102 69.5 160.5t155.5 58.5q80 0 128 -44t48 -111q0 -26 -7.5 -50.5t-17 -43t-29.5 -39.5t-34.5 -33.5t-44 -32t-44 -28t-48.5 -28.5l-116 -66h298l-14 -65h-423l14 59l193 116q49 29 67 40.5t51.5 35.5t46.5 40.5t24.5 40.5t11.5 50q0 42 -29 67.5
t-79 25.5q-67 0 -105 -41t-43 -112z" />
    <glyph glyph-name="three.onum" horiz-adv-x="534" 
d="M186 182l14 65h65q69 0 116 34t47 99q0 43 -29 68t-84 25q-60 0 -98 -32.5t-49 -83.5h-75q17 86 80 135t151 49q82 0 129.5 -43t47.5 -110q0 -60 -35.5 -108.5t-95.5 -69.5q71 -35 71 -124q0 -97 -67.5 -155t-174.5 -58q-88 0 -137.5 49.5t-49.5 124.5l2 26h74
q-1 -8 -1 -22q0 -49 31 -80t88 -31q72 0 117 37.5t45 109.5q0 45 -32 70t-89 25h-61z" />
    <glyph glyph-name="four.onum" horiz-adv-x="529" 
d="M490 107l-15 -66h-92l-35 -153h-69l35 153h-321l14 60l414 427h74l-97 -421h92zM96 107h234l72 313h-1z" />
    <glyph glyph-name="five.onum" horiz-adv-x="536" 
d="M66 163l137 366h330q-2 -10 -4.5 -21t-5.5 -24.5t-5 -20.5h-270l-72 -191q57 40 125 40q81 0 126 -48.5t45 -124.5q0 -107 -72 -183.5t-187 -76.5q-86 0 -136.5 45.5t-50.5 119.5l1 23h75q-1 -8 -1 -17q0 -45 28 -74.5t89 -29.5q80 0 129.5 53.5t49.5 132.5
q0 51 -30 81.5t-82 30.5q-98 0 -147 -81h-72z" />
    <glyph glyph-name="six.onum" horiz-adv-x="541" 
d="M236 -14q-92 0 -143 54.5t-51 141.5q0 66 30 134.5t80 127.5t105 107t116 89h104q-204 -141 -282 -254q48 33 107 33q82 0 132.5 -51t50.5 -127q0 -108 -69.5 -181.5t-179.5 -73.5zM238 51q78 0 126.5 54t48.5 134q0 54 -36 86t-93 32q-76 0 -122.5 -52t-46.5 -124
q0 -58 34 -94t89 -36z" />
    <glyph glyph-name="seven.onum" horiz-adv-x="451" 
d="M74 529h416l-15 -67q-231 -224 -371 -573h-79q142 340 357 573h-254l-20 -86h-70z" />
    <glyph glyph-name="eight.onum" horiz-adv-x="544" 
d="M111 154q0 -50 35.5 -77.5t91.5 -27.5q72 0 117 38t45 105q0 49 -35.5 76t-95.5 27q-67 0 -112.5 -37t-45.5 -104zM196 455q0 -45 31 -70.5t81 -25.5q61 0 104 35t43 97q0 43 -31 70.5t-84 27.5q-62 0 -103 -35.5t-41 -98.5zM232 -14q-82 0 -137 42.5t-55 126.5
q0 62 36.5 110.5t102.5 73.5q-26 17 -40 49t-14 67q0 90 62 144.5t158 54.5q80 0 129 -45t49 -115q0 -60 -32 -104.5t-87 -67.5q32 -21 50 -55.5t18 -72.5q0 -98 -67.5 -153t-172.5 -55z" />
    <glyph glyph-name="nine.onum" horiz-adv-x="534" 
d="M294 541q92 0 143 -54.5t51 -141.5q0 -66 -30 -134.5t-80 -127.5t-105 -107t-116 -89h-104q94 66 164 126t118 128q-48 -33 -107 -33q-82 0 -132.5 51t-50.5 127q0 108 69.5 181.5t179.5 73.5zM292 476q-78 0 -126.5 -54t-48.5 -134q0 -54 36 -86t93 -32q76 0 122.5 52
t46.5 124q0 58 -34 94t-89 36z" />
    <glyph glyph-name="zero.pnum" 
d="M258 53q70 0 125.5 67.5t83 163.5t27.5 194q0 179 -134 179q-70 0 -125.5 -67.5t-83 -163.5t-27.5 -194q0 -179 134 -179zM258 -15q-100 0 -154 64.5t-54 182.5q0 123 36.5 234.5t109 185t165.5 73.5q99 0 153 -64.5t54 -182.5q0 -123 -36.5 -234.5t-109 -185
t-164.5 -73.5z" />
    <glyph glyph-name="one.pnum" horiz-adv-x="377" 
d="M329 710l-163 -710h-73l147 639h-119l11 50l140 21h57z" />
    <glyph glyph-name="two.pnum" horiz-adv-x="547" 
d="M453 0h-470l15 62l343 261q69 53 102.5 101t33.5 113q0 54 -34.5 87.5t-96.5 33.5q-82 0 -125.5 -50.5t-49.5 -134.5h-74q8 114 75 183t179 69q94 0 147.5 -52t53.5 -133q0 -82 -45 -147t-128 -126l-269 -198h359z" />
    <glyph glyph-name="three.pnum" horiz-adv-x="557" 
d="M222 330l15 66h60q85 0 140.5 35.5t55.5 110.5q0 51 -34.5 83.5t-97.5 32.5q-73 0 -116.5 -39t-53.5 -94h-73q15 89 82 144.5t168 55.5q91 0 144 -49t53 -124q0 -70 -41.5 -122t-113.5 -74q86 -44 86 -150q0 -101 -75.5 -161t-180.5 -60q-96 0 -155 50.5t-59 142.5
q0 6 1 13.5t1 9.5h71v-15q0 -66 41.5 -101t109.5 -35q70 0 121.5 41.5t51.5 115.5q0 56 -36.5 89.5t-102.5 33.5h-62z" />
    <glyph glyph-name="four.pnum" horiz-adv-x="578" 
d="M549 240l-16 -66h-92l-40 -174h-70l39 174h-355l14 62l458 474h77l-108 -470h93zM469 602h-1l-351 -362h269z" />
    <glyph glyph-name="five.pnum" horiz-adv-x="556" 
d="M82 303l150 407h366l-16 -69h-304l-81 -222q5 5 14.5 12.5t43.5 19.5t73 12q87 0 139.5 -54.5t52.5 -134.5q0 -120 -78.5 -204.5t-202.5 -84.5q-94 0 -147.5 54t-53.5 144v8h72q0 -61 34.5 -100t107.5 -39q84 0 139 63.5t55 150.5q0 59 -35.5 94.5t-94.5 35.5
q-111 0 -160 -93h-74z" />
    <glyph glyph-name="six.pnum" horiz-adv-x="562" 
d="M250 -15q-98 0 -152.5 57.5t-54.5 150.5q0 72 33.5 148t90.5 143.5t117.5 122.5t128.5 103h106q-196 -131 -310 -282q51 33 114 33q94 0 149.5 -54.5t55.5 -138.5q0 -119 -77 -201t-201 -82zM254 51q84 0 141 58t57 152q0 64 -39 100.5t-105 36.5q-85 0 -138 -58.5
t-53 -146.5q0 -65 35.5 -103.5t101.5 -38.5z" />
    <glyph glyph-name="seven.pnum" horiz-adv-x="499" 
d="M100 710h475q-5 -27 -14 -67q-135 -141 -227 -294t-167 -349h-79q143 371 380 643h-312l-22 -94h-70z" />
    <glyph glyph-name="eight.pnum" horiz-adv-x="564" 
d="M514 217q0 -106 -74 -169t-192 -63q-99 0 -152.5 51.5t-53.5 128.5q0 75 42 130t118 83q-65 40 -65 128q0 96 67.5 157.5t171.5 61.5q88 0 142.5 -49t54.5 -122q0 -66 -37 -118.5t-103 -77.5q38 -19 59.5 -57.5t21.5 -83.5zM502 550q0 47 -34.5 78.5t-94.5 31.5
q-71 0 -118.5 -42t-47.5 -112q0 -47 33 -78t91 -31q73 0 122 39.5t49 113.5zM253 50q81 0 134 42.5t53 123.5q0 51 -36 83.5t-102 32.5q-78 0 -131.5 -42.5t-53.5 -122.5q0 -52 35 -84.5t101 -32.5z" />
    <glyph glyph-name="nine.pnum" horiz-adv-x="562" 
d="M358 725q98 0 152.5 -57.5t54.5 -150.5q0 -72 -33.5 -148t-90.5 -143.5t-117.5 -122.5t-128.5 -103h-106q196 131 310 282q-51 -33 -114 -33q-94 0 -149.5 54.5t-55.5 138.5q0 119 77 201t201 82zM354 659q-84 0 -141 -58t-57 -152q0 -64 39 -100.5t105 -36.5
q85 0 138 58.5t53 146.5q0 65 -35.5 103.5t-101.5 38.5z" />
    <glyph glyph-name="zero.dnom" horiz-adv-x="394" 
d="M356 298q0 -73 -23 -142.5t-70 -117.5t-106 -48q-62 0 -94 38t-32 104q0 74 23 143.5t70 117.5t106 48q62 0 94 -38t32 -105zM297 298q0 86 -68 86q-41 0 -74 -42t-49 -99t-16 -111q0 -84 68 -84q41 0 74 41.5t49 98t16 110.5z" />
    <glyph glyph-name="one.dnom" horiz-adv-x="275" 
d="M224 431l-99 -431h-61l86 371h-74l9 47l91 13h48z" />
    <glyph glyph-name="two.dnom" horiz-adv-x="385" 
d="M304 0h-295l11 50l204 154q40 30 58.5 55.5t18.5 61.5q0 29 -18.5 46.5t-51.5 17.5q-45 0 -69 -29.5t-27 -79.5h-61q5 76 47 120.5t112 44.5q59 0 93.5 -33t34.5 -85q0 -89 -104 -164l-142 -102h202z" />
    <glyph glyph-name="three.dnom" horiz-adv-x="387" 
d="M134 192l12 53h43q45 0 75.5 19.5t30.5 60.5q0 26 -18.5 43t-51.5 17q-42 0 -65.5 -22t-30.5 -55h-61q12 61 52.5 97t107.5 36q58 0 93 -32t35 -79q0 -85 -81 -116q39 -32 39 -85q0 -63 -47.5 -101t-111.5 -38q-61 0 -97.5 33t-36.5 91l1 14h59q-1 -4 -1 -8q0 -74 81 -74
q37 0 64 21.5t27 61.5q0 63 -71 63h-47z" />
    <glyph glyph-name="four.dnom" horiz-adv-x="392" 
d="M345 155l-12 -54h-58q-12 -60 -22 -101h-58q12 60 22 101h-207l9 52l270 278h62l-63 -276h57zM91 155h139q5 23 42 185z" />
    <glyph glyph-name="five.dnom" horiz-adv-x="392" 
d="M46 174l94 255h232l-12 -56h-179l-40 -105q24 15 65 15q56 0 87.5 -33.5t31.5 -84.5q0 -72 -48.5 -124t-124.5 -52q-62 0 -95 38t-33 101h60q0 -36 18 -59.5t58 -23.5q45 0 74.5 34t29.5 81q0 31 -19 51t-52 20q-60 0 -90 -57h-57z" />
    <glyph glyph-name="six.dnom" horiz-adv-x="390" 
d="M163 -11q-62 0 -96.5 36t-34.5 95q0 83 65 163.5t156 146.5h94q-124 -85 -180 -150q16 6 40 6q60 0 94 -34.5t34 -87.5q0 -73 -48 -124t-124 -51zM165 46q46 0 77.5 31t31.5 83q0 34 -20.5 53.5t-55.5 19.5q-46 0 -76 -32.5t-30 -79.5q0 -35 19 -55t54 -20z" />
    <glyph glyph-name="seven.dnom" horiz-adv-x="332" 
d="M69 431h288l-11 -57q-90 -89 -146 -173.5t-104 -201.5h-64q88 215 240 375h-155l-13 -54h-60z" />
    <glyph glyph-name="eight.dnom" horiz-adv-x="389" 
d="M322 135q0 -66 -46 -105t-120 -39q-62 0 -96 32.5t-34 81.5q0 91 85 127q-29 26 -29 73q0 61 42 99t107 38q56 0 90.5 -30.5t34.5 -79.5q0 -79 -72 -115q38 -30 38 -82zM86 107q0 -27 19 -43.5t55 -16.5q44 0 72 22t28 65q0 27 -19 43.5t-55 16.5q-42 0 -71 -22t-29 -65z
M141 306q0 -25 17 -40.5t48 -15.5q40 0 65.5 20t25.5 59q0 25 -18.5 41.5t-49.5 16.5q-38 0 -63 -22t-25 -59z" />
    <glyph glyph-name="nine.dnom" horiz-adv-x="390" 
d="M221 441q62 0 96 -36t34 -95q0 -83 -65 -164t-156 -146h-93q127 88 180 150q-18 -6 -40 -6q-60 0 -94 34.5t-34 87.5q0 73 48 124t124 51zM218 384q-46 0 -77 -31t-31 -83q0 -34 20.5 -53.5t55.5 -19.5q46 0 75.5 32.5t29.5 79.5q0 35 -18.5 55t-54.5 20z" />
    <glyph glyph-name="zero.numerator" horiz-adv-x="394" 
d="M408 577q0 -116 -56 -212t-144 -96q-62 0 -94 37.5t-32 104.5q0 116 56 212.5t144 96.5q62 0 94 -38.5t32 -104.5zM349 577q0 86 -68 86q-61 0 -100.5 -82.5t-39.5 -170.5q0 -84 69 -84q41 0 74 41.5t49 98.5t16 111z" />
    <glyph glyph-name="one.numerator" horiz-adv-x="275" 
d="M278 710l-99 -432h-61l86 372h-74l9 46l91 14h48z" />
    <glyph glyph-name="two.numerator" horiz-adv-x="385" 
d="M355 278h-295l11 50l204 154q40 30 58.5 55.5t18.5 61.5q0 29 -18.5 46.5t-51.5 17.5q-89 0 -96 -109h-61q5 76 47 120.5t112 44.5q59 0 93.5 -32.5t34.5 -85.5q0 -89 -104 -164l-142 -102h202z" />
    <glyph glyph-name="three.numerator" horiz-adv-x="387" 
d="M202 470l12 53h43q45 0 75.5 19.5t30.5 60.5q0 26 -18.5 43t-51.5 17q-42 0 -65.5 -22t-30.5 -55h-61q12 61 52.5 97t107.5 36q58 0 93 -32t35 -79q0 -85 -81 -116q39 -32 39 -85q0 -63 -47.5 -101t-111.5 -38q-61 0 -97.5 33t-36.5 91l1 14h59q-1 -4 -1 -8q0 -74 81 -74
q37 0 64 21.5t27 61.5q0 63 -71 63h-47z" />
    <glyph glyph-name="four.numerator" horiz-adv-x="392" 
d="M403 434l-12 -54h-58q-8 -34 -22 -102h-59q8 34 22 102h-207q5 19 10 52l270 278h61l-63 -276h58zM148 434h139l42 185z" />
    <glyph glyph-name="five.numerator" horiz-adv-x="392" 
d="M108 454l93 256h233l-12 -57h-179q-7 -17 -20 -52t-20 -52q28 15 65 15q55 0 86.5 -33.5t31.5 -84.5q0 -72 -48 -124.5t-124 -52.5q-64 0 -96 37.5t-32 101.5h60q0 -35 17.5 -58.5t57.5 -23.5q46 0 75.5 34t29.5 81q0 31 -19.5 50.5t-51.5 19.5q-64 0 -90 -57h-57z" />
    <glyph glyph-name="six.numerator" horiz-adv-x="390" 
d="M215 269q-62 0 -96 36t-34 95q0 83 65 164t156 146h93q-127 -88 -180 -150q18 6 40 6q60 0 94 -34.5t34 -87.5q0 -73 -48 -124t-124 -51zM218 326q46 0 77 31t31 83q0 34 -20.5 53.5t-55.5 19.5q-46 0 -75.5 -32.5t-29.5 -79.5q0 -35 18.5 -55t54.5 -20z" />
    <glyph glyph-name="seven.numerator" horiz-adv-x="332" 
d="M131 710h288l-11 -57q-90 -89 -146 -173.5t-104 -201.5h-64q88 215 240 375h-155l-13 -54h-60z" />
    <glyph glyph-name="eight.numerator" horiz-adv-x="389" 
d="M375 413q0 -67 -46 -106t-119 -39q-62 0 -96 32.5t-34 81.5q0 90 84 128q-29 28 -29 73q0 60 42.5 98.5t107.5 38.5q56 0 90 -31t34 -79q0 -79 -72 -116q38 -29 38 -81zM139 384q0 -27 19.5 -43.5t55.5 -16.5q44 0 72 22t28 65q0 27 -19 44t-55 17q-43 0 -72 -22.5
t-29 -65.5zM195 584q0 -25 16.5 -40.5t47.5 -15.5q39 0 65 20t26 58q0 26 -18 42t-50 16q-38 0 -62.5 -21.5t-24.5 -58.5z" />
    <glyph glyph-name="nine.numerator" horiz-adv-x="390" 
d="M280 719q62 0 96 -36t34 -95q0 -83 -65 -164t-156 -146h-93q124 86 180 150q-24 -6 -40 -6q-60 0 -94 34.5t-34 88.5q0 73 48 123.5t124 50.5zM277 662q-46 0 -77 -31t-31 -83q0 -34 20.5 -53.5t55.5 -19.5q46 0 75.5 33t29.5 80q0 35 -18.5 54.5t-54.5 19.5z" />
    <glyph glyph-name="Euro.oldstyle" horiz-adv-x="565" 
d="M131 201v15h-84l13 59h74q5 47 16 90h-69l13 59h74q38 103 113.5 166t187.5 63q40 0 76 -7.5t52 -14.5l16 -7l-15 -67q-57 30 -136 30q-147 0 -218 -163h223l-13 -59h-231q-14 -44 -19 -90h229q-3 -15 -14 -59h-218q0 -166 152 -166q33 0 66.5 8.5t50.5 16.5l18 8
q-9 -42 -16 -71q-49 -26 -134 -26q-105 0 -155 58.5t-52 156.5z" />
    <glyph glyph-name="dollar.oldstyle" horiz-adv-x="588" 
d="M180 -124l26 116q-81 11 -130.5 58t-49.5 124q0 30 2 38h71q-2 -17 -2 -34q0 -50 33.5 -81.5t90.5 -38.5l57 245q-65 26 -102.5 62.5t-37.5 101.5q0 87 62.5 136.5t157.5 49.5l25 106h49l-26 -110q70 -12 112 -57.5t42 -121.5l-2 -37h-67q2 18 2 31q0 48 -27.5 79
t-74.5 41l-52 -228q149 -55 149 -169q0 -100 -66 -149t-167 -49l-26 -113h-49zM417 180q0 65 -94 106l-53 -230q68 3 107.5 34.5t39.5 89.5zM207 470q0 -64 87 -98l49 216q-57 -2 -96.5 -32.5t-39.5 -85.5z" />
    <glyph glyph-name="cent.oldstyle" horiz-adv-x="559" 
d="M326 564l22 96h50q-3 -16 -11.5 -50t-11.5 -51q68 -14 106.5 -62.5t44.5 -113.5h-69q-13 97 -97 113l-82 -358q59 0 102 32t62 85h69q-30 -87 -94 -133.5t-154 -46.5q-16 -70 -22 -94h-50q16 66 23 100q-71 16 -110.5 73.5t-39.5 133.5q0 109 72 192t190 84zM133 286
q0 -55 25 -92.5t71 -49.5l82 356q-74 -4 -126 -63t-52 -151z" />
    <glyph glyph-name="sterling.oldstyle" horiz-adv-x="566" 
d="M40 -16q-18 24 -33 48q20 23 61 39q37 28 56 45.5t35.5 48.5t16.5 68q0 12 -1 18h-105l14 60h82q-19 95 -19 130q0 93 63 151.5t163 58.5q83 0 135 -46t52 -123q0 -14 -2 -29.5t-4 -23.5l-2 -8h-70q8 26 8 54q0 49 -33.5 79.5t-90.5 30.5q-67 0 -108.5 -40.5
t-41.5 -110.5q0 -28 18 -123h179l-15 -60h-158l-2 -24q-7 -89 -59 -138q25 -3 77.5 -21t85.5 -18t61.5 15.5t40.5 31.5l13 16l43 -45q-58 -84 -167 -84q-37 0 -100.5 21.5t-96.5 21.5q-23 0 -47 -10.5t-37 -21.5z" />
    <glyph glyph-name="florin.oldstyle" horiz-adv-x="449" 
d="M95 324q18 42 26 63h107l50 115q35 81 78.5 116t107.5 35q28 0 52.5 -8.5t35.5 -17.5l11 -9l-41 -50q-20 21 -61 21q-13 0 -24 -2t-21 -8t-17.5 -11t-16.5 -18t-14 -21.5t-15 -28.5t-15 -31.5t-17 -38.5t-19 -43h109q-8 -21 -26 -63h-109l-148 -346q-35 -82 -77.5 -115
t-109.5 -33q-27 0 -51 9t-34 17l-11 9q28 34 41 51q21 -21 60 -21q43 0 69.5 27t53.5 91l132 311h-106z" />
    <glyph glyph-name="yen.oldstyle" horiz-adv-x="512" 
d="M106 654h76l91 -276h2l218 276h85l-267 -328h124l-14 -58h-133l-17 -75h133l-13 -56h-133l-31 -137h-73l32 137h-133l14 56h132l17 75h-133l14 58h123z" />
    <glyph glyph-name="zero.onumtab" horiz-adv-x="552" 
d="M506 319q0 -79 -29 -153t-90.5 -126t-142.5 -52q-97 0 -150 59.5t-53 162.5q0 79 29 153t90.5 126t142.5 52q97 0 150 -60t53 -162zM433 320q0 69 -32 112.5t-98 43.5q-57 0 -102 -43.5t-66 -103t-21 -120.5q0 -69 32 -112.5t99 -43.5q84 0 136 85t52 182z" />
    <glyph glyph-name="one.onumtab" horiz-adv-x="552" 
d="M454 64l-15 -64h-424l15 64h175l91 394h-159l11 50l180 21h58l-107 -465h175z" />
    <glyph glyph-name="two.onumtab" horiz-adv-x="552" 
d="M163 322h-73q10 102 69.5 160.5t155.5 58.5q80 0 128 -44t48 -111q0 -26 -7.5 -50.5t-17 -43t-29.5 -39.5t-34.5 -33.5t-44 -32t-44 -28t-48.5 -28.5l-116 -66h298l-14 -65h-423l14 59l193 116q49 29 67 40.5t51.5 35.5t46.5 40.5t24.5 40.5t11.5 50q0 42 -29 67.5
t-79 25.5q-67 0 -105 -41t-43 -112z" />
    <glyph glyph-name="three.onumtab" horiz-adv-x="552" 
d="M194 182l15 65h65q68 0 115 34t47 99q0 43 -29 68t-84 25q-60 0 -98 -32.5t-49 -83.5h-75q17 86 80 135t151 49q82 0 129.5 -43t47.5 -110q0 -60 -35.5 -108.5t-95.5 -69.5q72 -35 72 -124q0 -97 -68 -155t-175 -58q-88 0 -137.5 49.5t-49.5 124.5l2 26h74q-1 -8 -1 -22
q0 -49 31 -80t88 -31q73 0 117.5 37.5t44.5 109.5q0 45 -32 70t-89 25h-61z" />
    <glyph glyph-name="four.onumtab" horiz-adv-x="552" 
d="M511 107l-15 -66h-111l-35 -153h-68l35 153h-321l13 60l415 427h74l-97 -421h110zM98 107h234l72 313h-1z" />
    <glyph glyph-name="five.onumtab" horiz-adv-x="552" 
d="M68 163l137 366h330q-2 -10 -4.5 -21t-5.5 -24.5t-5 -20.5h-270l-72 -191q57 40 125 40q81 0 126 -48.5t45 -124.5q0 -107 -72 -183.5t-187 -76.5q-86 0 -136.5 45.5t-50.5 119.5l1 23h75q-1 -8 -1 -17q0 -45 28 -74.5t89 -29.5q80 0 129.5 53.5t49.5 132.5
q0 51 -30 81.5t-82 30.5q-98 0 -147 -81h-72z" />
    <glyph glyph-name="six.onumtab" horiz-adv-x="552" 
d="M242 -14q-92 0 -143 54.5t-51 141.5q0 66 30 134.5t80 127.5t105 107t116 89h104q-204 -141 -282 -254q48 33 107 33q82 0 132.5 -51t50.5 -127q0 -108 -69.5 -181.5t-179.5 -73.5zM244 51q78 0 126.5 54t48.5 134q0 54 -36 86t-93 32q-76 0 -122.5 -52t-46.5 -124
q0 -58 34 -94t89 -36z" />
    <glyph glyph-name="seven.onumtab" horiz-adv-x="552" 
d="M90 529h472l-15 -66q-236 -226 -370 -574h-79q130 334 355 573h-308l-21 -89h-70z" />
    <glyph glyph-name="eight.onumtab" horiz-adv-x="538" 
d="M111 154q0 -50 35.5 -77.5t91.5 -27.5q72 0 117 38t45 105q0 49 -35.5 76t-94.5 27q-67 0 -113 -37t-46 -104zM196 455q0 -45 31 -70.5t81 -25.5q61 0 104 35t43 97q0 43 -31 70.5t-84 27.5q-62 0 -103 -35.5t-41 -98.5zM233 -14q-82 0 -137.5 42.5t-55.5 126.5
q0 64 36.5 111t103.5 73q-26 17 -40 49t-14 67q0 90 61.5 144.5t157.5 54.5q81 0 130 -45t49 -115q0 -60 -32 -104.5t-88 -67.5q32 -21 50 -55.5t18 -72.5q0 -98 -67.5 -153t-171.5 -55z" />
    <glyph glyph-name="nine.onumtab" horiz-adv-x="552" 
d="M309 541q92 0 143 -54.5t51 -141.5q0 -66 -30 -134.5t-80 -127.5t-105 -107t-116 -89h-104q94 66 164 126t118 128q-48 -33 -107 -33q-82 0 -132.5 51t-50.5 127q0 108 69.5 181.5t179.5 73.5zM307 476q-78 0 -126.5 -54t-48.5 -134q0 -54 36 -86t93 -32q76 0 122.5 52
t46.5 124q0 58 -34 94t-89 36z" />
    </font>
</defs>
</svg>
